<svg version="1.1" xmlns="http://www.w3.org/2000/svg" viewBox="0 0 729 518" width="729" height="518" class="excalidraw-svg">
  <!-- svg-source:excalidraw -->
  
  <defs>
    <style class="style-fonts">
      
    </style>
    
  </defs>
  <rect x="0" y="0" width="729" height="518" fill="#ffffff"></rect><g stroke-linecap="round" transform="translate(10 10) rotate(0 354.5 249)"><path d="M32 0 C176.32 -1.2, 320.63 -0.98, 677 0 M32 0 C165.62 1.88, 299.22 2.16, 677 0 M677 0 C696.43 -0.92, 709.66 12.62, 709 32 M677 0 C699.84 -1.5, 710.83 12.13, 709 32 M709 32 C709.94 150.56, 711.48 271.17, 709 466 M709 32 C707.77 156.06, 707.48 279.85, 709 466 M709 466 C710.39 487.22, 699.02 498, 677 498 M709 466 C711.2 486.61, 699.8 497.42, 677 498 M677 498 C544.67 496.41, 412.75 495.82, 32 498 M677 498 C424.25 495.78, 171.36 495.57, 32 498 M32 498 C9.39 497.63, 0.92 488.14, 0 466 M32 498 C9.08 499.13, -0.5 487.66, 0 466 M0 466 C-1.35 309.19, -1.28 152.22, 0 32 M0 466 C0.55 374.85, 0.5 284.2, 0 32 M0 32 C1.12 9.38, 10.12 0.39, 32 0 M0 32 C-2.04 10.11, 12.47 0, 32 0" stroke="#1e1e1e" stroke-width="2" fill="none"></path></g></svg>