<svg version="1.1" xmlns="http://www.w3.org/2000/svg" viewBox="0 0 1211.290969336033 676.8791772109057" width="1211.290969336033" height="676.8791772109057" class="excalidraw-svg"><!-- svg-source:excalidraw --><metadata></metadata><defs><style class="style-fonts">
      </style></defs><rect x="0" y="0" width="1211.290969336033" height="676.8791772109057" fill="#ffffff"></rect><g stroke-linecap="round"><g transform="translate(10.673741215839982 411.042570919171) rotate(0 558.5 0)"><path d="M-0.67 0.24 C185.74 0.49, 931.34 1.01, 1117.6 0.97 M1.17 -0.68 C187.56 -0.7, 931.15 -0.98, 1116.97 -0.64" stroke="#1e1e1e" stroke-width="2" fill="none"></path></g><g transform="translate(10.673741215839982 411.042570919171) rotate(0 558.5 0)"><path d="M1093.48 7.9 C1099.2 7.12, 1105.71 4.03, 1116.97 -0.64 M1093.48 7.9 C1099.82 5.94, 1106.93 3.03, 1116.97 -0.64" stroke="#1e1e1e" stroke-width="2" fill="none"></path></g><g transform="translate(10.673741215839982 411.042570919171) rotate(0 558.5 0)"><path d="M1093.49 -9.2 C1099.13 -6.14, 1105.64 -5.37, 1116.97 -0.64 M1093.49 -9.2 C1099.91 -6.01, 1107.02 -3.77, 1116.97 -0.64" stroke="#1e1e1e" stroke-width="2" fill="none"></path></g></g><mask></mask><g stroke-linecap="round"><g transform="translate(334.67374121584 512.042570919171) rotate(0 0 -250.5)"><path d="M0.15 -0.68 C0.43 -84.53, 0.68 -418.55, 0.6 -502.04 M-1.23 1.58 C-0.96 -81.64, -0.02 -417.34, -0.03 -501.05" stroke="#1e1e1e" stroke-width="2" fill="none"></path></g><g transform="translate(334.67374121584 512.042570919171) rotate(0 0 -250.5)"><path d="M8.48 -477.55 C5.34 -481.5, 2.94 -488.03, -0.03 -501.05 M8.48 -477.55 C5.92 -483.69, 3.33 -488.24, -0.03 -501.05" stroke="#1e1e1e" stroke-width="2" fill="none"></path></g><g transform="translate(334.67374121584 512.042570919171) rotate(0 0 -250.5)"><path d="M-8.62 -477.57 C-8.15 -481.54, -6.94 -488.07, -0.03 -501.05 M-8.62 -477.57 C-6.98 -483.55, -5.38 -488.1, -0.03 -501.05" stroke="#1e1e1e" stroke-width="2" fill="none"></path></g></g><mask></mask><g stroke-linecap="round"><g transform="translate(22.673741215839982 419.042570919171) rotate(0 589 -19)"><path d="M-0.08 -0.34 C3.99 28.96, 5.95 134.62, 24.92 175.71 C43.89 216.8, 78.81 242.81, 113.74 246.2 C148.66 249.59, 201.78 239.12, 234.47 196.05 C267.16 152.98, 290.09 45.58, 309.88 -12.23 C329.67 -70.03, 336.52 -112.95, 353.2 -150.77 C369.88 -188.59, 386.75 -219.08, 409.95 -239.16 C433.15 -259.23, 465.66 -271.81, 492.38 -271.23 C519.09 -270.66, 550.63 -252.55, 570.23 -235.72 C589.84 -218.88, 597.92 -207.56, 610 -170.22 C622.08 -132.87, 632.52 -56.67, 642.72 -11.63 C652.91 33.41, 652.36 59.51, 671.16 100.02 C689.95 140.52, 719 210.03, 755.48 231.39 C791.95 252.76, 856.41 254.77, 890.01 228.21 C923.61 201.65, 938.62 132.86, 957.09 72.04 C975.56 11.22, 986.99 -88.86, 1000.84 -136.7 C1014.69 -184.54, 1020.16 -191.81, 1040.22 -214.99 C1060.28 -238.16, 1098.13 -264.2, 1121.2 -275.76 C1144.27 -287.33, 1169.29 -283.01, 1178.62 -284.38 M-1.58 -1.57 C2.36 27.4, 5.29 132.52, 24.45 173.96 C43.61 215.41, 78.36 243.23, 113.36 247.1 C148.36 250.97, 201.95 240.36, 234.45 197.19 C266.94 154.01, 288.83 45.67, 308.35 -11.95 C327.87 -69.58, 334.63 -110.53, 351.58 -148.55 C368.53 -186.57, 386.71 -219.54, 410.04 -240.06 C433.37 -260.58, 465.11 -272.22, 491.55 -271.7 C517.99 -271.18, 549.34 -253.77, 568.68 -236.95 C588.03 -220.13, 595.18 -208.53, 607.64 -170.78 C620.09 -133.03, 632.96 -55.52, 643.41 -10.45 C653.87 34.61, 651.6 59.49, 670.35 99.6 C689.11 139.72, 718.94 208.83, 755.96 230.25 C792.97 251.67, 858.95 254.58, 892.45 228.13 C925.95 201.67, 938.8 132.07, 956.94 71.5 C975.08 10.93, 987.05 -87.15, 1001.26 -135.29 C1015.48 -183.44, 1022.42 -193.95, 1042.21 -217.36 C1062 -240.78, 1097.46 -264.72, 1120.02 -275.79 C1142.58 -286.87, 1168.03 -282.22, 1177.55 -283.8" stroke="#1e1e1e" stroke-width="2" fill="none"></path></g></g><mask></mask></svg>