<svg version="1.1" xmlns="http://www.w3.org/2000/svg" viewBox="0 0 600 476.43800101080114" width="600" height="476.43800101080114" class="excalidraw-svg"><!-- svg-source:excalidraw --><metadata></metadata><defs><style class="style-fonts">
      </style></defs><rect x="0" y="0" width="600" height="476.43800101080114" fill="#ffffff"></rect><g stroke-linecap="round"><g transform="translate(14 10) rotate(0 271.5 227.5)"><path d="M0 0 C214.22 1.79, 428.13 3.74, 546 2 M0 0 C115.87 0.84, 231.09 0.72, 546 2 M546 2 C544.86 138.38, 545.53 272.64, 547 455 M546 2 C546.37 151.25, 547.02 299.49, 547 455 M547 455 C414.85 456.63, 284.46 457.19, -4 455 M547 455 C403.11 454.38, 258.98 454.23, -4 455" stroke="#1e1e1e" stroke-width="2" fill="none"></path></g></g><mask></mask><g stroke-linecap="round" transform="translate(529 171) rotate(0 30.5 76)"><path d="M-0.4 -1 L62.92 -1.89 L61.48 151.04 L1.75 152.88" stroke="none" stroke-width="0" fill="#a5d8ff"></path><path d="M0 0 C15.58 -1.1, 28.15 -0.82, 61 0 M0 0 C22.88 1.52, 45.94 0.21, 61 0 M61 0 C62 56.21, 62.94 116.02, 61 152 M61 0 C62.51 49.59, 62.56 96.86, 61 152 M61 152 C43.47 150.47, 28.05 150.53, 0 152 M61 152 C36.95 152.93, 13.81 151.01, 0 152 M0 152 C-0.83 114.27, -0.03 77.07, 0 0 M0 152 C0.17 103.01, -1.65 55.9, 0 0" stroke="#1e1e1e" stroke-width="2" fill="none"></path></g></svg>