<svg version="1.1" xmlns="http://www.w3.org/2000/svg" viewBox="0 0 665.3329671502952 569.1835903736576" width="665.3329671502952" height="569.1835903736576" class="excalidraw-svg"><!-- svg-source:excalidraw --><metadata></metadata><defs><style class="style-fonts">
      </style></defs><rect x="0" y="0" width="665.3329671502952" height="569.1835903736576" fill="#ffffff"></rect><g stroke-linecap="round"><g transform="translate(10.212838218444972 461.6396206381079) rotate(0 322 0)"><path d="M0.82 0.49 C108.43 0.68, 538.08 0.18, 645.12 0.14 M-0.21 -0.29 C107.4 0.19, 537.15 1.41, 644.76 1.76" stroke="#1e1e1e" stroke-width="2" fill="none"></path></g><g transform="translate(10.212838218444972 461.6396206381079) rotate(0 322 0)"><path d="M621.24 10.24 C628.04 9.81, 633.36 4.25, 644.76 1.76 M621.24 10.24 C628.55 6.77, 637.18 4.92, 644.76 1.76" stroke="#1e1e1e" stroke-width="2" fill="none"></path></g><g transform="translate(10.212838218444972 461.6396206381079) rotate(0 322 0)"><path d="M621.29 -6.86 C627.94 -2.99, 633.25 -4.26, 644.76 1.76 M621.29 -6.86 C628.71 -4.77, 637.32 -1.07, 644.76 1.76" stroke="#1e1e1e" stroke-width="2" fill="none"></path></g></g><mask></mask><g stroke-linecap="round"><g transform="translate(70.21283821844497 557.6396206381079) rotate(0 2.842170943040401e-14 -268)"><path d="M0.33 -0.7 C0.51 -89.97, 0.79 -445.96, 0.87 -535.35 M-0.95 1.54 C-0.85 -88.09, 0.14 -447.49, 0.38 -537.13" stroke="#1e1e1e" stroke-width="2" fill="none"></path></g><g transform="translate(70.21283821844497 557.6396206381079) rotate(0 2.842170943040401e-14 -268)"><path d="M8.87 -513.62 C5.22 -518.88, 5.03 -525.71, 0.38 -537.13 M8.87 -513.62 C7.43 -519.49, 5.75 -522.91, 0.38 -537.13" stroke="#1e1e1e" stroke-width="2" fill="none"></path></g><g transform="translate(70.21283821844497 557.6396206381079) rotate(0 2.842170943040401e-14 -268)"><path d="M-8.23 -513.66 C-6.98 -518.96, -2.26 -525.77, 0.38 -537.13 M-8.23 -513.66 C-6.03 -519.56, -4.08 -522.97, 0.38 -537.13" stroke="#1e1e1e" stroke-width="2" fill="none"></path></g></g><mask></mask><g stroke-linecap="round"><g transform="translate(70.21283821844497 464.6396206381079) rotate(0 134.75 -226.75)"><path d="M-0.71 -0.74 C43.89 -76.14, 223.73 -377.26, 268.75 -452.86 M1.12 1.48 C46.01 -74.22, 226.48 -378.82, 271.07 -454.64" stroke="#1e1e1e" stroke-width="2" fill="none"></path></g></g><mask></mask><g stroke-linecap="round"><g transform="translate(73.21283821844497 462.6396206381079) rotate(0 46.5 -73)"><path d="M-1.18 -1.03 C14.13 -25.14, 77.21 -120.94, 93.02 -145.23 M0.41 1.05 C15.46 -23.36, 76.6 -122.47, 92.08 -146.95" stroke="#1e1e1e" stroke-width="2" fill="none"></path></g></g><mask></mask></svg>