<svg version="1.1" xmlns="http://www.w3.org/2000/svg" viewBox="0 0 864.3229511583271 624" width="864.3229511583271" height="624" class="excalidraw-svg"><!-- svg-source:excalidraw --><metadata></metadata><defs><style class="style-fonts">
      </style></defs><rect x="0" y="0" width="864.3229511583271" height="624" fill="#ffffff"></rect><g stroke-linecap="round" transform="translate(250.3229511583271 10) rotate(0 302 302)"><path d="M32 0 C153.06 -1.26, 275.64 -1.5, 572 0 M32 0 C237.1 0.83, 441.12 0.56, 572 0 M572 0 C592.02 -0.65, 602.11 11.11, 604 32 M572 0 C593.61 0.12, 605.07 11.62, 604 32 M604 32 C602.47 168.62, 601.96 304.72, 604 572 M604 32 C605.92 226.56, 605.68 421.19, 604 572 M604 572 C605.95 595.29, 594.06 605.93, 572 604 M604 572 C601.95 595.54, 594.01 603.55, 572 604 M572 604 C461.29 604.46, 352.34 603.43, 32 604 M572 604 C460.46 604.86, 348.23 605.21, 32 604 M32 604 C8.98 603.47, -1.76 592.35, 0 572 M32 604 C12.56 603.73, 0.07 592.81, 0 572 M0 572 C1.12 462.31, 0.93 354.74, 0 32 M0 572 C-1.14 410.95, -1.36 250.35, 0 32 M0 32 C1.42 11.76, 12.55 0.81, 32 0 M0 32 C0.43 12.54, 11.54 -1.68, 32 0" stroke="#1e1e1e" stroke-width="2" fill="none"></path></g><g stroke-linecap="round" transform="translate(375.3229511583271 136) rotate(0 179 179)"><path d="M32 0 C128.13 1.05, 225.68 1.14, 326 0 M32 0 C144.4 -2.17, 257.57 -0.96, 326 0 M326 0 C347.42 0.48, 357.33 10.29, 358 32 M326 0 C345.24 1.51, 359.82 11.79, 358 32 M358 32 C355.25 148.22, 356.38 265.06, 358 326 M358 32 C356.48 122.68, 357.75 214.66, 358 326 M358 326 C356.14 345.41, 347.19 359.32, 326 358 M358 326 C357.37 349.2, 346.23 357.73, 326 358 M326 358 C250.14 359.39, 171.91 357.18, 32 358 M326 358 C216.69 359.29, 107.52 359.85, 32 358 M32 358 C12.05 357.07, 1.21 348.38, 0 326 M32 358 C9.41 358.43, -1.43 345.25, 0 326 M0 326 C-2.59 261.57, -3.09 195.36, 0 32 M0 326 C2.2 253.63, 2.08 183.17, 0 32 M0 32 C1.33 12.05, 11.47 1.3, 32 0 M0 32 C-1.31 12.58, 9.45 -1.22, 32 0" stroke="#1e1e1e" stroke-width="2" fill="none"></path></g><g stroke-linecap="round"><g transform="translate(292.9509839389618 148.7026931593643) rotate(0 21.071185332279953 158.7111926320433)"><path d="M-0.38 -0.83 C8.72 -0.74, 38.53 -1.01, 54.34 1.71 C70.14 4.43, 94.53 11.04, 94.44 15.46 C94.35 19.89, 69.19 25.59, 53.81 28.28 C38.43 30.97, 19.18 31.54, 2.18 31.6 C-14.81 31.66, -46.46 23.71, -48.15 28.64 C-49.84 33.57, -31.69 56.19, -7.96 61.16 C15.76 66.13, 89.47 48.34, 94.2 58.45 C98.92 68.56, 45.27 114.12, 20.39 121.79 C-4.48 129.47, -53.34 110.54, -55.05 104.51 C-56.76 98.48, -12.64 81.29, 10.13 85.64 C32.9 89.98, 79.19 118.6, 81.58 130.58 C83.96 142.57, 42.8 154.96, 24.43 157.55 C6.06 160.13, -32.16 149.11, -28.66 146.1 C-25.15 143.09, 24.47 134.92, 45.45 139.5 C66.43 144.07, 94.9 163.75, 97.21 173.53 C99.51 183.32, 74.06 194.54, 59.28 198.21 C44.49 201.89, 26.39 200.15, 8.5 195.6 C-9.39 191.04, -45.26 175.69, -48.04 170.89 C-50.82 166.1, -25.28 166.56, -8.18 166.82 C8.91 167.09, 37.78 168.08, 54.55 172.48 C71.32 176.89, 92.73 182.45, 92.44 193.26 C92.14 204.07, 75.52 228.69, 52.75 237.34 C29.99 245.98, -27.5 250.2, -44.15 245.12 C-60.8 240.04, -68.18 212.35, -47.17 206.88 C-26.16 201.41, 61.67 205.24, 81.92 212.31 C102.16 219.39, 86.55 241.35, 74.29 249.34 C62.02 257.33, 20.57 248.86, 8.3 260.26 C-3.96 271.66, 2.27 308.12, 0.69 317.74 M1.63 1.34 C10.64 2.09, 38.39 0.29, 53.69 2.84 C69 5.39, 93.35 12.3, 93.46 16.65 C93.56 21.01, 69.75 26.4, 54.31 28.99 C38.87 31.58, 17.76 32.43, 0.83 32.19 C-16.1 31.95, -45.37 22.94, -47.26 27.54 C-49.14 32.14, -33.9 54.65, -10.47 59.76 C12.95 64.87, 88.35 48.11, 93.3 58.21 C98.24 68.31, 43.73 112.77, 19.19 120.36 C-5.34 127.95, -52.36 109.41, -53.92 103.77 C-55.48 98.14, -13.04 82.17, 9.84 86.54 C32.71 90.92, 80.81 118.35, 83.32 130.01 C85.83 141.66, 43.62 153.74, 24.91 156.46 C6.2 159.19, -32.34 148.78, -28.93 146.38 C-25.51 143.97, 24.24 137.85, 45.38 142.05 C66.51 146.24, 95.76 162.58, 97.89 171.54 C100.01 180.5, 72.68 191.73, 58.13 195.8 C43.58 199.86, 28.44 200.14, 10.6 195.94 C-7.24 191.74, -45.34 175.22, -48.9 170.61 C-52.46 165.99, -28.34 168.05, -10.76 168.27 C6.81 168.49, 39.39 167.4, 56.55 171.92 C73.72 176.43, 92.82 184.06, 92.23 195.36 C91.64 206.67, 75.51 231.58, 53.03 239.75 C30.55 247.91, -25.66 249.82, -42.67 244.36 C-59.68 238.89, -69.97 212.28, -49.05 206.95 C-28.12 201.62, 62.15 205.46, 82.87 212.38 C103.6 219.3, 87.52 240.19, 75.31 248.48 C63.1 256.78, 21.99 250.94, 9.63 262.16 C-2.73 273.38, 2.75 306.69, 1.13 315.81" stroke="#1e1e1e" stroke-width="2" fill="none"></path></g></g><mask></mask><g stroke-linecap="round"><g transform="translate(22.3229511583271 146) rotate(0 134 -1)"><path d="M0.12 -0.7 C44.77 -0.9, 222.85 -2.15, 267.56 -2.2 M-1.28 1.55 C43.21 1.63, 221.53 -0.04, 266.38 -0.77" stroke="#1e1e1e" stroke-width="2" fill="none"></path></g></g><mask></mask><g stroke-linecap="round"><g transform="translate(11.182068556547165 467.3246010292554) rotate(0 134 -1)"><path d="M-1.18 0.37 C43.34 -0.18, 222.5 -2.04, 267.45 -2.39 M0.4 -0.48 C44.69 -0.94, 221.61 -1.08, 266.22 -1.05" stroke="#1e1e1e" stroke-width="2" fill="none"></path></g></g><mask></mask></svg>