<svg version="1.1" xmlns="http://www.w3.org/2000/svg" viewBox="0 0 466.9504265399929 326.48948996001195" width="466.9504265399929" height="326.48948996001195" class="excalidraw-svg"><!-- svg-source:excalidraw --><metadata></metadata><defs><style class="style-fonts">
      </style></defs><rect x="0" y="0" width="466.9504265399929" height="326.48948996001195" fill="#ffffff"></rect><g stroke-linecap="round"><g transform="translate(36 13.146332820737712) rotate(0 0 61)"><path d="M0.26 0.47 C0.53 21.15, 0.65 102.64, 0.43 123 M-1.06 -0.32 C-0.81 20.13, -0.69 101.25, -0.29 121.4" stroke="#1e1e1e" stroke-width="2" fill="none"></path></g></g><mask></mask><g stroke-linecap="round" transform="translate(10 135.1463328207377) rotate(0 25.5 25.5)"><path d="M27.35 0.82 C32.53 1, 39.77 3.39, 43.84 7.27 C47.91 11.14, 51.34 18.44, 51.77 24.07 C52.2 29.69, 49.71 36.76, 46.42 41.01 C43.12 45.26, 37.12 48.14, 31.99 49.56 C26.85 50.97, 20.4 51.72, 15.61 49.49 C10.81 47.25, 5.69 41.21, 3.21 36.14 C0.74 31.06, -0.46 24.36, 0.74 19.06 C1.94 13.76, 5.56 7.5, 10.42 4.35 C15.28 1.2, 26.31 0.72, 29.9 0.16 C33.5 -0.39, 31.95 0.63, 32 1 M18.37 0.21 C23.51 -1.2, 32.99 0.59, 38.02 3.04 C43.06 5.49, 46.71 9.8, 48.56 14.93 C50.42 20.07, 50.62 28.75, 49.17 33.86 C47.72 38.96, 44.18 42.89, 39.86 45.56 C35.55 48.23, 28.77 50.09, 23.26 49.88 C17.76 49.66, 10.6 48.2, 6.82 44.28 C3.05 40.35, 0.68 31.8, 0.62 26.32 C0.55 20.84, 3.08 15.66, 6.42 11.42 C9.77 7.19, 18.45 2.41, 20.68 0.89 C22.92 -0.62, 20.07 1.98, 19.86 2.34" stroke="#1e1e1e" stroke-width="2" fill="none"></path></g><g stroke-linecap="round"><g transform="translate(12 163.1463328207377) rotate(0 22 -1.5)"><path d="M0.92 0.45 C3.27 -0.99, 8.35 -10.07, 13.33 -8.81 C18.31 -7.56, 25.67 7.48, 30.81 7.99 C35.94 8.5, 41.78 -3.35, 44.13 -5.77 M-0.06 -0.36 C2.76 -2.08, 10.6 -11.4, 15.68 -10.31 C20.77 -9.22, 25.67 5.21, 30.46 6.17 C35.26 7.13, 42.21 -2.44, 44.45 -4.54" stroke="#1e1e1e" stroke-width="2" fill="none"></path></g></g><mask></mask><g stroke-linecap="round"><g transform="translate(35 191.1463328207377) rotate(0 0 58)"><path d="M0.27 0.41 C0.44 19.91, -0.03 96.82, 0.02 115.95 M-1.05 -0.42 C-0.95 19.38, -1.11 98.04, -0.91 117.46" stroke="#1e1e1e" stroke-width="2" fill="none"></path></g></g><mask></mask><g stroke-linecap="round"><g transform="translate(35 11.146332820737712) rotate(0 205.5 0)"><path d="M1.14 1.03 C69.37 1.23, 341.43 0.62, 409.92 0.64 M0.27 0.52 C68.83 0.42, 343.46 -0.96, 412.06 -1.15" stroke="#1e1e1e" stroke-width="2" fill="none"></path></g></g><mask></mask><g stroke-linecap="round"><g transform="translate(44.83156039438211 316.1848228526801) rotate(0 205.5 0)"><path d="M1.19 -0.04 C69.71 -0.26, 343.99 -0.88, 412.12 -0.81 M0.35 -1.11 C68.73 -1.24, 343.09 0.42, 411.76 0.3" stroke="#1e1e1e" stroke-width="2" fill="none"></path></g></g><mask></mask></svg>