<svg version="1.1" xmlns="http://www.w3.org/2000/svg" viewBox="0 0 637 637" width="637" height="637" class="excalidraw-svg"><!-- svg-source:excalidraw --><metadata></metadata><defs><style class="style-fonts">
      </style></defs><rect x="0" y="0" width="637" height="637" fill="#ffffff"></rect><g stroke-linecap="round" transform="translate(10 10) rotate(0 308.5 308.5)"><path d="M165.73 34.8 C181.98 20.66, 206.11 15.8, 227.66 10.06 C249.22 4.31, 272.86 1.28, 295.08 0.34 C317.3 -0.61, 339.21 0.48, 360.99 4.39 C382.77 8.3, 405.38 15.29, 425.77 23.78 C446.15 32.28, 465.23 42.86, 483.3 55.37 C501.36 67.87, 519.08 82.85, 534.16 98.8 C549.24 114.75, 562.54 132.19, 573.77 151.06 C585 169.94, 594.68 191.04, 601.56 212.06 C608.44 233.07, 612.81 255.03, 615.05 277.15 C617.29 299.28, 617.6 322.81, 614.98 344.82 C612.36 366.83, 606.44 388.38, 599.35 409.22 C592.26 430.05, 583.86 451.02, 572.45 469.83 C561.03 488.63, 546.53 506.22, 530.86 522.05 C515.19 537.89, 496.87 552.64, 478.43 564.83 C459.99 577.01, 440.72 587.01, 420.21 595.18 C399.7 603.35, 377.22 610.41, 355.37 613.83 C333.52 617.25, 311.08 617.09, 289.11 615.69 C267.13 614.28, 244.79 611.38, 223.53 605.4 C202.27 599.41, 181.18 590.46, 161.55 579.77 C141.93 569.09, 122.64 555.84, 105.77 541.27 C88.91 526.71, 73.33 510.1, 60.38 492.4 C47.42 474.71, 37.13 454.98, 28.04 435.1 C18.96 415.21, 10.49 394.73, 5.88 373.09 C1.26 351.45, 0.12 327.45, 0.37 305.25 C0.62 283.06, 2.58 261.43, 7.38 239.92 C12.18 218.42, 19.66 196.14, 29.16 176.23 C38.66 156.31, 50.71 137.92, 64.39 120.41 C78.08 102.91, 91.78 86.85, 111.27 71.18 C130.76 55.51, 166.57 33.91, 181.33 26.41 C196.1 18.9, 197.72 21.24, 199.86 26.15 M290.58 1.95 C310.99 -4.27, 335.64 0.13, 357.58 3.19 C379.52 6.24, 401.36 12, 422.2 20.29 C443.04 28.59, 464.2 40.28, 482.62 52.97 C501.04 65.66, 517.59 80.67, 532.7 96.44 C547.82 112.21, 561.91 128.73, 573.32 147.58 C584.74 166.43, 594.39 188.48, 601.18 209.53 C607.98 230.58, 611.83 252.08, 614.1 273.89 C616.36 295.7, 616.95 318.03, 614.77 340.4 C612.59 362.76, 608.06 386.81, 601.01 408.08 C593.97 429.34, 583.85 449.1, 572.47 467.98 C561.1 486.87, 547.99 505.47, 532.78 521.36 C517.56 537.26, 499.36 551.05, 481.19 563.34 C463.01 575.62, 444.13 586.73, 423.73 595.07 C403.32 603.41, 380.87 609.75, 358.75 613.4 C336.63 617.05, 313.1 618.4, 291.03 616.96 C268.95 615.53, 247.41 610.56, 226.31 604.79 C205.2 599.02, 184 592.3, 164.39 582.34 C144.78 572.38, 125.69 559.38, 108.65 545.03 C91.6 530.69, 75.55 513.79, 62.13 496.25 C48.71 478.7, 37.44 460.18, 28.13 439.77 C18.82 419.36, 11.1 395.37, 6.28 373.77 C1.46 352.17, -0.68 332.2, -0.79 310.17 C-0.89 288.14, 0.99 263.5, 5.66 241.61 C10.32 219.72, 17.9 198.5, 27.19 178.81 C36.48 159.13, 47.82 141.17, 61.41 123.49 C75 105.82, 91.85 87.18, 108.71 72.78 C125.57 58.38, 143.12 47.29, 162.55 37.11 C181.97 26.93, 203.62 17.8, 225.25 11.7 C246.88 5.6, 281.03 1.57, 292.33 0.5 C303.64 -0.56, 293.12 0.21, 293.07 5.33" stroke="#1e1e1e" stroke-width="2" fill="none"></path></g><g stroke-linecap="round" transform="translate(85.99999999999997 80) rotate(0 231.99999999999997 231.99999999999997)"><path d="M172.09 7.67 C188.47 -0.43, 209.97 0.99, 229.3 0.91 C248.63 0.84, 269.19 2.65, 288.06 7.22 C306.93 11.8, 325.78 19.21, 342.53 28.34 C359.28 37.48, 374.49 49.15, 388.55 62.02 C402.62 74.88, 416.42 89.48, 426.92 105.53 C437.42 121.59, 445.59 139.99, 451.56 158.35 C457.53 176.72, 461.14 196.55, 462.75 215.72 C464.35 234.89, 464.46 254.46, 461.2 273.38 C457.94 292.29, 451.3 311.78, 443.19 329.22 C435.08 346.66, 424.81 363.03, 412.54 378.01 C400.28 392.99, 385.16 407.59, 369.59 419.09 C354.02 430.59, 336.85 439.99, 319.1 447 C301.36 454.01, 282.18 458.59, 263.15 461.14 C244.11 463.69, 224.18 464.46, 204.9 462.33 C185.62 460.19, 165.34 455.33, 147.48 448.34 C129.63 441.35, 113.15 431.69, 97.75 420.39 C82.35 409.08, 67.51 395.25, 55.1 380.51 C42.69 365.78, 31.58 349.3, 23.29 331.96 C14.99 314.62, 9.32 295.38, 5.33 276.49 C1.34 257.6, -1.69 237.88, -0.63 218.63 C0.42 199.38, 5.79 179.35, 11.65 160.98 C17.51 142.61, 24.54 124.68, 34.53 108.39 C44.51 92.1, 57.38 76.36, 71.56 63.25 C85.74 50.13, 101.07 39.51, 119.61 29.71 C138.16 19.91, 170.16 8.14, 182.85 4.43 C195.54 0.73, 194.8 3.45, 195.75 7.46 M233.07 -0.09 C251.29 -3.66, 274.08 1.63, 292.6 6.55 C311.12 11.46, 327.79 19.72, 344.19 29.43 C360.58 39.14, 376.7 51.34, 390.96 64.8 C405.21 78.27, 419.56 93.82, 429.71 110.23 C439.85 126.63, 446.17 145.18, 451.8 163.25 C457.44 181.32, 462.18 199.82, 463.52 218.64 C464.86 237.45, 463.47 257.28, 459.84 276.13 C456.2 294.97, 449.9 314, 441.71 331.71 C433.52 349.42, 423.47 367.6, 410.72 382.39 C397.97 397.18, 381.01 409.65, 365.21 420.47 C349.41 431.28, 333.79 440.45, 315.9 447.26 C298.01 454.07, 277 458.68, 257.87 461.32 C238.74 463.95, 219.84 465.63, 201.11 463.08 C182.37 460.52, 163.45 453.32, 145.44 445.96 C127.44 438.6, 108.89 430.01, 93.06 418.92 C77.23 407.83, 62.65 394.26, 50.47 379.42 C38.29 364.59, 27.59 347.37, 19.98 329.9 C12.37 312.43, 8.03 293.76, 4.79 274.61 C1.55 255.47, -0.74 234.36, 0.52 215.03 C1.79 195.69, 6.16 176.92, 12.38 158.62 C18.6 140.31, 27.42 121.35, 37.84 105.21 C48.26 89.07, 60.73 74.51, 74.89 61.77 C89.06 49.04, 106.04 38.07, 122.84 28.8 C139.63 19.53, 156.98 10.87, 175.65 6.14 C194.33 1.41, 225.26 0.81, 234.88 0.43 C244.49 0.06, 233.53 0.1, 233.35 3.88" stroke="#1e1e1e" stroke-width="2" fill="none"></path></g><g stroke-linecap="round" transform="translate(288 12) rotate(0 30 31)"><path d="M37.63 1.38 C43.47 2.64, 50.74 8.39, 54.36 13.79 C57.98 19.18, 59.94 27.15, 59.33 33.72 C58.73 40.3, 55.22 48.55, 50.76 53.23 C46.29 57.92, 38.87 61.42, 32.54 61.83 C26.21 62.24, 18.02 59.74, 12.77 55.69 C7.52 51.64, 2.73 44.08, 1.05 37.53 C-0.64 30.98, -0.09 22.35, 2.68 16.37 C5.44 10.39, 10.91 3.72, 17.62 1.65 C24.33 -0.42, 37.92 2.9, 42.93 3.95 C47.93 5.01, 47.85 7.6, 47.64 7.98 M40.34 1.19 C46.08 3.31, 53.04 9.85, 56.02 16.18 C59.01 22.5, 59.58 32.42, 58.24 39.16 C56.89 45.9, 52.7 53.04, 47.95 56.62 C43.2 60.2, 36.16 61.16, 29.73 60.64 C23.3 60.13, 14.3 57.57, 9.35 53.52 C4.4 49.47, 1.03 42.95, 0.04 36.34 C-0.95 29.73, -0.07 19.64, 3.41 13.86 C6.89 8.08, 14.34 3.76, 20.92 1.65 C27.51 -0.46, 39.5 0.88, 42.93 1.19 C46.37 1.49, 41.73 2.76, 41.52 3.49" stroke="#1e1e1e" stroke-width="2" fill="none"></path></g><g stroke-linecap="round" transform="translate(287 558) rotate(0 30 31)"><path d="M32.32 0.7 C38.41 1.12, 47.11 5.02, 51.56 9.87 C56.02 14.73, 58.73 23.42, 59.05 29.83 C59.37 36.23, 57.22 43.19, 53.46 48.31 C49.7 53.44, 42.55 58.99, 36.47 60.57 C30.4 62.16, 22.77 60.77, 17.01 57.83 C11.26 54.88, 4.6 48.91, 1.95 42.88 C-0.7 36.86, -0.68 28, 1.11 21.67 C2.89 15.35, 6.64 8.44, 12.66 4.92 C18.68 1.41, 32.15 0.71, 37.23 0.58 C42.32 0.44, 43.32 3.48, 43.19 4.11 M31.92 -0.68 C38.28 -0.28, 48.46 4.39, 52.92 9.11 C57.38 13.82, 58.33 20.87, 58.68 27.64 C59.02 34.4, 58.64 44.19, 54.97 49.69 C51.31 55.19, 42.84 59.24, 36.67 60.62 C30.51 62.01, 23.8 60.96, 18 58.02 C12.19 55.08, 4.7 49.01, 1.85 42.98 C-1 36.95, -1.05 27.92, 0.89 21.85 C2.83 15.77, 7.97 10.15, 13.48 6.52 C18.98 2.9, 30.54 1.17, 33.9 0.08 C37.26 -1.02, 33.85 -0.38, 33.62 -0.05" stroke="#1e1e1e" stroke-width="2" fill="none"></path></g><g stroke-linecap="round" transform="translate(100 484) rotate(0 30 31)"><path d="M29.99 0.75 C35.91 0.62, 44.26 3.82, 49.2 8.12 C54.14 12.42, 58.49 20.15, 59.62 26.58 C60.74 33.01, 59.28 41.1, 55.94 46.71 C52.61 52.32, 45.79 58.02, 39.61 60.26 C33.43 62.5, 24.92 62.55, 18.87 60.14 C12.83 57.73, 6.4 51.73, 3.35 45.79 C0.29 39.86, -0.66 31.01, 0.53 24.51 C1.71 18.02, 5.22 11, 10.47 6.83 C15.71 2.65, 27.99 0.53, 31.99 -0.51 C35.98 -1.55, 34.5 -0.13, 34.43 0.56 M42.58 3.24 C48.43 5.99, 55.87 12.97, 58.32 19.37 C60.78 25.77, 59.57 35.3, 57.31 41.63 C55.05 47.96, 50.14 54.05, 44.75 57.35 C39.36 60.64, 31.04 62.22, 24.97 61.4 C18.9 60.58, 12.49 57.52, 8.34 52.43 C4.2 47.35, 0.49 37.4, 0.12 30.9 C-0.25 24.4, 2.09 18.32, 6.13 13.44 C10.16 8.56, 18.04 3.34, 24.32 1.61 C30.6 -0.12, 40.73 2.51, 43.82 3.05 C46.91 3.58, 43.11 4.45, 42.86 4.84" stroke="#1e1e1e" stroke-width="2" fill="none"></path></g><g stroke-linecap="round" transform="translate(473 86) rotate(0 30 31)"><path d="M27.04 -0.7 C32.99 -1.69, 41.74 1.6, 46.97 5.59 C52.19 9.57, 56.72 16.81, 58.39 23.19 C60.07 29.58, 59.45 37.92, 57.03 43.9 C54.6 49.88, 49.65 56.34, 43.86 59.1 C38.07 61.86, 28.69 62.26, 22.29 60.46 C15.88 58.66, 9.29 53.7, 5.42 48.28 C1.56 42.86, -1.43 34.61, -0.89 27.96 C-0.35 21.31, 3.16 13.14, 8.67 8.4 C14.19 3.66, 27.35 0.68, 32.2 -0.5 C37.04 -1.67, 37.74 0.63, 37.75 1.36 M23.27 2.06 C29.12 0.25, 36.77 0.37, 42.58 2.81 C48.39 5.25, 55.46 10.47, 58.13 16.71 C60.79 22.95, 60.37 33.73, 58.54 40.23 C56.72 46.74, 52.09 52.06, 47.16 55.73 C42.23 59.4, 35.48 62.7, 28.97 62.26 C22.47 61.83, 12.93 57.79, 8.12 53.11 C3.31 48.44, 0.33 40.75, 0.1 34.21 C-0.12 27.67, 3.13 19.44, 6.76 13.89 C10.39 8.34, 19.49 2.81, 21.88 0.91 C24.27 -0.99, 21.02 1.98, 21.11 2.48" stroke="#1e1e1e" stroke-width="2" fill="none"></path></g><g stroke-linecap="round" transform="translate(558 276) rotate(0 30 31)"><path d="M40.73 1.26 C46.73 3.19, 53.07 10.32, 56.16 16.04 C59.25 21.76, 60.42 29.03, 59.27 35.56 C58.11 42.08, 53.87 50.94, 49.2 55.21 C44.54 59.48, 37.51 61.05, 31.26 61.17 C25.01 61.29, 16.97 60.05, 11.7 55.92 C6.43 51.78, 0.96 43.04, -0.36 36.34 C-1.67 29.65, 0.37 21.42, 3.8 15.73 C7.24 10.05, 13.33 4.16, 20.23 2.24 C27.13 0.32, 40.52 3.18, 45.2 4.19 C49.88 5.2, 48.49 7.73, 48.3 8.31 M26.49 -0.1 C33.01 -1.02, 43.23 2.76, 48.86 6.5 C54.49 10.25, 58.74 15.9, 60.27 22.37 C61.81 28.84, 61.26 39.37, 58.08 45.32 C54.9 51.27, 47.15 55.38, 41.18 58.08 C35.22 60.77, 28.17 63.2, 22.31 61.5 C16.45 59.79, 9.76 53.65, 6.03 47.84 C2.3 42.04, -0.76 32.95, -0.05 26.69 C0.66 20.42, 5.87 14.46, 10.28 10.28 C14.7 6.09, 23.75 3.28, 26.42 1.59 C29.1 -0.1, 26.1 -0.22, 26.34 0.15" stroke="#1e1e1e" stroke-width="2" fill="none"></path></g><g stroke-linecap="round" transform="translate(17 279) rotate(0 30 31)"><path d="M18.98 2.09 C24.43 -0.69, 32.09 -0.13, 38.28 2.04 C44.46 4.21, 52.37 9.56, 56.08 15.09 C59.79 20.63, 61.6 28.87, 60.54 35.26 C59.47 41.65, 54.63 49.15, 49.7 53.44 C44.78 57.73, 37.19 60.58, 30.99 61 C24.79 61.42, 17.43 59.83, 12.5 55.93 C7.57 52.04, 2.97 44.03, 1.4 37.63 C-0.18 31.22, -0.79 23.71, 3.05 17.5 C6.89 11.3, 19.97 3.39, 24.46 0.43 C28.95 -2.54, 30.1 -0.82, 30 -0.28 M43.09 2.78 C48.45 5.42, 53.36 13.34, 55.87 19.28 C58.38 25.23, 59.43 32.4, 58.14 38.46 C56.85 44.51, 53.27 51.74, 48.14 55.6 C43 59.46, 33.7 61.95, 27.34 61.61 C20.97 61.27, 14.65 57.98, 9.95 53.55 C5.26 49.12, 0.15 41.95, -0.84 35 C-1.82 28.06, 0.37 17.31, 4.05 11.88 C7.73 6.45, 14.91 3.83, 21.26 2.4 C27.61 0.98, 38.5 3.38, 42.17 3.32 C45.85 3.26, 43.46 1.87, 43.32 2.05" stroke="#1e1e1e" stroke-width="2" fill="none"></path></g><g stroke-linecap="round" transform="translate(96 87) rotate(0 30 31)"><path d="M32.54 -0.17 C38.52 0.17, 47.4 4.6, 51.87 9.39 C56.34 14.18, 59.16 21.91, 59.37 28.56 C59.59 35.22, 57.02 43.88, 53.17 49.33 C49.31 54.77, 42.4 59.57, 36.25 61.25 C30.11 62.93, 22.02 62.39, 16.3 59.43 C10.58 56.46, 4.43 49.63, 1.92 43.49 C-0.59 37.34, -0.58 29.08, 1.24 22.57 C3.06 16.06, 7.42 8.12, 12.83 4.43 C18.24 0.73, 29.88 0.99, 33.7 0.41 C37.53 -0.17, 35.74 0.32, 35.79 0.94 M40.32 2.26 C46.05 4.12, 53.37 10.68, 56.81 16.36 C60.25 22.05, 62.42 29.7, 60.93 36.37 C59.44 43.04, 53.04 52.04, 47.88 56.38 C42.73 60.72, 36.13 62.49, 30.01 62.42 C23.89 62.34, 16.21 60.1, 11.16 55.95 C6.12 51.8, 0.74 44.25, -0.28 37.52 C-1.3 30.8, 1.75 21.43, 5.05 15.63 C8.35 9.83, 13.52 4.79, 19.51 2.72 C25.5 0.65, 37.28 3.11, 41 3.21 C44.72 3.32, 42.18 3.2, 41.82 3.33" stroke="#1e1e1e" stroke-width="2" fill="none"></path></g><g stroke-linecap="round" transform="translate(486 468) rotate(0 30 31)"><path d="M31.51 -0.9 C37.65 -0.91, 45.96 3.15, 50.7 7.85 C55.44 12.56, 59.13 20.69, 59.94 27.32 C60.76 33.96, 59.17 42.1, 55.58 47.68 C52 53.26, 44.66 58.94, 38.43 60.79 C32.21 62.64, 24.23 61.61, 18.21 58.77 C12.19 55.94, 5.21 49.62, 2.33 43.77 C-0.56 37.92, -0.71 29.98, 0.91 23.66 C2.53 17.34, 6.37 9.64, 12.03 5.86 C17.7 2.09, 30.7 1.73, 34.9 1.03 C39.1 0.33, 37.44 1.24, 37.23 1.67 M36.28 -0.38 C42.46 0.44, 51.29 6.98, 55.3 12.57 C59.32 18.17, 60.69 26.72, 60.38 33.19 C60.07 39.65, 57.64 46.46, 53.45 51.37 C49.26 56.27, 41.8 61.76, 35.26 62.62 C28.71 63.48, 19.68 60.2, 14.19 56.54 C8.7 52.87, 4.09 46.63, 2.31 40.62 C0.54 34.61, 1.11 26.78, 3.56 20.48 C6.02 14.17, 11.66 5.89, 17.03 2.8 C22.4 -0.29, 32.7 2.01, 35.77 1.94 C38.84 1.87, 35.19 2.05, 35.46 2.37" stroke="#1e1e1e" stroke-width="2" fill="none"></path></g></svg>