<svg version="1.1" xmlns="http://www.w3.org/2000/svg" viewBox="0 0 895.0057312369347 599.3969237516076" width="895.0057312369347" height="599.3969237516076" class="excalidraw-svg"><!-- svg-source:excalidraw --><metadata></metadata><defs><style class="style-fonts">
      </style></defs><rect x="0" y="0" width="895.0057312369347" height="599.3969237516076" fill="#ffffff"></rect><g stroke-linecap="round"><g transform="translate(10.581146074458957 455.41683114379646) rotate(0 437.5 0)"><path d="M-0.58 1.1 C145.32 0.91, 728.41 -0.27, 874.42 -0.65 M1.31 0.63 C147.09 0.54, 727.56 0.73, 873.17 0.55" stroke="#1e1e1e" stroke-width="2" fill="none"></path></g><g transform="translate(10.581146074458957 455.41683114379646) rotate(0 437.5 0)"><path d="M849.69 9.11 C856.65 6.38, 858.91 6.27, 873.17 0.55 M849.69 9.11 C853.76 8.34, 858.7 5.81, 873.17 0.55" stroke="#1e1e1e" stroke-width="2" fill="none"></path></g><g transform="translate(10.581146074458957 455.41683114379646) rotate(0 437.5 0)"><path d="M849.68 -8 C856.72 -6.96, 858.98 -3.3, 873.17 0.55 M849.68 -8 C853.74 -5.28, 858.68 -4.32, 873.17 0.55" stroke="#1e1e1e" stroke-width="2" fill="none"></path></g></g><mask></mask><g stroke-linecap="round"><g transform="translate(108.58114607445896 589.4168311437965) rotate(0 2.842170943040401e-14 -289)"><path d="M0.39 -0.02 C0.37 -96.28, -0.85 -481.14, -0.95 -577.54 M-0.87 -1.08 C-0.44 -97.7, 1.3 -483.39, 1.26 -579.42" stroke="#1e1e1e" stroke-width="2" fill="none"></path></g><g transform="translate(108.58114607445896 589.4168311437965) rotate(0 2.842170943040401e-14 -289)"><path d="M9.76 -555.9 C7.79 -562.8, 6.67 -566.93, 1.26 -579.42 M9.76 -555.9 C6.76 -562.45, 6.08 -569.01, 1.26 -579.42" stroke="#1e1e1e" stroke-width="2" fill="none"></path></g><g transform="translate(108.58114607445896 589.4168311437965) rotate(0 2.842170943040401e-14 -289)"><path d="M-7.34 -555.95 C-5.42 -562.89, -2.66 -567, 1.26 -579.42 M-7.34 -555.95 C-5.75 -562.44, -1.84 -568.98, 1.26 -579.42" stroke="#1e1e1e" stroke-width="2" fill="none"></path></g></g><mask></mask><g stroke-linecap="round"><g transform="translate(111.58114607445896 378.41683114379646) rotate(0 362.5 -129.5)"><path d="M-0.29 -0.9 C20.05 -3.03, 74.7 4.77, 122.23 -13.43 C169.76 -31.63, 246.82 -73.22, 284.91 -110.11 C322.99 -147, 334.24 -202.7, 350.77 -234.79 C367.29 -266.89, 366.52 -285.96, 384.07 -302.68 C401.61 -319.4, 431.04 -335.88, 456.06 -335.12 C481.07 -334.35, 510.28 -327.34, 534.14 -298.11 C558.01 -268.89, 578.61 -208.32, 599.26 -159.75 C619.9 -111.18, 637.24 -46.03, 658.01 -6.71 C678.77 32.6, 712.51 61.99, 723.85 76.14 M1.76 1.24 C22.47 -1.18, 77.39 3.62, 124.54 -15.25 C171.68 -34.12, 246.8 -75.6, 284.61 -111.99 C322.43 -148.37, 335.08 -201.8, 351.41 -233.58 C367.75 -265.36, 365.47 -285.63, 382.63 -302.65 C399.79 -319.67, 429.08 -336.21, 454.36 -335.69 C479.65 -335.17, 510.34 -328.72, 534.34 -299.52 C558.34 -270.32, 577.95 -209.08, 598.37 -160.48 C618.79 -111.89, 635.92 -47.23, 656.86 -7.94 C677.8 31.34, 712.95 61.22, 724.01 75.23" stroke="#1e1e1e" stroke-width="2" fill="none"></path></g></g><mask></mask><g stroke-linecap="round"><g transform="translate(566.581146074459 45.41683114379646) rotate(0 0 207)"><path d="M0.74 0.27 C0.8 69.32, 0.41 344.63, 0.17 413.72" stroke="#1e1e1e" stroke-width="2.5" fill="none" stroke-dasharray="1.5 8"></path></g></g><mask></mask></svg>