<svg version="1.1" xmlns="http://www.w3.org/2000/svg" viewBox="0 0 277.0255898530688 406.2075621545315" width="277.0255898530688" height="406.2075621545315" class="excalidraw-svg"><!-- svg-source:excalidraw --><metadata></metadata><defs><style class="style-fonts">
      </style></defs><rect x="0" y="0" width="277.0255898530688" height="406.2075621545315" fill="#ffffff"></rect><g stroke-linecap="round" transform="translate(70.02558985306882 10) rotate(0 98.5 98.5)"><path d="M83.54 1.48 C95.11 -1.84, 111.09 -0.18, 123.2 2.89 C135.32 5.95, 146.34 12.29, 156.21 19.85 C166.08 27.42, 175.69 37.54, 182.43 48.29 C189.16 59.05, 194.72 72.02, 196.62 84.38 C198.51 96.74, 196.85 110.32, 193.79 122.44 C190.74 134.55, 185.84 146.93, 178.27 157.05 C170.7 167.18, 159.28 176.66, 148.37 183.2 C137.45 189.75, 125.06 194.49, 112.76 196.31 C100.47 198.12, 86.83 197.12, 74.61 194.08 C62.39 191.04, 49.37 185.61, 39.43 178.08 C29.5 170.55, 21.36 159.75, 14.99 148.92 C8.61 138.1, 3.31 125.66, 1.2 113.13 C-0.9 100.61, -0.7 85.82, 2.35 73.75 C5.39 61.69, 12 50.81, 19.47 40.74 C26.94 30.67, 34 20.21, 47.18 13.33 C60.36 6.44, 87.98 1.08, 98.57 -0.57 C109.15 -2.22, 110.77 1.72, 110.68 3.43 M137.01 7.54 C148.17 10.69, 159.36 20.73, 168.12 29.92 C176.87 39.11, 184.63 51.1, 189.54 62.66 C194.45 74.22, 197.62 86.83, 197.56 99.3 C197.51 111.77, 194.26 125.87, 189.23 137.48 C184.19 149.09, 176.68 160.1, 167.35 168.94 C158.02 177.78, 144.96 185.83, 133.24 190.5 C121.52 195.17, 109.09 197.26, 97.02 196.95 C84.95 196.63, 72.2 193.65, 60.81 188.6 C49.42 183.56, 37.54 175.74, 28.68 166.65 C19.83 157.55, 12.47 145.79, 7.68 134.03 C2.9 122.27, 0.05 108.77, -0.03 96.1 C-0.11 83.42, 2.32 69.35, 7.21 57.97 C12.1 46.59, 19.93 36.12, 29.29 27.79 C38.65 19.46, 51.55 12.85, 63.39 7.99 C75.22 3.13, 88.18 -1.22, 100.33 -1.35 C112.47 -1.49, 130.15 5.07, 136.25 7.16 C142.34 9.24, 137.27 9.35, 136.92 11.14" stroke="#1e1e1e" stroke-width="2" fill="none"></path></g><g stroke-linecap="round"><g transform="translate(10.025589853068823 309) rotate(0 27.5 -101)"><path d="M0.94 -0.51 C9.87 -34.5, 45.54 -169.26, 54.54 -202.92 M-0.03 -1.83 C8.62 -35.17, 44.32 -168.6, 53.35 -201.86" stroke="#1e1e1e" stroke-width="2" fill="none"></path></g><g transform="translate(10.025589853068823 309) rotate(0 27.5 -101)"><path d="M55.5 -176.95 C53.62 -187.21, 52.12 -196.03, 53.35 -201.86 M55.5 -176.95 C54.34 -183.26, 54.19 -189.82, 53.35 -201.86" stroke="#1e1e1e" stroke-width="2" fill="none"></path></g><g transform="translate(10.025589853068823 309) rotate(0 27.5 -101)"><path d="M38.99 -181.39 C43.44 -190.09, 48.26 -197.21, 53.35 -201.86 M38.99 -181.39 C42.18 -186.6, 46.37 -191.99, 53.35 -201.86" stroke="#1e1e1e" stroke-width="2" fill="none"></path></g></g><mask></mask><g stroke-linecap="round"><g transform="translate(72.02558985306882 105) rotate(0 75 -34.5)"><path d="M-1.09 -0.72 C23.93 -12.52, 124.96 -58.57, 150.17 -70.11 M0.54 1.51 C25.41 -10.24, 124.48 -57.38, 149.32 -69.15" stroke="#1e1e1e" stroke-width="2" fill="none"></path></g><g transform="translate(72.02558985306882 105) rotate(0 75 -34.5)"><path d="M131.77 -51.35 C135.79 -56.3, 140.47 -61.67, 149.32 -69.15 M131.77 -51.35 C135.13 -54.23, 138.87 -59.91, 149.32 -69.15" stroke="#1e1e1e" stroke-width="2" fill="none"></path></g><g transform="translate(72.02558985306882 105) rotate(0 75 -34.5)"><path d="M124.43 -66.79 C130.77 -66.99, 137.68 -67.67, 149.32 -69.15 M124.43 -66.79 C129.36 -66.21, 134.74 -68.47, 149.32 -69.15" stroke="#1e1e1e" stroke-width="2" fill="none"></path></g></g><mask></mask><g stroke-linecap="round"><g transform="translate(25.76931551477408 368.7139743298292) rotate(0 27.5 -101)"><path d="M-0.04 0.94 C9.3 -33.02, 45.78 -168.92, 55.12 -202.89 M-1.52 0.39 C7.76 -33.51, 44.69 -168.08, 54.23 -201.82" stroke="#1e1e1e" stroke-width="2" fill="none"></path></g><g transform="translate(25.76931551477408 368.7139743298292) rotate(0 27.5 -101)"><path d="M56.18 -176.9 C57.14 -182.26, 53.65 -186.36, 54.23 -201.82 M56.18 -176.9 C55.73 -183.05, 55.16 -187.25, 54.23 -201.82" stroke="#1e1e1e" stroke-width="2" fill="none"></path></g><g transform="translate(25.76931551477408 368.7139743298292) rotate(0 27.5 -101)"><path d="M39.7 -181.48 C44.37 -185.81, 44.55 -188.89, 54.23 -201.82 M39.7 -181.48 C42.93 -186.51, 46.06 -189.69, 54.23 -201.82" stroke="#1e1e1e" stroke-width="2" fill="none"></path></g></g><mask></mask><g stroke-linecap="round"><g transform="translate(38.76931551477408 396.7139743298292) rotate(0 27.5 -101)"><path d="M-1.18 -0.51 C7.79 -34.02, 44.56 -167.87, 53.98 -201.26 M0.4 -1.82 C9.72 -35.66, 47.09 -169.53, 56.15 -202.99" stroke="#1e1e1e" stroke-width="2" fill="none"></path></g><g transform="translate(38.76931551477408 396.7139743298292) rotate(0 27.5 -101)"><path d="M58.16 -178.07 C56.72 -187.56, 58.18 -193.04, 56.15 -202.99 M58.16 -178.07 C57.71 -188.05, 56.32 -198.73, 56.15 -202.99" stroke="#1e1e1e" stroke-width="2" fill="none"></path></g><g transform="translate(38.76931551477408 396.7139743298292) rotate(0 27.5 -101)"><path d="M41.67 -182.61 C45.37 -190.52, 51.97 -194.59, 56.15 -202.99 M41.67 -182.61 C47.73 -190.81, 52.89 -199.68, 56.15 -202.99" stroke="#1e1e1e" stroke-width="2" fill="none"></path></g></g><mask></mask></svg>