<svg version="1.1" xmlns="http://www.w3.org/2000/svg" viewBox="0 0 739.5958569751308 560.7833925008773" width="739.5958569751308" height="560.7833925008773" class="excalidraw-svg"><!-- svg-source:excalidraw --><metadata></metadata><defs><style class="style-fonts">
      </style></defs><rect x="0" y="0" width="739.5958569751308" height="560.7833925008773" fill="#ffffff"></rect><g stroke-linecap="round"><g transform="translate(10.455161091359344 456.6186917491257) rotate(0 352 0)"><path d="M0.66 0.62 C117.68 0.52, 585.92 0.31, 703.16 0.17 M-0.46 -0.1 C116.86 -0.05, 588.13 1.62, 705.43 1.79" stroke="#1e1e1e" stroke-width="2" fill="none"></path></g><g transform="translate(10.455161091359344 456.6186917491257) rotate(0 352 0)"><path d="M681.91 10.28 C691.94 5.49, 700.23 3.74, 705.43 1.79 M681.91 10.28 C687.63 8.67, 695.75 6.28, 705.43 1.79" stroke="#1e1e1e" stroke-width="2" fill="none"></path></g><g transform="translate(10.455161091359344 456.6186917491257) rotate(0 352 0)"><path d="M681.96 -6.82 C692.07 -5.04, 700.35 -0.21, 705.43 1.79 M681.96 -6.82 C687.83 -3.64, 695.94 -1.23, 705.43 1.79" stroke="#1e1e1e" stroke-width="2" fill="none"></path></g></g><mask></mask><g stroke-linecap="round"><g transform="translate(46.455161091359344 550.6186917491257) rotate(0 0 -270)"><path d="M-0.83 0.16 C-1.09 -89.83, -1.19 -450.61, -0.93 -540.62 M0.94 -0.79 C0.99 -90.59, 1.39 -449.79, 1.29 -539.41" stroke="#1e1e1e" stroke-width="2" fill="none"></path></g><g transform="translate(46.455161091359344 550.6186917491257) rotate(0 0 -270)"><path d="M9.84 -515.91 C7.24 -525.78, 2.93 -531.27, 1.29 -539.41 M9.84 -515.91 C6.1 -523.36, 4.55 -530.44, 1.29 -539.41" stroke="#1e1e1e" stroke-width="2" fill="none"></path></g><g transform="translate(46.455161091359344 550.6186917491257) rotate(0 0 -270)"><path d="M-7.26 -515.92 C-3.85 -525.66, -2.15 -531.15, 1.29 -539.41 M-7.26 -515.92 C-5.68 -523.3, -1.92 -530.38, 1.29 -539.41" stroke="#1e1e1e" stroke-width="2" fill="none"></path></g></g><mask></mask><g stroke-linecap="round"><g transform="translate(47.455161091359344 456.6186917491257) rotate(0 341 -137)"><path d="M-0.14 0.77 C25.34 -31.47, 104.73 -148.55, 153.27 -194.49 C201.81 -240.42, 202.98 -261.7, 291.09 -274.83 C379.2 -287.96, 616.9 -273.33, 681.93 -273.26 M-1.68 0.13 C24.16 -31.86, 106.4 -147.52, 155.6 -193.2 C204.8 -238.88, 205.74 -260.24, 293.5 -273.95 C381.26 -287.65, 617.22 -275.38, 682.14 -275.43" stroke="#1e1e1e" stroke-width="2" fill="none"></path></g><g transform="translate(47.455161091359344 456.6186917491257) rotate(0 341 -137)"><path d="M658.45 -267.43 C667.69 -271.28, 673.47 -274.25, 682.14 -275.43 M658.45 -267.43 C663.29 -269.76, 669.29 -271.54, 682.14 -275.43" stroke="#1e1e1e" stroke-width="2" fill="none"></path></g><g transform="translate(47.455161091359344 456.6186917491257) rotate(0 341 -137)"><path d="M658.86 -284.53 C667.81 -282.69, 673.46 -279.97, 682.14 -275.43 M658.86 -284.53 C663.59 -282.91, 669.5 -280.74, 682.14 -275.43" stroke="#1e1e1e" stroke-width="2" fill="none"></path></g></g><mask></mask><g stroke-linecap="round"><g transform="translate(379.45516109135934 180.61869174912567) rotate(0 0 138)"><path d="M-0.25 0.08 C-0.22 46.21, 0.18 230.68, 0.17 276.65 M1.81 -0.93 C1.71 44.86, -0.18 228.52, -0.68 274.87" stroke="#1e1e1e" stroke-width="2" fill="none"></path></g></g><mask></mask></svg>