<svg version="1.1" xmlns="http://www.w3.org/2000/svg" viewBox="0 0 646.3924831550897 237.67485525474083" width="646.3924831550897" height="237.67485525474083" class="excalidraw-svg"><!-- svg-source:excalidraw --><metadata></metadata><defs><style class="style-fonts">
      </style></defs><rect x="0" y="0" width="646.3924831550897" height="237.67485525474083" fill="#ffffff"></rect><g stroke-linecap="round"><g transform="translate(114.60081056748584 106.22243455328618) rotate(0 0 22.5)"><path d="M-0.11 -0.32 C-0.03 7.29, 0.6 37.72, 0.54 45.35 M-0.83 0.7 C-0.78 8.18, 0.14 37.24, 0.38 44.57" stroke="#1e1e1e" stroke-width="2" fill="none"></path></g></g><mask></mask><g stroke-linecap="round"><g transform="translate(113.60081056748584 151.22243455328618) rotate(0 -15.5 11)"><path d="M-0.22 0.66 C-5.58 4.05, -27.11 17.54, -32.15 21.03 M-1.79 -0.04 C-6.81 3.42, -25.19 18.27, -30.04 22.06" stroke="#1e1e1e" stroke-width="2" fill="none"></path></g></g><mask></mask><g stroke-linecap="round"><g transform="translate(115.60081056748584 150.22243455328618) rotate(0 17.238620667976086 9.952722283113829)"><path d="M0.65 -0.09 C6.08 3.49, 27.91 17.21, 33.67 20.46 M-0.46 -1.18 C5.24 2.12, 30.08 15.03, 35.95 18.63" stroke="#1e1e1e" stroke-width="2" fill="none"></path></g></g><mask></mask><g stroke-linecap="round"><g transform="translate(117.22771248932742 57.93788777279855) rotate(0 1.7898620008637494 24.530282117345905)"><path d="M0.26 -0.69 C0.16 0.18, -0.94 4.89, 0.35 5.76 C1.65 6.62, 4.88 4.41, 8.02 4.5 C11.16 4.59, 17.54 5.44, 19.2 6.28 C20.86 7.12, 19.27 8.44, 17.97 9.56 C16.68 10.68, 16.93 12.34, 11.45 13.01 C5.97 13.67, -10.46 13.87, -14.9 13.56 C-19.33 13.24, -19.22 11.54, -15.16 11.11 C-11.11 10.69, 3.82 10.61, 9.42 11.01 C15.03 11.41, 16.91 12.59, 18.47 13.52 C20.03 14.45, 20.27 15.63, 18.8 16.59 C17.32 17.55, 15.55 18.52, 9.62 19.28 C3.69 20.04, -12.44 21.68, -16.78 21.16 C-21.12 20.63, -20.82 16.99, -16.41 16.15 C-12 15.31, 3.82 15.5, 9.69 16.12 C15.57 16.73, 18.95 18.32, 18.83 19.82 C18.72 21.33, 14.82 24.16, 9.01 25.16 C3.2 26.17, -11.74 26.2, -16.01 25.86 C-20.28 25.51, -20.87 23.6, -16.62 23.08 C-12.38 22.55, 3.58 22.15, 9.46 22.69 C15.33 23.24, 18.46 25.04, 18.62 26.35 C18.78 27.66, 16.27 29.8, 10.41 30.55 C4.55 31.31, -12.06 31.56, -16.54 30.87 C-21.02 30.18, -18.37 27.17, -16.48 26.43 C-14.6 25.68, -9.58 26.49, -5.24 26.39 C-0.91 26.28, 5.31 25.08, 9.51 25.8 C13.71 26.51, 19.76 28.75, 19.98 30.65 C20.19 32.55, 16.66 35.75, 10.83 37.18 C5 38.61, -10.85 39.73, -15.03 39.22 C-19.2 38.72, -19.53 35.31, -14.22 34.14 C-8.9 32.97, 11.77 31.54, 16.86 32.19 C21.95 32.83, 19.31 36.62, 16.31 38.01 C13.31 39.4, 2.05 38.57, -1.16 40.55 C-4.36 42.53, -2.68 48.4, -2.93 49.9 M-1.06 1.55 C-1.39 2.04, -1.89 3.33, -0.52 3.95 C0.84 4.56, 3.72 4.72, 7.1 5.25 C10.49 5.78, 17.64 6.35, 19.77 7.14 C21.9 7.93, 21.57 9.2, 19.89 9.98 C18.21 10.77, 15.34 11.43, 9.69 11.83 C4.04 12.22, -9.69 12.47, -14.02 12.36 C-18.35 12.25, -20.49 11.56, -16.3 11.18 C-12.12 10.8, 5.22 9.73, 11.1 10.1 C16.99 10.47, 17.69 12.67, 19.01 13.4 C20.34 14.13, 20.83 13.62, 19.07 14.47 C17.31 15.31, 14.48 17.37, 8.46 18.45 C2.43 19.53, -13.34 21.37, -17.07 20.93 C-20.79 20.48, -18.45 16.72, -13.89 15.77 C-9.33 14.83, 4.7 14.39, 10.3 15.25 C15.9 16.11, 19.56 19.15, 19.69 20.95 C19.82 22.75, 17.24 25.13, 11.08 26.06 C4.93 27, -12.97 27.51, -17.25 26.54 C-21.52 25.57, -18.58 21.17, -14.55 20.26 C-10.53 19.36, 1.04 20.24, 6.89 21.11 C12.75 21.99, 19.94 24.11, 20.58 25.5 C21.22 26.89, 17.01 28.67, 10.73 29.44 C4.45 30.2, -12.74 30.19, -17.1 30.09 C-21.45 30, -17.07 29.44, -15.4 28.87 C-13.74 28.29, -11.34 26.69, -7.09 26.66 C-2.85 26.63, 5.31 28.06, 10.07 28.69 C14.84 29.32, 21.68 29.31, 21.52 30.47 C21.36 31.62, 15.27 34.41, 9.12 35.62 C2.96 36.83, -11.24 38.15, -15.39 37.73 C-19.54 37.3, -21.06 33.75, -15.78 33.05 C-10.51 32.34, 10.87 32.45, 16.27 33.52 C21.67 34.59, 19.27 38.36, 16.63 39.46 C13.98 40.55, 3.97 38.69, 0.41 40.09 C-3.15 41.49, -3.92 46.35, -4.73 47.85" stroke="#1e1e1e" stroke-width="2" fill="none"></path></g></g><mask></mask><g stroke-linecap="round"><g transform="translate(172.2151757027768 158.93522719273037) rotate(304.8860283028961 1.7898620008637494 24.530282117345905)"><path d="M-0.98 1.04 C-0.96 2.14, -1.55 5.19, -0.02 6.05 C1.52 6.91, 4.98 6.02, 8.21 6.21 C11.45 6.4, 17.5 6.64, 19.37 7.2 C21.25 7.77, 20.82 8.44, 19.48 9.59 C18.14 10.74, 17.02 13.59, 11.33 14.09 C5.64 14.59, -10.43 13.33, -14.66 12.6 C-18.88 11.87, -18.14 10, -14.03 9.71 C-9.91 9.42, 4.66 10.5, 10.04 10.88 C15.41 11.26, 16.93 11.04, 18.23 11.99 C19.53 12.95, 19.38 15.23, 17.84 16.59 C16.31 17.95, 14.63 19.71, 9.03 20.15 C3.43 20.58, -11.84 19.69, -15.75 19.21 C-19.66 18.72, -18.57 17.59, -14.42 17.25 C-10.27 16.91, 3.54 16.85, 9.15 17.16 C14.76 17.47, 19.08 17.69, 19.23 19.08 C19.39 20.48, 15.94 24.35, 10.1 25.51 C4.27 26.67, -11.34 26.77, -15.78 26.05 C-20.21 25.32, -20.39 21.86, -16.51 21.15 C-12.62 20.44, 1.34 20.95, 7.55 21.8 C13.76 22.66, 20.16 25.09, 20.77 26.28 C21.39 27.47, 17.4 28.04, 11.23 28.93 C5.05 29.82, -11.9 31.99, -16.27 31.63 C-20.64 31.27, -16.66 27.81, -15 26.77 C-13.33 25.72, -10.54 25.52, -6.28 25.38 C-2.03 25.23, 6.19 25.17, 10.53 25.88 C14.87 26.59, 19.92 27.78, 19.74 29.64 C19.55 31.5, 14.99 35.62, 9.4 37.06 C3.82 38.51, -9.63 38.89, -13.78 38.32 C-17.92 37.76, -20.83 34.51, -15.48 33.69 C-10.13 32.88, 13.08 32.49, 18.3 33.42 C23.52 34.35, 19.07 38.29, 15.86 39.28 C12.64 40.28, 2.2 37.62, -0.98 39.39 C-4.17 41.16, -2.84 48.45, -3.26 49.9 M0.7 0.54 C0.55 1.37, -2.2 3.79, -1.08 4.4 C0.03 5.01, 3.88 3.5, 7.4 4.19 C10.92 4.88, 18.18 7.58, 20.03 8.55 C21.89 9.52, 20.28 9.2, 18.52 10.02 C16.77 10.84, 14.87 12.72, 9.5 13.48 C4.14 14.23, -9.64 15.29, -13.65 14.56 C-17.66 13.82, -18.24 9.82, -14.57 9.04 C-10.9 8.27, 2.84 9.57, 8.38 9.91 C13.91 10.24, 17.11 10.32, 18.65 11.07 C20.19 11.83, 19.47 13.01, 17.62 14.46 C15.77 15.91, 13.08 18.58, 7.56 19.77 C2.04 20.97, -11.82 22, -15.5 21.61 C-19.18 21.23, -18.69 18.25, -14.53 17.45 C-10.36 16.66, 3.67 16.45, 9.47 16.85 C15.28 17.24, 20.36 18.2, 20.3 19.82 C20.24 21.45, 15.29 25.42, 9.09 26.59 C2.89 27.76, -12.36 27.77, -16.89 26.83 C-21.41 25.9, -22.13 21.56, -18.04 20.99 C-13.95 20.42, 1.27 22.68, 7.65 23.41 C14.02 24.15, 19.49 24.19, 20.21 25.4 C20.93 26.6, 18.13 29.65, 11.98 30.62 C5.83 31.6, -11.89 32.07, -16.69 31.26 C-21.48 30.44, -18.74 26.75, -16.8 25.72 C-14.85 24.7, -9.76 25.21, -5.02 25.12 C-0.28 25.03, 7.26 24.53, 11.63 25.16 C15.99 25.8, 21.33 27.21, 21.16 28.92 C20.99 30.64, 16.37 34.21, 10.6 35.44 C4.82 36.68, -9.37 36.87, -13.48 36.35 C-17.59 35.84, -19.37 33.13, -14.05 32.36 C-8.72 31.59, 13.47 30.84, 18.46 31.74 C23.46 32.63, 18.9 36.03, 15.94 37.74 C12.97 39.45, 3.6 40.3, 0.68 41.99 C-2.24 43.67, -1.11 46.42, -1.57 47.85" stroke="#1e1e1e" stroke-width="2" fill="none"></path></g></g><mask></mask><g stroke-linecap="round"><g transform="translate(63.51373332720243 167.60446070732308) rotate(47.769313217342706 1.7898620008637494 24.530282117345905)"><path d="M-0.88 0.31 C-0.89 1.02, -0.56 3.56, 0.88 4.45 C2.33 5.35, 4.92 5.23, 7.79 5.67 C10.65 6.11, 16.29 6.37, 18.08 7.1 C19.87 7.82, 19.92 8.82, 18.53 10.03 C17.13 11.25, 15.24 13.66, 9.7 14.38 C4.16 15.1, -10.65 15.03, -14.69 14.36 C-18.72 13.69, -18.76 11.25, -14.51 10.37 C-10.27 9.49, 5.33 8.66, 10.78 9.08 C16.22 9.5, 16.72 11.82, 18.15 12.9 C19.59 13.97, 20.84 14.38, 19.38 15.55 C17.92 16.72, 15.32 19.06, 9.38 19.89 C3.44 20.72, -12.25 21.03, -16.27 20.51 C-20.29 20, -19.07 17.34, -14.72 16.8 C-10.37 16.27, 4.19 16.65, 9.83 17.28 C15.47 17.92, 19.29 19.27, 19.1 20.63 C18.91 21.99, 14.75 24.78, 8.68 25.45 C2.61 26.11, -13.17 25.24, -17.3 24.61 C-21.43 23.98, -20.4 21.89, -16.1 21.67 C-11.8 21.46, 2.61 22.65, 8.47 23.3 C14.34 23.94, 18.85 24.46, 19.11 25.55 C19.37 26.63, 15.79 29.04, 10.01 29.79 C4.24 30.54, -11.15 30.49, -15.55 30.06 C-19.96 29.62, -18.11 27.91, -16.42 27.18 C-14.73 26.44, -9.95 25.8, -5.43 25.64 C-0.9 25.48, 6.36 25.59, 10.72 26.24 C15.08 26.89, 21.1 27.78, 20.76 29.54 C20.42 31.3, 14.36 35.37, 8.68 36.78 C3 38.19, -9.58 38.34, -13.33 38.02 C-17.08 37.7, -19.12 35.69, -13.83 34.86 C-8.54 34.03, 13.59 32.47, 18.42 33.04 C23.25 33.62, 18.3 36.89, 15.14 38.31 C11.97 39.72, 2.64 39.85, -0.57 41.52 C-3.79 43.19, -3.83 47.22, -4.15 48.32 M0.85 -0.57 C0.66 0.26, -0.7 4.35, 0.29 5.62 C1.27 6.89, 3.79 6.57, 6.75 7.03 C9.71 7.49, 16.34 7.77, 18.06 8.38 C19.78 8.99, 18.3 9.78, 17.07 10.7 C15.84 11.62, 15.81 13.44, 10.68 13.92 C5.55 14.4, -9.37 14.23, -13.7 13.59 C-18.03 12.94, -19.18 10.51, -15.32 10.05 C-11.45 9.59, 3.87 10.42, 9.51 10.82 C15.15 11.22, 16.79 11.5, 18.53 12.45 C20.27 13.4, 21.7 15.38, 19.96 16.53 C18.22 17.69, 14.13 18.81, 8.09 19.38 C2.05 19.95, -12.44 20.38, -16.29 19.95 C-20.13 19.51, -19.44 17.25, -14.98 16.77 C-10.51 16.28, 4.66 16.74, 10.51 17.04 C16.35 17.33, 20.08 16.94, 20.1 18.52 C20.11 20.1, 16.53 25.48, 10.58 26.5 C4.64 27.52, -10.89 25.43, -15.55 24.64 C-20.22 23.86, -21.52 22.22, -17.42 21.78 C-13.32 21.35, 2.6 21.62, 9.06 22.03 C15.51 22.45, 21.15 22.63, 21.33 24.28 C21.51 25.93, 16.28 30.56, 10.12 31.93 C3.97 33.3, -11.35 33.44, -15.59 32.51 C-19.83 31.58, -17.29 27.52, -15.31 26.35 C-13.33 25.19, -8.25 25.63, -3.72 25.52 C0.82 25.41, 8.12 25.16, 11.92 25.7 C15.71 26.24, 19.46 26.61, 19.06 28.77 C18.65 30.93, 14.81 36.87, 9.5 38.67 C4.19 40.46, -8.69 40.3, -12.8 39.54 C-16.92 38.79, -20.44 34.93, -15.19 34.14 C-9.95 33.36, 13.64 33.87, 18.65 34.83 C23.66 35.79, 18.34 38.78, 14.84 39.91 C11.34 41.03, 0.6 40.04, -2.36 41.57 C-5.32 43.11, -2.62 47.59, -2.93 49.11" stroke="#1e1e1e" stroke-width="2" fill="none"></path></g></g><mask></mask><g stroke-linecap="round"><g transform="translate(117.91452285694629 10.51541730253956) rotate(0 0 22.5)"><path d="M-0.22 -0.52 C-0.27 7.07, 0.07 37.93, 0.09 45.44 M0.68 0.41 C0.52 7.85, -0.1 37.28, -0.29 44.71" stroke="#1e1e1e" stroke-width="2" fill="none"></path></g></g><mask></mask><g stroke-linecap="round"><g transform="translate(41.93904973678292 204.2439424813738) rotate(0 -15.5 11)"><path d="M-0.69 1.2 C-5.91 5.01, -26.98 18.37, -31.94 21.93 M1.15 0.78 C-3.64 4.88, -24.37 20.15, -29.72 23.43" stroke="#1e1e1e" stroke-width="2" fill="none"></path></g></g><mask></mask><g stroke-linecap="round"><g transform="translate(192.94065827064793 201.1045489511821) rotate(0 17.238620667976086 9.952722283113829)"><path d="M1 -0.87 C6.77 2.54, 28.79 16.4, 34.18 20.06 M0.07 1.29 C5.69 4.95, 27.15 18.67, 33.07 21.67" stroke="#1e1e1e" stroke-width="2" fill="none"></path></g></g><mask></mask><g stroke-linecap="round"><g transform="translate(521.5173960730556 32.12227270940156) rotate(25.883511822652792 29.66251392560926 16.95932259941604)"><path d="M-0.2 -1.16 C9.55 4.48, 49.22 27.02, 59.3 32.74 M-1.77 0.85 C7.76 6.68, 48.05 28.12, 58.33 33.66" stroke="#1e1e1e" stroke-width="2" fill="none"></path></g></g><mask></mask><g stroke-linecap="round"><g transform="translate(584.5112669864178 75.00523551016875) rotate(330.76954012554893 1.7898620008637636 24.530282117345905)"><path d="M-0.03 -1.18 C0.19 -0.25, -0.19 3.11, 1.13 4.43 C2.44 5.75, 5.05 6.18, 7.86 6.74 C10.67 7.31, 16.32 7.49, 18 7.83 C19.68 8.16, 19.02 7.96, 17.92 8.76 C16.81 9.56, 16.77 11.9, 11.37 12.62 C5.98 13.33, -10.01 13.31, -14.47 13.03 C-18.92 12.75, -19.56 11.46, -15.38 10.95 C-11.21 10.44, 5.04 9.6, 10.58 9.96 C16.13 10.32, 16.7 12.09, 17.9 13.1 C19.1 14.12, 19.08 14.86, 17.8 16.05 C16.52 17.24, 15.99 19.52, 10.21 20.23 C4.43 20.95, -12.57 20.81, -16.88 20.33 C-21.18 19.85, -19.97 18.09, -15.61 17.37 C-11.24 16.64, 3.46 15.56, 9.3 15.98 C15.15 16.39, 19.43 18.37, 19.47 19.84 C19.51 21.31, 15.62 23.9, 9.53 24.8 C3.44 25.69, -12.68 25.86, -17.09 25.2 C-21.5 24.55, -21.35 21.47, -16.94 20.85 C-12.53 20.23, 3.31 20.63, 9.37 21.46 C15.42 22.3, 19.39 24.32, 19.37 25.86 C19.36 27.41, 14.95 30.04, 9.3 30.75 C3.66 31.47, -10.41 30.74, -14.48 30.14 C-18.54 29.54, -16.45 27.81, -15.08 27.16 C-13.72 26.5, -10.65 26.05, -6.29 26.19 C-1.92 26.33, 6.64 27.22, 11.12 28 C15.6 28.78, 20.78 29.48, 20.59 30.89 C20.39 32.29, 15.67 35.28, 9.94 36.41 C4.22 37.55, -9.56 38.33, -13.76 37.69 C-17.96 37.04, -20.25 33.32, -15.26 32.53 C-10.26 31.74, 11.03 31.78, 16.23 32.93 C21.43 34.08, 18.84 38.13, 15.94 39.42 C13.05 40.7, 1.97 39.22, -1.13 40.63 C-4.23 42.05, -2.52 46.36, -2.68 47.89 M-1.5 0.82 C-1.34 1.99, -0.74 4.88, 0.65 5.58 C2.05 6.27, 3.98 4.97, 6.86 5.01 C9.74 5.06, 15.78 5.21, 17.94 5.84 C20.1 6.46, 21.2 7.25, 19.81 8.76 C18.41 10.27, 15.71 14.42, 9.57 14.89 C3.43 15.36, -12.65 12.22, -17.02 11.56 C-21.39 10.9, -21.02 11.44, -16.65 10.93 C-12.27 10.42, 3.41 8.2, 9.21 8.51 C15.01 8.81, 16.76 11.3, 18.15 12.76 C19.54 14.23, 19.02 16.11, 17.56 17.3 C16.09 18.49, 15.15 19.51, 9.36 19.9 C3.56 20.3, -12.93 20.05, -17.21 19.67 C-21.49 19.29, -20.82 18.4, -16.33 17.63 C-11.85 16.86, 3.54 14.48, 9.7 15.04 C15.87 15.6, 20.91 19.23, 20.66 20.98 C20.41 22.72, 14.2 24.74, 8.22 25.51 C2.24 26.27, -11.35 26.38, -15.23 25.55 C-19.11 24.72, -18.71 20.97, -15.05 20.53 C-11.38 20.08, 1.23 22.19, 6.75 22.89 C12.27 23.6, 17.69 23.62, 18.08 24.77 C18.46 25.91, 14.38 29.04, 9.05 29.74 C3.71 30.45, -9.62 29.55, -13.95 28.98 C-18.28 28.41, -18.41 26.76, -16.92 26.32 C-15.44 25.88, -9.33 26.01, -5.03 26.36 C-0.73 26.7, 4.9 27.65, 8.87 28.39 C12.84 29.13, 18.37 29.2, 18.8 30.82 C19.22 32.44, 16.8 36.74, 11.42 38.11 C6.05 39.48, -9.27 39.69, -13.46 39.04 C-17.65 38.4, -19.11 34.98, -13.71 34.25 C-8.3 33.52, 14 34.04, 18.97 34.66 C23.93 35.27, 19.16 37.01, 16.07 37.94 C12.98 38.87, 3.85 38.48, 0.45 40.23 C-2.95 41.98, -3.68 46.89, -4.35 48.44" stroke="#1e1e1e" stroke-width="2" fill="none"></path></g></g><mask></mask><g stroke-linecap="round"><g transform="translate(584.3374742682591 135.32916900791383) rotate(25.883511822652792 31.876427930069354 17.38911798397956)"><path d="M0.91 -0.74 C11.47 5.45, 52.93 29.84, 63.31 35.94 M-0.07 1.49 C10.29 7.47, 51.76 28.99, 62.12 34.43" stroke="#1e1e1e" stroke-width="2" fill="none"></path></g></g><mask></mask><g stroke-linecap="round"><g transform="translate(446.6100682565741 169.53057190247543) rotate(328.2652478584161 29.66251392560926 16.95932259941604)"><path d="M0.39 -0.74 C10.31 4.7, 49.31 27.86, 59.31 33.48 M-0.86 1.49 C8.92 7.02, 48.19 29.41, 58.36 34.79" stroke="#1e1e1e" stroke-width="2" fill="none"></path></g></g><mask></mask><g stroke-linecap="round"><g transform="translate(536.3419539813519 160.31220281497923) rotate(273.1512761613121 1.7898620008637494 24.530282117345905)"><path d="M-0.01 -0.44 C0.14 0.39, -0.11 3.23, 1.29 4.21 C2.68 5.19, 5.64 4.97, 8.36 5.44 C11.08 5.9, 16.01 6.47, 17.61 6.98 C19.22 7.5, 19.21 7.66, 17.97 8.52 C16.73 9.38, 15.69 11.15, 10.19 12.13 C4.68 13.11, -10.78 14.77, -15.05 14.38 C-19.31 14, -19.75 10.71, -15.4 9.82 C-11.04 8.93, 5.45 8.58, 11.09 9.04 C16.72 9.5, 17.03 11.61, 18.41 12.58 C19.79 13.56, 21.12 13.49, 19.38 14.87 C17.63 16.25, 13.65 19.97, 7.95 20.86 C2.25 21.75, -11.06 21.02, -14.82 20.21 C-18.59 19.4, -18.67 16.73, -14.62 15.99 C-10.58 15.25, 3.7 14.93, 9.44 15.78 C15.17 16.63, 19.77 19.73, 19.78 21.09 C19.79 22.45, 15.63 23.46, 9.51 23.96 C3.39 24.46, -12.47 24.35, -16.93 24.09 C-21.39 23.84, -21.66 22.78, -17.25 22.44 C-12.85 22.1, 3.22 21.6, 9.49 22.06 C15.75 22.51, 20 23.67, 20.33 25.19 C20.66 26.71, 17.37 30.41, 11.47 31.18 C5.57 31.95, -10.4 30.63, -15.06 29.81 C-19.72 28.99, -18.18 26.7, -16.48 26.26 C-14.77 25.82, -9.17 26.99, -4.81 27.14 C-0.46 27.3, 5.37 26.59, 9.65 27.17 C13.93 27.76, 21 29.06, 20.88 30.63 C20.76 32.21, 14.74 35.39, 8.93 36.64 C3.13 37.89, -9.82 38.61, -13.96 38.14 C-18.09 37.67, -20.95 34.53, -15.87 33.81 C-10.78 33.1, 11.38 33.18, 16.53 33.85 C21.69 34.51, 17.85 36.76, 15.05 37.82 C12.25 38.89, 2.68 38.32, -0.3 40.25 C-3.27 42.17, -2.38 48.11, -2.81 49.38 M-1.48 -1.71 C-1.43 -0.7, -0.62 3.85, 0.9 5.25 C2.41 6.64, 4.88 6.18, 7.62 6.68 C10.36 7.17, 15.3 7.92, 17.35 8.21 C19.39 8.5, 20.87 7.41, 19.89 8.4 C18.9 9.39, 17.11 13.28, 11.42 14.15 C5.74 15.02, -9.56 14.44, -14.24 13.62 C-18.93 12.8, -20.7 9.69, -16.67 9.22 C-12.63 8.74, 4.05 10.31, 9.98 10.77 C15.91 11.23, 17.27 11.18, 18.93 11.97 C20.59 12.76, 21.51 14.02, 19.95 15.5 C18.4 16.98, 15.25 20.19, 9.57 20.85 C3.9 21.52, -10.02 20.38, -14.08 19.49 C-18.15 18.6, -18.83 15.71, -14.83 15.53 C-10.83 15.35, 4.52 17.79, 9.91 18.4 C15.29 19.02, 17.76 18.25, 17.47 19.22 C17.18 20.19, 13.59 23.46, 8.18 24.24 C2.77 25.01, -11.04 24.07, -14.99 23.85 C-18.94 23.64, -19.17 22.96, -15.52 22.95 C-11.86 22.94, 1.1 23.06, 6.94 23.8 C12.78 24.54, 19.25 26.3, 19.54 27.4 C19.83 28.5, 14.41 29.6, 8.68 30.39 C2.95 31.18, -10.82 32.44, -14.84 32.14 C-18.85 31.84, -16.79 29.33, -15.39 28.61 C-13.99 27.89, -10.72 28.06, -6.44 27.82 C-2.16 27.57, 6 26.69, 10.29 27.13 C14.57 27.57, 19.31 28.55, 19.25 30.44 C19.18 32.33, 15.38 36.91, 9.88 38.45 C4.38 40, -9.67 40.72, -13.76 39.73 C-17.84 38.75, -19.56 33.77, -14.64 32.54 C-9.72 31.32, 10.88 31.28, 15.77 32.39 C20.66 33.49, 17.66 37.96, 14.71 39.17 C11.76 40.38, 1.27 37.71, -1.94 39.63 C-5.14 41.56, -4.08 48.95, -4.55 50.72" stroke="#1e1e1e" stroke-width="2" fill="none"></path></g></g><mask></mask><g stroke-linecap="round"><g transform="translate(566.5863618066011 169.168226931608) rotate(328.2652478584161 31.876427930069354 17.38911798397956)"><path d="M1.07 -0.96 C11.71 4.89, 53.52 28.64, 63.81 34.63 M0.17 1.16 C10.66 7.23, 52.05 30.21, 62.88 36.09" stroke="#1e1e1e" stroke-width="2" fill="none"></path></g></g><mask></mask><g stroke-linecap="round"><g transform="translate(414.11342179689876 142.48782737717298) rotate(274.3240114373715 29.66251392560926 16.95932259941604)"><path d="M-0.14 -1.09 C9.88 4.49, 49.11 28.14, 58.98 33.79 M-1.68 0.95 C8.26 6.7, 47.88 29.83, 57.86 35.26" stroke="#1e1e1e" stroke-width="2" fill="none"></path></g></g><mask></mask><g stroke-linecap="round"><g transform="translate(475.46649899860444 84.13980929313504) rotate(579.2100397402677 1.7898620008637494 24.530282117345905)"><path d="M-0.34 -0.13 C-0.32 0.73, -1.59 2.93, -0.04 4.06 C1.51 5.19, 5.98 6.19, 8.96 6.64 C11.95 7.1, 16.38 6.41, 17.87 6.79 C19.37 7.16, 19.23 7.99, 17.94 8.91 C16.65 9.83, 15.51 11.64, 10.13 12.31 C4.75 12.98, -10.2 13.04, -14.35 12.9 C-18.49 12.76, -18.74 11.93, -14.75 11.47 C-10.76 11.01, 3.99 9.93, 9.6 10.13 C15.21 10.33, 17.5 11.62, 18.92 12.67 C20.33 13.72, 19.93 15.32, 18.11 16.44 C16.29 17.57, 13.55 18.69, 7.98 19.43 C2.41 20.16, -11.52 21.39, -15.33 20.84 C-19.14 20.3, -18.82 16.79, -14.87 16.17 C-10.92 15.55, 2.55 16.58, 8.35 17.13 C14.16 17.68, 19.8 18, 19.98 19.47 C20.16 20.94, 15.27 25.02, 9.43 25.97 C3.59 26.91, -10.7 25.99, -15.04 25.15 C-19.38 24.3, -20.39 21.54, -16.61 20.9 C-12.83 20.27, 1.63 20.44, 7.65 21.33 C13.68 22.21, 19.03 24.8, 19.52 26.2 C20.02 27.59, 16.61 28.97, 10.6 29.69 C4.59 30.41, -12.13 30.79, -16.55 30.52 C-20.98 30.26, -17.76 28.96, -15.95 28.1 C-14.15 27.25, -10.05 25.49, -5.71 25.39 C-1.37 25.29, 5.83 26.8, 10.11 27.52 C14.39 28.25, 19.88 28.29, 19.99 29.72 C20.11 31.16, 16.62 34.88, 10.8 36.14 C4.99 37.4, -10.53 37.65, -14.9 37.26 C-19.26 36.87, -20.93 34.52, -15.38 33.79 C-9.84 33.05, 13.05 32.17, 18.39 32.85 C23.74 33.53, 20.04 36.73, 16.66 37.86 C13.29 39, 1.64 37.68, -1.84 39.67 C-5.32 41.65, -3.87 48.22, -4.21 49.76 M1.68 -1.24 C1.53 -0.18, -2.26 4, -1.12 5.02 C0.02 6.03, 5.39 4.37, 8.54 4.85 C11.68 5.34, 15.86 7.22, 17.75 7.91 C19.63 8.6, 20.91 7.9, 19.84 8.98 C18.77 10.07, 17.45 13.42, 11.34 14.42 C5.22 15.43, -12.34 15.47, -16.84 15.02 C-21.34 14.57, -20.38 12.77, -15.68 11.73 C-10.98 10.68, 5.48 8.71, 11.37 8.77 C17.27 8.83, 18.58 11.19, 19.69 12.1 C20.8 13.02, 19.71 13.14, 18.03 14.23 C16.35 15.33, 15.1 17.64, 9.62 18.67 C4.14 19.71, -10.71 20.93, -14.85 20.45 C-18.99 19.97, -19.06 16.41, -15.21 15.8 C-11.36 15.2, 2.76 16.03, 8.26 16.8 C13.75 17.57, 17.81 19.27, 17.78 20.41 C17.75 21.55, 13.65 22.79, 8.06 23.63 C2.48 24.47, -11.99 25.96, -15.76 25.46 C-19.53 24.96, -18.47 21.07, -14.54 20.61 C-10.61 20.14, 2.33 21.91, 7.8 22.68 C13.28 23.46, 17.77 23.76, 18.3 25.27 C18.84 26.79, 16.92 31.06, 11.02 31.78 C5.12 32.49, -12.85 30.23, -17.12 29.56 C-21.38 28.9, -16.76 28.5, -14.59 27.76 C-12.43 27.03, -8.41 25.16, -4.15 25.14 C0.12 25.13, 6.7 27.01, 10.99 27.67 C15.27 28.32, 21.87 27.38, 21.55 29.05 C21.23 30.72, 15.2 36.14, 9.08 37.69 C2.95 39.25, -11.37 39.25, -15.2 38.39 C-19.03 37.52, -19.54 33.15, -13.9 32.5 C-8.27 31.86, 13.43 33.41, 18.61 34.53 C23.78 35.65, 20.37 38.53, 17.17 39.23 C13.96 39.94, 2.73 37.35, -0.64 38.75 C-4 40.15, -2.69 46.07, -3.03 47.64" stroke="#1e1e1e" stroke-width="2" fill="none"></path></g></g><mask></mask><g stroke-linecap="round"><g transform="translate(482.59592162758895 42.56902129662524) rotate(274.3240114373715 31.87642793006937 17.38911798397956)"><path d="M-0.25 -1.1 C10.54 4.89, 53.86 29.85, 64.41 35.84 M1.81 0.93 C12.53 6.62, 53.18 28.4, 63.8 34.27" stroke="#1e1e1e" stroke-width="2" fill="none"></path></g></g><mask></mask></svg>