<svg version="1.1" xmlns="http://www.w3.org/2000/svg" viewBox="0 0 110 382" width="110" height="382" class="excalidraw-svg"><!-- svg-source:excalidraw --><metadata></metadata><defs><style class="style-fonts">
      </style></defs><rect x="0" y="0" width="110" height="382" fill="#ffffff"></rect><g stroke-linecap="round" transform="translate(10 10) rotate(0 45 181)"><path d="M24.79 16.86 C28.63 6.23, 34.52 2.97, 39.59 0.99 C44.67 -0.99, 50.35 0.72, 55.24 4.98 C60.13 9.25, 64.95 16.62, 68.95 26.58 C72.95 36.54, 76.33 49.67, 79.24 64.74 C82.15 79.82, 84.61 98.78, 86.41 117.02 C88.21 135.27, 89.87 154.7, 90.03 174.21 C90.2 193.73, 88.92 215.09, 87.39 234.1 C85.86 253.11, 83.71 272.29, 80.84 288.29 C77.96 304.28, 73.99 318.92, 70.13 330.07 C66.28 341.23, 62.25 349.96, 57.7 355.21 C53.16 360.46, 47.65 362.5, 42.86 361.56 C38.07 360.62, 33.51 356.92, 28.99 349.57 C24.46 342.22, 19.53 330.18, 15.71 317.47 C11.9 304.76, 8.58 290.26, 6.09 273.31 C3.6 256.35, 1.57 235.02, 0.77 215.74 C-0.03 196.47, 0.69 176.84, 1.26 157.66 C1.84 138.48, 2.3 118.19, 4.21 100.67 C6.11 83.16, 8.78 67.26, 12.7 52.57 C16.61 37.87, 24.39 19.38, 27.71 12.52 C31.03 5.67, 32.13 8.63, 32.62 11.44 M33.17 5.98 C37.63 -1.58, 43.68 -1.84, 48.68 -0.63 C53.69 0.58, 58.55 5.47, 63.21 13.24 C67.86 21, 73.1 32.65, 76.61 45.97 C80.12 59.28, 82.13 76.06, 84.28 93.14 C86.43 110.21, 88.5 129.09, 89.49 148.41 C90.49 167.73, 90.91 189.6, 90.26 209.07 C89.62 228.54, 88.28 248.16, 85.63 265.24 C82.99 282.32, 77.96 298.2, 74.41 311.56 C70.86 324.91, 68.45 337.24, 64.35 345.37 C60.24 353.49, 54.55 358.5, 49.77 360.31 C44.99 362.11, 40.42 360.88, 35.66 356.2 C30.91 351.52, 25.69 342.69, 21.25 332.23 C16.81 321.78, 12.01 308.75, 9.03 293.47 C6.06 278.18, 5.12 259.16, 3.39 240.53 C1.66 221.9, -1.07 200.91, -1.34 181.7 C-1.6 162.49, 0.15 143.82, 1.82 125.28 C3.48 106.73, 5.52 86.4, 8.63 70.44 C11.74 54.49, 16.48 40.12, 20.48 29.57 C24.48 19.01, 30.45 10.33, 32.64 7.1 C34.83 3.87, 33.19 7.25, 33.61 10.17" stroke="#1e1e1e" stroke-width="2" fill="none"></path></g></svg>