<svg version="1.1" xmlns="http://www.w3.org/2000/svg" viewBox="0 0 790 732.5" width="790" height="732.5" class="excalidraw-svg"><!-- svg-source:excalidraw --><metadata></metadata><defs><style class="style-fonts">
      </style></defs><rect x="0" y="0" width="790" height="732.5" fill="#ffffff"></rect><g stroke-linecap="round" transform="translate(137.5 115) rotate(0 247.5 247.5)"><path d="M234.65 -0.04 C252.96 -5.18, 273.51 0.17, 292.77 3.81 C312.02 7.44, 332.15 13.64, 350.19 21.75 C368.23 29.86, 385.43 40.19, 401.01 52.47 C416.59 64.74, 431.45 79.61, 443.64 95.4 C455.84 111.18, 466.33 128.9, 474.19 147.18 C482.05 165.45, 487.34 185.69, 490.82 205.04 C494.3 224.39, 496.18 243.67, 495.07 263.28 C493.96 282.89, 490.3 303.74, 484.15 322.72 C478 341.71, 468.48 360.49, 458.17 377.21 C447.86 393.94, 436.33 409.35, 422.28 423.08 C408.23 436.81, 390.82 449.38, 373.87 459.62 C356.92 469.86, 339.33 478.75, 320.61 484.53 C301.88 490.3, 281.45 493.11, 261.52 494.29 C241.59 495.46, 220.63 495.03, 201.05 491.57 C181.46 488.11, 161.91 481.94, 144.02 473.51 C126.13 465.08, 108.91 453.43, 93.72 441 C78.53 428.57, 64.88 414.53, 52.88 398.9 C40.89 383.27, 30.03 365.17, 21.74 347.23 C13.44 329.29, 6.65 310.69, 3.11 291.27 C-0.42 271.85, -0.85 250.64, 0.52 230.71 C1.89 210.79, 5.26 190.5, 11.34 171.72 C17.42 152.94, 26.52 134.82, 37.01 118.03 C47.51 101.25, 60.54 84.89, 74.31 71.02 C88.07 57.14, 102.94 44.9, 119.6 34.79 C136.26 24.67, 154.17 16.07, 174.25 10.33 C194.33 4.59, 227.81 1.14, 240.09 0.35 C252.36 -0.43, 247.76 1.6, 247.89 5.63 M248.53 -0.16 C267.32 -4.02, 290.57 1.66, 309.92 6.43 C329.28 11.19, 347.39 18.75, 364.65 28.44 C381.91 38.12, 398.74 51.31, 413.47 64.52 C428.2 77.74, 442.03 91.66, 453.02 107.72 C464.02 123.77, 472.71 142.05, 479.42 160.87 C486.14 179.68, 490.82 200.61, 493.31 220.62 C495.8 240.64, 497.04 261.37, 494.36 280.96 C491.68 300.55, 484.62 319.75, 477.23 338.16 C469.85 356.56, 461.39 375.13, 450.05 391.39 C438.71 407.65, 424.09 422.85, 409.19 435.7 C394.3 448.56, 378.23 459.7, 360.7 468.53 C343.17 477.36, 323.42 484.48, 304 488.69 C284.58 492.9, 264.06 493.88, 244.19 493.8 C224.32 493.71, 203.66 492.94, 184.77 488.19 C165.88 483.43, 147.99 474.91, 130.85 465.25 C113.7 455.59, 96.38 443.52, 81.9 430.24 C67.41 416.95, 54.87 401.84, 43.95 385.52 C33.03 369.2, 23.5 350.92, 16.37 332.3 C9.24 313.68, 3.59 293.03, 1.15 273.78 C-1.29 254.53, -0.97 236.27, 1.74 216.82 C4.45 197.37, 10.17 175.77, 17.41 157.07 C24.65 138.36, 33.7 120.76, 45.18 104.58 C56.66 88.39, 71.62 72.72, 86.3 59.96 C100.98 47.19, 115.75 37.01, 133.26 28 C150.77 18.99, 171.77 10.58, 191.34 5.89 C210.92 1.21, 241.14 0.07, 250.72 -0.11 C260.31 -0.28, 248.87 0.79, 248.86 4.84" stroke="#1e1e1e" stroke-width="2" fill="none"></path></g><g stroke-linecap="round" transform="translate(346.5 10) rotate(0 38.5 38.5)"><path d="M34.32 0.21 C41.41 -1.03, 52.19 0.69, 58.63 4.47 C65.07 8.25, 69.94 16.01, 72.97 22.9 C76 29.79, 78.28 38.54, 76.83 45.83 C75.37 53.11, 69.97 61.36, 64.25 66.61 C58.52 71.87, 49.93 76.61, 42.47 77.35 C35.01 78.1, 26.05 75.08, 19.48 71.08 C12.91 67.08, 6.19 60.07, 3.08 53.37 C-0.04 46.66, -1 37.93, 0.79 30.82 C2.58 23.72, 7.66 15.77, 13.84 10.72 C20.02 5.68, 33.12 2.03, 37.85 0.56 C42.59 -0.9, 42.22 1.23, 42.23 1.94 M40.55 -1.08 C47.39 -1.41, 55.28 2.06, 61.28 7 C67.27 11.93, 74.36 21, 76.51 28.52 C78.67 36.05, 77.16 44.9, 74.19 52.14 C71.22 59.39, 65.04 67.67, 58.69 71.98 C52.33 76.3, 43.56 78.64, 36.05 78.02 C28.54 77.39, 19.63 73.16, 13.62 68.23 C7.62 63.3, 1.67 55.56, 0.03 48.45 C-1.61 41.33, 1 32.54, 3.77 25.55 C6.54 18.56, 10.65 10.55, 16.63 6.51 C22.62 2.47, 35.88 2.46, 39.66 1.31 C43.44 0.17, 39.14 -0.95, 39.31 -0.36" stroke="#1e1e1e" stroke-width="2" fill="none"></path></g><g stroke-linecap="round" transform="translate(341 645.5) rotate(0 38.5 38.5)"><path d="M45.52 1.06 C52.83 1.59, 61.5 5.36, 66.58 10.45 C71.66 15.54, 74.97 24.01, 76.01 31.58 C77.05 39.16, 75.99 48.99, 72.81 55.9 C69.62 62.81, 63.73 69.6, 56.9 73.07 C50.08 76.54, 39.57 77.87, 31.85 76.73 C24.14 75.58, 15.71 71.42, 10.61 66.18 C5.51 60.93, 2.33 52.62, 1.27 45.25 C0.21 37.88, 0.81 28.89, 4.25 21.98 C7.69 15.06, 14.24 7.03, 21.9 3.77 C29.55 0.52, 44.85 2.55, 50.19 2.44 C55.54 2.33, 54.19 2.64, 53.98 3.11 M38.14 -0.18 C44.87 -1.28, 53.29 1.21, 59.41 5.6 C65.54 9.99, 72.4 18.79, 74.87 26.16 C77.33 33.53, 76.43 42.5, 74.2 49.82 C71.98 57.15, 67.59 65.49, 61.51 70.12 C55.44 74.75, 45.39 77.54, 37.75 77.61 C30.12 77.67, 21.65 75.08, 15.68 70.5 C9.71 65.93, 4.27 57.27, 1.95 50.16 C-0.37 43.05, -0.28 34.99, 1.76 27.85 C3.79 20.71, 8.29 11.77, 14.16 7.31 C20.03 2.85, 33.08 2.19, 36.96 1.1 C40.84 0.01, 37.4 0.16, 37.43 0.8" stroke="#1e1e1e" stroke-width="2" fill="none"></path></g><g stroke-linecap="round" transform="translate(109 90.5) rotate(0 38.5 38.5)"><path d="M48.11 0.59 C55.02 1.87, 62.05 8.26, 66.82 13.92 C71.59 19.57, 76.07 27.14, 76.74 34.51 C77.41 41.87, 74.82 51.56, 70.84 58.12 C66.86 64.68, 59.87 70.74, 52.85 73.88 C45.83 77.01, 36 78.74, 28.72 76.92 C21.45 75.11, 13.89 68.82, 9.21 62.98 C4.52 57.15, 1.3 49.38, 0.59 41.93 C-0.11 34.47, 1.23 24.71, 4.99 18.25 C8.75 11.79, 15.17 5.61, 23.18 3.17 C31.18 0.74, 46.91 3.1, 53.03 3.63 C59.15 4.16, 59.94 5.93, 59.9 6.37 M26.46 1.46 C33.05 -1.41, 41.52 -2.18, 48.69 0.33 C55.87 2.84, 64.95 10.06, 69.51 16.52 C74.08 22.98, 75.97 31.52, 76.09 39.07 C76.21 46.62, 74.51 56.08, 70.25 61.83 C65.99 67.58, 57.8 71.11, 50.51 73.58 C43.22 76.04, 33.4 78.76, 26.5 76.64 C19.6 74.53, 13.28 66.98, 9.09 60.86 C4.91 54.75, 1.78 47.53, 1.39 39.94 C1 32.34, 2.79 21.42, 6.75 15.28 C10.71 9.14, 21.85 4.98, 25.14 3.09 C28.42 1.21, 26.24 3.35, 26.46 3.97" stroke="#1e1e1e" stroke-width="2" fill="none"></path></g><g stroke-linecap="round" transform="translate(575 576.5) rotate(0 38.5 38.5)"><path d="M50.08 1.84 C56.88 3.45, 64.54 9.16, 68.91 15.25 C73.28 21.33, 76.34 30.57, 76.29 38.37 C76.24 46.16, 72.82 55.89, 68.63 62 C64.44 68.11, 58.23 72.87, 51.14 75 C44.05 77.14, 33.24 77.04, 26.08 74.81 C18.91 72.59, 12.44 67.84, 8.15 61.68 C3.87 55.51, 0.48 45.5, 0.37 37.85 C0.26 30.19, 3.18 21.74, 7.5 15.76 C11.83 9.77, 17.79 3.65, 26.32 1.93 C34.86 0.21, 52.47 4.01, 58.74 5.45 C65.01 6.89, 64.24 10.04, 63.94 10.56 M54.32 2.58 C61.19 5.16, 69.51 13.63, 73.29 20.47 C77.06 27.31, 78.39 36.3, 76.99 43.62 C75.59 50.93, 70.19 58.63, 64.87 64.34 C59.54 70.04, 52.08 76.27, 45.05 77.83 C38.02 79.4, 29.65 77.1, 22.68 73.76 C15.71 70.41, 7.04 64.47, 3.23 57.76 C-0.58 51.05, -1.33 41.27, -0.19 33.48 C0.95 25.69, 4.64 16.44, 10.06 11.04 C15.47 5.64, 24.74 2.17, 32.31 1.08 C39.87 0, 51.62 3.93, 55.43 4.53 C59.24 5.12, 55.49 3.95, 55.16 4.65" stroke="#1e1e1e" stroke-width="2" fill="none"></path></g><g stroke-linecap="round" transform="translate(10 324.5) rotate(0 38.5 38.5)"><path d="M21.22 3.65 C27.24 -0.32, 36.09 -1.09, 43.53 -0.04 C50.97 1.01, 60.44 4.72, 65.87 9.95 C71.31 15.18, 74.87 23.93, 76.15 31.35 C77.42 38.77, 76.83 47.61, 73.52 54.49 C70.2 61.36, 63.1 68.75, 56.26 72.6 C49.43 76.45, 39.87 78.72, 32.52 77.57 C25.16 76.43, 17.47 71.2, 12.12 65.73 C6.76 60.25, 1.87 52.12, 0.39 44.71 C-1.09 37.31, -0.44 28.14, 3.25 21.31 C6.94 14.48, 19.02 6.75, 22.53 3.75 C26.04 0.74, 23.99 2.71, 24.3 3.29 M35.96 1.62 C43.08 0.34, 53.42 0.17, 59.81 4.01 C66.2 7.85, 71.7 17.23, 74.32 24.68 C76.93 32.12, 77.23 41.56, 75.51 48.66 C73.79 55.76, 69.71 62.49, 63.97 67.28 C58.23 72.08, 48.47 76.5, 41.06 77.43 C33.65 78.35, 25.66 76.86, 19.53 72.84 C13.4 68.83, 7.31 60.43, 4.29 53.35 C1.26 46.26, -0.35 37.89, 1.38 30.34 C3.12 22.79, 9.26 12.88, 14.71 8.05 C20.16 3.22, 30.89 2.69, 34.07 1.37 C37.26 0.05, 33.57 -0.39, 33.83 0.14" stroke="#1e1e1e" stroke-width="2" fill="none"></path></g><g stroke-linecap="round" transform="translate(609 100.5) rotate(0 38.5 38.5)"><path d="M42.5 0.76 C49.63 0.92, 58.47 4.55, 63.92 9.51 C69.38 14.46, 73.51 23.25, 75.2 30.47 C76.9 37.69, 76.89 46.05, 74.1 52.85 C71.3 59.64, 64.94 67.33, 58.44 71.24 C51.94 75.16, 42.51 76.92, 35.1 76.34 C27.68 75.75, 19.5 72.46, 13.95 67.72 C8.4 62.98, 3.55 55.33, 1.81 47.89 C0.06 40.45, 0.57 30.14, 3.49 23.09 C6.41 16.03, 12.09 9.22, 19.32 5.55 C26.55 1.88, 41.63 1.47, 46.89 1.08 C52.15 0.69, 50.94 2.52, 50.87 3.24 M20.33 2.79 C26.56 -0.7, 37.98 0.14, 45.76 1.42 C53.54 2.69, 61.71 5.24, 67.01 10.46 C72.31 15.69, 76.56 25.09, 77.57 32.75 C78.58 40.4, 76.89 49.61, 73.05 56.38 C69.2 63.15, 61.48 70.12, 54.51 73.36 C47.53 76.61, 38.48 77.24, 31.2 75.86 C23.93 74.48, 16.14 70.28, 10.88 65.08 C5.63 59.89, 0.85 52.27, -0.32 44.67 C-1.48 37.06, 0.04 26.35, 3.9 19.45 C7.75 12.54, 19.81 5.68, 22.8 3.26 C25.79 0.84, 21.68 4.38, 21.84 4.9" stroke="#1e1e1e" stroke-width="2" fill="none"></path></g><g stroke-linecap="round" transform="translate(703 315.5) rotate(0 38.5 38.5)"><path d="M40.47 0.23 C47.51 0.16, 55.69 3.81, 61.48 8.45 C67.27 13.09, 73.11 20.71, 75.22 28.07 C77.33 35.42, 76.64 45.36, 74.13 52.57 C71.63 59.78, 66.22 67.2, 60.18 71.33 C54.14 75.46, 45.52 77.69, 37.89 77.35 C30.27 77.02, 20.51 74.08, 14.45 69.32 C8.4 64.56, 3.57 56.29, 1.58 48.78 C-0.42 41.28, -0.12 31.29, 2.46 24.28 C5.05 17.26, 9.34 10.68, 17.1 6.7 C24.86 2.72, 42.5 0.64, 49.02 0.38 C55.54 0.13, 56.64 4.53, 56.21 5.18 M43.27 1.42 C50.21 2.03, 59.81 6.89, 65.31 11.95 C70.81 17.02, 74.99 24.54, 76.27 31.8 C77.54 39.07, 76.46 48.7, 72.97 55.56 C69.48 62.43, 62.12 69.62, 55.34 73 C48.56 76.38, 39.49 77.16, 32.28 75.83 C25.07 74.49, 17.56 70.05, 12.11 64.99 C6.65 59.94, 0.97 52.89, -0.44 45.51 C-1.84 38.13, 0 27.55, 3.65 20.72 C7.3 13.89, 14.8 7.68, 21.48 4.53 C28.15 1.38, 39.76 2.2, 43.72 1.79 C47.69 1.39, 45.31 1.85, 45.26 2.11" stroke="#1e1e1e" stroke-width="2" fill="none"></path></g><g stroke-linecap="round" transform="translate(104 561.5) rotate(0 38.5 38.5)"><path d="M23.47 2.58 C29.95 -0.61, 40.41 -0.69, 47.89 1.21 C55.37 3.12, 63.47 8.43, 68.36 14.03 C73.25 19.63, 76.6 27.42, 77.23 34.82 C77.85 42.21, 76.06 51.85, 72.08 58.38 C68.11 64.91, 60.57 71.07, 53.39 74.02 C46.2 76.96, 36.24 77.66, 28.96 76.07 C21.67 74.48, 14.62 70.11, 9.67 64.46 C4.72 58.81, -0.07 49.97, -0.75 42.19 C-1.43 34.42, 0.63 24.62, 5.59 17.81 C10.56 11, 23.82 4.07, 29.05 1.33 C34.28 -1.42, 36.86 0.65, 36.97 1.33 M31.42 0.73 C38.22 -0.99, 48.32 0.21, 55.22 3.53 C62.12 6.86, 69.38 13.75, 72.82 20.68 C76.27 27.62, 77.15 37.83, 75.89 45.15 C74.63 52.48, 70.27 59.51, 65.27 64.63 C60.27 69.76, 53.26 74.45, 45.89 75.89 C38.52 77.33, 27.93 76.71, 21.07 73.29 C14.2 69.86, 7.93 61.95, 4.71 55.32 C1.48 48.69, 0.53 40.91, 1.73 33.5 C2.94 26.1, 7.02 16.46, 11.93 10.87 C16.85 5.27, 27.69 1.62, 31.22 -0.06 C34.74 -1.74, 32.83 0.22, 33.09 0.79" stroke="#1e1e1e" stroke-width="2" fill="none"></path></g></svg>