<svg version="1.1" xmlns="http://www.w3.org/2000/svg" viewBox="0 0 199.96176686140177 324.6520109095398" width="199.96176686140177" height="324.6520109095398" class="excalidraw-svg"><!-- svg-source:excalidraw --><metadata></metadata><defs><style class="style-fonts">
      </style></defs><rect x="0" y="0" width="199.96176686140177" height="324.6520109095398" fill="#ffffff"></rect><g stroke-linecap="round"><g transform="translate(159.1666342322533 11.036500073224317) rotate(0 -59.633917041727244 151.99982407925776)" fill-rule="evenodd"><path d="M-2.32 0.25 C-26.29 24.29, -136.22 116.78, -144.44 144.11 C-152.65 171.44, -50.67 137.95, -51.61 164.22 C-52.56 190.48, -163.54 303.66, -150.11 301.72 C-136.68 299.78, 12.16 184.67, 28.97 152.56 C45.79 120.44, -44.75 134.57, -49.21 109.03 C-53.68 83.49, -6.18 17.17, 2.2 -0.68" stroke="none" stroke-width="0" fill="#ffec99" fill-rule="evenodd"></path><path d="M-0.94 -1.04 C-25.02 22.49, -134.82 113.35, -143.51 141.46 C-152.2 169.57, -52.34 140.68, -53.08 167.61 C-53.83 194.53, -161.63 305.42, -147.97 303.01 C-134.32 300.59, 12.62 185.25, 28.85 153.13 C45.08 121, -45.61 135.9, -50.59 110.24 C-55.58 84.58, -9.42 17.43, -1.07 -0.83 M0.77 1.03 C-23.57 24.65, -135.94 115, -144.51 142.46 C-153.07 169.93, -50.1 138.97, -50.61 165.83 C-51.13 192.68, -160.6 305.67, -147.61 303.59 C-134.61 301.51, 11.04 185.75, 27.34 153.34 C43.64 120.93, -45.09 134.51, -49.81 109.13 C-54.53 83.75, -8.99 19.12, -0.98 1.05" stroke="#1e1e1e" stroke-width="2" fill="none"></path></g></g><mask></mask></svg>