<svg version="1.1" xmlns="http://www.w3.org/2000/svg" viewBox="0 0 332.78331185078946 218.3857627600059" width="332.78331185078946" height="218.3857627600059" class="excalidraw-svg"><!-- svg-source:excalidraw --><metadata></metadata><defs><style class="style-fonts">
      </style></defs><rect x="0" y="0" width="332.78331185078946" height="218.3857627600059" fill="#ffffff"></rect><g stroke-linecap="round"><g transform="translate(12.443485215576374 15) rotate(0 0 96)"><path d="M0.27 0.65 C0.2 32.4, 0.92 159.02, 0.76 190.92 M-1.04 -0.05 C-1.31 31.77, -0.27 159.65, 0.21 191.89" stroke="#1e1e1e" stroke-width="2" fill="none"></path></g></g><mask></mask><g stroke-linecap="round"><g transform="translate(10.443485215576374 17) rotate(0 53 0)"><path d="M0.67 0.6 C18.26 0.55, 88.19 -0.87, 105.68 -1.08 M-0.44 -0.13 C16.96 0, 87.05 -0.19, 104.57 -0.11" stroke="#1e1e1e" stroke-width="2" fill="none"></path></g></g><mask></mask><g stroke-linecap="round"><g transform="translate(321.5958632232878 12.577923885127518) rotate(0 0 97.5)"><path d="M1.19 0.13 C1.03 32.43, 0.22 162.2, -0.13 194.52 M0.35 -0.84 C-0.05 31.56, -1.34 163.18, -1.14 195.81" stroke="#1e1e1e" stroke-width="2" fill="none"></path></g></g><mask></mask><g stroke-linecap="round"><g transform="translate(198.44348521557637 14.242761523276585) rotate(0 60.44055207881378 0)"><path d="M-1.09 0.22 C18.94 0.19, 100.07 0.53, 120.29 0.46 M0.54 -0.71 C20.96 -1.16, 102.93 -1.71, 122.7 -1.41" stroke="#1e1e1e" stroke-width="2" fill="none"></path></g></g><mask></mask><g stroke-linecap="round" transform="translate(187.44348521557637 10) rotate(0 4 5)"><path d="M3.79 0.39 C4.58 0.4, 6.05 0.93, 6.7 1.47 C7.34 2, 7.45 2.64, 7.65 3.61 C7.84 4.58, 8.18 6.34, 7.88 7.3 C7.57 8.26, 6.65 8.86, 5.83 9.36 C5 9.85, 3.89 10.61, 2.95 10.27 C2.02 9.92, 0.65 8.32, 0.23 7.29 C-0.19 6.26, 0.2 5.16, 0.41 4.09 C0.63 3.02, 0.98 1.51, 1.51 0.87 C2.04 0.22, 3.16 0.34, 3.61 0.23 C4.06 0.11, 4.19 0.11, 4.22 0.19 M3.96 -0.57 C4.78 -0.41, 6.26 0.72, 6.93 1.58 C7.59 2.45, 7.86 3.64, 7.96 4.61 C8.05 5.57, 8.11 6.43, 7.51 7.38 C6.92 8.33, 5.24 9.89, 4.37 10.3 C3.51 10.72, 3.05 10.53, 2.33 9.89 C1.62 9.25, 0.39 7.45, 0.08 6.47 C-0.23 5.49, 0.15 5.03, 0.49 3.99 C0.83 2.96, 1.44 1, 2.13 0.27 C2.82 -0.46, 4.23 -0.35, 4.63 -0.38 C5.03 -0.41, 4.66 -0.15, 4.54 0.09" stroke="#1e1e1e" stroke-width="2" fill="none"></path></g></svg>