<svg version="1.1" xmlns="http://www.w3.org/2000/svg" viewBox="0 0 429.5 86" width="429.5" height="86" class="excalidraw-svg"><!-- svg-source:excalidraw --><metadata></metadata><defs><style class="style-fonts">
      </style></defs><rect x="0" y="0" width="429.5" height="86" fill="#ffffff"></rect><g stroke-linecap="round" transform="translate(10 18) rotate(0 82.5 29)"><path d="M14.5 0 C52.64 -2.11, 92.63 -2.63, 150.5 0 M14.5 0 C62.96 0.28, 111.18 -0.14, 150.5 0 M150.5 0 C160.15 1.36, 166.7 4.48, 165 14.5 M150.5 0 C161.67 -1.87, 165.95 3.27, 165 14.5 M165 14.5 C165.16 22.96, 164.41 32.88, 165 43.5 M165 14.5 C164.44 25.77, 164.59 36.92, 165 43.5 M165 43.5 C165.64 53.98, 161.16 56.71, 150.5 58 M165 43.5 C165.12 54.28, 161.54 56.17, 150.5 58 M150.5 58 C116.73 61.05, 84.96 58.23, 14.5 58 M150.5 58 C112.38 57.79, 75.41 57.29, 14.5 58 M14.5 58 C6.17 58.7, -1.77 53.64, 0 43.5 M14.5 58 C7.11 57.55, 1.61 53.48, 0 43.5 M0 43.5 C-0.59 32.24, -1.05 21.77, 0 14.5 M0 43.5 C-0.24 36.38, 0.79 27.66, 0 14.5 M0 14.5 C-1 4.05, 3.43 -1.67, 14.5 0 M0 14.5 C0.58 5.7, 4.26 1.86, 14.5 0" stroke="#1e1e1e" stroke-width="2" fill="none"></path></g><g stroke-linecap="round" transform="translate(254.5 10) rotate(0 82.5 29)"><path d="M14.5 0 C50.44 1.89, 84.88 2.76, 150.5 0 M14.5 0 C54.69 1.7, 95.26 1.75, 150.5 0 M150.5 0 C160.89 -0.73, 163.04 5.22, 165 14.5 M150.5 0 C159.78 1.78, 166.04 5.05, 165 14.5 M165 14.5 C166.32 22.62, 164.03 34.06, 165 43.5 M165 14.5 C164.72 22.81, 165.86 29.19, 165 43.5 M165 43.5 C163.34 53.77, 161.01 58.3, 150.5 58 M165 43.5 C163.84 54.57, 161.1 58.14, 150.5 58 M150.5 58 C115.85 59.24, 85.44 58.38, 14.5 58 M150.5 58 C112.89 56.99, 76.68 57.85, 14.5 58 M14.5 58 C4.96 59.02, 0.57 54.65, 0 43.5 M14.5 58 C4.88 56.79, 1.09 55.35, 0 43.5 M0 43.5 C-0.84 37.22, -1.97 28.06, 0 14.5 M0 43.5 C-0.43 31.92, -0.67 20.72, 0 14.5 M0 14.5 C-1.57 2.9, 4.56 -1.15, 14.5 0 M0 14.5 C1.63 3.85, 6.97 -0.54, 14.5 0" stroke="#1e1e1e" stroke-width="2" fill="none"></path></g></svg>