<svg version="1.1" xmlns="http://www.w3.org/2000/svg" viewBox="0 0 688.4727839980787 460.41441817353086" width="688.4727839980787" height="460.41441817353086" class="excalidraw-svg"><!-- svg-source:excalidraw --><metadata></metadata><defs><style class="style-fonts">
      </style></defs><rect x="0" y="0" width="688.4727839980787" height="460.41441817353086" fill="#ffffff"></rect><g stroke-linecap="round"><g transform="translate(168.8098673473566 11.003369025618213) rotate(0 0 28.156359515665343)"><path d="M-1.11 -0.82 C-1.19 8.66, -1.07 47.27, -1.08 56.62 M0.51 1.36 C0.84 10.49, 0.96 45.55, 1.06 54.65" stroke="#1e1e1e" stroke-width="2" fill="none"></path></g></g><mask></mask><g stroke-linecap="round"><g transform="translate(168.8017112330076 66.37950301208923) rotate(0 7.298426099517627 48.70309502324503)"><path d="M0 0 C1.41 7.56, 1.35 17.22, 0.81 26.06 M0 0 C0.82 8.77, 0.14 15.81, 0.81 26.06 M0.81 26.06 C9.49 27.93, 16.65 29.06, 28.32 33.93 M0.81 26.06 C6.34 28.34, 13.18 29.61, 28.32 33.93 M28.32 33.93 C14.7 37.69, 0.55 39.91, -13.44 40.05 M28.32 33.93 C12.97 35.76, -4.1 38.39, -13.44 40.05 M-13.44 40.05 C2.75 44.16, 14.16 49.84, 29.01 53.07 M-13.44 40.05 C-2.52 44.46, 9.77 47.87, 29.01 53.07 M29.01 53.07 C14.95 54.6, -0.08 57.02, -14.41 58.09 M29.01 53.07 C16.05 53.64, 2 56.17, -14.41 58.09 M-14.41 58.09 C1.32 61.34, 15.12 64.7, 27.7 70.14 M-14.41 58.09 C-3.41 61.84, 9.77 65.03, 27.7 70.14 M27.7 70.14 C20.78 73.91, 14.58 75.59, 3.4 77.38 M27.7 70.14 C22.51 70.86, 15.49 73.49, 3.4 77.38 M3.4 77.38 C2.22 81.28, 3.35 88.18, 3.4 97.41 M3.4 77.38 C3.21 83.27, 3.21 89.39, 3.4 97.41" stroke="#1e1e1e" stroke-width="2" fill="none"></path></g></g><mask></mask><g stroke-linecap="round"><g transform="translate(172.56915584965446 161.73868817958413) rotate(0 0 22.84231670992446)"><path d="M-0.19 -0.3 C-0.08 7.2, 0.06 37.91, 0.16 45.51 M0.72 0.74 C0.81 8.54, -0.12 38.62, -0.19 46.11" stroke="#1e1e1e" stroke-width="2" fill="none"></path></g></g><mask></mask><g stroke-linecap="round"><g transform="translate(149.20641565080734 194.1723441941984) rotate(55.389945833976064 0 28.156359515665343)"><path d="M0.15 0.66 C0.29 9.95, 1.37 45.75, 1.18 55.2 M-1.23 -0.03 C-1.17 9.41, 0.41 46.89, 0.85 56.16" stroke="#1e1e1e" stroke-width="2" fill="none"></path></g></g><mask></mask><g stroke-linecap="round"><g transform="translate(83.47994557901518 222.71926137370417) rotate(55.389945833976064 7.298426099517627 48.70309502324503)"><path d="M0 0 C-1.45 6.55, 2.4 18.14, 0.81 26.06 M0 0 C0.76 7.92, -0.16 16.43, 0.81 26.06 M0.81 26.06 C8.23 29.66, 12.95 29.24, 28.32 33.93 M0.81 26.06 C9.04 27.53, 17.18 30.67, 28.32 33.93 M28.32 33.93 C18.05 35.27, 8.31 38.46, -13.44 40.05 M28.32 33.93 C15.17 36.44, 0.65 37.59, -13.44 40.05 M-13.44 40.05 C-3.32 43.45, 10.61 45.72, 29.01 53.07 M-13.44 40.05 C-2.45 44.54, 8.05 46.82, 29.01 53.07 M29.01 53.07 C17.26 55.05, 4.48 58.25, -14.41 58.09 M29.01 53.07 C19.58 54.84, 8.18 54.94, -14.41 58.09 M-14.41 58.09 C0.41 61.67, 13.76 68.3, 27.7 70.14 M-14.41 58.09 C0.65 62.97, 13.58 67.34, 27.7 70.14 M27.7 70.14 C23.6 72.03, 15.13 71.81, 3.4 77.38 M27.7 70.14 C19.37 72.04, 9.14 74.74, 3.4 77.38 M3.4 77.38 C1.65 82.82, 1.78 89.6, 3.4 97.41 M3.4 77.38 C2.59 80.97, 4.41 86.26, 3.4 97.41" stroke="#1e1e1e" stroke-width="2" fill="none"></path></g></g><mask></mask><g stroke-linecap="round"><g transform="translate(31.11444476300653 284.9452932662779) rotate(55.389945833976064 0 22.84231670992446)"><path d="M-0.44 0.48 C-0.44 8.19, 0.52 38.28, 0.51 45.77 M0.34 0.25 C0.26 8.11, 0.3 38.91, 0.34 46.51" stroke="#1e1e1e" stroke-width="2" fill="none"></path></g></g><mask></mask><g stroke-linecap="round"><g transform="translate(197.72819984777772 195.48403821283574) rotate(304.67806357084396 0 28.156359515665343)"><path d="M0.47 -0.79 C0.38 8.7, -0.3 47.06, -0.54 56.41 M-0.74 1.41 C-1.04 11.16, -2.13 48.89, -1.77 57.99" stroke="#1e1e1e" stroke-width="2" fill="none"></path></g></g><mask></mask><g stroke-linecap="round"><g transform="translate(255.6739421122639 212.18597355462248) rotate(304.67806357084396 7.298426099517627 48.70309502324503)"><path d="M0 0 C0.26 7.26, -1.39 17.62, 0.81 26.06 M0 0 C0.38 6.45, 1.24 11.11, 0.81 26.06 M0.81 26.06 C5.63 26.36, 15.14 29.28, 28.32 33.93 M0.81 26.06 C7.49 27.15, 14.33 30.09, 28.32 33.93 M28.32 33.93 C12 37.33, 0.84 37.56, -13.44 40.05 M28.32 33.93 C15.5 35.15, 3.91 36.46, -13.44 40.05 M-13.44 40.05 C-1.83 45.81, 11.18 48.87, 29.01 53.07 M-13.44 40.05 C1.99 44.78, 16.81 49.89, 29.01 53.07 M29.01 53.07 C15.25 55.99, -1.5 55.48, -14.41 58.09 M29.01 53.07 C16.78 53.06, 5.65 54.84, -14.41 58.09 M-14.41 58.09 C-3.51 62.05, 5.67 65.46, 27.7 70.14 M-14.41 58.09 C1.64 63.38, 17.81 67.18, 27.7 70.14 M27.7 70.14 C21.04 73.41, 13.48 76.65, 3.4 77.38 M27.7 70.14 C19.34 73.42, 8.79 75.64, 3.4 77.38 M3.4 77.38 C3.27 83.58, 4.26 86.65, 3.4 97.41 M3.4 77.38 C4.08 83, 3.12 86.18, 3.4 97.41" stroke="#1e1e1e" stroke-width="2" fill="none"></path></g></g><mask></mask><g stroke-linecap="round"><g transform="translate(317.93152329880365 281.4008441935167) rotate(304.67806357084396 0 22.84231670992446)"><path d="M-0.44 -0.49 C-0.4 7.04, -0.13 37.51, -0.02 45.2 M0.34 0.45 C0.32 8.03, -0.4 38.01, -0.46 45.65" stroke="#1e1e1e" stroke-width="2" fill="none"></path></g></g><mask></mask><g stroke-linecap="round"><g transform="translate(11.367591637605813 322.4213280208546) rotate(0 0 63.79451451115358)"><path d="M-0.37 0.09 C-0.22 21.23, -0.45 105.59, -0.28 126.85 M1.64 -0.91 C1.71 20.37, -1.14 106.35, -1.37 127.99" stroke="#1e1e1e" stroke-width="2" fill="none"></path></g></g><mask></mask><g stroke-linecap="round"><g transform="translate(11.367591637605813 448.33155402971033) rotate(0 333.2423981701047 0)"><path d="M-0.75 -1.04 C110.44 -0.94, 556.02 -0.14, 667.11 -0.06 M1.06 1.02 C112.15 1.39, 555.29 1.54, 666.48 1.44" stroke="#1e1e1e" stroke-width="2" fill="none"></path></g></g><mask></mask><g stroke-linecap="round"><g transform="translate(337.89477775390486 317.3849189805004) rotate(0 168.30000209850374 0)"><path d="M-0.02 -0.06 C56.1 0.16, 279.39 0.98, 335.61 0.8 M-1.49 -1.14 C55.1 -1.2, 281.4 -1.02, 337.8 -0.91" stroke="#1e1e1e" stroke-width="2" fill="none"></path></g></g><mask></mask><g stroke-linecap="round"><g transform="translate(168.90408218198576 10.328831564276697) rotate(0 251.95594837773768 0)"><path d="M0.76 0.47 C84.76 0.3, 419.25 -0.01, 502.96 -0.26 M-0.3 -0.33 C84.16 -0.39, 420.88 1.13, 505.18 1.14" stroke="#1e1e1e" stroke-width="2" fill="none"></path></g></g><mask></mask><g stroke-linecap="round"><g transform="translate(667.7795698971067 24.43379313322953) rotate(0 0 137.24214634965267)"><path d="M0.23 -0.52 C0.21 45.21, 0.35 227.8, 0.28 273.66 M-1.11 1.82 C-1.3 47.75, -0.54 229.06, -0.53 274.77" stroke="#1971c2" stroke-width="2" fill="none"></path></g><g transform="translate(667.7795698971067 24.43379313322953) rotate(0 0 137.24214634965267)"><path d="M8.79 22.97 C5.21 15.63, 1.87 7.05, 0.23 -0.52 M8.79 22.97 C6.31 15.07, 2.8 7.48, 0.23 -0.52" stroke="#1971c2" stroke-width="2" fill="none"></path></g><g transform="translate(667.7795698971067 24.43379313322953) rotate(0 0 137.24214634965267)"><path d="M-8.32 22.97 C-6.2 15.61, -3.86 7.02, 0.23 -0.52 M-8.32 22.97 C-5.42 15.07, -3.56 7.47, 0.23 -0.52" stroke="#1971c2" stroke-width="2" fill="none"></path></g><g transform="translate(667.7795698971067 24.43379313322953) rotate(0 0 137.24214634965267)"><path d="M-9.13 251.3 C-7.29 259.55, -4.92 266.57, -0.53 274.77 M-9.13 251.3 C-6.62 258.15, -4.74 265.31, -0.53 274.77" stroke="#1971c2" stroke-width="2" fill="none"></path></g><g transform="translate(667.7795698971067 24.43379313322953) rotate(0 0 137.24214634965267)"><path d="M7.97 251.26 C4.13 259.55, 0.81 266.59, -0.53 274.77 M7.97 251.26 C5.1 258.13, 1.61 265.3, -0.53 274.77" stroke="#1971c2" stroke-width="2" fill="none"></path></g></g><mask></mask></svg>