<svg version="1.1" xmlns="http://www.w3.org/2000/svg" viewBox="0 0 1003.541117758801 671.8476426739678" width="1003.541117758801" height="671.8476426739678" class="excalidraw-svg"><!-- svg-source:excalidraw --><metadata></metadata><defs><style class="style-fonts">
      </style></defs><rect x="0" y="0" width="1003.541117758801" height="671.8476426739678" fill="#ffffff"></rect><g stroke-opacity="0" fill-opacity="0" stroke-linecap="round" transform="translate(10 23.090319510296524) rotate(0 319.3786615818356 319.3786615818356)"><path d="M281.61 3.14 C302.71 -4.75, 327.78 -0.84, 350.73 1.18 C373.69 3.21, 397.63 8.16, 419.33 15.3 C441.04 22.43, 461.38 32.18, 480.98 44.01 C500.58 55.84, 520 70.58, 536.95 86.29 C553.9 102, 569.81 119.65, 582.69 138.29 C595.56 156.93, 605.56 177.06, 614.2 198.13 C622.84 219.19, 630.55 241.97, 634.53 264.69 C638.51 287.41, 639.33 311.52, 638.07 334.46 C636.82 357.4, 632.76 380.33, 627 402.34 C621.24 424.34, 613.98 446.34, 603.51 466.47 C593.05 486.61, 579.08 505.63, 564.19 523.13 C549.31 540.63, 532.31 557.27, 514.21 571.49 C496.1 585.71, 476.05 598.46, 455.58 608.46 C435.11 618.46, 413.65 626.34, 391.37 631.49 C369.08 636.63, 344.64 639.12, 321.87 639.33 C299.1 639.54, 277.19 637.43, 254.76 632.75 C232.33 628.08, 208.34 620.77, 187.29 611.28 C166.23 601.79, 146.8 589.48, 128.42 575.84 C110.04 562.19, 92.09 546.78, 77.02 529.41 C61.95 512.04, 48.75 491.97, 38.01 471.64 C27.27 451.31, 18.85 429.46, 12.6 407.43 C6.35 385.4, 1.9 362.24, 0.49 339.47 C-0.91 316.71, 0.73 293.51, 4.16 270.84 C7.6 248.18, 12.77 224.83, 21.11 203.5 C29.44 182.16, 41.38 161.72, 54.2 142.84 C67.02 123.96, 81.85 106.11, 98.02 90.24 C114.2 74.37, 131.75 59.65, 151.26 47.6 C170.77 35.55, 192.31 25.66, 215.1 17.94 C237.88 10.21, 274.74 3.17, 287.98 1.25 C301.23 -0.67, 293.95 1.04, 294.55 6.43 M175.14 35.26 C192.21 20.68, 216.94 16.85, 238.82 11.2 C260.69 5.54, 283.59 2.49, 306.37 1.31 C329.16 0.13, 352.64 0.41, 375.51 4.13 C398.39 7.86, 422.39 14.72, 443.62 23.68 C464.84 32.65, 484.56 44.82, 502.89 57.92 C521.21 71.02, 538.04 85.4, 553.56 102.28 C569.09 119.16, 584.47 138.97, 596.06 159.21 C607.65 179.44, 615.97 201.91, 623.11 223.7 C630.25 245.5, 636.73 267.59, 638.91 289.96 C641.08 312.33, 639.12 335.43, 636.17 357.93 C633.23 380.43, 628.76 403.05, 621.24 424.97 C613.72 446.88, 603.57 469.87, 591.06 489.42 C578.56 508.97, 562.25 526.21, 546.22 542.26 C530.19 558.32, 513.8 572.96, 494.89 585.72 C475.98 598.48, 454.42 610.61, 432.77 618.82 C411.13 627.02, 387.46 631.85, 365.01 634.96 C342.57 638.07, 320.81 639.12, 298.1 637.49 C275.39 635.85, 250.8 631.63, 228.75 625.15 C206.69 618.67, 185.57 609.83, 165.77 598.61 C145.98 587.4, 127.43 572.86, 109.98 557.87 C92.53 542.88, 74.81 527, 61.06 508.67 C47.31 490.34, 36.58 469.03, 27.48 447.91 C18.38 426.8, 11.06 404.11, 6.45 381.97 C1.83 359.83, -0.63 337.63, -0.18 315.06 C0.26 292.49, 3.99 269.01, 9.11 246.54 C14.24 224.08, 20.73 201.05, 30.54 180.26 C40.36 159.48, 53.74 139.72, 68.03 121.85 C82.32 103.99, 98.64 87.52, 116.31 73.06 C133.97 58.61, 163.87 40.75, 174.02 35.11 C184.18 29.46, 174.49 34.72, 177.22 39.2" stroke="#1e1e1e" stroke-width="1" fill="none"></path></g><g stroke-linecap="round"><g transform="translate(552.1500347523012 365.79555488591177) rotate(0 181.9297252975598 -175.57813504343846)"><path d="M-0.28 -0.95 C61.43 -1.41, 297.24 9.07, 370.64 -3.66 C444.05 -16.39, 443.85 -48.86, 440.14 -77.33 C436.43 -105.79, 362.69 -142.19, 348.38 -174.44 C334.08 -206.69, 365.79 -241.42, 354.31 -270.83 C342.84 -300.24, 309.33 -339.99, 279.54 -350.89 C249.74 -361.79, 199.91 -347.76, 175.52 -336.23 C151.13 -324.71, 150.43 -288.16, 133.18 -281.77 C115.93 -275.37, 89.68 -301.46, 72.01 -297.88 C54.33 -294.31, 34.45 -276.4, 27.15 -260.3 C19.84 -244.2, 39.1 -213.75, 28.16 -201.29 C17.23 -188.82, -21.28 -198.44, -38.45 -185.5 C-55.62 -172.56, -70.11 -147.94, -74.85 -123.65 C-79.59 -99.36, -79.32 -60.21, -66.89 -39.75 C-54.46 -19.29, -11.55 -7.57, -0.29 -0.89 M1.77 1.16 C63.37 0.98, 297.07 10.67, 370.1 -2.2 C443.13 -15.07, 443.56 -47.02, 439.95 -76.05 C436.33 -105.08, 362.35 -143.96, 348.4 -176.4 C334.45 -208.84, 367.48 -241.43, 356.23 -270.67 C344.97 -299.9, 311.41 -340.72, 280.88 -351.79 C250.36 -362.87, 197.79 -348.66, 173.08 -337.12 C148.37 -325.58, 149.14 -288.91, 132.61 -282.55 C116.08 -276.19, 91.35 -302.55, 73.91 -298.95 C56.47 -295.36, 36.04 -277.33, 27.96 -260.98 C19.87 -244.64, 36.65 -213.46, 25.4 -200.89 C14.16 -188.33, -22.88 -198.89, -39.53 -185.61 C-56.17 -172.33, -69.71 -146, -74.46 -121.21 C-79.2 -96.42, -80.37 -57.36, -67.98 -36.87 C-55.59 -16.38, -11.17 -4.69, -0.11 1.75" stroke="#1e1e1e" stroke-width="1" fill="none"></path></g></g><mask></mask><g stroke-linecap="round"><g transform="translate(57.78764495923099 299.7673502311344) rotate(0 97.63708426986892 -105.03963791280381)"><path d="M0.02 -0.57 C32.74 -1.05, 158 5.46, 197.34 -1.99 C236.67 -9.44, 237.87 -27.92, 236.01 -45.27 C234.15 -62.63, 193.73 -86.69, 186.18 -106.12 C178.62 -125.55, 196.61 -144.51, 190.68 -161.84 C184.74 -179.18, 166.84 -203.48, 150.55 -210.15 C134.25 -216.83, 106.05 -209.03, 92.91 -201.89 C79.77 -194.74, 80.87 -171.2, 71.73 -167.28 C62.58 -163.35, 47.51 -180.15, 38.04 -178.35 C28.56 -176.55, 18.95 -166.18, 14.89 -156.5 C10.83 -146.82, 19.51 -127.62, 13.67 -120.27 C7.82 -112.93, -11.12 -120.08, -20.17 -112.41 C-29.22 -104.75, -37.97 -89.21, -40.62 -74.3 C-43.27 -59.38, -42.69 -35.29, -36.07 -22.94 C-29.44 -10.59, -6.75 -3.96, -0.87 -0.21 M-1.44 1.75 C31.55 1.41, 159.95 7.75, 199.44 -0.4 C238.92 -8.54, 237.71 -29.59, 235.45 -47.12 C233.19 -64.65, 193.57 -86.53, 185.89 -105.59 C178.2 -124.65, 195.56 -143.89, 189.33 -161.5 C183.11 -179.11, 164.56 -204.26, 148.54 -211.23 C132.51 -218.21, 106.1 -210.68, 93.19 -203.34 C80.28 -196.01, 80 -171.16, 71.08 -167.2 C62.16 -163.25, 48.86 -181.85, 39.66 -179.62 C30.45 -177.39, 20.21 -163.84, 15.85 -153.83 C11.5 -143.82, 19.71 -126.92, 13.54 -119.57 C7.37 -112.22, -12.14 -117.69, -21.16 -109.74 C-30.17 -101.79, -37.89 -86.31, -40.54 -71.86 C-43.19 -57.41, -43.66 -34.87, -37.07 -23.04 C-30.48 -11.21, -7.15 -4.82, -1 -0.88" stroke="#1e1e1e" stroke-width="1" fill="none"></path></g></g><mask></mask><g stroke-linecap="round" transform="translate(97.67563484393247 191.86104113850485) rotate(0 9.703026737903087 9.703026737903087)"><path d="M8.06 -0.32 C9.97 -0.71, 13 0.04, 14.78 1.22 C16.56 2.4, 18.07 4.73, 18.74 6.75 C19.41 8.78, 19.6 11.44, 18.78 13.39 C17.96 15.33, 15.59 17.49, 13.84 18.43 C12.08 19.37, 10.2 19.54, 8.24 19.02 C6.29 18.5, 3.45 16.83, 2.12 15.31 C0.79 13.79, 0.23 11.92, 0.26 9.91 C0.29 7.89, 0.89 4.83, 2.28 3.21 C3.67 1.6, 7.59 0.72, 8.62 0.21 C9.65 -0.29, 8.49 0.01, 8.46 0.18 M9.69 0.31 C11.6 0.37, 14.45 1.32, 15.98 2.67 C17.52 4.01, 18.72 6.32, 18.91 8.37 C19.1 10.43, 18.15 13.11, 17.12 14.98 C16.09 16.85, 14.71 19.12, 12.72 19.61 C10.73 20.1, 7.16 18.77, 5.2 17.91 C3.25 17.04, 1.82 16.06, 0.99 14.41 C0.17 12.76, -0.17 10.07, 0.26 8 C0.69 5.92, 1.88 3.29, 3.58 1.95 C5.27 0.61, 9.42 0.28, 10.45 -0.02 C11.47 -0.32, 9.78 0.01, 9.74 0.17" stroke="none" stroke-width="0" fill="#ffd8a8"></path><path d="M8.93 0.11 C10.98 -0.15, 14.03 0.41, 15.72 1.62 C17.4 2.84, 18.63 5.26, 19.05 7.4 C19.47 9.54, 19.23 12.56, 18.24 14.47 C17.26 16.37, 14.97 18.06, 13.13 18.85 C11.3 19.64, 9.26 19.86, 7.26 19.21 C5.25 18.56, 2.31 16.73, 1.12 14.94 C-0.08 13.16, -0.15 10.55, 0.1 8.48 C0.35 6.4, 1.05 3.95, 2.63 2.48 C4.21 1.02, 8.39 0.1, 9.58 -0.34 C10.78 -0.77, 9.74 -0.32, 9.8 -0.11 M9.69 0.2 C11.78 0.06, 15.32 0.54, 17 1.97 C18.68 3.4, 19.53 6.69, 19.78 8.76 C20.03 10.82, 19.79 12.69, 18.49 14.34 C17.19 15.99, 14 17.84, 11.99 18.64 C9.99 19.45, 8.3 19.96, 6.45 19.17 C4.6 18.38, 2.05 15.8, 0.9 13.88 C-0.25 11.97, -0.87 9.76, -0.44 7.66 C-0.01 5.57, 1.63 2.65, 3.47 1.32 C5.3 -0.01, 9.37 -0.01, 10.56 -0.32 C11.74 -0.62, 10.73 -0.81, 10.56 -0.53" stroke="#1e1e1e" stroke-width="2" fill="none"></path></g><g stroke-linecap="round"><g transform="translate(102.70683389321562 201.923439237071) rotate(0 5.03119904928306 0)"><path d="M-0.12 -0.33 C1.52 -0.36, 8.2 -0.37, 9.92 -0.28 M0.82 0.69 C2.37 0.73, 7.9 0.52, 9.41 0.28" stroke="#1e1e1e" stroke-width="2" fill="none"></path></g></g><mask></mask><g stroke-linecap="round"><g transform="translate(107.73803294249865 197.251611548451) rotate(0 0 4.492142008288462)"><path d="M-0.09 -0.18 C-0.07 1.37, 0.09 7.6, 0.07 9.11 M0.5 0.49 C0.49 1.96, -0.18 7.09, -0.18 8.56" stroke="#1e1e1e" stroke-width="2" fill="none"></path></g></g><mask></mask><g stroke-linecap="round" transform="translate(301.38620310560736 158.12331341232436) rotate(0 5.976803816717535 5.976803816717535)"><path d="M5.4 0.15 C6.54 -0.04, 7.69 0.55, 8.82 1.21 C9.96 1.87, 11.77 3, 12.21 4.12 C12.64 5.25, 12.01 6.69, 11.46 7.97 C10.9 9.25, 10.05 11.19, 8.87 11.81 C7.69 12.44, 5.64 12.09, 4.38 11.73 C3.12 11.36, 2.07 10.67, 1.31 9.63 C0.55 8.59, -0.21 6.76, -0.18 5.5 C-0.15 4.24, 0.53 2.98, 1.49 2.07 C2.46 1.17, 4.96 0.46, 5.6 0.08 C6.25 -0.3, 5.35 -0.26, 5.37 -0.2 M5.4 0.02 C6.71 0.11, 9.13 1.42, 10.09 2.15 C11.05 2.87, 11 3.16, 11.15 4.36 C11.3 5.57, 11.53 8.09, 10.99 9.37 C10.45 10.66, 9.13 11.74, 7.89 12.09 C6.64 12.45, 4.67 12.06, 3.52 11.51 C2.37 10.96, 1.63 9.92, 0.99 8.79 C0.35 7.66, -0.53 6, -0.3 4.74 C-0.08 3.48, 1.28 2.14, 2.36 1.25 C3.44 0.37, 5.63 -0.27, 6.17 -0.58 C6.72 -0.89, 5.76 -0.71, 5.64 -0.59" stroke="none" stroke-width="0" fill="#b2f2bb"></path><path d="M4.89 0.44 C6.04 0.22, 7.47 0.42, 8.65 1.05 C9.84 1.68, 11.59 3.05, 12 4.21 C12.41 5.38, 11.63 6.88, 11.12 8.03 C10.61 9.18, 10.05 10.52, 8.94 11.13 C7.82 11.75, 5.69 12.01, 4.43 11.72 C3.17 11.44, 2.14 10.45, 1.38 9.43 C0.62 8.41, -0.2 6.84, -0.12 5.6 C-0.05 4.37, 0.92 2.92, 1.84 2 C2.76 1.08, 4.77 0.44, 5.4 0.07 C6.03 -0.3, 5.62 -0.38, 5.63 -0.21 M5.37 -0.51 C6.38 -0.93, 7.11 -0.43, 8.22 0.36 C9.33 1.16, 11.5 3.06, 12.05 4.26 C12.59 5.47, 12.1 6.43, 11.5 7.58 C10.91 8.74, 9.59 10.56, 8.46 11.18 C7.34 11.79, 5.86 11.52, 4.76 11.26 C3.67 11.01, 2.63 10.62, 1.89 9.65 C1.16 8.69, 0.57 6.62, 0.37 5.46 C0.16 4.3, -0.05 3.69, 0.66 2.68 C1.36 1.68, 3.97 -0.23, 4.58 -0.6 C5.19 -0.96, 4.36 0.33, 4.31 0.5" stroke="#1e1e1e" stroke-width="2" fill="none"></path></g><g stroke-linecap="round"><g transform="translate(304.48528656612757 164.32148033336475) rotate(0 3.099083460520177 0)"><path d="M-0.23 -0.07 C0.78 -0.11, 5 -0.05, 6.12 -0.08 M0.29 -0.42 C1.24 -0.41, 4.79 0.27, 5.8 0.34" stroke="#1e1e1e" stroke-width="2" fill="none"></path></g></g><mask></mask><g stroke-linecap="round" transform="translate(163.67563484393247 223.76595435422905) rotate(0 9.703026737903087 9.703026737903087)"><path d="M11.31 -0.04 C13.32 0.28, 16.46 2.23, 17.79 3.87 C19.12 5.5, 19.53 7.8, 19.29 9.79 C19.06 11.79, 17.73 14.3, 16.4 15.83 C15.07 17.37, 13.3 18.66, 11.3 18.98 C9.31 19.3, 6.26 18.88, 4.42 17.77 C2.58 16.67, 0.98 14.24, 0.28 12.36 C-0.42 10.48, -0.52 8.44, 0.22 6.52 C0.96 4.6, 2.75 1.8, 4.71 0.85 C6.67 -0.1, 10.6 0.9, 12 0.8 C13.4 0.7, 13.03 0.14, 13.1 0.24 M11.81 0.4 C13.81 0.8, 16.03 2.39, 17.18 4.09 C18.34 5.79, 18.7 8.52, 18.73 10.58 C18.77 12.64, 18.74 14.99, 17.38 16.45 C16.01 17.91, 12.74 19.07, 10.56 19.34 C8.37 19.61, 5.97 19.03, 4.25 18.05 C2.52 17.06, 0.74 15.29, 0.2 13.44 C-0.34 11.59, 0.18 9, 1.03 6.95 C1.88 4.91, 3.63 2.31, 5.31 1.17 C6.99 0.03, 10.05 0.2, 11.12 0.12 C12.2 0.05, 11.81 0.47, 11.76 0.71" stroke="none" stroke-width="0" fill="#ffd8a8"></path><path d="M11.77 0.02 C13.68 0.31, 16.05 2.05, 17.41 3.66 C18.76 5.27, 19.9 7.58, 19.9 9.69 C19.89 11.8, 18.83 14.77, 17.38 16.33 C15.94 17.88, 13.35 18.72, 11.24 19.03 C9.13 19.34, 6.45 19.17, 4.7 18.2 C2.95 17.23, 1.39 15.17, 0.75 13.21 C0.1 11.24, 0.09 8.38, 0.81 6.42 C1.53 4.46, 3.24 2.51, 5.07 1.44 C6.9 0.37, 10.6 0.1, 11.81 0 C13.01 -0.1, 12.25 0.58, 12.3 0.83 M10.58 -0.5 C12.67 -0.37, 15.3 1.5, 16.8 3.18 C18.3 4.86, 19.37 7.46, 19.57 9.56 C19.78 11.66, 19.39 14.17, 18.04 15.81 C16.68 17.45, 13.57 18.99, 11.42 19.4 C9.28 19.81, 6.86 19.28, 5.17 18.26 C3.47 17.24, 2.06 15.17, 1.23 13.28 C0.4 11.4, -0.23 9, 0.17 6.96 C0.57 4.92, 1.94 2.22, 3.62 1.03 C5.3 -0.15, 9 -0.1, 10.24 -0.17 C11.48 -0.25, 10.91 0.24, 11.04 0.56" stroke="#1e1e1e" stroke-width="2" fill="none"></path></g><g stroke-linecap="round"><g transform="translate(168.70683389321562 233.8283524527952) rotate(0 5.03119904928306 0)"><path d="M0.45 0.42 C2.19 0.5, 8.4 0.15, 9.96 0.09 M0.02 0.15 C1.71 0.1, 7.92 -0.92, 9.48 -0.83" stroke="#1e1e1e" stroke-width="2" fill="none"></path></g></g><mask></mask><g stroke-linecap="round"><g transform="translate(173.73803294249865 229.1565247641752) rotate(0 0 4.492142008288461)"><path d="M-0.06 0.06 C-0.13 1.52, -0.14 7.49, -0.14 9.04 M-0.52 -0.22 C-0.68 1.29, -0.52 8.01, -0.48 9.52" stroke="#1e1e1e" stroke-width="2" fill="none"></path></g></g><mask></mask></svg>