<svg version="1.1" xmlns="http://www.w3.org/2000/svg" viewBox="0 0 545 500" width="545" height="500" class="excalidraw-svg"><!-- svg-source:excalidraw --><metadata></metadata><defs><style class="style-fonts">
      </style></defs><rect x="0" y="0" width="545" height="500" fill="#ffffff"></rect><g stroke-linecap="round" transform="translate(10 10) rotate(0 240 240)"><path d="M134.05 24.61 C149.45 12.88, 173.1 9.39, 192.63 5.32 C212.16 1.25, 231.41 -0.61, 251.25 0.18 C271.09 0.97, 292.45 4.12, 311.66 10.05 C330.87 15.98, 349.75 25.28, 366.53 35.76 C383.32 46.24, 398.55 58.58, 412.37 72.92 C426.2 87.26, 439.73 104.24, 449.48 121.81 C459.23 139.37, 465.76 158.97, 470.85 178.31 C475.94 197.66, 479.52 218.17, 480.03 237.88 C480.54 257.58, 478.5 277.37, 473.92 296.54 C469.33 315.71, 461.9 335.46, 452.53 352.9 C443.16 370.34, 431.33 386.46, 417.69 401.18 C404.04 415.9, 387.49 430.18, 370.66 441.21 C353.83 452.25, 335.37 461.16, 316.71 467.4 C298.05 473.65, 278.57 477.36, 258.7 478.69 C238.83 480.02, 217.03 478.66, 197.51 475.39 C177.99 472.13, 159.61 467.1, 141.6 459.09 C123.59 451.09, 105.21 439.96, 89.45 427.35 C73.69 414.75, 58.89 399.51, 47.07 383.46 C35.24 367.41, 26.11 349.34, 18.49 331.06 C10.87 312.78, 4.19 293.33, 1.36 273.79 C-1.47 254.25, -1.03 233.55, 1.51 213.84 C4.05 194.12, 9.38 174.18, 16.62 155.49 C23.85 136.8, 33.53 118.02, 44.93 101.7 C56.34 85.39, 68.59 71.06, 85.06 57.61 C101.53 44.15, 131.97 27.17, 143.75 20.97 C155.53 14.78, 154.09 16.77, 155.75 20.43 M238.8 -1 C257.34 -5.02, 277.42 1.48, 296.7 6.72 C315.97 11.95, 336.76 20.64, 354.46 30.41 C372.16 40.18, 388.37 51.9, 402.9 65.35 C417.44 78.81, 430.98 94.72, 441.68 111.12 C452.38 127.52, 460.8 144.85, 467.1 163.77 C473.39 182.69, 477.83 204.66, 479.45 224.64 C481.07 244.62, 480.18 264.4, 476.82 283.63 C473.45 302.86, 467.81 321.99, 459.25 340 C450.69 358.01, 438.19 376.34, 425.46 391.7 C412.74 407.06, 398.93 420.18, 382.9 432.16 C366.87 444.15, 347.83 455.84, 329.3 463.6 C310.76 471.36, 291.43 476.5, 271.69 478.73 C251.95 480.96, 230.43 479.41, 210.87 476.97 C191.3 474.52, 172.68 471.03, 154.31 464.08 C135.94 457.12, 117.1 446.66, 100.63 435.25 C84.17 423.84, 68.6 410.95, 55.53 395.61 C42.46 380.27, 30.57 361.41, 22.23 343.21 C13.88 325, 9.33 305.8, 5.48 286.39 C1.63 266.98, -1.82 246.58, -0.87 226.74 C0.08 206.9, 4.96 186.19, 11.19 167.37 C17.42 148.54, 25.7 130.48, 36.5 113.8 C47.29 97.12, 61.32 80.98, 75.94 67.3 C90.56 53.62, 106.85 41.79, 124.22 31.73 C141.6 21.67, 161.28 12.45, 180.19 6.96 C199.1 1.47, 227.84 -0.73, 237.68 -1.21 C247.52 -1.69, 239.2 -0.22, 239.22 4.09" stroke="none" stroke-width="0" fill="#b2f2bb"></path><path d="M209.04 1.98 C227.21 -4.22, 248.96 0.13, 268.77 2.49 C288.58 4.85, 309.29 8.98, 327.9 16.16 C346.52 23.33, 364.35 33.83, 380.46 45.52 C396.56 57.21, 411.74 71.17, 424.54 86.29 C437.34 101.4, 448.57 118.09, 457.24 136.21 C465.91 154.33, 472.73 175.49, 476.56 195.03 C480.4 214.57, 481.74 233.77, 480.24 253.47 C478.73 273.17, 473.57 294.14, 467.53 313.24 C461.48 332.33, 454.38 351.31, 443.96 368.04 C433.55 384.76, 419.56 399.82, 405.02 413.59 C390.49 427.35, 374.03 440.74, 356.74 450.62 C339.45 460.5, 320.5 467.97, 301.29 472.85 C282.08 477.73, 261.64 479.84, 241.47 479.88 C221.31 479.92, 199.64 478, 180.28 473.09 C160.91 468.18, 142.64 459.91, 125.3 450.43 C107.97 440.95, 90.91 429.65, 76.29 416.19 C61.67 402.73, 48.35 386.56, 37.57 369.67 C26.8 352.79, 17.96 333.98, 11.65 314.87 C5.34 295.76, 1.11 274.8, -0.27 255.03 C-1.66 235.25, -0.55 215.74, 3.33 196.22 C7.2 176.71, 14.54 155.87, 22.98 137.92 C31.41 119.97, 41.27 103.86, 53.94 88.52 C66.62 73.17, 82.95 57.8, 99.02 45.87 C115.09 33.94, 131.57 24.26, 150.35 16.92 C169.14 9.59, 200.65 3.68, 211.7 1.88 C222.76 0.08, 216.02 2.31, 216.68 6.12 M221.67 -0.68 C240.14 -6.19, 262.12 0.25, 281.73 3.89 C301.33 7.53, 321.18 12.92, 339.29 21.15 C357.4 29.37, 374.86 40.78, 390.4 53.23 C405.93 65.68, 420.67 79.97, 432.51 95.85 C444.34 111.73, 453.74 130.29, 461.4 148.51 C469.06 166.74, 475.61 185.34, 478.48 205.23 C481.35 225.11, 481.14 247.9, 478.61 267.81 C476.08 287.72, 470.17 306.12, 463.3 324.7 C456.44 343.28, 448.76 362.95, 437.41 379.27 C426.07 395.58, 410.8 409.84, 395.26 422.61 C379.72 435.37, 362.13 447.14, 344.18 455.86 C326.23 464.58, 307.03 470.79, 287.54 474.93 C268.05 479.08, 246.72 481.59, 227.22 480.73 C207.72 479.87, 189.29 475.85, 170.54 469.8 C151.79 463.74, 131.67 455.02, 114.72 444.42 C97.76 433.81, 82.56 420.25, 68.79 406.16 C55.02 392.06, 42.35 376.87, 32.08 359.84 C21.8 342.81, 12.6 323.34, 7.16 303.98 C1.72 284.62, -0.4 263.67, -0.56 243.66 C-0.73 223.65, 1.38 203.26, 6.15 183.9 C10.93 164.55, 18.83 145.26, 28.09 127.51 C37.35 109.76, 48.41 91.91, 61.74 77.41 C75.07 62.9, 91.38 51.38, 108.06 40.48 C124.74 29.58, 143.08 18.66, 161.79 11.99 C180.5 5.32, 210.22 1.61, 220.3 0.48 C230.38 -0.66, 221.57 0.96, 222.26 5.17" stroke="#1e1e1e" stroke-width="2" fill="none"></path></g><g stroke-linecap="round" transform="translate(128 127) rotate(0 123 123)"><path d="M103.85 1.05 C116.86 -2.9, 134.01 -0.29, 147.97 2.46 C161.93 5.22, 175.89 10.16, 187.6 17.59 C199.31 25.02, 209.52 35.97, 218.22 47.04 C226.92 58.11, 235.16 70.93, 239.81 84.03 C244.45 97.12, 246.3 111.78, 246.08 125.61 C245.86 139.44, 243.66 153.77, 238.49 166.99 C233.31 180.21, 224.47 194.41, 215.03 204.94 C205.58 215.46, 194.07 223.54, 181.84 230.14 C169.6 236.75, 155.44 242.32, 141.59 244.56 C127.75 246.79, 112.41 246.16, 98.75 243.56 C85.1 240.95, 71.51 236.08, 59.66 228.92 C47.82 221.75, 36.41 211.53, 27.68 200.57 C18.95 189.62, 12.01 176.7, 7.29 163.19 C2.58 149.68, -0.67 133.61, -0.61 119.52 C-0.55 105.43, 2.52 91.71, 7.66 78.65 C12.8 65.59, 20.76 51.72, 30.24 41.17 C39.72 30.61, 50.92 21.93, 64.55 15.3 C78.18 8.67, 103 3.52, 112.02 1.39 C121.04 -0.74, 118.73 0.76, 118.65 2.53 M92.03 4.93 C104.44 -0.33, 119.05 0.22, 132.74 1.46 C146.43 2.69, 161.44 6.54, 174.18 12.32 C186.91 18.1, 199.05 26.26, 209.14 36.14 C219.23 46.02, 228.75 59.06, 234.72 71.62 C240.69 84.17, 243.59 97.9, 244.95 111.45 C246.31 125.01, 246.39 139.5, 242.87 152.96 C239.35 166.42, 232.12 180.58, 223.83 192.21 C215.54 203.84, 204.61 214.49, 193.12 222.74 C181.63 230.99, 168.52 237.94, 154.9 241.72 C141.29 245.5, 125.13 246.52, 111.41 245.43 C97.7 244.33, 84.97 241.17, 72.59 235.13 C60.21 229.09, 47.39 219.29, 37.13 209.19 C26.87 199.09, 17.09 186.85, 11.04 174.53 C4.99 162.21, 1.79 149.04, 0.83 135.27 C-0.13 121.51, 1.92 105.51, 5.29 91.91 C8.65 78.32, 13.12 65.25, 21.01 53.72 C28.9 42.18, 40.85 31.13, 52.64 22.72 C64.43 14.31, 85.26 5.81, 91.77 3.23 C98.27 0.65, 91.4 4.98, 91.67 7.24" stroke="none" stroke-width="0" fill="#ffffff"></path><path d="M113.46 -0.29 C126.45 -3.05, 142.85 1.04, 156.4 5.11 C169.96 9.19, 183.27 16, 194.79 24.16 C206.3 32.33, 217.62 42.81, 225.49 54.12 C233.35 65.43, 238.64 78.38, 241.96 92.01 C245.28 105.63, 246.94 121.68, 245.41 135.85 C243.87 150.03, 238.75 164.4, 232.73 177.04 C226.72 189.68, 219.35 202.03, 209.33 211.71 C199.31 221.38, 185.44 229.57, 172.61 235.11 C159.79 240.64, 146.14 243.88, 132.37 244.92 C118.6 245.96, 103.63 245.16, 89.99 241.37 C76.35 237.58, 61.88 230.36, 50.53 222.17 C39.19 213.97, 29.83 203.55, 21.9 192.2 C13.96 180.85, 6.45 167.54, 2.92 154.08 C-0.62 140.63, -0.99 125.6, 0.69 111.46 C2.37 97.32, 6.78 82.03, 13 69.25 C19.23 56.46, 28 44.65, 38.05 34.76 C48.1 24.88, 60.1 15.67, 73.29 9.94 C86.47 4.2, 109.21 1.59, 117.16 0.37 C125.11 -0.86, 120.71 0.7, 120.98 2.6 M89.53 4.96 C102.13 -1.01, 117.94 -1.68, 131.75 -0.65 C145.56 0.38, 159.7 5.57, 172.38 11.13 C185.05 16.7, 197.49 23.16, 207.81 32.74 C218.13 42.31, 227.82 55.54, 234.27 68.57 C240.73 81.61, 244.92 96.76, 246.53 110.93 C248.14 125.1, 247.39 140.09, 243.91 153.59 C240.43 167.09, 233.54 180.59, 225.65 191.95 C217.76 203.32, 207.68 213.39, 196.54 221.79 C185.41 230.19, 172.51 238.33, 158.84 242.34 C145.17 246.36, 128.51 247.02, 114.51 245.89 C100.5 244.76, 87.5 241.29, 74.83 235.56 C62.15 229.84, 48.77 221.39, 38.47 211.53 C28.17 201.67, 19.58 189, 13.04 176.4 C6.51 163.8, 0.81 149.48, -0.74 135.95 C-2.3 122.43, 0.19 108.56, 3.73 95.24 C7.27 81.92, 12.75 67.77, 20.48 56.04 C28.22 44.31, 38.91 33.46, 50.15 24.84 C61.39 16.22, 81.38 7.04, 87.91 4.33 C94.43 1.61, 88.48 6.44, 89.29 8.54" stroke="#1e1e1e" stroke-width="2" fill="none"></path></g><g stroke-linecap="round" transform="translate(354 207) rotate(0 90.5 40.5)"><path d="M20.25 0 C52.26 2.77, 87.47 2.4, 160.75 0 C170.71 1.56, 183.33 4.07, 181 20.25 C183.89 29.32, 183.04 37.51, 181 60.75 C178.83 73.71, 175.86 81.39, 160.75 81 C123.01 75.29, 85.26 77.56, 20.25 81 C4.69 80.18, 0.48 70.96, 0 60.75 C-0.24 52.15, -0.1 40.81, 0 20.25 C2.3 4.5, 7.31 1.61, 20.25 0" stroke="none" stroke-width="0" fill="#ffffff"></path><path d="M20.25 0 C56.7 0.42, 88.95 0.97, 160.75 0 M20.25 0 C59.16 0.76, 98.15 0.11, 160.75 0 M160.75 0 C173.78 1.25, 179.11 6.49, 181 20.25 M160.75 0 C172.78 -1.25, 179.86 6.16, 181 20.25 M181 20.25 C182.17 33.09, 181.67 43.23, 181 60.75 M181 20.25 C181.48 31.38, 180.96 40.24, 181 60.75 M181 60.75 C182.17 75.02, 174.52 82.41, 160.75 81 M181 60.75 C179.34 74.73, 175.09 80.15, 160.75 81 M160.75 81 C111.53 81.08, 67.73 82.69, 20.25 81 M160.75 81 C108.09 79.59, 56.05 80.56, 20.25 81 M20.25 81 C6.94 80.56, 0.29 75.54, 0 60.75 M20.25 81 C6.93 82.02, 1.73 76.17, 0 60.75 M0 60.75 C-0.05 48.69, -1.54 41.8, 0 20.25 M0 60.75 C1.03 44.88, 0.68 30.15, 0 20.25 M0 20.25 C-1.34 5.14, 5.37 0.82, 20.25 0 M0 20.25 C1.95 6.94, 5.07 0.72, 20.25 0" stroke="transparent" stroke-width="2" fill="none"></path></g></svg>