<svg version="1.1" xmlns="http://www.w3.org/2000/svg" viewBox="0 0 622.606360025499 556.5182389378547" width="622.606360025499" height="556.5182389378547" class="excalidraw-svg"><!-- svg-source:excalidraw --><metadata></metadata><defs><style class="style-fonts">
      </style></defs><rect x="0" y="0" width="622.606360025499" height="556.5182389378547" fill="#ffffff"></rect><g stroke-linecap="round"><g transform="translate(11.615718094427166 295.1920074310153) rotate(0 300 0)"><path d="M-0.1 -0.22 C100.1 -0.28, 500.81 -0.69, 600.99 -0.72 M-1.62 -1.39 C98.53 -1.26, 500.17 0.09, 600.56 0.43" stroke="#1e1e1e" stroke-width="2" fill="none"></path></g><g transform="translate(11.615718094427166 295.1920074310153) rotate(0 300 0)"><path d="M577.04 8.91 C583.34 8.18, 589.15 5.81, 600.56 0.43 M577.04 8.91 C583.81 7.33, 590.19 4.3, 600.56 0.43" stroke="#1e1e1e" stroke-width="2" fill="none"></path></g><g transform="translate(11.615718094427166 295.1920074310153) rotate(0 300 0)"><path d="M577.1 -8.19 C583.32 -4.09, 589.12 -1.63, 600.56 0.43 M577.1 -8.19 C583.73 -5.25, 590.09 -3.76, 600.56 0.43" stroke="#1e1e1e" stroke-width="2" fill="none"></path></g></g><mask></mask><g stroke-linecap="round"><g transform="translate(318.61571809442717 546.1920074310153) rotate(0 2.842170943040401e-14 -268)"><path d="M-0.22 0.33 C-0.13 -89.07, 1.02 -446.87, 1.12 -536.19 M-1.79 -0.55 C-1.81 -89.77, 0.49 -445.22, 0.76 -534.76" stroke="#1e1e1e" stroke-width="2" fill="none"></path></g><g transform="translate(318.61571809442717 546.1920074310153) rotate(0 2.842170943040401e-14 -268)"><path d="M9.2 -511.22 C6.76 -517.6, 2.94 -527.02, 0.76 -534.76 M9.2 -511.22 C6.33 -518.73, 3.22 -526.01, 0.76 -534.76" stroke="#1e1e1e" stroke-width="2" fill="none"></path></g><g transform="translate(318.61571809442717 546.1920074310153) rotate(0 2.842170943040401e-14 -268)"><path d="M-7.9 -511.31 C-4.36 -517.62, -2.19 -527.01, 0.76 -534.76 M-7.9 -511.31 C-5.07 -518.71, -2.49 -525.95, 0.76 -534.76" stroke="#1e1e1e" stroke-width="2" fill="none"></path></g></g><mask></mask><g stroke-linecap="round" transform="translate(112.61571809442717 88.19200743101533) rotate(0 209.5 209.5)"><path d="M161.51 5.28 C177.45 -1.87, 197.46 -0.25, 215.65 0.42 C233.83 1.1, 253.36 4.27, 270.62 9.34 C287.88 14.41, 304.15 21.37, 319.23 30.85 C334.31 40.34, 348.67 52.9, 361.09 66.25 C373.52 79.61, 385.14 95.13, 393.78 110.98 C402.41 126.83, 408.67 143.79, 412.91 161.38 C417.15 178.97, 419.61 198.58, 419.21 216.51 C418.82 234.44, 415.95 251.93, 410.54 268.97 C405.13 286, 396.24 303.22, 386.76 318.73 C377.28 334.24, 366.5 349.62, 353.65 362.01 C340.81 374.4, 325.68 384.57, 309.71 393.07 C293.75 401.57, 275.79 408.61, 257.87 413.03 C239.95 417.45, 220.25 420.14, 202.22 419.58 C184.18 419.03, 166.93 415.09, 149.66 409.71 C132.39 404.32, 114.11 396.62, 98.59 387.27 C83.06 377.91, 68.81 366.64, 56.5 353.57 C44.2 340.5, 33.13 324.99, 24.73 308.85 C16.33 292.72, 10.27 274.28, 6.1 256.74 C1.93 239.19, -0.74 221.56, -0.3 203.58 C0.14 185.6, 3.46 166.37, 8.74 148.86 C14.01 131.35, 21.7 113.78, 31.35 98.51 C41 83.24, 53.59 69.34, 66.62 57.25 C79.65 45.15, 91.22 34.99, 109.54 25.95 C127.86 16.92, 162.73 6.39, 176.54 3.03 C190.35 -0.33, 191.81 2.44, 192.39 5.8" stroke="#ced4da" stroke-width="2.5" fill="none" stroke-dasharray="8 10"></path></g></svg>