<svg version="1.1" xmlns="http://www.w3.org/2000/svg" viewBox="0 0 187 186.5" width="187" height="186.5" class="excalidraw-svg"><!-- svg-source:excalidraw --><metadata></metadata><defs><style class="style-fonts">
      </style></defs><rect x="0" y="0" width="187" height="186.5" fill="#ffffff"></rect><g stroke-linecap="round" transform="translate(10.5 10) rotate(0 21.5 21.5)"><path d="M17.89 0.54 C22.1 -0.42, 28 1.07, 31.88 3.25 C35.75 5.42, 39.44 9.33, 41.16 13.59 C42.88 17.86, 43.69 24.46, 42.22 28.86 C40.75 33.26, 36.45 37.61, 32.34 40 C28.23 42.38, 22.09 44, 17.54 43.17 C13 42.34, 7.97 38.63, 5.05 35.03 C2.13 31.43, -0.01 26.18, 0.02 21.57 C0.06 16.97, 2.11 11.03, 5.25 7.41 C8.39 3.78, 16.47 1.04, 18.87 -0.17 C21.28 -1.39, 19.78 -0.31, 19.69 0.11 M20.39 0 C24.88 -0.45, 31.69 1.64, 35.41 4.57 C39.12 7.5, 41.91 13.07, 42.69 17.58 C43.47 22.09, 42.4 27.61, 40.1 31.63 C37.8 35.65, 33.15 39.93, 28.87 41.69 C24.59 43.44, 18.75 43.65, 14.4 42.16 C10.06 40.68, 5.14 36.7, 2.79 32.77 C0.45 28.83, -0.35 23.08, 0.33 18.56 C1.01 14.05, 3.45 8.84, 6.89 5.67 C10.32 2.5, 18.74 0.45, 20.93 -0.46 C23.12 -1.37, 20.08 -0.22, 20.02 0.21" stroke="#1e1e1e" stroke-width="2" fill="none"></path></g><g stroke-linecap="round" transform="translate(132 10.5) rotate(0 21.5 21.5)"><path d="M20.12 0.11 C24.48 -0.47, 30.85 1.22, 34.49 3.93 C38.13 6.64, 40.94 11.85, 41.96 16.38 C42.98 20.91, 42.66 26.92, 40.61 31.11 C38.57 35.31, 33.95 39.74, 29.68 41.56 C25.41 43.38, 19.29 43.39, 14.99 42.05 C10.68 40.7, 6.4 37.24, 3.86 33.47 C1.33 29.71, -0.75 24.06, -0.24 19.45 C0.28 14.85, 3.4 9.17, 6.97 5.85 C10.54 2.54, 18.75 0.48, 21.18 -0.42 C23.61 -1.32, 21.52 -0.01, 21.53 0.45 M16.45 0.38 C20.58 -0.9, 27.74 0.03, 31.79 2.31 C35.84 4.6, 39.14 9.79, 40.73 14.1 C42.31 18.4, 42.54 23.82, 41.29 28.12 C40.04 32.42, 36.98 37.34, 33.24 39.88 C29.5 42.42, 23.5 44.08, 18.84 43.36 C14.18 42.64, 8.3 38.99, 5.28 35.56 C2.26 32.12, 0.96 27.43, 0.73 22.77 C0.51 18.1, 1.19 11.28, 3.93 7.56 C6.66 3.84, 14.85 1.61, 17.14 0.45 C19.43 -0.7, 17.66 0.39, 17.66 0.62" stroke="#1e1e1e" stroke-width="2" fill="none"></path></g><g stroke-linecap="round" transform="translate(10 133.5) rotate(0 21.5 21.5)"><path d="M20.55 0.45 C24.9 0.03, 31.37 1.93, 35.1 4.65 C38.84 7.37, 42.04 12.25, 42.95 16.77 C43.87 21.29, 42.78 27.61, 40.58 31.77 C38.38 35.93, 34.13 39.95, 29.75 41.71 C25.36 43.48, 18.66 43.94, 14.28 42.37 C9.9 40.79, 5.82 36.29, 3.48 32.29 C1.13 28.3, -0.41 22.97, 0.19 18.41 C0.79 13.84, 3.47 8.05, 7.08 4.91 C10.69 1.77, 19.38 0.28, 21.86 -0.42 C24.34 -1.11, 22.01 0.25, 21.96 0.72 M26.4 1.02 C30.66 1.54, 34.8 3.91, 37.57 7.4 C40.34 10.89, 42.92 17.29, 43.01 21.96 C43.1 26.63, 41.23 32.06, 38.12 35.42 C35.01 38.77, 28.88 41.27, 24.36 42.07 C19.85 42.86, 14.91 42.4, 11.03 40.19 C7.16 37.99, 2.7 33.26, 1.12 28.83 C-0.46 24.39, -0.16 17.99, 1.57 13.57 C3.29 9.14, 7.55 4.4, 11.45 2.27 C15.35 0.14, 22.53 0.9, 24.96 0.76 C27.4 0.62, 26.03 1.11, 26.05 1.43" stroke="#1e1e1e" stroke-width="2" fill="none"></path></g><g stroke-linecap="round" transform="translate(134 129.5) rotate(0 21.5 21.5)"><path d="M19.29 0 C23.76 -0.69, 30.31 1.26, 34.19 4 C38.07 6.73, 41.47 11.99, 42.57 16.41 C43.68 20.82, 42.76 26.32, 40.83 30.49 C38.9 34.66, 35.23 39.54, 30.99 41.43 C26.75 43.32, 19.92 43.11, 15.39 41.83 C10.87 40.55, 6.35 37.51, 3.85 33.77 C1.35 30.02, 0.01 24.04, 0.39 19.38 C0.76 14.71, 2.63 8.98, 6.07 5.78 C9.52 2.59, 18.48 1.07, 21.04 0.22 C23.6 -0.63, 21.5 0.39, 21.45 0.7 M24.04 0.57 C28.59 0.84, 34.34 3.11, 37.53 6.4 C40.71 9.68, 42.91 15.77, 43.15 20.3 C43.39 24.83, 41.8 29.77, 38.97 33.56 C36.15 37.36, 30.61 41.86, 26.2 43.05 C21.79 44.24, 16.49 42.7, 12.51 40.69 C8.54 38.69, 4.29 35.19, 2.36 31.03 C0.43 26.88, -0.24 20.25, 0.92 15.78 C2.08 11.3, 5.46 6.68, 9.33 4.19 C13.2 1.69, 21.8 1.42, 24.14 0.81 C26.48 0.2, 23.43 0.17, 23.36 0.54" stroke="#1e1e1e" stroke-width="2" fill="none"></path></g></svg>