<svg version="1.1" xmlns="http://www.w3.org/2000/svg" viewBox="0 0 735.796075915955 184.49216859693487" width="735.796075915955" height="184.49216859693487" class="excalidraw-svg"><!-- svg-source:excalidraw --><metadata></metadata><defs><style class="style-fonts">
      </style></defs><rect x="0" y="0" width="735.796075915955" height="184.49216859693487" fill="#ffffff"></rect><g stroke-linecap="round"><g transform="translate(378.47470438409596 15.674785632267572) rotate(0 173.5 -2.5)"><path d="M0.25 0.28 C58.25 -0.67, 289.49 -4.81, 347.32 -5.67 M-1.08 -0.62 C56.85 -1.42, 288.6 -4.01, 346.54 -4.49" stroke="#1e1e1e" stroke-width="2" fill="none"></path></g></g><mask></mask><g stroke-linecap="round"><g transform="translate(331.7556021320405 -2.2874027627103715) rotate(45.83937772043386 1.9651784407947588 58.083304873643556)"><path d="M-1.1 0.92 C-1.27 3.19, -2.48 10.57, -0.6 12.6 C1.29 14.63, 6.85 12.41, 10.22 13.11 C13.58 13.82, 18.1 15.33, 19.6 16.85 C21.1 18.37, 20.44 19.85, 19.24 22.24 C18.04 24.64, 18.42 29.65, 12.39 31.22 C6.37 32.78, -12.29 32.65, -16.9 31.63 C-21.52 30.61, -19.84 26.41, -15.31 25.11 C-10.79 23.81, 4.3 22.84, 10.22 23.83 C16.15 24.81, 18.5 28.85, 20.24 31.02 C21.98 33.2, 22.44 34.01, 20.64 36.88 C18.85 39.74, 15.82 46.34, 9.48 48.2 C3.13 50.06, -12.94 49.4, -17.42 48.03 C-21.9 46.65, -22.04 41.47, -17.39 39.95 C-12.74 38.42, 3.98 37.6, 10.47 38.88 C16.96 40.16, 21.57 44.27, 21.54 47.62 C21.51 50.96, 16.85 56.79, 10.27 58.93 C3.69 61.07, -13.12 61.69, -17.92 60.44 C-22.71 59.18, -22.89 52.79, -18.5 51.42 C-14.1 50.05, 1.68 50.61, 8.46 52.23 C15.24 53.86, 21.9 57.81, 22.19 61.17 C22.49 64.54, 16.71 70.37, 10.22 72.42 C3.73 74.47, -12.1 74.78, -16.75 73.49 C-21.39 72.2, -19.48 66.46, -17.64 64.68 C-15.81 62.9, -10.53 62.91, -5.73 62.83 C-0.92 62.75, 6.48 62.68, 11.16 64.21 C15.85 65.75, 22.5 68.12, 22.37 72.06 C22.24 76, 16.58 84.79, 10.38 87.86 C4.18 90.92, -10.39 91.78, -14.84 90.45 C-19.28 89.13, -22.08 81.92, -16.29 79.91 C-10.5 77.91, 14.24 76.28, 19.9 78.4 C25.55 80.51, 21.33 89.77, 17.63 92.61 C13.93 95.45, 1.14 91.65, -2.29 95.46 C-5.73 99.26, -2.83 112.14, -2.98 115.43 M0.52 0.36 C0.7 2.34, 0.09 8.34, 1.68 10.67 C3.26 13.01, 7.07 13.7, 10.03 14.37 C12.99 15.05, 17.61 13.39, 19.42 14.75 C21.23 16.1, 22.35 19.94, 20.88 22.49 C19.4 25.04, 16.78 28.75, 10.59 30.06 C4.39 31.38, -11.89 31.21, -16.29 30.39 C-20.68 29.56, -20.45 26.44, -15.77 25.11 C-11.09 23.78, 5.72 21.45, 11.81 22.4 C17.89 23.36, 19.22 28.26, 20.74 30.84 C22.26 33.42, 22.47 35, 20.92 37.89 C19.37 40.77, 17.79 46.54, 11.43 48.15 C5.07 49.76, -12.28 48.85, -17.23 47.52 C-22.18 46.2, -22.96 41.8, -18.25 40.21 C-13.54 38.62, 4.16 36.52, 11.01 37.97 C17.85 39.43, 23.19 45.3, 22.83 48.92 C22.47 52.54, 15.87 57.67, 8.85 59.7 C1.82 61.74, -15.09 62.53, -19.33 61.14 C-23.56 59.75, -21.23 52.6, -16.58 51.38 C-11.92 50.15, 2.29 52.33, 8.61 53.79 C14.93 55.25, 21.14 57.18, 21.36 60.16 C21.57 63.13, 16.24 69.52, 9.91 71.67 C3.58 73.81, -12.23 74.31, -16.61 73.05 C-20.99 71.79, -17.89 65.74, -16.38 64.11 C-14.87 62.48, -12.28 63.25, -7.55 63.27 C-2.81 63.3, 7.37 62.8, 12.05 64.25 C16.72 65.7, 20.58 68.28, 20.5 71.96 C20.43 75.63, 17.4 83.53, 11.59 86.29 C5.78 89.05, -9.41 89.76, -14.37 88.49 C-19.33 87.22, -23.9 80.05, -18.17 78.67 C-12.44 77.29, 14.01 78.14, 20.01 80.22 C26.01 82.29, 21.39 88.71, 17.85 91.14 C14.3 93.56, 2.49 90.6, -1.26 94.78 C-5.01 98.96, -4.01 112.39, -4.65 116.22" stroke="#1e1e1e" stroke-width="2" fill="none"></path></g></g><mask></mask><g stroke-linecap="round"><g transform="translate(247.02787920444848 75.40000594005676) rotate(45.83937772043386 1.9651784407947588 58.08330487364356)"><path d="M-0.7 1.17 C-0.91 2.92, -2.45 9.25, -0.94 11.27 C0.57 13.29, 4.99 12.56, 8.35 13.29 C11.71 14.02, 17.1 14.21, 19.22 15.63 C21.34 17.06, 22.38 19.15, 21.07 21.84 C19.77 24.52, 17.91 30.03, 11.41 31.76 C4.92 33.49, -13.34 33.61, -17.89 32.21 C-22.44 30.82, -20.56 24.8, -15.89 23.39 C-11.23 21.98, 4.11 22.66, 10.11 23.77 C16.11 24.88, 18.54 28.09, 20.12 30.07 C21.7 32.05, 21.08 32.85, 19.6 35.64 C18.11 38.43, 17.56 44.72, 11.22 46.8 C4.88 48.87, -13.89 49.54, -18.42 48.1 C-22.95 46.66, -20.62 39.43, -15.96 38.16 C-11.29 36.89, 3.31 38.93, 9.57 40.48 C15.83 42.03, 21.59 44.31, 21.61 47.48 C21.63 50.66, 16.09 57.51, 9.68 59.52 C3.27 61.52, -12.36 60.7, -16.86 59.51 C-21.36 58.33, -21.61 53.34, -17.31 52.4 C-13 51.46, 2.44 52.57, 8.95 53.87 C15.46 55.17, 21.29 57.19, 21.76 60.22 C22.23 63.26, 18.13 69.86, 11.77 72.1 C5.41 74.34, -11.5 74.84, -16.39 73.67 C-21.27 72.51, -19.07 66.98, -17.54 65.11 C-16.02 63.25, -12.27 62.67, -7.24 62.5 C-2.2 62.32, 7.8 62.56, 12.66 64.07 C17.52 65.58, 22.08 67.7, 21.93 71.56 C21.78 75.43, 18.19 84.31, 11.76 87.26 C5.34 90.21, -11.94 90.68, -16.6 89.26 C-21.26 87.84, -22.27 80.39, -16.2 78.75 C-10.13 77.11, 14.12 77.33, 19.8 79.41 C25.48 81.5, 21.31 88.69, 17.86 91.27 C14.42 93.86, 2.69 90.89, -0.86 94.93 C-4.42 98.97, -3.21 111.88, -3.47 115.5 M1.13 0.74 C1.25 2.54, -0.47 9.99, 1.15 12.31 C2.77 14.62, 7.89 13.94, 10.84 14.64 C13.79 15.35, 17.32 15.35, 18.84 16.56 C20.37 17.76, 21.02 19.49, 20.01 21.88 C18.99 24.26, 19.05 29.32, 12.75 30.89 C6.45 32.46, -12.89 32.07, -17.8 31.28 C-22.7 30.49, -21.56 27.64, -16.65 26.15 C-11.75 24.65, 5.43 21.78, 11.63 22.32 C17.83 22.85, 19.28 27.1, 20.56 29.38 C21.84 31.66, 21.01 33.24, 19.32 36.01 C17.63 38.78, 16.77 44.07, 10.43 46.01 C4.08 47.95, -14.34 49.06, -18.76 47.64 C-23.17 46.22, -20.8 38.68, -16.07 37.48 C-11.34 36.28, 3.74 38.54, 9.63 40.42 C15.52 42.29, 18.94 45.36, 19.27 48.72 C19.6 52.09, 17.78 58.76, 11.61 60.59 C5.45 62.43, -12.71 61.02, -17.71 59.73 C-22.72 58.44, -22.94 54.06, -18.42 52.87 C-13.91 51.69, 2.84 51.04, 9.36 52.63 C15.88 54.21, 20.21 59.28, 20.69 62.37 C21.18 65.46, 18.4 69.35, 12.28 71.17 C6.15 73, -11.31 74.4, -16.06 73.33 C-20.81 72.26, -17.87 66.53, -16.22 64.77 C-14.58 63.01, -10.67 62.88, -6.19 62.76 C-1.71 62.64, 5.72 62.62, 10.67 64.03 C15.61 65.44, 23.59 67.03, 23.48 71.2 C23.38 75.36, 16.8 85.84, 10.04 89.03 C3.28 92.22, -12.39 91.75, -17.07 90.34 C-21.75 88.93, -24.19 82.6, -18.04 80.56 C-11.88 78.52, 13.82 76.08, 19.86 78.11 C25.9 80.14, 21.97 89.51, 18.2 92.76 C14.43 96.01, 0.58 93.7, -2.74 97.63 C-6.07 101.56, -1.53 113.22, -1.73 116.33" stroke="#1e1e1e" stroke-width="2" fill="none"></path></g></g><mask></mask><g stroke-linecap="round"><g transform="translate(10.474704384095958 173.67478563226757) rotate(0 355.5 0)"><path d="M0.65 -1.19 C119.28 -1.27, 592.43 -0.76, 710.9 -0.64 M-0.47 0.8 C118.07 0.88, 591.34 0.6, 709.9 0.56" stroke="#1e1e1e" stroke-width="2" fill="none"></path></g></g><mask></mask><g stroke-linecap="round"><g transform="translate(295.47470438409596 84.67478563226757) rotate(0 -140.5 0)"><path d="M-0.41 -0.37 C-47.18 -0.46, -233.76 0.17, -280.59 0.27 M1.58 -1.61 C-45.32 -2.15, -234 -2.26, -281.33 -1.71" stroke="#1e1e1e" stroke-width="2" fill="none"></path></g></g><mask></mask></svg>