<svg version="1.1" xmlns="http://www.w3.org/2000/svg" viewBox="0 0 794.6213236583583 558.8245334709995" width="794.6213236583583" height="558.8245334709995" class="excalidraw-svg"><!-- svg-source:excalidraw --><metadata></metadata><defs><style class="style-fonts">
      </style></defs><rect x="0" y="0" width="794.6213236583583" height="558.8245334709995" fill="#ffffff"></rect><g stroke-linecap="round"><g transform="translate(10.559309786018048 471.55271826244893) rotate(0 386.5 0)"><path d="M0.59 -0.81 C129.72 -0.89, 645.37 0.23, 774.06 0.47 M-0.56 1.38 C128.58 0.85, 644.94 -0.94, 773.67 -1.4" stroke="#1e1e1e" stroke-width="2" fill="none"></path></g><g transform="translate(10.559309786018048 471.55271826244893) rotate(0 386.5 0)"><path d="M750.21 7.23 C754.37 6.83, 762.08 2.57, 773.67 -1.4 M750.21 7.23 C758.52 3.75, 767.11 0.92, 773.67 -1.4" stroke="#1e1e1e" stroke-width="2" fill="none"></path></g><g transform="translate(10.559309786018048 471.55271826244893) rotate(0 386.5 0)"><path d="M750.15 -9.87 C754.46 -6.2, 762.19 -6.4, 773.67 -1.4 M750.15 -9.87 C758.56 -7.33, 767.18 -4.13, 773.67 -1.4" stroke="#1e1e1e" stroke-width="2" fill="none"></path></g></g><mask></mask><g stroke-linecap="round"><g transform="translate(69.55930978601805 547.5527182624489) rotate(0 0 -236)"><path d="M-0.8 -0.88 C-0.97 -79.76, -0.38 -394.02, -0.07 -472.43 M0.98 1.27 C0.57 -77.51, -1.04 -392.02, -1.05 -471.11" stroke="#1e1e1e" stroke-width="2" fill="none"></path></g><g transform="translate(69.55930978601805 547.5527182624489) rotate(0 0 -236)"><path d="M7.57 -447.65 C2.66 -456.74, 0.14 -463.71, -1.05 -471.11 M7.57 -447.65 C5.28 -456.25, 1.95 -465.2, -1.05 -471.11" stroke="#1e1e1e" stroke-width="2" fill="none"></path></g><g transform="translate(69.55930978601805 547.5527182624489) rotate(0 0 -236)"><path d="M-9.53 -447.6 C-7.94 -456.59, -3.95 -463.59, -1.05 -471.11 M-9.53 -447.6 C-5.69 -456.36, -2.89 -465.33, -1.05 -471.11" stroke="#1e1e1e" stroke-width="2" fill="none"></path></g></g><mask></mask><g stroke-linecap="round"><g transform="translate(159.55930978601805 114.55271826244893) rotate(0 274 130)"><path d="M-1.14 -0.45 C11.35 32.64, 43.85 149.44, 74.38 199 C104.9 248.56, 138.32 294.6, 182.01 296.9 C225.7 299.21, 275.4 268.67, 336.52 212.83 C397.63 157, 513.52 3.57, 548.68 -38.09 M0.46 -1.74 C12.88 31.43, 42.97 150.11, 73.62 200.01 C104.28 249.91, 140.48 295.43, 184.38 297.65 C228.29 299.87, 276.5 269.23, 337.03 213.33 C397.56 157.43, 512.31 4.09, 547.57 -37.75" stroke="#1e1e1e" stroke-width="2" fill="none"></path></g></g><mask></mask><g stroke-linecap="round"><g transform="translate(244.55930978601805 95.55271826244893) rotate(0 196 96)"><path d="M0.78 -0.37 C8.82 23.98, 31.93 108.72, 48.85 146.32 C65.77 183.92, 71.14 226.47, 102.3 225.22 C133.45 223.97, 187.48 182.02, 235.79 138.82 C284.1 95.62, 366.23 -5.45, 392.16 -33.98 M-0.28 -1.61 C7.63 22.87, 30.84 109.46, 48.35 147.5 C65.87 185.55, 73.56 227.94, 104.82 226.66 C136.09 225.38, 188.27 183.29, 235.92 139.83 C283.58 96.37, 364.69 -5.29, 390.77 -34.11" stroke="#1e1e1e" stroke-width="2" fill="none"></path></g></g><mask></mask><g stroke-linecap="round"><g transform="translate(302.55930978601805 101.55271826244893) rotate(0 137 53)"><path d="M-0.07 0.77 C2.85 13.91, 8.6 54.39, 16.66 78.79 C24.73 103.19, 23.3 148.98, 48.3 147.18 C73.29 145.39, 129.05 99.38, 166.63 68 C204.2 36.63, 256 -22.74, 273.73 -41.07 M-1.57 0.13 C1.25 13.45, 6.81 55.56, 15.54 80.21 C24.27 104.87, 25.63 150.44, 50.82 148.07 C76.01 145.7, 129.19 97.35, 166.68 65.97 C204.17 34.6, 257.9 -22.03, 275.78 -40.19" stroke="#1e1e1e" stroke-width="2" fill="none"></path></g></g><mask></mask><g stroke-linecap="round"><g transform="translate(448.55930978601805 10.552718262448934) rotate(0 -16.5 38.5)"><path d="M-0.86 0.32 C-6.48 13.07, -28.5 64.17, -34.03 76.98 M0.89 -0.55 C-4.35 12.35, -26.42 65.32, -31.86 78.5" stroke="#1e1e1e" stroke-width="2" fill="none"></path></g></g><mask></mask></svg>