<svg version="1.1" xmlns="http://www.w3.org/2000/svg" viewBox="0 0 114 554.773517436729" width="114" height="554.773517436729" class="excalidraw-svg"><!-- svg-source:excalidraw --><metadata></metadata><defs><style class="style-fonts">
      </style></defs><rect x="0" y="0" width="114" height="554.773517436729" fill="#ffffff"></rect><g stroke-linecap="round" transform="translate(10 10) rotate(0 47 241)"><path d="M0 0 C23.18 -0.96, 49.49 -0.54, 94 0 M0 0 C36.79 -0.03, 74.07 0.37, 94 0 M94 0 C92.77 125.23, 92.38 251.12, 94 482 M94 0 C93.75 171.18, 93.44 341.8, 94 482 M94 482 C74.56 483.3, 51.4 483.05, 0 482 M94 482 C61.08 480.71, 26.87 480.79, 0 482 M0 482 C-0.31 313.17, -0.03 144.23, 0 0 M0 482 C1.98 335.42, 1.93 190.08, 0 0" stroke="#1e1e1e" stroke-width="2" fill="none"></path></g><g stroke-linecap="round"><g transform="translate(52 492) rotate(0 0 14)"><path d="M0 0 C-0.22 10.93, 0.7 21.75, 0 28 M0 0 C0.2 9.9, 0.04 18.7, 0 28" stroke="#1e1e1e" stroke-width="2" fill="none"></path></g></g><mask></mask><g stroke-linecap="round"><g transform="translate(26 521) rotate(0 27.5 0)"><path d="M0 0 C18.59 -0.51, 32.85 0.2, 55 0 M0 0 C13.69 0.69, 28.04 0.66, 55 0" stroke="#1e1e1e" stroke-width="2" fill="none"></path></g></g><mask></mask><g stroke-linecap="round"><g transform="translate(34.5 534.8431201049599) rotate(0 18.75 0)"><path d="M0 0 C10.3 -0.89, 20.98 -0.24, 37.5 0 M0 0 C8.24 -0.16, 17.46 0.15, 37.5 0" stroke="#1e1e1e" stroke-width="2" fill="none"></path></g></g><mask></mask><g stroke-linecap="round"><g transform="translate(24.5 543.8431201049599) rotate(0 27.5 0)"><path d="M0 0 C18.28 1.77, 34.97 0.58, 55 0 M0 0 C16.22 -0.91, 33.06 -1.27, 55 0" stroke="#1e1e1e" stroke-width="2" fill="none"></path></g></g><mask></mask></svg>