<svg version="1.1" xmlns="http://www.w3.org/2000/svg" viewBox="0 0 1056.531938705177 624" width="1056.531938705177" height="624" class="excalidraw-svg"><!-- svg-source:excalidraw --><metadata></metadata><defs><style class="style-fonts">
      </style></defs><rect x="0" y="0" width="1056.531938705177" height="624" fill="#ffffff"></rect><g stroke-linecap="round" transform="translate(205.8262907504266 120.79499622766139) rotate(0 96.27307322369492 184.07768167308342)"><path d="M7.86 8.16 C7.86 8.16, 7.86 8.16, 7.86 8.16 M7.86 8.16 C7.86 8.16, 7.86 8.16, 7.86 8.16 M1.43 27.75 C9.78 19.81, 20.01 6.3, 24.4 1.33 M1.43 27.75 C7.68 20.54, 15.9 12.97, 24.4 1.33 M0.91 40.54 C11.64 29.55, 22.91 13.46, 36.34 -0.21 M0.91 40.54 C9.25 30.7, 19.3 19.77, 36.34 -0.21 M1.04 52.58 C15.51 39.34, 25.76 21.97, 46.31 0.51 M1.04 52.58 C15.34 37.85, 27.63 22.36, 46.31 0.51 M1.18 64.62 C19.58 45.13, 37.87 23.35, 56.94 0.47 M1.18 64.62 C16.07 47.42, 31.6 30.58, 56.94 0.47 M1.31 76.67 C17.98 61.75, 31.05 44.49, 67.57 0.44 M1.31 76.67 C27.58 47.2, 52.22 17.94, 67.57 0.44 M0.79 89.46 C23.23 63.13, 43.57 41.77, 78.2 0.41 M0.79 89.46 C19.22 68.5, 36.99 47.8, 78.2 0.41 M0.92 101.5 C22.39 75.4, 46.96 51.11, 88.83 0.37 M0.92 101.5 C24.8 74.25, 47.42 46.99, 88.83 0.37 M1.05 113.54 C40.77 68.82, 78.5 22.92, 99.46 0.34 M1.05 113.54 C25.44 84.8, 49.94 57.53, 99.46 0.34 M1.19 125.58 C24.03 98.09, 50.22 72.03, 110.09 0.3 M1.19 125.58 C28.82 93.08, 59.7 59.69, 110.09 0.3 M0.66 138.38 C37.38 98.56, 71.21 56.94, 120.72 0.27 M0.66 138.38 C30.39 103.86, 59.02 71.05, 120.72 0.27 M0.8 150.42 C42.47 102.21, 85.21 55.36, 131.35 0.23 M0.8 150.42 C42.48 101.3, 85.93 51.49, 131.35 0.23 M0.93 162.46 C52.11 102.44, 104.4 43.76, 141.98 0.2 M0.93 162.46 C55.41 98.65, 110.05 35.66, 141.98 0.2 M1.06 174.5 C51.21 115.8, 106.47 55.28, 152.61 0.16 M1.06 174.5 C36.41 133.57, 70.96 93.53, 152.61 0.16 M1.2 186.54 C34.24 149.99, 64.19 110.38, 162.59 0.88 M1.2 186.54 C42.12 136.93, 85.45 87.04, 162.59 0.88 M0.67 199.34 C42.94 147.84, 89.25 96.94, 172.56 1.6 M0.67 199.34 C62.14 130.33, 123.59 58.41, 172.56 1.6 M0.81 211.38 C61.7 140.82, 123.62 69.21, 179.91 5.34 M0.81 211.38 C51.98 155.57, 101.86 98.17, 179.91 5.34 M0.94 223.42 C71.34 140.86, 143.3 61.68, 185.95 10.59 M0.94 223.42 C65.77 151.42, 128.51 78.04, 185.95 10.59 M1.07 235.46 C57.86 169.27, 115.09 104.08, 190.67 17.35 M1.07 235.46 C51.66 175.97, 102.58 116.21, 190.67 17.35 M0.55 248.26 C45.39 196.51, 88.15 147.66, 192.12 27.88 M0.55 248.26 C43.17 197.75, 87.73 146.52, 192.12 27.88 M0.68 260.3 C75.38 172.75, 148.36 87.8, 193.57 38.41 M0.68 260.3 C57.11 193.63, 115.25 127.84, 193.57 38.41 M0.82 272.34 C55.45 207.8, 111.88 145.63, 193.04 51.21 M0.82 272.34 C55.96 208.23, 111.86 142.88, 193.04 51.21 M0.95 284.38 C48.84 228.01, 100.45 169.96, 193.18 63.25 M0.95 284.38 C46.43 232.33, 91.66 178.84, 193.18 63.25 M0.43 297.17 C38.04 250.53, 80.19 205.64, 193.31 75.29 M0.43 297.17 C44.01 246.7, 87.06 196.07, 193.31 75.29 M0.56 309.22 C68.75 225.74, 141.85 145.1, 193.44 87.33 M0.56 309.22 C42.93 261.07, 84.44 212.98, 193.44 87.33 M0.69 321.26 C44.17 270.34, 90.28 217.45, 193.57 99.37 M0.69 321.26 C68.79 245.29, 137.54 166.19, 193.57 99.37 M0.83 333.3 C67.47 256.84, 132.53 181.68, 193.05 112.17 M0.83 333.3 C70.1 254.12, 138.73 174.6, 193.05 112.17 M1.62 344.58 C73.45 261.27, 144.5 178.08, 193.18 124.21 M1.62 344.58 C41.69 297.75, 83.65 249.69, 193.18 124.21 M3.72 354.36 C70.14 274.52, 139.42 194.36, 193.32 136.25 M3.72 354.36 C47.36 305.45, 88.52 257.33, 193.32 136.25 M9.1 360.36 C46.17 319.58, 83.93 275.07, 193.45 148.29 M9.1 360.36 C82.1 276.32, 154.9 192.47, 193.45 148.29 M15.79 364.86 C55.94 321.12, 92.57 275.18, 193.58 160.33 M15.79 364.86 C85.47 284.53, 155.24 205.24, 193.58 160.33 M23.8 367.84 C72.51 314.07, 121.85 255.33, 193.06 173.13 M23.8 367.84 C72.86 311.36, 121.2 253.27, 193.06 173.13 M34.43 367.81 C72.97 326.38, 109.43 280.9, 193.19 185.17 M34.43 367.81 C81.39 316.84, 125.96 265.26, 193.19 185.17 M45.06 367.77 C98.51 306.44, 150.68 245.17, 193.33 197.21 M45.06 367.77 C92.36 314.67, 138.37 261.14, 193.33 197.21 M55.03 368.49 C105.35 312.94, 157.25 254.48, 193.46 209.25 M55.03 368.49 C101.63 317.55, 147.71 265.03, 193.46 209.25 M65.66 368.46 C108.24 320.17, 149.9 270.71, 193.59 221.29 M65.66 368.46 C107.66 320.89, 149.38 274.07, 193.59 221.29 M76.29 368.42 C108.86 332.63, 141.25 294.01, 193.07 234.08 M76.29 368.42 C122.44 316.51, 166.51 263.11, 193.07 234.08 M86.92 368.39 C116.53 336.55, 147.6 301.76, 193.2 246.13 M86.92 368.39 C126.61 320.6, 167.69 275.45, 193.2 246.13 M97.55 368.35 C123.54 340.92, 145.91 311.45, 193.34 258.17 M97.55 368.35 C129.71 330.55, 161.85 292.25, 193.34 258.17 M108.18 368.32 C130.54 342.74, 155.42 315.8, 193.47 270.21 M108.18 368.32 C140.98 330.13, 174.62 293.71, 193.47 270.21 M118.81 368.29 C142.45 340.04, 169.59 311.98, 193.6 282.25 M118.81 368.29 C140.99 341.55, 164.87 316.58, 193.6 282.25 M129.44 368.25 C150.18 345.37, 170.31 318.53, 193.08 295.04 M129.44 368.25 C147.39 349, 163.71 329.78, 193.08 295.04 M140.07 368.22 C159.43 347.52, 179.14 326.65, 193.21 307.08 M140.07 368.22 C150.79 355.52, 163.08 341.75, 193.21 307.08 M150.7 368.18 C161.53 355.64, 171.65 341.72, 193.35 319.13 M150.7 368.18 C166.85 350.07, 182.46 332.52, 193.35 319.13 M160.68 368.9 C170.42 357.1, 181.16 345.77, 193.48 331.17 M160.68 368.9 C168.94 361.15, 174.71 352.65, 193.48 331.17 M173.28 366.6 C179.93 359.18, 183.19 352.97, 192.96 343.96 M173.28 366.6 C177.79 360.33, 182.62 355.17, 192.96 343.96" stroke="#ffc9c9" stroke-width="1" fill="none"></path><path d="M32 0 C64.69 -0.2, 97.26 -0.46, 160.55 0 M32 0 C72.32 -1.69, 112.78 -1.43, 160.55 0 M160.55 0 C181.13 -0.27, 192.53 11.95, 192.55 32 M160.55 0 C182.87 0.47, 190.33 11.58, 192.55 32 M192.55 32 C190.53 120.49, 190.44 210.45, 192.55 336.16 M192.55 32 C194.64 150.19, 195.13 268.79, 192.55 336.16 M192.55 336.16 C190.73 356.01, 183.76 366.99, 160.55 368.16 M192.55 336.16 C193.11 357.38, 181.36 369.96, 160.55 368.16 M160.55 368.16 C112.05 369.08, 61.31 370.83, 32 368.16 M160.55 368.16 C114.85 368.7, 67.58 367.91, 32 368.16 M32 368.16 C12.46 366.63, 1.84 357.63, 0 336.16 M32 368.16 C12.22 368.71, -2.08 358.03, 0 336.16 M0 336.16 C0.98 240.67, -0.08 144.17, 0 32 M0 336.16 C1.29 244.69, 2.49 152.21, 0 32 M0 32 C-1.74 9.42, 11.29 1.29, 32 0 M0 32 C2.05 8.5, 9.47 0.43, 32 0" stroke="#1e1e1e" stroke-width="2" fill="none"></path></g><g stroke-linecap="round" transform="translate(239.62594302236107 10) rotate(0 302 302)"><path d="M32 0 C153.06 -1.26, 275.64 -1.5, 572 0 M32 0 C237.1 0.83, 441.12 0.56, 572 0 M572 0 C592.02 -0.65, 602.11 11.11, 604 32 M572 0 C593.61 0.12, 605.07 11.62, 604 32 M604 32 C602.47 168.62, 601.96 304.72, 604 572 M604 32 C605.92 226.56, 605.68 421.19, 604 572 M604 572 C605.95 595.29, 594.06 605.93, 572 604 M604 572 C601.95 595.54, 594.01 603.55, 572 604 M572 604 C461.29 604.46, 352.34 603.43, 32 604 M572 604 C460.46 604.86, 348.23 605.21, 32 604 M32 604 C8.98 603.47, -1.76 592.35, 0 572 M32 604 C12.56 603.73, 0.07 592.81, 0 572 M0 572 C1.12 462.31, 0.93 354.74, 0 32 M0 572 C-1.14 410.95, -1.36 250.35, 0 32 M0 32 C1.42 11.76, 12.55 0.81, 32 0 M0 32 C0.43 12.54, 11.54 -1.68, 32 0" stroke="#1e1e1e" stroke-width="2" fill="none"></path></g><g stroke-linecap="round" transform="translate(364.62594302236107 136) rotate(0 179 179)"><path d="M32 0 C128.13 1.05, 225.68 1.14, 326 0 M32 0 C144.4 -2.17, 257.57 -0.96, 326 0 M326 0 C347.42 0.48, 357.33 10.29, 358 32 M326 0 C345.24 1.51, 359.82 11.79, 358 32 M358 32 C355.25 148.22, 356.38 265.06, 358 326 M358 32 C356.48 122.68, 357.75 214.66, 358 326 M358 326 C356.14 345.41, 347.19 359.32, 326 358 M358 326 C357.37 349.2, 346.23 357.73, 326 358 M326 358 C250.14 359.39, 171.91 357.18, 32 358 M326 358 C216.69 359.29, 107.52 359.85, 32 358 M32 358 C12.05 357.07, 1.21 348.38, 0 326 M32 358 C9.41 358.43, -1.43 345.25, 0 326 M0 326 C-2.59 261.57, -3.09 195.36, 0 32 M0 326 C2.2 253.63, 2.08 183.17, 0 32 M0 32 C1.33 12.05, 11.47 1.3, 32 0 M0 32 C-1.31 12.58, 9.45 -1.22, 32 0" stroke="#1e1e1e" stroke-width="2" fill="none"></path></g><g stroke-linecap="round"><g transform="translate(295.4782956347087 143.78201601268043) rotate(0 7.186621617146372 162.2479293312221)"><path d="M-0.38 -0.83 C-0.09 4.54, -4.11 27.13, 1.44 33.39 C6.99 39.64, 20.65 34.94, 32.93 36.69 C45.22 38.43, 68.2 39.44, 75.13 43.87 C82.05 48.29, 80.11 55.94, 74.46 63.25 C68.82 70.55, 63.79 83.62, 41.27 87.69 C18.74 91.77, -43.83 90.9, -60.66 87.71 C-77.5 84.51, -76.7 72.02, -59.74 68.51 C-42.78 65.01, 18.38 63.98, 41.1 66.67 C63.81 69.37, 70.97 78.67, 76.56 84.68 C82.16 90.68, 81.45 94.76, 74.65 102.71 C67.85 110.65, 58.69 127.5, 35.76 132.37 C12.82 137.24, -46.71 135.65, -62.95 131.93 C-79.19 128.21, -78.19 113.81, -61.69 110.05 C-45.19 106.29, 13.05 105.48, 36.05 109.39 C59.05 113.3, 75.85 124.16, 76.33 133.5 C76.8 142.85, 62.5 159.87, 38.92 165.45 C15.33 171.02, -48.02 170.52, -65.2 166.98 C-82.38 163.43, -80.77 147.54, -64.17 144.18 C-47.56 140.82, 10.68 142.31, 34.43 146.8 C58.18 151.3, 77.32 162.51, 78.34 171.16 C79.37 179.81, 63.95 193.53, 40.6 198.71 C17.25 203.9, -44.62 205.54, -61.76 202.3 C-78.9 199.05, -68.88 183.9, -62.25 179.24 C-55.62 174.57, -39.42 174.38, -21.99 174.3 C-4.56 174.23, 25.56 174.71, 42.34 178.78 C59.12 182.85, 79.23 187.7, 78.7 198.72 C78.17 209.73, 61.62 235.95, 39.15 244.87 C16.67 253.8, -39.36 255.88, -56.14 252.27 C-72.92 248.66, -82.52 228.65, -61.53 223.2 C-40.53 217.74, 49.32 213.77, 69.82 219.54 C90.32 225.31, 74.05 249.76, 61.48 257.82 C48.91 265.89, 6.97 256.73, -5.58 267.93 C-18.12 279.13, -12.74 315.55, -13.81 325.03 M1.63 1.34 C1.82 7.37, -4.26 28.43, 0.8 34.52 C5.85 40.61, 19.48 36.2, 31.95 37.87 C44.42 39.55, 68.77 40.24, 75.63 44.57 C82.49 48.9, 78.69 56.84, 73.11 63.84 C67.53 70.84, 64.88 82.85, 42.16 86.59 C19.45 90.34, -46.04 89.36, -63.17 86.31 C-80.31 83.26, -77.82 71.78, -60.64 68.27 C-43.46 64.76, 16.84 62.63, 39.9 65.24 C62.95 67.85, 71.95 77.54, 77.69 83.94 C83.44 90.33, 81.06 95.64, 74.36 103.61 C67.66 111.59, 60.3 127.26, 37.5 131.8 C14.69 136.34, -45.89 134.43, -62.47 130.85 C-79.04 127.27, -78.36 113.48, -61.96 110.33 C-45.55 107.17, 12.82 108.41, 35.98 111.94 C59.14 115.47, 76.71 123, 77.01 131.51 C77.31 140.03, 61.12 157.06, 37.77 163.03 C14.42 169, -45.97 170.51, -63.1 167.32 C-80.24 164.13, -80.85 147.07, -65.03 143.89 C-49.2 140.72, 7.62 143.8, 31.85 148.25 C56.08 152.7, 78.93 161.83, 80.35 170.59 C81.77 179.36, 64.03 195.13, 40.39 200.81 C16.75 206.5, -44.63 208.43, -61.49 204.7 C-78.35 200.98, -67.04 183.53, -60.77 178.47 C-54.5 173.42, -41.21 174.31, -23.87 174.38 C-6.52 174.44, 26.03 174.93, 43.3 178.84 C60.56 182.76, 80.2 186.54, 79.72 197.86 C79.25 209.18, 63.05 238.03, 40.48 246.77 C17.9 255.52, -38.88 254.45, -55.71 250.34 C-72.53 246.24, -81.38 227.52, -60.48 222.13 C-39.59 216.74, 49.43 212.28, 69.68 217.99 C89.93 223.7, 73.36 248.13, 60.99 256.39 C48.61 264.66, 7.71 256.53, -4.56 267.6 C-16.82 278.67, -11.08 313.37, -12.6 322.81" stroke="#1e1e1e" stroke-width="2" fill="none"></path></g></g><mask></mask><g stroke-linecap="round"><g transform="translate(24.10578584765483 146.89141734466386) rotate(0 134 -1)"><path d="M0.12 -0.7 C44.77 -0.9, 222.85 -2.15, 267.56 -2.2 M-1.28 1.55 C43.21 1.63, 221.53 -0.04, 266.38 -0.77" stroke="#1e1e1e" stroke-width="2" fill="none"></path></g></g><mask></mask><g stroke-linecap="round"><g transform="translate(11.182068556547165 467.3246010292554) rotate(0 134 -1)"><path d="M-1.18 0.37 C43.34 -0.18, 222.5 -2.04, 267.45 -2.39 M0.4 -0.48 C44.69 -0.94, 221.61 -1.08, 266.22 -1.05" stroke="#1e1e1e" stroke-width="2" fill="none"></path></g></g><mask></mask><g stroke-linecap="round"><g transform="translate(778.117634420302 152.13705538756105) rotate(0 7.186621617146386 162.2479293312221)"><path d="M0.74 -0.09 C1.09 5.7, -3.89 28.98, 1.52 34.96 C6.93 40.93, 20.88 34.07, 33.19 35.75 C45.5 37.44, 68.57 40.68, 75.39 45.06 C82.21 49.44, 79.79 54.87, 74.13 62.02 C68.46 69.18, 63.95 83.79, 41.41 87.99 C18.88 92.18, -44.29 90.35, -61.11 87.2 C-77.92 84.06, -76.24 72.49, -59.49 69.11 C-42.73 65.74, 16.89 64.21, 39.45 66.95 C62.01 69.68, 69.61 79.64, 75.86 85.53 C82.1 91.41, 83.37 94.57, 76.92 102.24 C70.47 109.91, 60.63 126.61, 37.14 131.55 C13.65 136.48, -47.43 135.77, -64.03 131.84 C-80.63 127.91, -79.21 111.53, -62.44 107.96 C-45.68 104.4, 13.33 106.37, 36.56 110.43 C59.79 114.48, 76.41 123.2, 76.91 132.3 C77.42 141.4, 62.99 159.13, 39.59 165 C16.19 170.88, -45.92 170.82, -63.48 167.54 C-81.04 164.25, -82 148.51, -65.75 145.28 C-49.5 142.05, 9.89 144.04, 34 148.14 C58.11 152.23, 77.59 161.25, 78.9 169.85 C80.2 178.46, 65.27 194.11, 41.85 199.78 C18.42 205.45, -44.32 207.46, -61.66 203.88 C-79 200.3, -68.83 182.97, -62.18 178.31 C-55.52 173.64, -39.06 176.01, -21.71 175.9 C-4.37 175.79, 25.14 173.55, 41.9 177.68 C58.65 181.81, 79.42 189.31, 78.8 200.69 C78.17 212.07, 60.79 237.26, 38.16 245.95 C15.53 254.64, -40.48 256.88, -56.97 252.81 C-73.46 248.74, -81.91 227.19, -60.76 221.54 C-39.61 215.88, 49.48 212.89, 69.94 218.87 C90.4 224.86, 74.36 249.3, 62 257.45 C49.64 265.59, 8.12 256.65, -4.21 267.72 C-16.55 278.8, -10.63 314.32, -12.01 323.89 M-0.33 -1.19 C-0.03 4.25, -4.53 26.98, 0.92 33.25 C6.36 39.53, 19.82 34.26, 32.33 36.45 C44.85 38.64, 69.32 42.14, 76.03 46.39 C82.74 50.65, 78.2 55.2, 72.6 61.97 C66.99 68.75, 64.52 82.5, 42.39 87.04 C20.26 91.58, -43.08 92.18, -60.19 89.21 C-77.3 86.23, -77.13 73.11, -60.25 69.19 C-43.38 65.26, 18.23 62.98, 41.04 65.66 C63.86 68.33, 71.1 79.03, 76.62 85.23 C82.14 91.44, 80.94 94.74, 74.16 102.9 C67.38 111.06, 59 129.56, 35.95 134.2 C12.91 138.83, -47.61 134.61, -64.12 130.71 C-80.63 126.81, -79.92 114.28, -63.11 110.8 C-46.3 107.33, 13.26 106.11, 36.76 109.86 C60.26 113.62, 77.56 123.98, 77.9 133.34 C78.24 142.69, 62.47 160.21, 38.8 166.02 C15.12 171.82, -47.04 171.58, -64.14 168.17 C-81.23 164.76, -80.29 149.16, -63.79 145.57 C-47.29 141.98, 10.69 142.79, 34.86 146.63 C59.02 150.47, 79.95 159.92, 81.19 168.61 C82.43 177.3, 66.05 192.96, 42.3 198.77 C18.54 204.58, -44.17 206.47, -61.33 203.46 C-78.49 200.45, -66.97 185.77, -60.66 180.72 C-54.34 175.67, -40.66 173.74, -23.45 173.15 C-6.23 172.56, 25.4 172.54, 42.62 177.16 C59.84 181.78, 80.48 189.6, 79.87 200.87 C79.26 212.13, 61.78 236.37, 38.97 244.75 C16.17 253.14, -40.59 254.74, -56.97 251.16 C-73.35 247.58, -80.46 228.35, -59.32 223.26 C-38.18 218.17, 49.68 215.21, 69.87 220.64 C90.05 226.06, 74.45 248.05, 61.78 255.82 C49.11 263.6, 6.41 255.8, -6.14 267.28 C-18.69 278.77, -12.14 315.16, -13.52 324.74" stroke="#1e1e1e" stroke-width="2" fill="none"></path></g></g><mask></mask><g stroke-linecap="round"><g transform="translate(766.2143493729538 475.69620932022536) rotate(0 134 -1)"><path d="M0.27 -1.11 C44.74 -1.4, 222.43 -2.61, 267.1 -2.86 M-1.04 0.92 C43.76 0.86, 224.56 -1.35, 269.34 -1.78" stroke="#1e1e1e" stroke-width="2" fill="none"></path></g></g><mask></mask><g stroke-linecap="round"><g transform="translate(778.6941921982477 151.2202958625869) rotate(0 134 -1)"><path d="M1.16 -0.28 C45.85 -0.95, 223.46 -2.73, 267.84 -2.94 M0.3 -1.48 C44.86 -1.51, 222.46 -1.53, 266.8 -1.89" stroke="#1e1e1e" stroke-width="2" fill="none"></path></g></g><mask></mask></svg>