<svg version="1.1" xmlns="http://www.w3.org/2000/svg" viewBox="0 0 616 283" width="616" height="283" class="excalidraw-svg"><!-- svg-source:excalidraw --><metadata></metadata><defs><style class="style-fonts">
      </style></defs><rect x="0" y="0" width="616" height="283" fill="#ffffff"></rect><g stroke-linecap="round" transform="translate(10 10) rotate(0 298 131.5)"><path d="M32 0 C202.83 -2.7, 375.63 -1.42, 564 0 M32 0 C172.89 0.27, 313.77 -0.3, 564 0 M564 0 C585.93 1, 595.33 12.1, 596 32 M564 0 C583.2 1.55, 594.91 10.21, 596 32 M596 32 C597.46 71.16, 597.6 114.46, 596 231 M596 32 C594.01 98.29, 594.05 164.83, 596 231 M596 231 C597.45 254.29, 585.55 262.36, 564 263 M596 231 C595.73 252.9, 587.01 261.13, 564 263 M564 263 C360.77 261.77, 156.38 262.29, 32 263 M564 263 C455.49 264.67, 346.84 264.06, 32 263 M32 263 C9.93 263.89, -1.26 251.9, 0 231 M32 263 C10.1 261.77, 1.43 251.36, 0 231 M0 231 C-2.64 174.29, -1.1 118.1, 0 32 M0 231 C0.54 156.3, 0.71 81.14, 0 32 M0 32 C0.63 12.21, 10.79 0.67, 32 0 M0 32 C-2.11 12.02, 10.43 -0.7, 32 0" stroke="#1e1e1e" stroke-width="2" fill="none"></path></g></svg>