<svg version="1.1" xmlns="http://www.w3.org/2000/svg" viewBox="0 0 340.6998077349983 177.2600887966734" width="340.6998077349983" height="177.2600887966734" class="excalidraw-svg"><!-- svg-source:excalidraw --><metadata></metadata><defs><style class="style-fonts">
      </style></defs><rect x="0" y="0" width="340.6998077349983" height="177.2600887966734" fill="#ffffff"></rect><g stroke-linecap="round"><g transform="translate(48.01030069829639 19.786824118290127) rotate(0 3.4989357301618327 73.55753744218592)"><path d="M1.08 -0.39 C1.23 2.17, -1.41 11.44, 0.96 14.46 C3.33 17.47, 9.52 16.67, 15.29 17.72 C21.06 18.76, 32.18 18.76, 35.58 20.74 C38.99 22.71, 38.39 26.4, 35.7 29.58 C33 32.75, 30.39 38.3, 19.39 39.82 C8.4 41.33, -22 40.04, -30.25 38.67 C-38.51 37.29, -38.54 32.84, -30.15 31.55 C-21.77 30.27, 8.83 29.96, 20.07 30.96 C31.31 31.97, 34.43 34.96, 37.3 37.56 C40.16 40.16, 40.45 42.65, 37.27 46.57 C34.08 50.5, 29.68 58.9, 18.18 61.11 C6.69 63.31, -23.55 61.9, -31.73 59.8 C-39.91 57.71, -39.05 50.15, -30.9 48.52 C-22.75 46.89, 5.67 48.17, 17.16 50.02 C28.66 51.87, 37.88 55.43, 38.07 59.6 C38.25 63.78, 29.96 72.41, 18.28 75.05 C6.6 77.7, -23.87 76.94, -32.03 75.46 C-40.19 73.97, -38.51 67.68, -30.65 66.16 C-22.79 64.65, 3.63 64.38, 15.11 66.38 C26.6 68.38, 37.4 74.36, 38.24 78.17 C39.08 81.97, 31.58 86.73, 20.15 89.22 C8.73 91.7, -22.02 94.31, -30.3 93.06 C-38.58 91.81, -32.65 83.89, -29.52 81.72 C-26.4 79.55, -19.89 80.16, -11.53 80.06 C-3.17 79.97, 12.43 79.34, 20.64 81.15 C28.85 82.95, 37.89 85.75, 37.74 90.89 C37.6 96.03, 30.68 108.13, 19.76 111.99 C8.83 115.85, -19.57 115.68, -27.82 114.02 C-36.08 112.35, -40.03 104.4, -29.77 102 C-19.5 99.6, 23.74 97.31, 33.75 99.62 C43.77 101.93, 36.47 112.43, 30.33 115.87 C24.18 119.3, 2.8 115.12, -3.11 120.23 C-9.02 125.35, -4.48 141.94, -5.14 146.58 M0.19 -1.64 C0.23 1.12, -2.62 12.53, 0.29 15.45 C3.21 18.37, 11.83 15.39, 17.68 15.88 C23.54 16.38, 32.11 16.62, 35.43 18.45 C38.76 20.28, 40.19 23.48, 37.65 26.87 C35.11 30.26, 31.42 36.53, 20.19 38.78 C8.96 41.03, -21.71 41.59, -29.74 40.38 C-37.78 39.17, -36.09 33.26, -28.02 31.52 C-19.95 29.78, 7.62 28.5, 18.66 29.95 C29.71 31.39, 35.07 37.27, 38.26 40.2 C41.44 43.13, 41.33 44.03, 37.77 47.53 C34.22 51.02, 28.55 59.3, 16.93 61.19 C5.32 63.08, -23.81 61.09, -31.94 58.86 C-40.07 56.63, -40.02 49.39, -31.85 47.82 C-23.68 46.25, 5.82 47.31, 17.09 49.44 C28.35 51.56, 35.19 56.12, 35.74 60.56 C36.29 65, 31.34 73.53, 20.39 76.05 C9.44 78.57, -21.29 77.26, -29.94 75.68 C-38.58 74.1, -38.97 67.88, -31.47 66.59 C-23.98 65.31, 3.62 66.14, 15.02 67.97 C26.43 69.8, 36.04 73.73, 36.93 77.57 C37.83 81.4, 31.61 88.44, 20.4 90.97 C9.19 93.5, -21.69 94.36, -30.3 92.72 C-38.9 91.08, -34.55 83.12, -31.21 81.13 C-27.87 79.14, -19.07 80.79, -10.25 80.8 C-1.43 80.8, 13.56 79.5, 21.71 81.15 C29.87 82.79, 39.34 85.73, 38.69 90.67 C38.04 95.62, 28.91 106.68, 17.83 110.82 C6.74 114.95, -20.13 117.08, -27.81 115.48 C-35.5 113.87, -38.5 104.13, -28.3 101.21 C-18.11 98.29, 23.61 95.25, 33.37 97.95 C43.12 100.65, 36.13 113.24, 30.24 117.38 C24.34 121.53, 4.12 117.81, -2.01 122.82 C-8.13 127.84, -5.84 143.29, -6.5 147.47" stroke="#1e1e1e" stroke-width="2" fill="none"></path></g></g><mask></mask><g stroke-linecap="round"><g transform="translate(290.9224682635066 11.728877239134164) rotate(0 3.49893573016184 73.55753744218592)"><path d="M0.51 -0.45 C0.59 2.06, -1.13 11.49, 1.49 14.32 C4.12 17.14, 10.63 15.67, 16.25 16.49 C21.86 17.32, 31.79 17.19, 35.2 19.28 C38.61 21.36, 39.04 25.52, 36.72 29 C34.4 32.49, 32.56 38.31, 21.26 40.17 C9.96 42.03, -22.66 41.64, -31.08 40.16 C-39.5 38.68, -37.86 33.08, -29.26 31.29 C-20.66 29.5, 9.54 28.28, 20.54 29.42 C31.53 30.57, 34.14 35.43, 36.71 38.17 C39.27 40.91, 39.09 42.11, 35.94 45.87 C32.79 49.63, 29.06 58.45, 17.83 60.72 C6.6 62.98, -23.48 61.43, -31.44 59.47 C-39.41 57.51, -38.15 50.34, -29.96 48.95 C-21.78 47.56, 6.36 49.46, 17.65 51.14 C28.95 52.83, 37.71 55.24, 37.82 59.07 C37.93 62.9, 29.66 71.39, 18.3 74.15 C6.93 76.92, -21.87 77.03, -30.38 75.65 C-38.89 74.27, -40.72 67.23, -32.78 65.88 C-24.85 64.53, 5.22 65.82, 17.22 67.57 C29.23 69.31, 38.6 72.59, 39.24 76.35 C39.88 80.11, 32.63 87.66, 21.08 90.11 C9.52 92.57, -21.6 92.45, -30.06 91.06 C-38.53 89.68, -33.07 83.79, -29.73 81.79 C-26.38 79.78, -18.36 79.25, -9.97 79.03 C-1.59 78.81, 12.3 78.57, 20.59 80.47 C28.88 82.37, 39.96 85.31, 39.77 90.42 C39.59 95.54, 30.82 107.37, 19.46 111.18 C8.1 114.99, -20.06 114.82, -28.38 113.3 C-36.7 111.79, -40.73 104.54, -30.46 102.07 C-20.19 99.6, 22.96 96.19, 33.24 98.47 C43.53 100.74, 37.07 112.09, 31.24 115.71 C25.41 119.34, 4.51 114.88, -1.72 120.21 C-7.96 125.54, -5.3 143.34, -6.15 147.69 M-0.69 -1.73 C-0.75 0.95, -1.59 12, 1.11 15.24 C3.8 18.47, 9.86 16.9, 15.48 17.68 C21.11 18.45, 31.5 17.89, 34.85 19.88 C38.19 21.88, 38.13 26.42, 35.55 29.66 C32.97 32.9, 30.47 37.76, 19.38 39.32 C8.29 40.87, -22.72 40.37, -31 39 C-39.29 37.63, -38.71 32.4, -30.32 31.11 C-21.92 29.82, 8.09 30.19, 19.37 31.26 C30.65 32.32, 34.62 34.94, 37.35 37.48 C40.08 40.01, 39.24 42.6, 35.75 46.45 C32.26 50.31, 27.6 58.61, 16.39 60.6 C5.18 62.58, -23.71 60.37, -31.51 58.35 C-39.31 56.33, -38.64 49.67, -30.42 48.47 C-22.19 47.27, 6.27 49.27, 17.84 51.15 C29.42 53.03, 38.6 55.83, 39.03 59.75 C39.46 63.67, 32.1 71.97, 20.41 74.68 C8.73 77.38, -22.5 77.4, -31.08 75.98 C-39.66 74.56, -38.67 67.8, -31.06 66.16 C-23.45 64.51, 3 64.07, 14.58 66.12 C26.17 68.17, 37.25 74.7, 38.45 78.45 C39.66 82.21, 33.21 86.2, 21.81 88.68 C10.41 91.16, -21.05 94.58, -29.94 93.34 C-38.82 92.1, -34.59 83.59, -31.52 81.23 C-28.46 78.88, -20.39 79.41, -11.53 79.22 C-2.68 79.04, 13.36 78.33, 21.63 80.12 C29.91 81.91, 38.84 85.06, 38.13 89.97 C37.42 94.88, 28.51 105.51, 17.37 109.58 C6.24 113.65, -20.87 115.76, -28.66 114.39 C-36.45 113.01, -39.57 103.73, -29.36 101.31 C-19.15 98.89, 22.43 97.22, 32.59 99.86 C42.76 102.5, 37.65 113.33, 31.63 117.15 C25.61 120.97, 3.06 118.06, -3.55 122.79 C-10.16 127.52, -7.71 141.15, -8.04 145.51" stroke="#1e1e1e" stroke-width="2" fill="none"></path></g></g><mask></mask></svg>