<svg version="1.1" xmlns="http://www.w3.org/2000/svg" viewBox="0 0 550.9886784589387 635.8292375004338" width="550.9886784589387" height="635.8292375004338" class="excalidraw-svg"><!-- svg-source:excalidraw --><metadata></metadata><defs><style class="style-fonts">
      </style></defs><rect x="0" y="0" width="550.9886784589387" height="635.8292375004338" fill="#ffffff"></rect><g stroke-linecap="round"><g transform="translate(10.281929440158478 12.184369266633894) rotate(0 0 306.5)"><path d="M0.79 0.24 C0.79 102.59, 0.78 511.38, 0.72 613.64 M-0.25 -0.68 C-0.41 101.36, 0.12 509.76, 0.14 611.86" stroke="#1e1e1e" stroke-width="2" fill="none"></path></g></g><mask></mask><g stroke-linecap="round"><g transform="translate(108.28192944015848 15.184369266633894) rotate(0 0 301.5)"><path d="M-0.62 -0.23 C-0.78 100.42, -0.33 502.47, -0.22 603.16 M1.25 -1.4 C0.86 99.53, -0.96 504.22, -1.29 604.79" stroke="#e03131" stroke-width="2" fill="none"></path></g></g><mask></mask><g stroke-linecap="round"><g transform="translate(442.2980222643238 9.703738884786162) rotate(0 0 306.5)"><path d="M-1.08 0.88 C-1.35 102.97, -1.14 510.89, -0.99 612.99 M0.55 0.3 C0.59 102.54, 1.47 512.68, 1.2 614.52" stroke="#1e1e1e" stroke-width="2" fill="none"></path></g></g><mask></mask><g stroke-linecap="round"><g transform="translate(540.2980222643238 12.703738884786162) rotate(0 0 301.5)"><path d="M-0.99 -0.01 C-0.85 100.42, -0.55 503, -0.21 603.45 M0.69 -1.06 C0.75 98.92, -1.29 500.74, -1.27 601.57" stroke="#e03131" stroke-width="2" fill="none"></path></g></g><mask></mask><g stroke-linecap="round"><g transform="translate(109.28192944015848 92.1843692666339) rotate(0 54 0)"><path d="M-1.16 -0.99 C16.74 -0.97, 88.92 0.45, 107.28 0.69 M0.44 1.11 C18.73 0.73, 91.56 -0.62, 109.62 -1.08" stroke="#1e1e1e" stroke-width="2" fill="none"></path></g></g><mask></mask><g stroke-linecap="round"><g transform="translate(14.281929440158478 186.1843692666339) rotate(0 100.5 0)"><path d="M0.78 1.18 C34.12 1.45, 166.64 1.23, 200.2 1.04 M-0.26 0.75 C33.44 0.76, 168.79 -0.65, 202.49 -0.54" stroke="#1e1e1e" stroke-width="2" fill="none"></path></g></g><mask></mask><g stroke-linecap="round"><g transform="translate(216.98870804106667 97.0737367234882) rotate(0 2.0404925050532654 41.54940658547309)"><path d="M-0.28 -0.58 C-0.42 0.73, -1.5 7.18, 0 8.69 C1.51 10.19, 5.03 7.78, 8.74 8.43 C12.45 9.07, 20.28 11.15, 22.24 12.55 C24.2 13.95, 22.04 15.25, 20.51 16.82 C18.97 18.39, 19.39 20.98, 13.02 21.95 C6.66 22.92, -12.72 23.32, -17.7 22.64 C-22.69 21.97, -21.61 18.71, -16.89 17.91 C-12.17 17.11, 4.15 17.07, 10.63 17.82 C17.11 18.57, 20.07 21.09, 21.99 22.41 C23.9 23.73, 23.9 23.86, 22.11 25.74 C20.33 27.63, 18.17 32.17, 11.3 33.72 C4.42 35.27, -14.24 35.87, -19.15 35.04 C-24.05 34.22, -23.13 29.97, -18.16 28.78 C-13.18 27.58, 4.22 26.97, 10.69 27.89 C17.17 28.8, 20.56 32.06, 20.7 34.24 C20.84 36.42, 18.06 39.55, 11.56 40.98 C5.06 42.41, -13.24 43.66, -18.29 42.84 C-23.34 42.02, -23.25 36.79, -18.75 36.06 C-14.26 35.32, 1.91 37.12, 8.68 38.43 C15.46 39.74, 21.18 41.72, 21.88 43.92 C22.58 46.12, 19.45 50.26, 12.87 51.63 C6.3 52.99, -12.52 53.14, -17.59 52.1 C-22.66 51.07, -19.38 46.59, -17.54 45.41 C-15.71 44.22, -11.43 44.95, -6.59 45 C-1.74 45.05, 6.69 44.86, 11.53 45.71 C16.38 46.56, 22.66 47.18, 22.48 50.12 C22.3 53.06, 17 60.94, 10.43 63.37 C3.85 65.79, -12.2 65.64, -16.95 64.68 C-21.71 63.71, -24.22 58.86, -18.09 57.58 C-11.96 56.3, 13.91 55.63, 19.83 57.01 C25.74 58.39, 20.92 64.05, 17.38 65.86 C13.83 67.68, 2.2 65.09, -1.44 67.92 C-5.08 70.75, -4 80.44, -4.47 82.82 M1.77 1.72 C1.39 3.17, -2.65 8.94, -1.07 10.19 C0.51 11.44, 7.84 9.14, 11.25 9.2 C14.66 9.27, 17.52 9.19, 19.37 10.59 C21.23 11.98, 23.74 15.31, 22.4 17.59 C21.06 19.87, 17.91 23.65, 11.32 24.28 C4.72 24.92, -12.31 22.46, -17.17 21.38 C-22.03 20.3, -22.74 18.54, -17.85 17.78 C-12.95 17.02, 5.4 16.07, 12.2 16.82 C19.01 17.56, 21.23 20.67, 22.99 22.27 C24.74 23.87, 24.85 24.59, 22.74 26.41 C20.64 28.23, 17.38 31.77, 10.34 33.17 C3.3 34.57, -14.61 35.51, -19.51 34.81 C-24.42 34.12, -24.19 30.3, -19.08 29.02 C-13.97 27.73, 4.45 26.02, 11.15 27.12 C17.85 28.22, 21.21 33.29, 21.12 35.63 C21.03 37.96, 17.38 39.86, 10.6 41.13 C3.83 42.4, -14.39 44.15, -19.53 43.25 C-24.68 42.34, -24.99 36.77, -20.27 35.72 C-15.56 34.68, 1.37 35.77, 8.77 36.98 C16.16 38.18, 23.88 40.67, 24.1 42.94 C24.31 45.22, 17.01 49.22, 10.07 50.61 C3.12 52, -13.24 52.35, -17.56 51.29 C-21.89 50.24, -17.97 45.27, -15.89 44.29 C-13.81 43.31, -9.79 45.21, -5.08 45.43 C-0.37 45.64, 7.55 44.34, 12.37 45.58 C17.2 46.81, 24.04 50.08, 23.89 52.83 C23.73 55.57, 18.31 59.81, 11.44 62.06 C4.58 64.31, -12.56 67.25, -17.29 66.33 C-22.02 65.41, -23.06 58.31, -16.93 56.53 C-10.79 54.75, 13.84 54.39, 19.52 55.65 C25.19 56.92, 20.36 62.2, 17.11 64.11 C13.87 66.02, 3.45 63.81, 0.06 67.1 C-3.32 70.39, -2.67 80.91, -3.19 83.85" stroke="#1e1e1e" stroke-width="2" fill="none"></path></g></g><mask></mask><g stroke-linecap="round"><g transform="translate(305.9318142981385 95.55132761449232) rotate(0 2.0404925050532654 41.54940658547309)"><path d="M1.17 0.58 C1.06 2.3, -1.88 8.09, -0.6 9.45 C0.68 10.8, 5.38 8.56, 8.84 8.71 C12.31 8.87, 18.17 9.19, 20.19 10.37 C22.21 11.56, 22.34 13.75, 20.96 15.81 C19.58 17.87, 18.14 21.71, 11.9 22.74 C5.67 23.77, -11.74 22.78, -16.46 22.01 C-21.18 21.24, -20.98 18.89, -16.41 18.12 C-11.84 17.35, 4.51 16.78, 10.93 17.41 C17.35 18.05, 20.37 20.35, 22.13 21.93 C23.89 23.51, 23.44 24.82, 21.5 26.9 C19.55 28.97, 16.93 33.13, 10.45 34.36 C3.96 35.59, -12.71 35.35, -17.43 34.29 C-22.15 33.23, -22.55 29.14, -17.86 27.99 C-13.17 26.85, 4.2 26.56, 10.74 27.43 C17.28 28.31, 21.13 30.73, 21.37 33.23 C21.61 35.73, 18.97 40.86, 12.17 42.43 C5.37 44, -14.13 43.62, -19.43 42.63 C-24.73 41.64, -24.25 37.2, -19.61 36.49 C-14.96 35.78, 1.51 37.13, 8.44 38.38 C15.37 39.63, 21.61 42.01, 21.97 44.01 C22.33 46, 17.24 48.98, 10.61 50.34 C3.98 51.71, -13.23 52.85, -17.8 52.2 C-22.38 51.54, -18.85 47.85, -16.84 46.42 C-14.82 45, -10.65 43.65, -5.71 43.64 C-0.77 43.64, 8.03 44.98, 12.78 46.4 C17.52 47.81, 23.06 49.36, 22.77 52.14 C22.49 54.91, 17.48 60.84, 11.07 63.03 C4.67 65.22, -11.1 66.46, -15.68 65.29 C-20.26 64.11, -22.14 57.33, -16.39 55.97 C-10.65 54.6, 13.32 55.36, 18.79 57.1 C24.27 58.85, 19.9 64.67, 16.46 66.45 C13.02 68.23, 1.49 64.84, -1.84 67.79 C-5.16 70.73, -3.28 81.69, -3.47 84.13 M0.32 -0.16 C0.59 1.29, 0.43 6.06, 1.67 7.69 C2.91 9.33, 4.71 9.1, 7.75 9.64 C10.79 10.18, 17.96 9.86, 19.9 10.92 C21.85 11.99, 20.53 14.23, 19.43 16.05 C18.32 17.87, 19.66 20.5, 13.27 21.83 C6.87 23.17, -13.87 24.69, -18.94 24.07 C-24 23.45, -22.38 19.42, -17.11 18.11 C-11.84 16.79, 5.95 15.62, 12.67 16.19 C19.39 16.76, 21.68 20.14, 23.2 21.53 C24.73 22.91, 24.16 22.41, 21.8 24.51 C19.44 26.62, 15.49 32.62, 9.05 34.14 C2.6 35.67, -12.28 34.72, -16.89 33.66 C-21.5 32.61, -23.31 28.42, -18.62 27.82 C-13.94 27.23, 4.43 29.05, 11.22 30.09 C18.02 31.13, 22.09 31.88, 22.15 34.09 C22.2 36.29, 18.16 41.86, 11.54 43.34 C4.91 44.81, -12.71 44.08, -17.62 42.92 C-22.52 41.77, -22.25 37.38, -17.92 36.38 C-13.58 35.38, 1.36 35.79, 8.39 36.91 C15.41 38.02, 23.92 40.5, 24.24 43.07 C24.55 45.64, 17.3 50.92, 10.28 52.31 C3.26 53.71, -13.09 52.51, -17.88 51.44 C-22.67 50.36, -20.22 47.19, -18.47 45.84 C-16.72 44.49, -12.25 43.23, -7.4 43.36 C-2.55 43.49, 5.33 45.14, 10.61 46.62 C15.9 48.1, 24.03 49.76, 24.33 52.25 C24.64 54.73, 19.04 59.66, 12.43 61.55 C5.82 63.44, -10.27 64.23, -15.34 63.59 C-20.41 62.96, -23.55 59.03, -18 57.73 C-12.45 56.43, 11.71 54.59, 17.94 55.8 C24.17 57.01, 22.46 63.16, 19.38 65.01 C16.3 66.86, 3.57 64.04, -0.54 66.9 C-4.66 69.76, -4.63 79.76, -5.31 82.18" stroke="#1e1e1e" stroke-width="2" fill="none"></path></g></g><mask></mask></svg>