<svg version="1.1" xmlns="http://www.w3.org/2000/svg" viewBox="0 0 689.2738070045784 460.44514798223975" width="689.2738070045784" height="460.44514798223975" class="excalidraw-svg"><!-- svg-source:excalidraw --><metadata></metadata><defs><style class="style-fonts">
      </style></defs><rect x="0" y="0" width="689.2738070045784" height="460.44514798223975" fill="#ffffff"></rect><g stroke-linecap="round"><g transform="translate(9.668905926607522 358.6877414777689) rotate(0 335 0)"><path d="M1.17 0.04 C112.64 0.15, 558 0.93, 669.6 0.98 M0.33 -0.98 C111.53 -1.22, 556.75 -1.1, 668.45 -0.63" stroke="#1e1e1e" stroke-width="2" fill="none"></path></g><g transform="translate(9.668905926607522 358.6877414777689) rotate(0 335 0)"><path d="M644.94 7.88 C653.65 3.85, 663.88 2.76, 668.45 -0.63 M644.94 7.88 C653.51 4.94, 660.32 2.84, 668.45 -0.63" stroke="#1e1e1e" stroke-width="2" fill="none"></path></g><g transform="translate(9.668905926607522 358.6877414777689) rotate(0 335 0)"><path d="M644.97 -9.22 C653.72 -6.94, 663.93 -1.74, 668.45 -0.63 M644.97 -9.22 C653.42 -6.55, 660.22 -3.05, 668.45 -0.63" stroke="#1e1e1e" stroke-width="2" fill="none"></path></g></g><mask></mask><g stroke-linecap="round"><g transform="translate(48.66890592660752 448.6877414777689) rotate(0 0 -218.5)"><path d="M-0.26 -0.56 C-0.14 -73.35, 0.8 -363.99, 0.81 -436.71 M1.8 1.76 C1.83 -71.41, 0.76 -365.8, 0.29 -438.69" stroke="#1e1e1e" stroke-width="2" fill="none"></path></g><g transform="translate(48.66890592660752 448.6877414777689) rotate(0 0 -218.5)"><path d="M8.95 -415.24 C5.36 -421.1, 4.11 -429.94, 0.29 -438.69 M8.95 -415.24 C6.48 -422.92, 3.2 -430.15, 0.29 -438.69" stroke="#1e1e1e" stroke-width="2" fill="none"></path></g><g transform="translate(48.66890592660752 448.6877414777689) rotate(0 0 -218.5)"><path d="M-8.15 -415.16 C-6.49 -421.01, -2.49 -429.88, 0.29 -438.69 M-8.15 -415.16 C-5.37 -422.73, -3.39 -429.98, 0.29 -438.69" stroke="#1e1e1e" stroke-width="2" fill="none"></path></g></g><mask></mask></svg>