<svg version="1.1" xmlns="http://www.w3.org/2000/svg" viewBox="0 0 793 545.5" width="793" height="545.5" class="excalidraw-svg"><!-- svg-source:excalidraw --><metadata></metadata><defs><style class="style-fonts">
      </style></defs><rect x="0" y="0" width="793" height="545.5" fill="#ffffff"></rect><g stroke-linecap="round"><g transform="translate(138 58) rotate(0 0 209)"><path d="M0.58 -0.87 C0.61 68.56, -0.74 347.22, -0.98 416.91" stroke="#2f9e44" stroke-width="2.5" fill="none" stroke-dasharray="8 10"></path></g><g transform="translate(138 58) rotate(0 0 209)"><path d="M-9.43 393.38 C-9.11 396.44, -7.78 401.34, -0.98 416.91" stroke="#2f9e44" stroke-width="2.5" fill="none"></path></g><g transform="translate(138 58) rotate(0 0 209)"><path d="M7.67 393.45 C4.55 396.58, 2.44 401.46, -0.98 416.91" stroke="#2f9e44" stroke-width="2.5" fill="none"></path></g></g><mask></mask><g stroke-linecap="round"><g transform="translate(217.88006732829376 58.49801236688626) rotate(0 0 209)"><path d="M-0.03 0.75 C-0.03 70.26, 0.55 347.32, 0.66 416.92" stroke="#2f9e44" stroke-width="2.5" fill="none" stroke-dasharray="8 10"></path></g><g transform="translate(217.88006732829376 58.49801236688626) rotate(0 0 209)"><path d="M-7.93 393.44 C-3.67 402.86, -3.68 411.16, 0.66 416.92" stroke="#2f9e44" stroke-width="2.5" fill="none"></path></g><g transform="translate(217.88006732829376 58.49801236688626) rotate(0 0 209)"><path d="M9.17 393.41 C7.38 402.84, 1.31 411.15, 0.66 416.92" stroke="#2f9e44" stroke-width="2.5" fill="none"></path></g></g><mask></mask><g stroke-linecap="round"><g transform="translate(325.88006732829376 60.49801236688626) rotate(0 0 209)"><path d="M-0.96 -0.86 C-0.87 68.92, 0.13 348.02, 0.44 417.99" stroke="#2f9e44" stroke-width="2.5" fill="none" stroke-dasharray="8 10"></path></g><g transform="translate(325.88006732829376 60.49801236688626) rotate(0 0 209)"><path d="M-8.2 394.53 C-7.25 402.21, -3.29 409.84, 0.44 417.99" stroke="#2f9e44" stroke-width="2.5" fill="none"></path></g><g transform="translate(325.88006732829376 60.49801236688626) rotate(0 0 209)"><path d="M8.9 394.47 C4.85 402.02, 3.79 409.67, 0.44 417.99" stroke="#2f9e44" stroke-width="2.5" fill="none"></path></g></g><mask></mask><g stroke-linecap="round"><g transform="translate(431.88006732829376 64.49801236688626) rotate(0 0 209)"><path d="M0.55 0.72 C0.23 70.38, -1.04 348.53, -1.12 417.96" stroke="#2f9e44" stroke-width="2.5" fill="none" stroke-dasharray="8 10"></path></g><g transform="translate(431.88006732829376 64.49801236688626) rotate(0 0 209)"><path d="M-9.6 394.44 C-5.29 401.13, -3.47 411.68, -1.12 417.96" stroke="#2f9e44" stroke-width="2.5" fill="none"></path></g><g transform="translate(431.88006732829376 64.49801236688626) rotate(0 0 209)"><path d="M7.5 394.49 C5.55 401.25, 1.12 411.77, -1.12 417.96" stroke="#2f9e44" stroke-width="2.5" fill="none"></path></g></g><mask></mask><g stroke-linecap="round"><g transform="translate(534.8800673282938 60.49801236688626) rotate(0 0 209)"><path d="M-0.71 1.09 C-0.62 70.78, 0 348.21, -0.07 417.77" stroke="#2f9e44" stroke-width="2.5" fill="none" stroke-dasharray="8 10"></path></g><g transform="translate(534.8800673282938 60.49801236688626) rotate(0 0 209)"><path d="M-8.64 394.28 C-4.74 400.08, -4.81 404.15, -0.07 417.77" stroke="#2f9e44" stroke-width="2.5" fill="none"></path></g><g transform="translate(534.8800673282938 60.49801236688626) rotate(0 0 209)"><path d="M8.46 394.27 C8.08 399.97, 3.74 404.04, -0.07 417.77" stroke="#2f9e44" stroke-width="2.5" fill="none"></path></g></g><mask></mask><g stroke-linecap="round"><g transform="translate(649.8800673282938 64.49801236688626) rotate(0 0 209)"><path d="M0.63 -0.95 C0.44 68.77, 0.14 348.03, -0.11 418.03" stroke="#2f9e44" stroke-width="2.5" fill="none" stroke-dasharray="8 10"></path></g><g transform="translate(649.8800673282938 64.49801236688626) rotate(0 0 209)"><path d="M-8.61 394.52 C-7 403.31, -2.09 411.06, -0.11 418.03" stroke="#2f9e44" stroke-width="2.5" fill="none"></path></g><g transform="translate(649.8800673282938 64.49801236688626) rotate(0 0 209)"><path d="M8.49 394.56 C3.55 403.42, 1.9 411.15, -0.11 418.03" stroke="#2f9e44" stroke-width="2.5" fill="none"></path></g></g><mask></mask><g stroke-linecap="round" transform="translate(104 10) rotate(0 308.5 22.5)"><path d="M11.25 0 C178.66 1.6, 344.77 1.46, 605.75 0 M11.25 0 C217.72 -0.73, 423.48 -0.49, 605.75 0 M605.75 0 C614.26 -0.61, 617.98 3.36, 617 11.25 M605.75 0 C613.33 -2.19, 615.1 1.78, 617 11.25 M617 11.25 C614.96 16.52, 615.76 24.03, 617 33.75 M617 11.25 C616.86 18.97, 617.8 27.56, 617 33.75 M617 33.75 C617.39 40.18, 614.08 44.81, 605.75 45 M617 33.75 C615.69 39.81, 613.62 46.52, 605.75 45 M605.75 45 C485.26 46.54, 366.4 47.15, 11.25 45 M605.75 45 C398.61 44.52, 192.3 44.36, 11.25 45 M11.25 45 C4.96 44.07, -1.35 40.67, 0 33.75 M11.25 45 C3.26 44.42, 2.27 39.73, 0 33.75 M0 33.75 C1.33 26.43, -1.51 16.14, 0 11.25 M0 33.75 C-0.42 27.79, 0.12 21.26, 0 11.25 M0 11.25 C1.56 4.34, 4.58 -0.65, 11.25 0 M0 11.25 C-1.12 5.21, 4.53 -1, 11.25 0" stroke="#1e1e1e" stroke-width="2" fill="none"></path></g><g stroke-linecap="round" transform="translate(103.5 490.5) rotate(0 308.5 22.5)"><path d="M11.25 0 C194.12 0.88, 377.89 0.91, 605.75 0 M11.25 0 C247.93 -2.51, 485.6 -1.99, 605.75 0 M605.75 0 C611.52 0.27, 616.59 4.92, 617 11.25 M605.75 0 C612.5 -0.66, 617.77 4.33, 617 11.25 M617 11.25 C618.01 17.55, 616.2 26.42, 617 33.75 M617 11.25 C616.07 18.72, 617.64 25.31, 617 33.75 M617 33.75 C618.06 40.87, 613.29 45.91, 605.75 45 M617 33.75 C617.54 39.32, 613.42 46.97, 605.75 45 M605.75 45 C391.61 44.28, 176.77 43.91, 11.25 45 M605.75 45 C420.65 46.07, 236.12 45.34, 11.25 45 M11.25 45 C3.52 45.78, -1.71 39.83, 0 33.75 M11.25 45 C4.51 44.51, -1.17 41.69, 0 33.75 M0 33.75 C-0.8 24.94, 1.72 18.42, 0 11.25 M0 33.75 C0.71 27.55, -0.19 20.41, 0 11.25 M0 11.25 C-0.48 5.27, 3.85 1.9, 11.25 0 M0 11.25 C-2.07 2.54, 3.54 -1.77, 11.25 0" stroke="#1e1e1e" stroke-width="2" fill="none"></path></g><g stroke-linecap="round" transform="translate(125 500) rotate(0 15.5 15.5)"><path d="M16.61 -0.06 C19.86 -0.12, 23.96 1.97, 26.39 4.16 C28.82 6.35, 30.92 9.78, 31.21 13.09 C31.49 16.4, 30.04 21.1, 28.12 24.02 C26.2 26.94, 22.73 29.73, 19.68 30.63 C16.63 31.53, 12.89 30.81, 9.82 29.39 C6.75 27.98, 2.8 25.03, 1.27 22.15 C-0.26 19.28, -0.15 15.23, 0.65 12.14 C1.45 9.05, 3.43 5.69, 6.07 3.6 C8.72 1.51, 14.75 0.13, 16.52 -0.4 C18.3 -0.92, 16.76 0.21, 16.71 0.47 M13.24 0.43 C16.42 -0.11, 20.67 1, 23.52 2.79 C26.37 4.57, 29.32 8.1, 30.37 11.14 C31.42 14.19, 31.14 18.17, 29.8 21.07 C28.46 23.96, 25.11 26.83, 22.32 28.51 C19.54 30.18, 16.29 31.78, 13.07 31.11 C9.85 30.44, 5.13 27.16, 3.02 24.49 C0.92 21.81, 0.25 18.16, 0.43 15.05 C0.6 11.94, 1.93 8.21, 4.07 5.82 C6.22 3.43, 11.85 1.51, 13.28 0.72 C14.71 -0.06, 12.56 1.08, 12.66 1.13" stroke="#1e1e1e" stroke-width="2" fill="none"></path></g><g stroke-linecap="round"><g transform="translate(131.32653061224494 517.0816326530612) rotate(0 7.908163265306115 0)"><path d="M-0.47 -0.13 C2.1 -0.17, 13.29 -0.2, 15.93 -0.23 M0.28 -0.68 C2.75 -0.64, 12.86 0.21, 15.55 0.34" stroke="#1e1e1e" stroke-width="2" fill="none"></path></g></g><mask></mask><g stroke-linecap="round" transform="translate(127.5 20) rotate(0 13 13)"><path d="M10.42 -0.17 C13.14 -0.89, 17.19 0.47, 19.68 1.84 C22.16 3.2, 24.42 5.54, 25.34 8.03 C26.27 10.52, 26.22 14.15, 25.23 16.78 C24.23 19.41, 21.67 22.24, 19.37 23.82 C17.07 25.4, 14.19 26.68, 11.43 26.28 C8.67 25.88, 4.7 23.6, 2.82 21.41 C0.95 19.22, 0.16 15.83, 0.17 13.13 C0.18 10.42, 1.23 7.29, 2.91 5.21 C4.58 3.12, 8.8 1.33, 10.21 0.61 C11.62 -0.11, 11.17 0.69, 11.36 0.9 M12.4 -0.63 C15.01 -0.9, 19.26 0.72, 21.38 2.38 C23.5 4.05, 24.51 6.69, 25.13 9.34 C25.75 11.98, 26.18 15.55, 25.09 18.26 C24.01 20.98, 21.22 24.38, 18.6 25.63 C15.98 26.89, 12.16 26.67, 9.35 25.79 C6.55 24.9, 3.2 22.75, 1.77 20.3 C0.33 17.86, 0.32 14.02, 0.75 11.13 C1.19 8.23, 2.4 4.75, 4.39 2.94 C6.39 1.12, 11.31 0.58, 12.71 0.26 C14.11 -0.07, 12.74 0.73, 12.77 0.98" stroke="#1e1e1e" stroke-width="2" fill="none"></path></g><g stroke-linecap="round"><g transform="translate(132.80612244897958 34.32653061224491) rotate(0 6.632653061224488 0)"><path d="M-0.44 -0.5 C1.89 -0.43, 11.53 -0.15, 13.73 0.02 M0.33 0.44 C2.66 0.63, 11.29 0.84, 13.54 0.72" stroke="#1e1e1e" stroke-width="2" fill="none"></path></g></g><mask></mask><g stroke-linecap="round"><g transform="translate(139.4387755102041 24.51020408163265) rotate(0 0.2653061224489761 8.224489795918373)"><path d="M-0.06 0.38 C-0.02 3.06, 0.32 13.32, 0.34 15.91 M-0.75 0.11 C-0.81 2.83, -0.51 13.64, -0.19 16.33" stroke="#1e1e1e" stroke-width="2" fill="none"></path></g></g><mask></mask><g stroke-linecap="round" transform="translate(210 18) rotate(0 13 13)"><path d="M15.81 0.56 C18.42 0.94, 22.18 2.83, 23.87 4.99 C25.56 7.15, 26.21 10.67, 25.95 13.51 C25.69 16.35, 24.29 19.96, 22.31 22.05 C20.32 24.15, 16.85 25.81, 14.03 26.08 C11.21 26.34, 7.69 25.22, 5.39 23.65 C3.1 22.09, 0.94 19.33, 0.27 16.68 C-0.39 14.02, 0.22 10.37, 1.42 7.74 C2.62 5.1, 4.95 2.15, 7.46 0.87 C9.97 -0.41, 15.01 0, 16.47 0.06 C17.94 0.11, 16.37 0.92, 16.24 1.19 M12.67 -0.23 C15.23 -0.49, 19.03 1.02, 21.13 2.77 C23.23 4.52, 24.8 7.48, 25.27 10.27 C25.74 13.06, 25.34 17.15, 23.96 19.51 C22.58 21.88, 19.6 23.48, 17 24.47 C14.41 25.47, 10.83 26.19, 8.38 25.49 C5.92 24.8, 3.64 22.84, 2.28 20.32 C0.92 17.79, -0.16 13.29, 0.19 10.36 C0.54 7.42, 2.41 4.52, 4.39 2.71 C6.36 0.9, 10.64 -0.01, 12.05 -0.5 C13.46 -0.98, 12.72 -0.53, 12.84 -0.2" stroke="#1e1e1e" stroke-width="2" fill="none"></path></g><g stroke-linecap="round"><g transform="translate(215.30612244897958 32.32653061224494) rotate(0 6.632653061224488 0)"><path d="M0.54 0.4 C2.84 0.41, 11.39 -0.38, 13.54 -0.39 M0.16 0.13 C2.42 0.23, 11.08 0.22, 13.25 0.11" stroke="#1e1e1e" stroke-width="2" fill="none"></path></g></g><mask></mask><g stroke-linecap="round"><g transform="translate(221.9387755102041 22.51020408163265) rotate(0 0.2653061224489761 8.224489795918373)"><path d="M0.28 -0.39 C0.31 2.35, 0.74 14.02, 0.72 16.82 M-0.24 0.6 C-0.32 3.15, 0.14 13.31, 0.38 16.04" stroke="#1e1e1e" stroke-width="2" fill="none"></path></g></g><mask></mask><g stroke-linecap="round" transform="translate(317 17) rotate(0 13 13)"><path d="M11.31 -0.15 C13.88 -0.76, 17.31 0.29, 19.6 1.74 C21.9 3.2, 24.22 5.84, 25.06 8.58 C25.91 11.32, 25.69 15.52, 24.7 18.16 C23.7 20.8, 21.42 23.19, 19.09 24.42 C16.76 25.65, 13.4 26.02, 10.73 25.54 C8.05 25.07, 4.86 23.68, 3.05 21.57 C1.25 19.46, -0.12 15.75, -0.11 12.86 C-0.1 9.98, 1.13 6.35, 3.12 4.25 C5.1 2.15, 10.27 0.94, 11.8 0.29 C13.33 -0.37, 12.25 0.12, 12.27 0.33 M14.95 0.05 C17.59 0.23, 21.18 2.25, 22.91 4.51 C24.64 6.77, 25.43 10.84, 25.34 13.59 C25.25 16.33, 23.99 18.91, 22.36 20.99 C20.74 23.07, 18.29 25.54, 15.59 26.05 C12.88 26.56, 8.62 25.61, 6.12 24.05 C3.63 22.49, 1.55 19.41, 0.63 16.67 C-0.29 13.94, -0.27 10.14, 0.62 7.65 C1.52 5.16, 3.55 2.97, 6 1.76 C8.45 0.55, 13.79 0.55, 15.31 0.38 C16.83 0.22, 15.05 0.55, 15.11 0.74" stroke="#1e1e1e" stroke-width="2" fill="none"></path></g><g stroke-linecap="round"><g transform="translate(322.3061224489796 31.326530612244937) rotate(0 6.632653061224488 0)"><path d="M-0.34 0.01 C1.95 0.05, 11.16 0.38, 13.37 0.35 M0.48 -0.47 C2.74 -0.58, 10.73 -0.57, 12.99 -0.43" stroke="#1e1e1e" stroke-width="2" fill="none"></path></g></g><mask></mask><g stroke-linecap="round"><g transform="translate(328.9387755102041 21.51020408163265) rotate(0 0.2653061224489761 8.224489795918373)"><path d="M0.1 0.35 C0.19 3.07, 0.14 13.69, 0.19 16.33 M-0.51 0.06 C-0.21 2.86, 1.17 14.2, 1.25 16.96" stroke="#1e1e1e" stroke-width="2" fill="none"></path></g></g><mask></mask><g stroke-linecap="round" transform="translate(417 19) rotate(0 13 13)"><path d="M13.72 0.32 C16.47 0.19, 19.91 1.45, 21.85 3.32 C23.8 5.19, 24.98 8.82, 25.4 11.52 C25.81 14.22, 25.66 17.28, 24.34 19.51 C23.02 21.75, 20.14 23.94, 17.48 24.94 C14.81 25.94, 11.08 26.44, 8.36 25.53 C5.63 24.62, 2.54 21.97, 1.13 19.48 C-0.27 16.99, -0.67 13.32, -0.07 10.59 C0.53 7.85, 2.41 4.86, 4.75 3.09 C7.1 1.31, 12.44 0.4, 13.99 -0.07 C15.54 -0.54, 14.06 0.09, 14.05 0.27 M11.67 -0.39 C14.24 -0.7, 17.82 1.19, 19.99 2.65 C22.16 4.12, 23.78 5.82, 24.68 8.43 C25.58 11.04, 26.3 15.56, 25.39 18.34 C24.48 21.11, 21.8 23.87, 19.21 25.1 C16.62 26.32, 12.71 26.49, 9.85 25.71 C7 24.94, 3.71 22.72, 2.06 20.44 C0.41 18.17, -0.38 14.84, -0.05 12.08 C0.28 9.33, 2.21 5.95, 4.05 3.93 C5.88 1.91, 9.69 0.55, 10.97 -0.03 C12.24 -0.6, 11.71 0.14, 11.69 0.48" stroke="#1e1e1e" stroke-width="2" fill="none"></path></g><g stroke-linecap="round"><g transform="translate(422.3061224489796 33.32653061224494) rotate(0 6.63265306122449 0)"><path d="M0.05 -0.36 C2.31 -0.28, 11.26 0.36, 13.52 0.47 M-0.59 0.64 C1.63 0.59, 10.88 -0.04, 13.22 -0.25" stroke="#1e1e1e" stroke-width="2" fill="none"></path></g></g><mask></mask><g stroke-linecap="round"><g transform="translate(428.9387755102041 23.51020408163265) rotate(0 0.26530612244897966 8.224489795918373)"><path d="M0.26 0.47 C0.4 3.32, 0.82 14.17, 0.88 16.75 M-0.27 0.24 C-0.18 2.96, 0.53 13.26, 0.63 15.94" stroke="#1e1e1e" stroke-width="2" fill="none"></path></g></g><mask></mask><g stroke-linecap="round" transform="translate(526 20) rotate(0 13 13)"><path d="M14.81 -0.3 C17.56 -0.14, 20.99 1.65, 22.86 3.84 C24.73 6.03, 26.04 10.05, 26.04 12.83 C26.05 15.61, 24.55 18.3, 22.89 20.5 C21.23 22.69, 18.72 25.24, 16.09 25.98 C13.47 26.73, 9.69 26.29, 7.13 24.96 C4.56 23.63, 1.89 20.72, 0.72 18.02 C-0.44 15.32, -0.74 11.48, 0.13 8.78 C1 6.07, 3.36 3.24, 5.93 1.77 C8.5 0.29, 13.98 0.16, 15.54 -0.07 C17.1 -0.3, 15.36 0.13, 15.3 0.4 M10.21 0.35 C12.78 -0.34, 17.45 0.53, 20.07 1.98 C22.69 3.42, 24.97 6.54, 25.9 9.04 C26.84 11.55, 26.67 14.49, 25.67 17 C24.67 19.51, 22.4 22.59, 19.9 24.12 C17.41 25.64, 13.59 26.66, 10.69 26.15 C7.79 25.65, 4.16 23.33, 2.5 21.09 C0.84 18.84, 0.64 15.32, 0.73 12.7 C0.82 10.07, 1.29 7.31, 3.04 5.32 C4.79 3.33, 10.05 1.65, 11.24 0.75 C12.44 -0.16, 10.18 -0.21, 10.21 -0.11" stroke="#1e1e1e" stroke-width="2" fill="none"></path></g><g stroke-linecap="round"><g transform="translate(531.3061224489795 34.32653061224494) rotate(0 6.632653061224488 0)"><path d="M0.28 -0.34 C2.47 -0.3, 10.87 0.07, 12.96 0.18 M-0.24 0.67 C2.14 0.54, 11.68 -0.48, 14.04 -0.69" stroke="#1e1e1e" stroke-width="2" fill="none"></path></g></g><mask></mask><g stroke-linecap="round"><g transform="translate(537.9387755102041 24.51020408163265) rotate(0 0.2653061224489761 8.224489795918373)"><path d="M-0.3 0.18 C-0.34 3.04, 0.01 14.07, 0.09 16.79 M0.54 -0.2 C0.65 2.53, 0.98 13.11, 1.1 16" stroke="#1e1e1e" stroke-width="2" fill="none"></path></g></g><mask></mask><g stroke-linecap="round" transform="translate(644 20) rotate(0 13 13)"><path d="M10.24 0.07 C12.85 -0.77, 16.53 -0.25, 18.94 1.05 C21.36 2.35, 23.62 5.27, 24.71 7.87 C25.8 10.48, 26.19 14.03, 25.51 16.67 C24.83 19.31, 23.02 22.24, 20.63 23.7 C18.23 25.16, 14.06 25.67, 11.14 25.43 C8.22 25.19, 4.95 24.13, 3.08 22.24 C1.21 20.35, 0.08 16.83, -0.08 14.08 C-0.24 11.32, 0.41 8.04, 2.13 5.69 C3.84 3.34, 8.81 0.79, 10.2 -0.03 C11.59 -0.86, 10.38 0.52, 10.46 0.72 M12.47 -0.21 C15.11 -0.77, 18.19 0.27, 20.29 1.78 C22.4 3.3, 24.27 6.22, 25.1 8.88 C25.93 11.54, 26.48 15.04, 25.29 17.72 C24.09 20.41, 20.59 23.72, 17.93 25 C15.28 26.28, 12.01 26.06, 9.34 25.38 C6.67 24.7, 3.47 23.28, 1.9 20.93 C0.32 18.58, -0.4 14.19, -0.11 11.3 C0.18 8.41, 1.59 5.38, 3.64 3.6 C5.68 1.81, 10.9 1.12, 12.18 0.58 C13.47 0.04, 11.3 0.3, 11.33 0.34" stroke="#1e1e1e" stroke-width="2" fill="none"></path></g><g stroke-linecap="round"><g transform="translate(649.3061224489795 34.32653061224494) rotate(0 6.632653061224488 0)"><path d="M-0.52 -0.32 C1.73 -0.26, 11.05 0.23, 13.3 0.31 M0.21 0.71 C2.41 0.61, 10.57 -0.24, 12.88 -0.49" stroke="#1e1e1e" stroke-width="2" fill="none"></path></g></g><mask></mask><g stroke-linecap="round"><g transform="translate(655.9387755102041 24.51020408163265) rotate(0 0.2653061224489761 8.224489795918373)"><path d="M0.03 0.31 C0.15 3.14, 0.18 13.97, 0.21 16.62 M-0.61 0 C-0.27 2.68, 0.95 12.96, 1.27 15.74" stroke="#1e1e1e" stroke-width="2" fill="none"></path></g></g><mask></mask><g stroke-linecap="round" transform="translate(205.5 501.5) rotate(0 15.5 15.5)"><path d="M14.38 0.09 C17.48 -0.12, 21.74 1.59, 24.5 3.61 C27.27 5.62, 30.12 8.99, 30.99 12.18 C31.86 15.37, 31.37 19.85, 29.75 22.74 C28.13 25.63, 24.31 28.2, 21.25 29.54 C18.19 30.87, 14.44 31.77, 11.38 30.75 C8.32 29.74, 4.75 26.24, 2.9 23.45 C1.05 20.65, -0.07 17.23, 0.28 13.99 C0.63 10.76, 2.43 6.44, 5 4.04 C7.56 1.63, 13.89 0.17, 15.67 -0.45 C17.46 -1.06, 15.85 0.1, 15.73 0.35 M15.85 0.13 C18.91 -0.15, 22.18 1.03, 24.61 3.01 C27.04 5, 29.76 8.65, 30.43 12.05 C31.1 15.44, 30.09 20.37, 28.61 23.38 C27.14 26.4, 24.67 28.88, 21.57 30.13 C18.47 31.39, 13.24 31.93, 10 30.93 C6.76 29.94, 3.81 27.19, 2.13 24.17 C0.46 21.15, -0.59 16.32, -0.04 12.83 C0.51 9.34, 3.01 5.36, 5.43 3.22 C7.84 1.08, 12.93 0.58, 14.46 0 C15.99 -0.58, 14.54 -0.4, 14.59 -0.26" stroke="#1e1e1e" stroke-width="2" fill="none"></path></g><g stroke-linecap="round"><g transform="translate(211.82653061224494 518.5816326530612) rotate(0 7.908163265306129 0)"><path d="M-0.11 -0.14 C2.44 -0.16, 12.67 -0.36, 15.34 -0.4 M-0.83 -0.69 C1.88 -0.63, 13.59 -0.02, 16.33 0.09" stroke="#1e1e1e" stroke-width="2" fill="none"></path></g></g><mask></mask><g stroke-linecap="round" transform="translate(319.5 503.5) rotate(0 15.5 15.5)"><path d="M12.1 0.7 C15.26 -0.34, 19.87 0.01, 22.86 1.41 C25.84 2.81, 28.73 6.01, 30.01 9.09 C31.3 12.18, 31.51 16.79, 30.58 19.93 C29.66 23.07, 27.24 26.18, 24.47 27.94 C21.7 29.69, 17.25 30.75, 13.94 30.45 C10.63 30.14, 6.85 28.41, 4.61 26.11 C2.36 23.8, 0.7 19.82, 0.47 16.59 C0.24 13.36, 1.28 9.43, 3.23 6.73 C5.17 4.02, 10.48 1.36, 12.13 0.38 C13.79 -0.6, 13.08 0.64, 13.16 0.86 M18.37 -0.04 C21.52 0.27, 25.59 2.77, 27.64 5.61 C29.68 8.45, 30.84 13.66, 30.64 17 C30.43 20.34, 28.57 23.22, 26.42 25.65 C24.28 28.08, 20.92 31.19, 17.77 31.6 C14.62 32.01, 10.28 30.1, 7.51 28.12 C4.74 26.13, 2.08 22.7, 1.15 19.71 C0.22 16.72, 0.77 13.26, 1.92 10.19 C3.06 7.11, 5.17 3, 8.03 1.28 C10.89 -0.45, 17.35 -0.07, 19.07 -0.15 C20.79 -0.24, 18.46 0.48, 18.35 0.75" stroke="#1e1e1e" stroke-width="2" fill="none"></path></g><g stroke-linecap="round"><g transform="translate(325.82653061224494 520.5816326530612) rotate(0 7.908163265306122 0)"><path d="M-0.52 -0.43 C2.17 -0.34, 13.58 0.07, 16.36 0.22 M0.22 0.54 C2.86 0.49, 13.59 -0.48, 16.2 -0.63" stroke="#1e1e1e" stroke-width="2" fill="none"></path></g></g><mask></mask><g stroke-linecap="round" transform="translate(519.5 504.5) rotate(0 15.5 15.5)"><path d="M16.72 0.47 C19.96 0.61, 24.37 2.61, 26.75 4.86 C29.12 7.11, 30.64 10.74, 30.97 13.96 C31.31 17.18, 30.67 21.39, 28.76 24.19 C26.84 26.99, 22.75 29.91, 19.48 30.76 C16.21 31.62, 12.11 30.69, 9.13 29.34 C6.14 27.98, 3.03 25.58, 1.57 22.64 C0.11 19.7, -0.42 15.05, 0.38 11.69 C1.18 8.33, 3.56 4.42, 6.35 2.48 C9.14 0.55, 15.2 0.36, 17.11 0.09 C19.03 -0.19, 17.79 0.52, 17.82 0.83 M13.09 0.42 C16.16 -0.12, 21.59 0.58, 24.39 2.31 C27.19 4.04, 28.87 7.57, 29.88 10.8 C30.89 14.03, 31.74 18.56, 30.45 21.68 C29.17 24.81, 25.29 28.11, 22.15 29.52 C19.01 30.94, 14.8 31.05, 11.59 30.16 C8.38 29.28, 4.75 26.82, 2.88 24.21 C1.02 21.61, 0.16 17.7, 0.38 14.54 C0.6 11.38, 2.09 7.72, 4.2 5.26 C6.32 2.79, 11.45 0.68, 13.08 -0.24 C14.7 -1.16, 13.88 -0.68, 13.96 -0.24" stroke="#1e1e1e" stroke-width="2" fill="none"></path></g><g stroke-linecap="round"><g transform="translate(525.8265306122449 521.5816326530612) rotate(0 7.908163265306122 0)"><path d="M0.17 -0.1 C2.83 -0.18, 13 -0.08, 15.68 0.01 M-0.4 -0.62 C2.2 -0.37, 12.42 0.68, 15.18 0.71" stroke="#1e1e1e" stroke-width="2" fill="none"></path></g></g><mask></mask><g stroke-linecap="round" transform="translate(619.5 499.5) rotate(0 15.5 15.5)"><path d="M14.43 0.46 C17.51 0.05, 21.94 0.66, 24.57 2.63 C27.2 4.6, 29.43 8.98, 30.23 12.28 C31.02 15.57, 30.77 19.41, 29.31 22.4 C27.86 25.39, 24.5 28.84, 21.48 30.23 C18.45 31.62, 14.36 31.71, 11.16 30.72 C7.95 29.72, 4.08 27.05, 2.24 24.27 C0.4 21.49, -0.36 17.3, 0.11 14.04 C0.59 10.77, 2.64 6.98, 5.1 4.68 C7.56 2.38, 13.06 0.93, 14.87 0.25 C16.69 -0.43, 16 0.33, 15.99 0.6 M11.58 -0.21 C14.44 -1.16, 18.97 0.64, 21.93 2.18 C24.89 3.71, 28.01 6.11, 29.34 8.99 C30.67 11.87, 30.72 16.16, 29.9 19.46 C29.09 22.76, 27.03 26.86, 24.43 28.8 C21.82 30.74, 17.56 31.55, 14.28 31.11 C11.01 30.67, 7.14 28.69, 4.77 26.19 C2.4 23.69, 0.37 19.45, 0.06 16.13 C-0.25 12.81, 0.85 8.86, 2.91 6.26 C4.97 3.66, 10.98 1.52, 12.42 0.55 C13.85 -0.42, 11.43 0.32, 11.52 0.46" stroke="#1e1e1e" stroke-width="2" fill="none"></path></g><g stroke-linecap="round"><g transform="translate(625.8265306122449 516.5816326530612) rotate(0 7.908163265306129 0)"><path d="M-0.12 0.15 C2.48 0.12, 12.79 -0.15, 15.53 -0.21 M0.81 -0.25 C3.61 -0.2, 14.05 0.29, 16.61 0.37" stroke="#1e1e1e" stroke-width="2" fill="none"></path></g></g><mask></mask><g stroke-linecap="round" transform="translate(421.5 504.5) rotate(0 15.5 15.5)"><path d="M19.16 0.64 C22.21 1.17, 25.76 3.42, 27.77 6 C29.77 8.58, 31.28 12.74, 31.21 16.12 C31.14 19.5, 29.53 23.8, 27.34 26.3 C25.15 28.79, 21.35 30.67, 18.05 31.09 C14.75 31.51, 10.47 30.68, 7.54 28.84 C4.61 27, 1.59 23.31, 0.47 20.06 C-0.66 16.8, -0.56 12.37, 0.78 9.32 C2.11 6.28, 5.4 3.29, 8.48 1.78 C11.55 0.26, 17.32 0.32, 19.23 0.22 C21.13 0.11, 19.91 0.8, 19.89 1.16 M19.35 -0.33 C22.65 0.24, 26.68 3.61, 28.58 6.25 C30.49 8.89, 31.03 12.35, 30.77 15.53 C30.5 18.71, 29.09 22.85, 27 25.32 C24.9 27.79, 21.41 29.72, 18.2 30.37 C14.98 31.02, 10.53 31.03, 7.71 29.22 C4.89 27.4, 2.43 22.76, 1.26 19.5 C0.1 16.24, -0.6 12.52, 0.71 9.66 C2.03 6.8, 6.01 3.99, 9.15 2.36 C12.29 0.72, 18.02 0.22, 19.56 -0.15 C21.09 -0.52, 18.65 -0.26, 18.37 0.12" stroke="#1e1e1e" stroke-width="2" fill="none"></path></g><g stroke-linecap="round"><g transform="translate(427.82653061224494 521.5816326530612) rotate(0 7.908163265306122 0)"><path d="M0.47 0.51 C3.07 0.64, 12.86 0.52, 15.47 0.44 M0.04 0.3 C2.83 0.31, 13.87 -0.36, 16.53 -0.3" stroke="#1e1e1e" stroke-width="2" fill="none"></path></g></g><mask></mask><g stroke-linecap="round" transform="translate(10 82) rotate(0 386.5 183.5)"><path d="M7.86 8.16 C7.86 8.16, 7.86 8.16, 7.86 8.16 M7.86 8.16 C7.86 8.16, 7.86 8.16, 7.86 8.16 M1.43 27.75 C7.77 21.09, 16.58 9.97, 24.4 1.33 M1.43 27.75 C8.05 19.64, 14.28 12.61, 24.4 1.33 M0.26 41.3 C6.39 31.36, 16.21 25.33, 36.34 -0.21 M0.26 41.3 C12.89 25.92, 25.28 11.85, 36.34 -0.21 M0.39 53.34 C19.55 33.63, 34.84 10.14, 46.97 -0.25 M0.39 53.34 C12.46 38.37, 25.91 22.76, 46.97 -0.25 M0.52 65.38 C16.11 50.01, 27.05 34.15, 57.6 -0.28 M0.52 65.38 C20.74 40.55, 43.67 16.16, 57.6 -0.28 M0 78.17 C17.59 56.17, 36.36 34.55, 67.57 0.44 M0 78.17 C15.73 59.61, 31.89 42.94, 67.57 0.44 M0.13 90.22 C20.24 63.96, 42.29 42.83, 78.2 0.41 M0.13 90.22 C14.88 72.21, 32.18 53.58, 78.2 0.41 M0.26 102.26 C35.61 63.22, 69.83 25.01, 88.83 0.37 M0.26 102.26 C31.85 64.8, 64.28 28.75, 88.83 0.37 M0.4 114.3 C35.84 73.73, 73.48 30.92, 99.46 0.34 M0.4 114.3 C33.37 75.23, 65.53 37.1, 99.46 0.34 M0.53 126.34 C29.61 91.5, 60.01 57.41, 110.09 0.3 M0.53 126.34 C39.52 81.89, 77.63 38.43, 110.09 0.3 M0.01 139.13 C46.08 88.34, 90.35 37.68, 120.72 0.27 M0.01 139.13 C27.3 108.68, 55.14 77.05, 120.72 0.27 M0.14 151.17 C46.42 101.57, 90.21 48.94, 131.35 0.23 M0.14 151.17 C52.62 92.19, 102.92 34.55, 131.35 0.23 M0.27 163.22 C37.69 119.45, 73.36 76.74, 141.98 0.2 M0.27 163.22 C44.94 110.07, 90.23 57.58, 141.98 0.2 M0.41 175.26 C34.65 132.95, 71.82 92.07, 152.61 0.16 M0.41 175.26 C51.51 115.08, 103.16 55.34, 152.61 0.16 M0.54 187.3 C39.39 142.11, 77.65 99.13, 163.24 0.13 M0.54 187.3 C42.41 136.97, 86.37 87.99, 163.24 0.13 M0.02 200.09 C48.54 145.43, 97.15 89.68, 173.87 0.09 M0.02 200.09 C62.92 127.14, 127.54 53.95, 173.87 0.09 M0.15 212.13 C40.71 167.55, 78.24 120.67, 184.5 0.06 M0.15 212.13 C49.15 154.76, 99.11 98.48, 184.5 0.06 M0.28 224.17 C50.2 165.43, 104.45 105.45, 195.13 0.03 M0.28 224.17 C57.09 158.35, 115.23 91.41, 195.13 0.03 M0.42 236.22 C59.32 169.92, 120.69 101.97, 205.76 -0.01 M0.42 236.22 C70.96 156.26, 141.68 74.67, 205.76 -0.01 M-0.11 249.01 C56.64 185.38, 113.02 120.94, 216.39 -0.04 M-0.11 249.01 C54.84 187.14, 108.62 125.28, 216.39 -0.04 M0.03 261.05 C76.57 173.91, 151 87.65, 227.02 -0.08 M0.03 261.05 C59.07 192.8, 119.47 122.38, 227.02 -0.08 M0.16 273.09 C90.02 171.07, 177.79 69.71, 237.65 -0.11 M0.16 273.09 C54.85 208.75, 110.33 145.44, 237.65 -0.11 M0.29 285.13 C95.64 177.36, 187.4 67.99, 248.28 -0.15 M0.29 285.13 C53.5 223.43, 108.09 161.58, 248.28 -0.15 M0.43 297.17 C52.12 235.7, 103.81 175.41, 258.91 -0.18 M0.43 297.17 C86.35 198.38, 174.02 98.06, 258.91 -0.18 M-0.1 309.97 C58.26 243.66, 116.22 178.19, 269.54 -0.22 M-0.1 309.97 C96 199.8, 191.42 89.48, 269.54 -0.22 M0.04 322.01 C110.66 195.84, 221.61 68.29, 280.17 -0.25 M0.04 322.01 C91.16 214.88, 183.87 108.54, 280.17 -0.25 M0.17 334.05 C60.82 264.85, 119.77 195.79, 290.8 -0.28 M0.17 334.05 C60.96 261.99, 122.69 190.88, 290.8 -0.28 M1.62 344.58 C83.19 247.6, 167.6 151.99, 300.78 0.44 M1.62 344.58 C83.8 249.22, 166.01 154.18, 300.78 0.44 M4.37 353.6 C92.5 253.92, 179.54 153.76, 311.41 0.4 M4.37 353.6 C102.03 238.83, 200.75 125.66, 311.41 0.4 M9.75 359.61 C82.17 275.77, 154.59 192.86, 322.04 0.37 M9.75 359.61 C108.76 246.96, 205.61 134.99, 322.04 0.37 M16.45 364.1 C123.32 242.06, 228.6 120.27, 332.67 0.33 M16.45 364.1 C137.23 224.36, 259.68 83.76, 332.67 0.33 M24.45 367.09 C120.75 253.64, 218.66 143.15, 343.3 0.3 M24.45 367.09 C110.44 267.84, 196.75 169.08, 343.3 0.3 M35.08 367.05 C104.66 286.56, 175.25 207.34, 353.93 0.26 M35.08 367.05 C132.85 256.45, 230.06 144.61, 353.93 0.26 M45.71 367.02 C115.01 285.74, 184.94 207.65, 364.56 0.23 M45.71 367.02 C129.06 271.02, 211.01 176.84, 364.56 0.23 M56.34 366.98 C173.18 232.88, 289.46 100.95, 375.19 0.19 M56.34 366.98 C168.3 237.71, 280.67 109.12, 375.19 0.19 M66.97 366.95 C177.39 239.63, 288.69 111.93, 385.82 0.16 M66.97 366.95 C155.03 265.65, 241.65 166.47, 385.82 0.16 M77.6 366.91 C191.07 236.81, 305.12 105.77, 396.45 0.12 M77.6 366.91 C203.58 224.51, 329.06 80.3, 396.45 0.12 M88.23 366.88 C198.11 240.3, 309.81 112.65, 407.08 0.09 M88.23 366.88 C212.95 222.63, 337.18 78.95, 407.08 0.09 M98.21 367.6 C210.6 237.88, 321.72 109.42, 417.71 0.06 M98.21 367.6 C184.9 266.63, 271.92 166.79, 417.71 0.06 M108.84 367.56 C211.88 247.91, 317.12 128.04, 428.34 0.02 M108.84 367.56 C230.62 227.94, 352.69 87.07, 428.34 0.02 M119.47 367.53 C204.06 269.49, 289.15 170.91, 438.97 -0.01 M119.47 367.53 C192.29 285.24, 263.85 202.79, 438.97 -0.01 M130.1 367.5 C214.16 268.05, 299.26 171.02, 449.6 -0.05 M130.1 367.5 C222.8 259.83, 315.46 152.94, 449.6 -0.05 M140.73 367.46 C269.1 221.14, 395.96 74.39, 460.23 -0.08 M140.73 367.46 C223.55 269.29, 307.86 172.39, 460.23 -0.08 M151.36 367.43 C218 290.76, 283.2 214.87, 470.86 -0.12 M151.36 367.43 C232.6 274.45, 312.74 181.62, 470.86 -0.12 M161.99 367.39 C286.99 224.63, 410.58 82.28, 481.49 -0.15 M161.99 367.39 C287.34 223.42, 412.16 80.15, 481.49 -0.15 M172.62 367.36 C256.81 271.02, 341.26 174.82, 492.12 -0.19 M172.62 367.36 C260.94 264.49, 350.26 161.31, 492.12 -0.19 M183.25 367.32 C268.46 272.49, 351.93 175.75, 502.75 -0.22 M183.25 367.32 C307.09 223.24, 431.22 80.46, 502.75 -0.22 M193.88 367.29 C258.67 290.42, 326.01 213.05, 513.38 -0.25 M193.88 367.29 C282.15 264.7, 371.5 161.82, 513.38 -0.25 M204.51 367.25 C331.48 221.33, 458.49 75.24, 523.35 0.47 M204.51 367.25 C275.88 282.64, 348.4 199.63, 523.35 0.47 M215.14 367.22 C305.45 263.35, 394.89 157.86, 533.98 0.43 M215.14 367.22 C290.88 281.4, 365.79 194.1, 533.98 0.43 M225.77 367.19 C338.07 240.05, 447.9 111.63, 544.61 0.4 M225.77 367.19 C308.64 272.57, 391.68 177.14, 544.61 0.4 M236.4 367.15 C360.92 221.47, 488.54 76.32, 555.24 0.36 M236.4 367.15 C308.03 286.4, 378.25 205.15, 555.24 0.36 M247.03 367.12 C318.88 285.05, 390.53 200.52, 565.87 0.33 M247.03 367.12 C317.53 284.03, 389.64 201.36, 565.87 0.33 M257.66 367.08 C359.58 249.54, 460.69 132.38, 576.5 0.29 M257.66 367.08 C379.7 224.44, 503.45 83.34, 576.5 0.29 M268.29 367.05 C370.47 251.58, 469.74 136.31, 587.14 0.26 M268.29 367.05 C344.85 277.34, 421.72 188.26, 587.14 0.26 M278.92 367.01 C370.81 260.06, 462.97 152.7, 597.77 0.22 M278.92 367.01 C396.75 230.59, 516.07 93.29, 597.77 0.22 M289.55 366.98 C371.57 275.2, 451.35 182.13, 608.4 0.19 M289.55 366.98 C361.55 285.18, 431.91 203.95, 608.4 0.19 M300.18 366.94 C367.91 289.14, 436.69 211.09, 619.03 0.16 M300.18 366.94 C397.12 254.06, 494.43 141.62, 619.03 0.16 M310.81 366.91 C395.37 270.33, 478.5 175.04, 629.66 0.12 M310.81 366.91 C389.73 275.05, 469.45 183.94, 629.66 0.12 M321.44 366.88 C403.63 272.83, 486.44 179.57, 640.29 0.09 M321.44 366.88 C445.04 224.3, 569.61 81.25, 640.29 0.09 M331.41 367.6 C430.78 254.6, 529.61 140.21, 650.92 0.05 M331.41 367.6 C396.29 291.99, 461.91 217.15, 650.92 0.05 M342.04 367.56 C424.32 273.37, 506.52 179.71, 661.55 0.02 M342.04 367.56 C443.83 249.33, 546.31 131.33, 661.55 0.02 M352.68 367.53 C461.65 240.29, 572.4 113.28, 672.18 -0.02 M352.68 367.53 C462.98 241.43, 572.7 114.47, 672.18 -0.02 M363.31 367.49 C465.12 251.2, 565.1 136.89, 682.81 -0.05 M363.31 367.49 C450.23 266.82, 536.88 166.69, 682.81 -0.05 M373.94 367.46 C461.58 266.97, 547.99 166.67, 693.44 -0.09 M373.94 367.46 C474.79 252.06, 575.2 136.07, 693.44 -0.09 M384.57 367.42 C511.33 222.48, 637.22 78.48, 704.07 -0.12 M384.57 367.42 C483.45 254.12, 582.11 140.43, 704.07 -0.12 M395.2 367.39 C514.71 231.02, 633.96 94.59, 714.7 -0.16 M395.2 367.39 C505 242.21, 613.87 116.8, 714.7 -0.16 M405.83 367.35 C511.52 247.86, 615.61 126.72, 725.33 -0.19 M405.83 367.35 C523.57 231.5, 641.82 95.18, 725.33 -0.19 M416.46 367.32 C504.71 267.22, 592.05 165.35, 735.96 -0.22 M416.46 367.32 C491.54 280.78, 567.94 192.72, 735.96 -0.22 M427.09 367.28 C495.14 288.14, 562.8 210.81, 745.93 0.5 M427.09 367.28 C519.13 258.66, 612.68 151.05, 745.93 0.5 M437.72 367.25 C563.3 221.52, 688.32 77.36, 754.59 2.73 M437.72 367.25 C501.01 292.27, 565.51 217.77, 754.59 2.73 M448.35 367.22 C517.39 289.62, 586.51 211.13, 761.94 6.46 M448.35 367.22 C570.24 227.83, 691.44 88.22, 761.94 6.46 M458.98 367.18 C552.44 260.41, 644.18 154.25, 767.98 11.71 M458.98 367.18 C525.37 289.18, 593.11 211.16, 767.98 11.71 M469.61 367.15 C580.34 241.01, 690.19 115.12, 771.39 19.98 M469.61 367.15 C545.87 279.13, 621.63 191.57, 771.39 19.98 M480.24 367.11 C572.56 259.86, 667.93 151.26, 772.84 30.51 M480.24 367.11 C551.09 284.94, 623.1 202.75, 772.84 30.51 M490.87 367.08 C591.62 252.7, 689.44 138.46, 773.63 41.8 M490.87 367.08 C594.65 246.32, 698.92 126.04, 773.63 41.8 M501.5 367.04 C603.64 251.89, 704.71 137.53, 773.76 53.84 M501.5 367.04 C565.63 294.22, 630.44 219.1, 773.76 53.84 M512.13 367.01 C598.6 265.95, 686.73 164.92, 773.89 65.88 M512.13 367.01 C593.61 274.31, 675.17 181.23, 773.89 65.88 M522.76 366.97 C602.49 277.22, 677.84 188.82, 773.37 78.68 M522.76 366.97 C606.44 270.3, 688.99 176.19, 773.37 78.68 M533.39 366.94 C615.61 271.02, 698.34 177.1, 773.5 90.72 M533.39 366.94 C611.43 276.28, 689.84 185.69, 773.5 90.72 M544.02 366.91 C628.45 270.01, 715.2 172.41, 773.64 102.76 M544.02 366.91 C599.19 302.37, 654.66 239.64, 773.64 102.76 M554.65 366.87 C610.91 300.44, 670.29 232.14, 773.77 114.8 M554.65 366.87 C632.07 278.36, 707.37 191.74, 773.77 114.8 M564.62 367.59 C641.41 282.14, 712.89 195.29, 773.9 126.84 M564.62 367.59 C622.04 301.57, 678.98 237.5, 773.9 126.84 M575.25 367.56 C626.08 306.35, 679.72 245.37, 773.38 139.63 M575.25 367.56 C652.88 276.5, 731.88 186.18, 773.38 139.63 M585.88 367.52 C626.33 318.91, 669.43 270.37, 773.51 151.68 M585.88 367.52 C644.26 300.32, 702.36 233.05, 773.51 151.68 M596.51 367.49 C660.41 294.12, 722.91 221.43, 773.65 163.72 M596.51 367.49 C665.44 288.34, 733.76 209.62, 773.65 163.72 M607.14 367.45 C659.81 308.48, 714.6 245.17, 773.78 175.76 M607.14 367.45 C645.61 321.63, 684.63 277.43, 773.78 175.76 M617.77 367.42 C651.9 326.5, 688.48 285.71, 773.91 187.8 M617.77 367.42 C663.34 314.31, 710.01 262.44, 773.91 187.8 M628.4 367.38 C674.69 313.21, 722.2 260.89, 773.39 200.59 M628.4 367.38 C671.24 317.82, 712.86 270.46, 773.39 200.59 M639.03 367.35 C670.05 327.41, 701.52 289.49, 773.52 212.63 M639.03 367.35 C667.47 335.65, 694.7 304.58, 773.52 212.63 M649.66 367.32 C686.75 324.31, 726.6 280.37, 773.66 224.68 M649.66 367.32 C688.46 320.58, 729.44 275.38, 773.66 224.68 M660.29 367.28 C685.8 337.58, 706.09 309.76, 773.79 236.72 M660.29 367.28 C690.39 331.91, 721.79 297.18, 773.79 236.72 M670.92 367.25 C700.13 330.24, 732.2 296.51, 773.92 248.76 M670.92 367.25 C707.79 323.98, 745.82 281.43, 773.92 248.76 M681.55 367.21 C703.77 344.52, 722.58 320.02, 773.4 261.55 M681.55 367.21 C711.51 334.19, 740.37 298.39, 773.4 261.55 M692.18 367.18 C714.95 342.43, 736.09 314.77, 773.53 273.59 M692.18 367.18 C710.13 346.22, 728.67 326.28, 773.53 273.59 M702.81 367.14 C718.83 347.74, 734.78 330.05, 773.67 285.63 M702.81 367.14 C725.22 341.71, 745.45 316.3, 773.67 285.63 M713.44 367.11 C725.05 353.17, 738.14 336.2, 773.8 297.67 M713.44 367.11 C729.93 347.59, 747.28 328.68, 773.8 297.67 M724.07 367.07 C736.88 354.03, 746.66 338.86, 773.93 309.72 M724.07 367.07 C735.69 353.85, 746.66 340.78, 773.93 309.72 M734.7 367.04 C742.94 358.33, 752.19 348.71, 773.41 322.51 M734.7 367.04 C746.78 351.98, 758.85 339, 773.41 322.51 M745.99 366.25 C756.36 354.16, 764.76 347.48, 772.89 335.31 M745.99 366.25 C756.32 354.03, 766.55 343.09, 772.89 335.31 M759.24 363.2 C762.82 360.52, 764.45 358.61, 770.4 350.37 M759.24 363.2 C762.64 359.44, 766.68 354.9, 770.4 350.37 M12.31 362.33 C12.31 362.33, 12.31 362.33, 12.31 362.33 M12.31 362.33 C12.31 362.33, 12.31 362.33, 12.31 362.33 M29.63 366.79 C22.07 358.86, 12.93 353.57, 1.71 342.52 M29.63 366.79 C21.41 359.52, 13.09 352.8, 1.71 342.52 M41.67 366.66 C31.01 356.7, 23.19 351.33, 0.16 330.58 M41.67 366.66 C30.75 356.41, 19.66 345.87, 0.16 330.58 M53.71 366.53 C39.92 354.86, 25.6 342.45, 0.13 319.95 M53.71 366.53 C40.87 355.33, 27.72 345.53, 0.13 319.95 M65.75 366.39 C47.18 351.13, 29.11 333.11, 0.09 309.32 M65.75 366.39 C46.32 348.65, 25.84 331.86, 0.09 309.32 M77.79 366.26 C56.2 347.14, 30.61 327.8, 0.06 298.69 M77.79 366.26 C56.73 346.73, 35.81 328.89, 0.06 298.69 M90.59 366.78 C69.62 349.47, 50.37 334.43, 0.03 288.06 M90.59 366.78 C61.54 343.24, 34.01 317.95, 0.03 288.06 M102.63 366.65 C69.03 338.89, 38.22 309.06, -0.01 277.42 M102.63 366.65 C63.65 332.55, 26.25 299.82, -0.01 277.42 M114.67 366.52 C85.62 341.26, 58.82 317.41, -0.04 266.79 M114.67 366.52 C76.21 334.56, 38.72 301.83, -0.04 266.79 M126.71 366.38 C82.44 325.78, 33.4 287.11, -0.08 256.16 M126.71 366.38 C94.26 339.76, 62.66 311.64, -0.08 256.16 M138.75 366.25 C96.8 330.08, 54.67 294.65, 0.64 246.19 M138.75 366.25 C103.12 335.01, 67.92 303.61, 0.64 246.19 M151.55 366.77 C109.49 329.86, 65.28 293.85, 0.61 235.56 M151.55 366.77 C118.78 337.53, 84.64 306.44, 0.61 235.56 M163.59 366.64 C105.23 317.83, 45.78 263.94, 0.57 224.93 M163.59 366.64 C122.09 329.66, 80.01 293.79, 0.57 224.93 M175.63 366.51 C131.68 327.45, 86.48 288.55, 0.54 214.3 M175.63 366.51 C113.95 311.8, 51.29 257.74, 0.54 214.3 M187.67 366.37 C119.2 307.65, 53.07 252.22, 0.5 203.67 M187.67 366.37 C124.52 310.22, 60.42 254.08, 0.5 203.67 M199.71 366.24 C134.5 309.05, 67.44 251.86, 0.47 193.04 M199.71 366.24 C144.93 316.63, 87.48 267.14, 0.47 193.04 M212.51 366.76 C130.12 293.76, 45.48 218.9, 0.43 182.41 M212.51 366.76 C166.44 327.15, 121.77 287.84, 0.43 182.41 M224.55 366.63 C168.87 318.26, 110.95 269.33, 0.4 171.78 M224.55 366.63 C178.17 327.87, 133.91 288.43, 0.4 171.78 M236.59 366.5 C146.2 288.11, 53.89 207.65, 0.37 161.15 M236.59 366.5 C182.46 318.74, 128.66 270.9, 0.37 161.15 M248.63 366.36 C191.95 315.65, 133.5 266.65, 0.33 150.52 M248.63 366.36 C180.57 306.47, 111.41 245.76, 0.33 150.52 M260.67 366.23 C203.82 316.79, 145.25 266.29, 0.3 139.89 M260.67 366.23 C205.54 320.18, 150.41 273.05, 0.3 139.89 M273.47 366.75 C168.54 275.81, 63.95 184.55, 0.26 129.26 M273.47 366.75 C206.26 311.09, 140.95 254.41, 0.26 129.26 M285.51 366.62 C180.12 274.04, 76.01 183.48, 0.23 118.63 M285.51 366.62 C217.18 307.79, 149.43 248.04, 0.23 118.63 M297.55 366.49 C214.54 292.67, 130.45 220.17, 0.19 108 M297.55 366.49 C183.21 266.17, 68.37 166.68, 0.19 108 M309.59 366.35 C222.7 290.93, 137.76 214.62, 0.16 97.37 M309.59 366.35 C224.97 291.83, 140.44 218.51, 0.16 97.37 M321.63 366.22 C254.92 306.53, 187.77 248.01, 0.12 86.74 M321.63 366.22 C199.8 261.61, 79.2 155.79, 0.12 86.74 M334.43 366.74 C267.06 305.91, 197.9 248.09, 0.09 76.11 M334.43 366.74 C221.95 270.21, 109.22 172.49, 0.09 76.11 M346.47 366.61 C233.62 268.26, 122.06 171.12, 0.06 65.48 M346.47 366.61 C264.14 295.65, 181.07 224.18, 0.06 65.48 M358.51 366.48 C229.41 255.09, 98.89 141.39, 0.02 54.85 M358.51 366.48 C249.67 272.32, 140.36 177.55, 0.02 54.85 M370.55 366.34 C271.34 280.24, 171.85 194.06, -0.01 44.22 M370.55 366.34 C235.54 249.29, 100.04 131.92, -0.01 44.22 M383.34 366.87 C242.89 243.86, 103.22 123.09, -0.05 33.59 M383.34 366.87 C254.42 253.74, 125.34 141.47, -0.05 33.59 M395.39 366.73 C251.13 242.29, 105.17 115.23, 1.43 24.27 M395.39 366.73 C271.73 257.89, 147.81 149.94, 1.43 24.27 M407.43 366.6 C324.86 294.72, 242.48 223.56, 3.66 15.61 M407.43 366.6 C309 280.18, 210.03 194.55, 3.66 15.61 M419.47 366.47 C324.9 282.12, 228.2 198.5, 8.15 8.92 M419.47 366.47 C331.71 290.97, 243.94 214.59, 8.15 8.92 M431.51 366.33 C324.04 273.61, 215.08 179.02, 14.91 4.19 M431.51 366.33 C301.61 253.26, 170.52 140.14, 14.91 4.19 M444.3 366.86 C290.62 236.21, 139.22 103.59, 23.18 0.78 M444.3 366.86 C298.39 239.37, 152.71 112.81, 23.18 0.78 M456.34 366.72 C329.06 257.06, 204.77 148.29, 33.71 -0.67 M456.34 366.72 C336.74 259.77, 214.79 154.58, 33.71 -0.67 M468.39 366.59 C329.38 244.81, 189.97 122, 46.5 -0.15 M468.39 366.59 C312.05 230.2, 154.91 93.36, 46.5 -0.15 M480.43 366.46 C372.77 273.81, 264.49 179.64, 58.54 -0.28 M480.43 366.46 C320.88 227.09, 160.37 87.99, 58.54 -0.28 M492.47 366.32 C404.61 291.4, 317.74 215.01, 70.58 -0.41 M492.47 366.32 C360.96 251.57, 230.11 137.51, 70.58 -0.41 M505.26 366.85 C389.92 264.5, 271.91 163.53, 82.62 -0.55 M505.26 366.85 C390.96 265.93, 276.58 166.26, 82.62 -0.55 M517.3 366.71 C374.5 241.31, 231.8 116.81, 94.67 -0.68 M517.3 366.71 C370.63 237.61, 221.77 108.23, 94.67 -0.68 M529.34 366.58 C417.7 268.35, 305.27 169.98, 107.46 -0.16 M529.34 366.58 C399.67 253.82, 270.63 141.23, 107.46 -0.16 M541.38 366.45 C391.13 235.58, 240.86 104.86, 119.5 -0.29 M541.38 366.45 C437.71 277.71, 335.85 189.4, 119.5 -0.29 M553.43 366.32 C413.09 244.02, 272.89 121.93, 131.54 -0.42 M553.43 366.32 C428.43 258.84, 305.27 152.07, 131.54 -0.42 M566.22 366.84 C405.08 227.13, 245.2 88.52, 143.58 -0.56 M566.22 366.84 C439.62 254.07, 311.86 143.5, 143.58 -0.56 M578.26 366.7 C429.91 234.42, 280.3 105.35, 155.62 -0.69 M578.26 366.7 C448.8 254.29, 318.29 141.82, 155.62 -0.69 M590.3 366.57 C503.9 291.26, 414.97 214.71, 168.42 -0.17 M590.3 366.57 C499.02 287.56, 407.72 208.02, 168.42 -0.17 M602.34 366.44 C516.18 291.45, 430.65 217.7, 180.46 -0.3 M602.34 366.44 C480.33 260.26, 357.32 153.04, 180.46 -0.3 M614.38 366.31 C475.05 244.39, 336.73 122.84, 192.5 -0.43 M614.38 366.31 C516.12 282.18, 417.47 196.76, 192.5 -0.43 M627.18 366.83 C487.58 243.3, 347.21 122.36, 204.54 -0.56 M627.18 366.83 C520.08 274.7, 412.99 181.91, 204.54 -0.56 M639.22 366.7 C507.15 250.26, 373.41 133.76, 216.58 -0.7 M639.22 366.7 C485.05 231.04, 330.56 97.1, 216.58 -0.7 M651.26 366.56 C491.97 227.89, 332.34 89.39, 229.38 -0.18 M651.26 366.56 C540.94 268.23, 430.19 172.66, 229.38 -0.18 M663.3 366.43 C572.29 287.06, 478.12 206.53, 241.42 -0.31 M663.3 366.43 C496.12 219.7, 328.81 74.4, 241.42 -0.31 M675.34 366.3 C521.1 233.74, 367.6 99.37, 253.46 -0.44 M675.34 366.3 C566.47 272.15, 457 177.11, 253.46 -0.44 M688.14 366.82 C527.21 227.22, 367.73 87.88, 265.5 -0.57 M688.14 366.82 C575.53 267.41, 461.75 168.96, 265.5 -0.57 M700.18 366.69 C573.54 257.13, 447.92 147.79, 277.54 -0.71 M700.18 366.69 C596.09 277.16, 491.42 186.5, 277.54 -0.71 M712.22 366.55 C617.56 284.94, 524.4 203.13, 290.34 -0.18 M712.22 366.55 C586.13 257.56, 460.46 148.4, 290.34 -0.18 M724.26 366.42 C570.8 233.31, 416.43 99.7, 302.38 -0.32 M724.26 366.42 C600.92 257.23, 475.66 148.97, 302.38 -0.32 M736.3 366.29 C630.32 272.84, 522.59 180.6, 314.42 -0.45 M736.3 366.29 C586.04 236.26, 435.03 104.66, 314.42 -0.45 M747.59 365.5 C601.06 238, 456.41 111.27, 326.46 -0.58 M747.59 365.5 C606.26 240.24, 463.89 116.28, 326.46 -0.58 M757.37 363.4 C645.18 267.79, 535.72 171.45, 338.5 -0.72 M757.37 363.4 C633.57 255.46, 509.98 148.39, 338.5 -0.72 M764.12 358.67 C600.52 217, 434.84 74.83, 351.3 -0.19 M764.12 358.67 C609.76 222, 453.74 86.4, 351.3 -0.19 M769.37 352.63 C633.26 235.34, 498.49 118.36, 363.34 -0.33 M769.37 352.63 C641.93 240.8, 515.23 130.49, 363.34 -0.33 M772.36 344.63 C667.5 252.92, 563.29 160.68, 375.38 -0.46 M772.36 344.63 C661.57 248.27, 551 152.22, 375.38 -0.46 M773.08 334.65 C688.28 262.38, 603.39 188.28, 387.42 -0.59 M773.08 334.65 C622.74 204.38, 472.4 74.34, 387.42 -0.59 M773.04 324.02 C669.86 235.43, 567.05 145.6, 399.46 -0.73 M773.04 324.02 C633.94 201.01, 494.11 80.23, 399.46 -0.73 M773.01 313.39 C639 197.37, 502.82 79.42, 412.26 -0.2 M773.01 313.39 C677.31 231.39, 582.75 149.67, 412.26 -0.2 M772.97 302.76 C654.26 199.55, 534.79 94.43, 424.3 -0.34 M772.97 302.76 C682.72 225.07, 592.06 146.19, 424.3 -0.34 M772.94 292.13 C665.88 198.83, 556.66 105.43, 436.34 -0.47 M772.94 292.13 C692.35 222.95, 612.46 153.02, 436.34 -0.47 M772.9 281.5 C655.14 181.19, 537.73 77.69, 448.38 -0.6 M772.9 281.5 C706.41 225.41, 640.88 168.48, 448.38 -0.6 M772.87 270.87 C685.3 196.03, 599.58 120.34, 460.42 -0.74 M772.87 270.87 C652.98 167.17, 532.11 62.47, 460.42 -0.74 M772.84 260.24 C706.87 205.08, 641.66 148.86, 473.22 -0.21 M772.84 260.24 C676.64 174.56, 578.08 89.42, 473.22 -0.21 M773.56 250.27 C674.34 164.81, 579.3 80.36, 485.26 -0.35 M773.56 250.27 C675.17 162.3, 575.47 76.57, 485.26 -0.35 M773.52 239.64 C669.05 150.11, 567.06 60.7, 497.3 -0.48 M773.52 239.64 C711.25 183.91, 648.13 129.83, 497.3 -0.48 M773.49 229.01 C695.49 162.34, 619.85 96.6, 509.34 -0.61 M773.49 229.01 C688.58 157.86, 605.04 85.91, 509.34 -0.61 M773.45 218.38 C704.21 156.34, 633.38 95.19, 521.38 -0.75 M773.45 218.38 C679.65 138.02, 585.79 56.87, 521.38 -0.75 M773.42 207.75 C680.45 126.96, 583.41 42.63, 534.17 -0.22 M773.42 207.75 C708.42 151.56, 645.55 95.88, 534.17 -0.22 M773.38 197.12 C689.1 123.87, 605.23 52.15, 546.22 -0.36 M773.38 197.12 C711.55 141.55, 649.61 87.84, 546.22 -0.36 M773.35 186.49 C726.2 144.82, 679.2 105.58, 558.26 -0.49 M773.35 186.49 C702.89 124.66, 631.72 63.45, 558.26 -0.49 M773.31 175.86 C717.56 128.78, 665.57 80.28, 570.3 -0.62 M773.31 175.86 C705.2 117.69, 638.22 59.25, 570.3 -0.62 M773.28 165.23 C701.5 102.74, 628.54 40.67, 582.34 -0.76 M773.28 165.23 C735.13 130.18, 694.53 96.34, 582.34 -0.76 M773.24 154.6 C708.83 98.75, 644.26 43.35, 595.13 -0.23 M773.24 154.6 C735.9 122.9, 701.02 92.43, 595.13 -0.23 M773.21 143.97 C738.07 113.8, 703.57 83.2, 607.17 -0.37 M773.21 143.97 C714.6 92.06, 654.36 38.73, 607.17 -0.37 M773.18 133.34 C732.59 99.05, 690.03 61.5, 619.22 -0.5 M773.18 133.34 C742.88 105.94, 710.3 77.91, 619.22 -0.5 M773.14 122.71 C728.64 84.62, 687.1 47.92, 631.26 -0.63 M773.14 122.71 C741.32 94.85, 709.4 68.2, 631.26 -0.63 M773.11 112.08 C733.13 75.54, 687.19 37.67, 643.3 -0.77 M773.11 112.08 C731.46 73.27, 687.51 37.37, 643.3 -0.77 M773.07 101.45 C731.65 62.15, 688.79 26.5, 656.09 -0.24 M773.07 101.45 C727.43 62.64, 682.75 23.84, 656.09 -0.24 M773.04 90.82 C740.33 64.65, 706.08 34.38, 668.13 -0.38 M773.04 90.82 C748.21 70.25, 723.79 48.96, 668.13 -0.38 M773 80.19 C739.21 50.88, 708.31 23.34, 680.17 -0.51 M773 80.19 C752.99 63.33, 732.41 46.07, 680.17 -0.51 M772.97 69.56 C745.65 44.68, 716.09 16.39, 692.21 -0.64 M772.97 69.56 C754.42 52.56, 735.2 37.02, 692.21 -0.64 M772.93 58.93 C749.74 38.48, 726.09 17.56, 704.26 -0.78 M772.93 58.93 C756.39 44.52, 740.39 31.36, 704.26 -0.78 M772.9 48.3 C760.27 36.82, 750.58 26.68, 717.05 -0.25 M772.9 48.3 C755.91 32.74, 738.23 18.08, 717.05 -0.25 M772.87 37.67 C762.13 29.07, 751.73 20.02, 729.09 -0.39 M772.87 37.67 C757.53 25.32, 742.49 11.6, 729.09 -0.39 M772.83 27.04 C762.51 17.02, 751.46 7.3, 741.13 -0.52 M772.83 27.04 C763.01 18.73, 752.87 8.73, 741.13 -0.52 M769.02 13.13 C766.44 9.23, 758.92 5.64, 756.19 1.97 M769.02 13.13 C764.55 8.83, 758.26 4.86, 756.19 1.97" stroke="#ffc9c9" stroke-width="1" fill="none"></path><path d="M32 0 C241.21 -0.39, 452.19 -0.31, 741 0 M32 0 C208.13 0.43, 384.65 0.44, 741 0 M741 0 C762.37 0.01, 771.91 11.54, 773 32 M741 0 C763.25 -0.57, 771.15 11.56, 773 32 M773 32 C772.77 121.23, 771.68 209.02, 773 335 M773 32 C773.38 104.14, 774.16 177.42, 773 335 M773 335 C774.45 356.2, 762.59 367.51, 741 367 M773 335 C773.32 358.04, 761.04 364.8, 741 367 M741 367 C537.03 368.81, 332.1 369.98, 32 367 M741 367 C507.72 369.83, 274.28 370.1, 32 367 M32 367 C11.78 365.42, -1.2 355.23, 0 335 M32 367 C12.16 367.67, -2.02 355.8, 0 335 M0 335 C-0.71 235.06, 0.5 137.11, 0 32 M0 335 C2.23 230.2, 1.57 125.26, 0 32 M0 32 C1.86 9.41, 10.67 -0.95, 32 0 M0 32 C-0.21 12.81, 9.34 -1.83, 32 0" stroke="#1e1e1e" stroke-width="2" fill="none"></path></g><g stroke-linecap="round" transform="translate(113 142) rotate(0 24.5 42)"><path d="M26.04 -0.33 C30.56 -0.44, 36.42 4.39, 40.14 9.79 C43.86 15.19, 47.3 23.93, 48.35 32.07 C49.41 40.2, 48.26 50.91, 46.44 58.59 C44.62 66.28, 41.49 73.86, 37.43 78.18 C33.38 82.5, 26.98 85.33, 22.13 84.49 C17.28 83.66, 11.79 78.75, 8.33 73.18 C4.87 67.61, 2.29 59.1, 1.37 51.05 C0.45 43.01, 1.04 32.32, 2.79 24.91 C4.53 17.49, 7.59 10.74, 11.86 6.58 C16.12 2.41, 25.19 0.7, 28.39 -0.08 C31.59 -0.87, 31.06 0.93, 31.07 1.87 M24.51 1.05 C29.07 0.9, 36.33 5, 40.22 10.14 C44.12 15.28, 46.55 23.97, 47.9 31.91 C49.24 39.85, 50.05 50.16, 48.28 57.78 C46.52 65.41, 41.28 73.17, 37.31 77.68 C33.34 82.19, 29.37 85.48, 24.46 84.84 C19.56 84.2, 12.01 78.87, 7.88 73.82 C3.75 68.78, 0.94 62.19, -0.31 54.56 C-1.55 46.94, -1.33 35.78, 0.43 28.08 C2.18 20.37, 5.9 13.26, 10.24 8.34 C14.58 3.42, 23.97 -0.39, 26.49 -1.45 C29.01 -2.51, 25.63 1.15, 25.35 1.97" stroke="none" stroke-width="0" fill="#a5d8ff"></path><path d="M13.95 3.22 C17.97 -0.27, 24.74 -0.74, 29.43 1.21 C34.12 3.16, 38.72 8.84, 42.08 14.93 C45.45 21.01, 49.03 29.61, 49.61 37.75 C50.19 45.89, 48.01 56.47, 45.56 63.76 C43.11 71.06, 39.47 78.47, 34.92 81.53 C30.37 84.58, 22.94 84.04, 18.26 82.09 C13.58 80.13, 9.71 75.98, 6.83 69.79 C3.95 63.61, 1.62 53.22, 0.99 44.97 C0.35 36.72, 0.21 27.47, 3.02 20.28 C5.83 13.09, 14.91 5.05, 17.83 1.82 C20.75 -1.41, 20.39 0.22, 20.57 0.91 M18.75 1.8 C23.35 -0.13, 31.89 1.18, 36.44 4.76 C40.99 8.34, 44.09 16.06, 46.07 23.27 C48.06 30.48, 48.9 39.88, 48.35 48 C47.81 56.11, 46.09 66.07, 42.81 71.94 C39.52 77.8, 33.57 82.12, 28.64 83.19 C23.71 84.27, 17.73 81.84, 13.25 78.39 C8.76 74.94, 3.74 69.34, 1.72 62.5 C-0.3 55.66, 0.19 45.76, 1.14 37.35 C2.1 28.93, 4.22 18.22, 7.46 12.02 C10.69 5.82, 18.16 1.69, 20.55 0.16 C22.94 -1.37, 21.96 2.17, 21.78 2.84" stroke="#1e1e1e" stroke-width="2" fill="none"></path></g><g stroke-linecap="round" transform="translate(122 195) rotate(0 13 13)"><path d="M14.16 -0.28 C16.84 -0.18, 20.33 2.24, 22.3 4.18 C24.27 6.12, 25.68 8.61, 25.98 11.34 C26.28 14.08, 25.7 18.26, 24.09 20.6 C22.49 22.94, 19.05 24.76, 16.37 25.4 C13.7 26.04, 10.54 25.65, 8.04 24.46 C5.53 23.26, 2.55 20.62, 1.35 18.22 C0.16 15.83, 0.23 12.73, 0.86 10.07 C1.5 7.4, 2.92 3.86, 5.15 2.24 C7.38 0.62, 12.7 0.64, 14.26 0.34 C15.83 0.04, 14.48 0.19, 14.55 0.43 M13.83 -0.22 C16.58 -0.45, 19.58 1.44, 21.6 3.28 C23.62 5.12, 25.43 8.03, 25.94 10.82 C26.46 13.61, 26.24 17.59, 24.68 19.99 C23.13 22.39, 19.46 24.49, 16.63 25.22 C13.79 25.95, 10.31 25.45, 7.68 24.39 C5.06 23.33, 2.01 21.15, 0.88 18.84 C-0.25 16.54, 0.36 13.26, 0.92 10.54 C1.47 7.82, 2.27 4.24, 4.23 2.53 C6.19 0.82, 11.18 0.74, 12.69 0.28 C14.21 -0.18, 13.35 -0.37, 13.33 -0.23" stroke="none" stroke-width="0" fill="#ffffff"></path><path d="M15.46 0.58 C18.2 0.81, 21.61 2.56, 23.44 4.68 C25.27 6.81, 26.47 10.64, 26.45 13.35 C26.43 16.06, 25.18 18.91, 23.33 20.94 C21.48 22.96, 18.12 25, 15.38 25.5 C12.63 26, 9.34 25.3, 6.84 23.95 C4.35 22.59, 1.48 19.85, 0.4 17.35 C-0.68 14.86, -0.67 11.52, 0.37 8.97 C1.41 6.42, 4.17 3.49, 6.64 2.05 C9.11 0.62, 13.68 0.6, 15.18 0.34 C16.69 0.08, 15.59 0.27, 15.67 0.49 M10.12 0 C12.8 -0.59, 16.96 0.83, 19.39 2.34 C21.81 3.86, 23.8 6.6, 24.67 9.09 C25.54 11.58, 25.52 14.75, 24.63 17.26 C23.74 19.76, 21.65 22.6, 19.34 24.12 C17.03 25.64, 13.4 26.74, 10.76 26.36 C8.13 25.99, 5.23 24.05, 3.53 21.84 C1.83 19.63, 0.58 15.88, 0.54 13.11 C0.5 10.34, 1.68 7.47, 3.29 5.21 C4.9 2.95, 8.97 0.41, 10.2 -0.46 C11.43 -1.34, 10.62 -0.29, 10.66 -0.03" stroke="#1e1e1e" stroke-width="2" fill="none"></path></g><g stroke-linecap="round"><g transform="translate(127.30612244897958 209.32653061224494) rotate(0 6.632653061224488 0)"><path d="M0.39 -0.25 C2.75 -0.19, 11.58 0.04, 13.8 0.16 M-0.07 0.81 C2.29 0.71, 11.37 -0.53, 13.64 -0.72" stroke="#1e1e1e" stroke-width="2" fill="none"></path></g></g><mask></mask><g stroke-linecap="round"><g transform="translate(133.9387755102041 199.51020408163265) rotate(0 0.2653061224489761 8.224489795918368)"><path d="M0.53 0.16 C0.62 3.03, 0.95 14.15, 0.95 16.94 M0.14 -0.23 C0.16 2.52, 0.72 13.5, 0.73 16.23" stroke="#1e1e1e" stroke-width="2" fill="none"></path></g></g><mask></mask><g stroke-linecap="round" transform="translate(124.5 153.5) rotate(0 11 11)"><path d="M11.81 0.32 C14.11 0.25, 16.65 1.49, 18.29 3.08 C19.92 4.67, 21.22 7.5, 21.61 9.86 C22 12.22, 21.79 15.34, 20.63 17.23 C19.47 19.12, 16.89 20.54, 14.63 21.19 C12.37 21.85, 9.27 21.98, 7.1 21.15 C4.93 20.33, 2.74 18.33, 1.62 16.25 C0.5 14.18, -0.04 11.07, 0.36 8.68 C0.76 6.28, 2 3.27, 4.02 1.89 C6.04 0.5, 11.05 0.7, 12.48 0.37 C13.91 0.04, 12.65 -0.18, 12.61 -0.1 M10.62 0.71 C13 0.53, 16.71 0.86, 18.71 2.19 C20.71 3.51, 22.41 6.16, 22.61 8.67 C22.8 11.17, 21.1 15.02, 19.88 17.23 C18.66 19.43, 17.35 21.18, 15.31 21.88 C13.26 22.58, 10.05 22.37, 7.62 21.43 C5.2 20.49, 2.07 18.41, 0.74 16.25 C-0.6 14.09, -0.85 10.74, -0.39 8.49 C0.07 6.23, 1.64 4.12, 3.5 2.71 C5.36 1.31, 9.41 0.42, 10.77 0.05 C12.13 -0.32, 11.48 0.36, 11.65 0.49" stroke="none" stroke-width="0" fill="#ffffff"></path><path d="M12.84 0.14 C15 0.33, 17.08 1.71, 18.57 3.45 C20.06 5.19, 21.66 8.17, 21.79 10.59 C21.91 13.01, 20.78 16.07, 19.33 17.98 C17.89 19.9, 15.37 21.53, 13.1 22.08 C10.84 22.63, 7.69 22.44, 5.73 21.28 C3.77 20.12, 2.29 17.43, 1.35 15.14 C0.41 12.86, -0.55 9.77, 0.09 7.57 C0.73 5.36, 3.17 3.22, 5.19 1.91 C7.2 0.59, 10.93 -0.05, 12.2 -0.31 C13.46 -0.56, 12.72 0.15, 12.78 0.39 M8.89 0.7 C11.29 0.04, 15.3 0.25, 17.35 1.27 C19.4 2.29, 20.46 4.45, 21.2 6.82 C21.94 9.18, 22.63 13.05, 21.79 15.45 C20.95 17.86, 18.19 20.13, 16.14 21.23 C14.08 22.33, 11.72 22.57, 9.47 22.06 C7.22 21.56, 4.21 20.01, 2.63 18.19 C1.04 16.38, 0 13.66, -0.03 11.18 C-0.05 8.71, 0.95 5.05, 2.5 3.32 C4.04 1.59, 8.06 1.23, 9.26 0.79 C10.46 0.35, 9.76 0.69, 9.68 0.67" stroke="#1e1e1e" stroke-width="2" fill="none"></path></g><g stroke-linecap="round"><g transform="translate(128.98979591836735 165.6224489795918) rotate(0 5.612244897959187 0)"><path d="M0.27 -0.01 C2.14 0.14, 8.98 0.62, 10.81 0.53 M-0.25 -0.48 C1.83 -0.44, 9.97 -0.21, 11.84 -0.16" stroke="#1e1e1e" stroke-width="2" fill="none"></path></g></g><mask></mask></svg>