<svg version="1.1" xmlns="http://www.w3.org/2000/svg" viewBox="0 0 313.24498354019596 126.7248025857266" width="313.24498354019596" height="126.7248025857266" class="excalidraw-svg"><!-- svg-source:excalidraw --><metadata></metadata><defs><style class="style-fonts">
      </style></defs><rect x="0" y="0" width="313.24498354019596" height="126.7248025857266" fill="#ffffff"></rect><g stroke-linecap="round"><g transform="translate(10.526939104124892 38.64193734567425) rotate(0 28.5 0)"><path d="M-0.53 -0.68 C8.73 -0.66, 46.48 -1.06, 56.03 -1.06 M1.4 1.58 C10.98 1.81, 49.15 0.14, 58.23 -0.09" stroke="#1e1e1e" stroke-width="2" fill="none"></path></g></g><mask></mask><g stroke-linecap="round"><g transform="translate(112.72851300460727 -17.068970177570804) rotate(270.9395547199938 7.298426099517627 48.70309502324503)"><path d="M0 0 C-0.24 7.86, 2.29 12.61, 0.81 26.06 M0 0 C-0.71 4.85, 0.08 11.54, 0.81 26.06 M0.81 26.06 C9.95 26.64, 16.97 29.75, 28.32 33.93 M0.81 26.06 C8.67 28.68, 16.03 30.52, 28.32 33.93 M28.32 33.93 C15.67 37.13, 2.4 36.09, -13.44 40.05 M28.32 33.93 C16.59 36.24, 3.5 36.83, -13.44 40.05 M-13.44 40.05 C-1.49 44.93, 14.78 49.28, 29.01 53.07 M-13.44 40.05 C1.68 44.86, 16.3 48.63, 29.01 53.07 M29.01 53.07 C11.62 55.14, -3.7 57.94, -14.41 58.09 M29.01 53.07 C14.36 54.45, -0.82 57.41, -14.41 58.09 M-14.41 58.09 C-6.36 60.52, 4.78 61.97, 27.7 70.14 M-14.41 58.09 C-0.14 62.13, 14.74 67.12, 27.7 70.14 M27.7 70.14 C22.4 73.62, 14.18 74.83, 3.4 77.38 M27.7 70.14 C22.6 72.54, 18.07 74.03, 3.4 77.38 M3.4 77.38 C4.63 85.05, 1.54 88.81, 3.4 97.41 M3.4 77.38 C4.26 81.31, 4.01 87.71, 3.4 97.41" stroke="#1e1e1e" stroke-width="2" fill="none"></path></g></g><mask></mask><g stroke-linecap="round"><g transform="translate(204.60814350157813 1.9669082155232331) rotate(270.8113884401819 1.7998833282635296 36.05302568412968)"><path d="M-0.26 -1 C-0.13 0.26, -1.99 5.77, -0.38 7.34 C1.22 8.91, 6.01 7.81, 9.36 8.43 C12.71 9.06, 18.13 10.33, 19.7 11.09 C21.27 11.85, 20.44 11.68, 18.78 12.98 C17.11 14.28, 15.46 17.68, 9.71 18.88 C3.96 20.07, -11.69 20.71, -15.73 20.14 C-19.77 19.57, -18.94 16.35, -14.53 15.46 C-10.11 14.58, 5.11 14.26, 10.75 14.85 C16.38 15.45, 18.04 17.76, 19.29 19.04 C20.54 20.33, 19.92 20.69, 18.26 22.57 C16.61 24.45, 15.07 29.33, 9.36 30.32 C3.66 31.31, -11.76 29.6, -15.95 28.52 C-20.14 27.43, -19.96 24.41, -15.8 23.81 C-11.65 23.21, 3.02 24.11, 8.99 24.91 C14.96 25.71, 20.02 26.61, 20.03 28.58 C20.04 30.56, 15.1 35.36, 9.05 36.74 C2.99 38.13, -11.92 37.58, -16.29 36.9 C-20.67 36.22, -21.43 33.28, -17.18 32.69 C-12.93 32.1, 2.92 32.56, 9.2 33.37 C15.49 34.17, 20.26 35.69, 20.53 37.54 C20.8 39.38, 16.77 43.22, 10.82 44.44 C4.87 45.66, -10.69 45.51, -15.17 44.88 C-19.66 44.25, -17.84 41.47, -16.07 40.66 C-14.31 39.85, -8.92 40.2, -4.58 40.01 C-0.24 39.81, 5.92 38.71, 9.97 39.5 C14.03 40.29, 19.68 42.22, 19.74 44.75 C19.8 47.28, 15.96 52.74, 10.36 54.67 C4.75 56.59, -9.57 57.16, -13.9 56.29 C-18.24 55.42, -21.03 50.84, -15.66 49.45 C-10.29 48.06, 13.31 46.54, 18.32 47.95 C23.33 49.35, 17.84 55.97, 14.4 57.87 C10.96 59.77, 0.73 57.13, -2.3 59.34 C-5.33 61.54, -3.73 68.95, -3.79 71.11 M1.8 1.09 C2.43 2.55, 0.79 7.28, 2.01 8.75 C3.23 10.21, 6.04 9.8, 9.12 9.87 C12.2 9.93, 19.09 8.65, 20.47 9.15 C21.85 9.64, 19.03 10.84, 17.4 12.85 C15.77 14.85, 16.11 20.12, 10.67 21.16 C5.23 22.21, -10.91 20.11, -15.24 19.13 C-19.57 18.15, -19.4 16.21, -15.29 15.27 C-11.18 14.33, 3.51 12.92, 9.43 13.48 C15.35 14.04, 18.75 16.99, 20.21 18.64 C21.67 20.3, 20.23 21.45, 18.2 23.4 C16.17 25.35, 13.7 29.1, 8.04 30.34 C2.38 31.59, -11.65 32.04, -15.76 30.88 C-19.86 29.72, -20.74 24.43, -16.58 23.38 C-12.43 22.32, 3.46 23.55, 9.19 24.55 C14.92 25.54, 17.48 27.19, 17.8 29.36 C18.12 31.53, 17.02 36.29, 11.11 37.59 C5.21 38.89, -13.22 37.89, -17.63 37.15 C-22.04 36.42, -19.99 34.04, -15.36 33.16 C-10.74 32.28, 4.28 31.37, 10.14 31.88 C16 32.39, 19.58 34.34, 19.78 36.23 C19.98 38.11, 17.12 41.91, 11.33 43.19 C5.54 44.47, -10.62 44.38, -14.96 43.89 C-19.31 43.4, -16.21 41.34, -14.73 40.24 C-13.25 39.13, -10.31 37.42, -6.07 37.26 C-1.82 37.1, 6.22 38.06, 10.75 39.28 C15.28 40.49, 21.5 42.22, 21.11 44.53 C20.71 46.84, 14.15 51.51, 8.37 53.15 C2.58 54.78, -9.86 55.19, -13.63 54.35 C-17.4 53.51, -19.62 48.91, -14.27 48.09 C-8.93 47.26, 13.17 47.98, 18.44 49.39 C23.7 50.79, 20.62 54.93, 17.33 56.5 C14.03 58.06, 1.95 56.22, -1.33 58.77 C-4.61 61.31, -1.85 69.6, -2.37 71.76" stroke="#1e1e1e" stroke-width="2" fill="none"></path></g></g><mask></mask><g stroke-linecap="round"><g transform="translate(244.5269391041249 43.64193734567425) rotate(0 -7.105427357601002e-15 36)"><path d="M-0.36 -1.05 C-0.38 10.95, 0.38 61, 0.28 73.08 M1.65 1.01 C1.47 13.22, -0.48 59.61, -0.53 71.53" stroke="#1e1e1e" stroke-width="2" fill="none"></path></g></g><mask></mask><g stroke-linecap="round"><g transform="translate(184.5269391041249 114.64193734567425) rotate(0 58.5 0)"><path d="M0.1 -0.47 C19.31 -0.69, 96.91 -1.31, 116.35 -1.15 M-1.31 -1.76 C18.2 -1.89, 99.19 -0.24, 118.72 -0.22" stroke="#1e1e1e" stroke-width="2" fill="none"></path></g></g><mask></mask></svg>