<svg version="1.1" xmlns="http://www.w3.org/2000/svg" viewBox="0 0 388 123.37430286411197" width="388" height="123.37430286411197" class="excalidraw-svg"><!-- svg-source:excalidraw --><metadata></metadata><defs><style class="style-fonts">
      </style></defs><rect x="0" y="0" width="388" height="123.37430286411197" fill="#ffffff"></rect><g stroke-linecap="round" transform="translate(10 10) rotate(0 184 47.5)"><path d="M220.58 0.32 C239.56 0.61, 260.11 4.42, 277.4 7.21 C294.69 10, 311.32 13.22, 324.32 17.06 C337.33 20.9, 348.31 25.57, 355.42 30.26 C362.53 34.94, 366.01 40.13, 366.98 45.18 C367.95 50.22, 366.59 55.62, 361.23 60.54 C355.87 65.46, 346.35 70.45, 334.83 74.7 C323.31 78.95, 308.4 83.12, 292.12 86.04 C275.85 88.96, 256.43 90.81, 237.17 92.23 C217.92 93.65, 196.59 94.73, 176.62 94.55 C156.65 94.37, 135.92 93.04, 117.35 91.14 C98.78 89.23, 80.34 86.35, 65.2 83.13 C50.06 79.91, 36.55 76.22, 26.51 71.82 C16.47 67.41, 9.15 61.59, 4.96 56.7 C0.77 51.8, -0.95 47.41, 1.36 42.47 C3.67 37.53, 10.2 31.72, 18.79 27.07 C27.38 22.42, 38.79 18.21, 52.9 14.57 C67 10.94, 85.41 7.59, 103.42 5.25 C121.43 2.9, 140.53 1.17, 160.97 0.51 C181.4 -0.15, 214.31 1.1, 226.01 1.28 C237.72 1.45, 231.72 0.91, 231.17 1.55 M223.11 1.88 C241.99 2.45, 261.99 5.59, 278.76 8.22 C295.52 10.85, 310.7 14.19, 323.69 17.67 C336.68 21.14, 349.37 24.49, 356.7 29.07 C364.03 33.64, 367 39.54, 367.66 45.14 C368.32 50.75, 366.37 57.5, 360.65 62.69 C354.93 67.88, 345.01 72.32, 333.33 76.27 C321.65 80.23, 306.89 83.41, 290.56 86.4 C274.23 89.39, 254.44 92.84, 235.36 94.22 C216.28 95.6, 195.8 95.03, 176.08 94.66 C156.37 94.3, 135.48 93.81, 117.08 92.05 C98.67 90.3, 80.89 87.55, 65.65 84.11 C50.42 80.68, 35.84 76.06, 25.66 71.47 C15.48 66.87, 8.64 61.63, 4.59 56.55 C0.55 51.47, -1.16 45.84, 1.38 40.99 C3.93 36.13, 11.09 31.95, 19.86 27.44 C28.62 22.93, 39.82 17.72, 53.97 13.93 C68.11 10.14, 86.58 6.76, 104.72 4.69 C122.86 2.62, 143.11 2.35, 162.82 1.52 C182.53 0.69, 213.17 -0.32, 223 -0.3 C232.84 -0.27, 222.43 0.81, 221.83 1.66" stroke="#1e1e1e" stroke-width="2" fill="none"></path></g><g stroke-linecap="round"><g transform="translate(289 88) rotate(0 -4.5 12)"><path d="M-1.09 -0.17 C-3.76 1.77, -16.85 8.39, -15.48 12.42 C-14.11 16.46, 3.44 22.07, 7.15 24.04 M0.54 -1.31 C-2.38 0.19, -17.76 6.08, -16.68 10.52 C-15.61 14.97, 2.97 22.88, 6.99 25.37" stroke="#1e1e1e" stroke-width="2" fill="none"></path></g></g><mask></mask><g stroke-linecap="round" transform="translate(186.7969732620969 48.384247546372706) rotate(0 9.703026737903087 9.703026737903087)"><path d="M8.54 0.33 C10.4 -0.12, 12.64 0.55, 14.37 1.65 C16.1 2.75, 18.14 5.08, 18.9 6.92 C19.67 8.76, 19.66 10.74, 18.97 12.67 C18.28 14.61, 16.6 17.51, 14.75 18.52 C12.9 19.54, 10 19.16, 7.88 18.76 C5.77 18.37, 3.43 17.73, 2.08 16.17 C0.72 14.6, -0.3 11.43, -0.25 9.38 C-0.19 7.34, 0.97 5.49, 2.39 3.88 C3.81 2.26, 7.26 0.36, 8.29 -0.31 C9.33 -0.98, 8.53 -0.44, 8.6 -0.14 M8.16 0.43 C10.1 -0.23, 13.03 -0.52, 14.71 0.37 C16.4 1.26, 17.58 3.66, 18.27 5.76 C18.97 7.87, 19.34 11.03, 18.89 13 C18.44 14.97, 17.24 16.63, 15.57 17.6 C13.9 18.56, 11.18 18.88, 8.89 18.78 C6.6 18.68, 3.42 18.49, 1.84 17 C0.26 15.51, -0.54 11.97, -0.56 9.85 C-0.59 7.74, 0.42 5.87, 1.67 4.3 C2.93 2.73, 5.95 1.02, 6.98 0.44 C8.02 -0.14, 7.79 0.76, 7.88 0.82" stroke="none" stroke-width="0" fill="#ffd8a8"></path><path d="M11.07 0.28 C13.08 0.39, 15.72 1.59, 17.07 3.14 C18.42 4.69, 19.14 7.47, 19.17 9.57 C19.19 11.66, 18.35 14.04, 17.22 15.7 C16.09 17.37, 14.46 19.08, 12.39 19.54 C10.32 20, 6.72 19.43, 4.81 18.47 C2.91 17.51, 1.71 15.75, 0.94 13.77 C0.17 11.79, -0.41 8.63, 0.18 6.59 C0.77 4.56, 2.56 2.56, 4.49 1.56 C6.42 0.56, 10.49 0.78, 11.76 0.57 C13.03 0.36, 12.26 0.24, 12.12 0.32 M9.33 -0.72 C11.22 -0.68, 14.61 1.11, 16.19 2.61 C17.77 4.1, 18.41 6.25, 18.82 8.26 C19.23 10.27, 19.78 12.77, 18.64 14.66 C17.5 16.55, 14.12 18.91, 11.97 19.6 C9.82 20.29, 7.48 19.8, 5.75 18.8 C4.03 17.81, 2.59 15.4, 1.64 13.64 C0.69 11.87, -0.32 10.19, 0.05 8.22 C0.43 6.25, 2.18 3.28, 3.88 1.82 C5.59 0.37, 9.26 -0.28, 10.27 -0.5 C11.29 -0.72, 10.06 0.35, 9.98 0.51" stroke="#1e1e1e" stroke-width="2" fill="none"></path></g><g stroke-linecap="round"><g transform="translate(191.82817231138006 58.446645644938855) rotate(0 5.031199049283053 0)"><path d="M0.27 0.05 C1.89 0.1, 8.54 0.17, 10.21 0.21 M-0.26 -0.41 C1.27 -0.5, 8.13 -0.61, 9.85 -0.64" stroke="#1e1e1e" stroke-width="2" fill="none"></path></g></g><mask></mask><g stroke-linecap="round"><g transform="translate(196.8593713606631 53.774817956318856) rotate(0 0 4.492142008288461)"><path d="M0.09 0.14 C0.09 1.66, 0.16 7.74, 0.15 9.18 M-0.28 -0.1 C-0.34 1.32, -0.07 7.13, -0.05 8.66" stroke="#1e1e1e" stroke-width="2" fill="none"></path></g></g><mask></mask><g stroke-linecap="round" transform="translate(321.5075415237718 84.64651982019222) rotate(0 5.976803816717535 5.976803816717535)"><path d="M7.07 -0.36 C8.32 -0.26, 9.94 1.46, 10.75 2.41 C11.55 3.37, 11.94 4.11, 11.9 5.37 C11.86 6.64, 11.33 8.98, 10.49 10.02 C9.66 11.06, 8.11 11.33, 6.89 11.61 C5.67 11.89, 4.24 12.34, 3.16 11.69 C2.08 11.04, 0.85 9.07, 0.39 7.73 C-0.07 6.38, -0.07 4.71, 0.4 3.64 C0.86 2.57, 2.12 1.85, 3.16 1.29 C4.2 0.74, 5.96 0.43, 6.63 0.32 C7.3 0.22, 7.09 0.52, 7.17 0.65 M4.49 0.57 C5.83 0.2, 8.03 -0.06, 9.26 0.35 C10.5 0.76, 11.59 1.7, 11.88 3.04 C12.16 4.38, 11.51 7.12, 10.98 8.39 C10.45 9.66, 9.71 9.99, 8.71 10.65 C7.71 11.32, 6.27 12.46, 5 12.4 C3.72 12.34, 1.84 11.24, 1.06 10.3 C0.27 9.36, 0.3 8.12, 0.27 6.75 C0.25 5.37, 0.12 3.09, 0.9 2.04 C1.68 0.99, 4.27 0.77, 4.95 0.46 C5.63 0.14, 5.06 0, 4.96 0.16" stroke="none" stroke-width="0" fill="#b2f2bb"></path><path d="M5.92 0.17 C7.25 0.13, 9.53 1.06, 10.45 1.9 C11.36 2.74, 11.27 3.99, 11.4 5.23 C11.53 6.48, 11.86 8.36, 11.23 9.39 C10.6 10.41, 8.84 11.01, 7.61 11.37 C6.38 11.72, 4.91 11.87, 3.84 11.52 C2.77 11.16, 1.73 10.39, 1.19 9.25 C0.65 8.11, 0.45 6.02, 0.6 4.69 C0.75 3.35, 1.1 1.95, 2.1 1.23 C3.09 0.51, 5.85 0.64, 6.58 0.39 C7.32 0.13, 6.62 -0.32, 6.52 -0.28 M6.92 -0.17 C8.1 -0.07, 8.49 1.33, 9.26 2.23 C10.04 3.14, 11.2 4.23, 11.57 5.28 C11.95 6.33, 12.18 7.39, 11.52 8.54 C10.86 9.69, 8.91 11.74, 7.63 12.2 C6.35 12.65, 4.98 11.92, 3.87 11.26 C2.75 10.6, 1.55 9.29, 0.93 8.25 C0.3 7.21, -0.1 6.26, 0.1 5 C0.29 3.75, 1.16 1.65, 2.11 0.72 C3.06 -0.21, 5.19 -0.53, 5.79 -0.59 C6.39 -0.65, 5.58 0.05, 5.72 0.36" stroke="#1e1e1e" stroke-width="2" fill="none"></path></g><g stroke-linecap="round"><g transform="translate(324.606624984292 90.84468674123261) rotate(0 3.099083460520184 0)"><path d="M0.04 -0.16 C1.1 -0.22, 5.42 -0.26, 6.47 -0.17 M-0.36 0.53 C0.65 0.49, 5.24 0.31, 6.33 0.19" stroke="#1e1e1e" stroke-width="2" fill="none"></path></g></g><mask></mask></svg>