<svg version="1.1" xmlns="http://www.w3.org/2000/svg" viewBox="0 0 622.5 77" width="622.5" height="77" class="excalidraw-svg"><!-- svg-source:excalidraw --><metadata></metadata><defs><style class="style-fonts">
      </style></defs><rect x="0" y="0" width="622.5" height="77" fill="#ffffff"></rect><g transform="translate(10 50) rotate(0 105.5 4.5)" stroke="none"><path fill="#1e1e1e" d="M -0.77,-2.31 Q -0.77,-2.31 0.08,-2.64 0.93,-2.98 2.10,-3.19 3.27,-3.41 4.34,-3.50 5.41,-3.60 6.74,-3.62 8.06,-3.65 9.19,-3.68 10.32,-3.71 11.66,-3.70 13.01,-3.70 14.44,-3.68 15.88,-3.66 17.64,-3.58 19.39,-3.50 20.72,-3.52 22.04,-3.53 23.46,-3.52 24.89,-3.52 26.36,-3.51 27.82,-3.50 29.02,-3.52 30.22,-3.55 31.31,-3.58 32.39,-3.61 33.75,-3.69 35.10,-3.77 36.16,-3.84 37.23,-3.90 38.74,-3.98 40.25,-4.06 42.13,-3.50 44.02,-2.94 44.77,-1.99 45.52,-1.03 45.85,0.49 46.18,2.02 46.22,3.53 46.27,5.04 46.67,6.25 47.07,7.46 47.57,8.91 48.07,10.36 49.13,10.98 50.20,11.59 52.08,11.94 53.95,12.29 55.37,12.41 56.78,12.54 58.16,12.94 59.54,13.35 60.73,13.46 61.91,13.58 63.47,13.62 65.02,13.65 66.53,13.65 68.03,13.66 69.08,13.28 70.12,12.91 70.35,11.58 70.57,10.25 71.08,9.16 71.59,8.08 72.04,6.71 72.49,5.34 72.53,3.74 72.58,2.14 72.59,0.69 72.61,-0.76 72.60,-1.96 72.59,-3.17 72.57,-4.71 72.54,-6.25 74.31,-5.78 76.08,-5.32 75.84,-3.92 75.59,-2.53 75.57,-1.33 75.55,-0.14 75.55,1.02 75.55,2.19 75.88,3.77 76.21,5.36 77.03,6.59 77.85,7.82 79.20,8.75 80.55,9.68 81.74,10.03 82.93,10.37 84.46,10.94 86.00,11.51 88.01,12.01 90.02,12.50 91.11,12.88 92.20,13.26 93.75,13.37 95.31,13.48 96.52,12.40 97.73,11.32 98.67,9.94 99.61,8.56 100.94,7.05 102.26,5.54 102.51,4.20 102.76,2.86 103.45,1.89 104.13,0.91 103.78,-0.19 103.43,-1.29 103.43,-2.78 103.42,-4.26 103.47,-4.69 103.53,-5.12 103.68,-5.52 103.83,-5.92 104.08,-6.28 104.32,-6.63 104.65,-6.92 104.97,-7.20 105.35,-7.40 105.73,-7.60 106.15,-7.70 106.57,-7.81 107.00,-7.80 107.43,-7.80 107.85,-7.70 108.27,-7.60 108.65,-7.40 109.03,-7.19 109.35,-6.91 109.67,-6.62 109.92,-6.27 110.16,-5.91 110.31,-5.51 110.47,-5.11 110.52,-4.68 110.57,-4.25 110.58,-2.97 110.59,-1.69 110.60,-0.21 110.60,1.26 110.61,2.76 110.61,4.26 111.22,5.53 111.83,6.81 112.68,6.10 113.54,5.39 114.78,5.89 116.01,6.38 117.17,6.36 118.33,6.35 119.79,6.36 121.26,6.37 122.76,6.37 124.26,6.37 125.76,6.37 127.26,6.36 128.76,6.36 130.26,6.36 131.43,5.78 132.60,5.21 133.56,4.30 134.51,3.39 135.62,1.74 136.72,0.10 138.70,-0.23 140.68,-0.57 143.17,-0.87 145.66,-1.16 147.50,-1.09 149.34,-1.02 150.96,-0.96 152.59,-0.90 154.43,-0.79 156.28,-0.68 158.50,-0.51 160.71,-0.34 162.97,-0.49 165.23,-0.63 167.46,-0.66 169.69,-0.69 171.67,-0.95 173.66,-1.21 175.77,-1.33 177.88,-1.45 179.63,-1.55 181.38,-1.65 182.99,-1.73 184.61,-1.80 186.15,-1.86 187.70,-1.92 188.94,-1.99 190.17,-2.07 191.56,-2.11 192.94,-2.16 194.48,-2.29 196.02,-2.42 197.53,-2.52 199.03,-2.61 200.12,-2.69 201.22,-2.77 202.73,-2.86 204.25,-2.96 205.75,-3.03 207.26,-3.10 208.97,-3.11 210.68,-3.13 211.18,-3.04 211.68,-2.96 212.13,-2.73 212.58,-2.49 212.92,-2.12 213.27,-1.75 213.49,-1.29 213.70,-0.83 213.75,-0.33 213.81,0.16 213.70,0.66 213.59,1.15 213.33,1.59 213.07,2.02 212.68,2.35 212.30,2.68 211.82,2.87 211.35,3.05 210.85,3.08 210.34,3.11 209.85,2.97 209.37,2.84 208.95,2.55 208.53,2.27 208.22,1.86 207.91,1.46 207.75,0.98 207.59,0.50 207.59,-0.00 207.59,-0.50 207.75,-0.98 207.91,-1.46 208.22,-1.87 208.53,-2.27 208.95,-2.55 209.37,-2.84 209.85,-2.97 210.34,-3.11 210.85,-3.08 211.35,-3.05 211.83,-2.87 212.30,-2.68 212.68,-2.35 213.07,-2.02 213.33,-1.59 213.59,-1.15 213.70,-0.66 213.81,-0.16 213.75,0.33 213.70,0.83 213.49,1.29 213.27,1.75 212.92,2.12 212.58,2.49 212.13,2.73 211.68,2.96 211.18,3.04 210.68,3.13 210.68,3.13 210.68,3.13 208.97,3.11 207.26,3.10 205.75,3.03 204.25,2.96 202.73,2.86 201.22,2.77 200.12,2.69 199.03,2.62 197.53,2.52 196.02,2.42 194.49,2.29 192.95,2.17 191.57,2.12 190.19,2.08 188.96,2.02 187.73,1.95 186.20,1.92 184.67,1.88 183.09,1.86 181.51,1.83 179.81,1.85 178.11,1.88 176.17,2.04 174.22,2.21 172.06,2.63 169.91,3.05 167.82,3.27 165.73,3.49 163.23,3.92 160.73,4.35 158.52,4.53 156.31,4.71 154.49,4.84 152.68,4.97 151.11,5.08 149.53,5.19 147.91,5.37 146.29,5.55 145.20,5.70 144.11,5.85 142.11,6.42 140.11,6.99 138.78,8.34 137.45,9.68 136.68,10.49 135.91,11.30 134.99,11.93 134.07,12.56 132.79,13.07 131.50,13.57 130.38,13.60 129.26,13.63 127.76,13.63 126.26,13.63 124.75,13.62 123.25,13.62 121.73,13.61 120.21,13.61 119.12,13.59 118.03,13.57 116.65,13.48 115.27,13.39 113.16,13.00 111.05,12.60 109.42,12.26 107.78,11.93 106.66,10.79 105.53,9.65 104.75,8.55 103.97,7.44 103.67,5.85 103.38,4.26 103.38,2.76 103.39,1.26 103.39,-0.21 103.40,-1.69 103.41,-2.97 103.42,-4.26 103.47,-4.69 103.53,-5.12 103.68,-5.52 103.83,-5.92 104.08,-6.28 104.32,-6.63 104.65,-6.92 104.97,-7.20 105.35,-7.40 105.73,-7.60 106.15,-7.70 106.57,-7.81 107.00,-7.80 107.43,-7.80 107.85,-7.70 108.27,-7.60 108.65,-7.40 109.03,-7.19 109.35,-6.91 109.67,-6.62 109.92,-6.27 110.16,-5.91 110.31,-5.51 110.47,-5.11 110.52,-4.68 110.57,-4.25 110.56,-2.74 110.54,-1.23 110.52,-0.17 110.49,0.89 110.31,2.29 110.13,3.70 109.64,4.80 109.15,5.90 108.33,7.72 107.52,9.54 106.50,10.16 105.49,10.78 104.71,12.44 103.94,14.09 103.39,15.10 102.85,16.10 101.66,17.33 100.47,18.56 99.40,19.25 98.33,19.94 96.66,20.19 94.99,20.44 93.55,20.33 92.10,20.21 90.78,19.97 89.46,19.72 88.18,19.08 86.89,18.43 85.62,18.31 84.35,18.20 82.79,17.67 81.22,17.15 79.61,16.57 77.99,16.00 76.37,14.91 74.75,13.82 73.12,12.48 71.50,11.15 70.76,9.56 70.02,7.98 69.42,6.93 68.82,5.88 68.63,4.03 68.44,2.17 68.45,0.99 68.45,-0.18 68.46,-1.55 68.48,-2.92 68.65,-4.34 68.83,-5.76 69.43,-6.88 70.03,-8.00 71.57,-9.20 73.12,-10.40 75.25,-10.47 77.38,-10.53 78.14,-9.45 78.89,-8.38 79.17,-7.31 79.45,-6.25 79.42,-4.70 79.40,-3.16 79.38,-1.94 79.37,-0.72 79.35,0.81 79.33,2.36 79.22,4.09 79.11,5.82 78.61,7.31 78.12,8.80 77.55,10.80 76.99,12.80 76.25,14.59 75.51,16.38 74.75,17.33 73.99,18.29 72.95,18.93 71.92,19.57 69.97,19.95 68.02,20.33 66.47,20.32 64.93,20.31 63.21,20.28 61.49,20.24 60.41,20.17 59.34,20.09 57.84,19.69 56.34,19.29 55.24,19.23 54.13,19.18 52.85,18.97 51.56,18.77 50.37,18.48 49.18,18.19 47.67,17.62 46.15,17.05 44.93,16.35 43.72,15.66 42.91,14.68 42.11,13.70 41.61,12.55 41.11,11.40 40.88,10.10 40.65,8.81 40.17,6.96 39.70,5.12 39.98,3.59 40.25,2.06 38.74,1.98 37.23,1.90 36.16,1.84 35.10,1.77 33.75,1.69 32.39,1.61 31.31,1.58 30.22,1.55 29.02,1.52 27.83,1.50 26.36,1.51 24.89,1.52 23.47,1.52 22.04,1.53 20.72,1.52 19.40,1.51 17.64,1.58 15.88,1.66 14.45,1.68 13.03,1.71 11.70,1.72 10.37,1.73 9.26,1.72 8.15,1.72 6.92,1.73 5.70,1.75 4.10,1.79 2.51,1.83 1.64,2.07 0.77,2.31 0.48,2.37 0.19,2.43 -0.09,2.41 -0.39,2.40 -0.67,2.32 -0.95,2.24 -1.21,2.09 -1.46,1.94 -1.67,1.74 -1.88,1.54 -2.04,1.29 -2.20,1.04 -2.29,0.76 -2.38,0.48 -2.41,0.19 -2.43,-0.09 -2.38,-0.38 -2.34,-0.67 -2.22,-0.94 -2.11,-1.22 -1.93,-1.45 -1.75,-1.68 -1.52,-1.87 -1.30,-2.06 -1.03,-2.18 -0.77,-2.31 -0.77,-2.31 L -0.77,-2.31 Z"></path></g><g stroke-linecap="round"><g transform="translate(222 50) rotate(0 89.5 -1.5)"><path d="M-0.41 -0.7 C29.28 -1.24, 149.15 -2.91, 179.07 -3.15 M1.58 1.55 C31.03 1.2, 148.69 -0.76, 178.16 -1.68" stroke="#1e1e1e" stroke-width="2" fill="none"></path></g></g><mask></mask><g transform="translate(401.5 47.5) rotate(0 105.5 4.5)" stroke="none"><path fill="#1e1e1e" d="M -0.77,-2.31 Q -0.77,-2.31 0.08,-2.64 0.93,-2.98 2.10,-3.19 3.27,-3.41 4.34,-3.50 5.41,-3.60 6.74,-3.62 8.06,-3.65 9.19,-3.68 10.32,-3.71 11.66,-3.70 13.01,-3.70 14.44,-3.68 15.88,-3.66 17.64,-3.58 19.39,-3.50 20.72,-3.52 22.04,-3.53 23.46,-3.52 24.89,-3.52 26.36,-3.51 27.82,-3.50 29.02,-3.52 30.22,-3.55 31.31,-3.58 32.39,-3.61 33.75,-3.69 35.10,-3.77 36.16,-3.84 37.23,-3.90 38.74,-3.98 40.25,-4.06 42.13,-3.50 44.02,-2.94 44.77,-1.99 45.52,-1.03 45.85,0.49 46.18,2.02 46.22,3.53 46.27,5.04 46.67,6.25 47.07,7.46 47.57,8.91 48.07,10.36 49.13,10.98 50.20,11.59 52.08,11.94 53.95,12.29 55.37,12.41 56.78,12.54 58.16,12.94 59.54,13.35 60.73,13.46 61.91,13.58 63.47,13.62 65.02,13.65 66.53,13.65 68.03,13.66 69.08,13.28 70.12,12.91 70.35,11.58 70.57,10.25 71.08,9.16 71.59,8.08 72.04,6.71 72.49,5.34 72.53,3.74 72.58,2.14 72.59,0.69 72.61,-0.76 72.60,-1.96 72.59,-3.17 72.57,-4.71 72.54,-6.25 74.31,-5.78 76.08,-5.32 75.84,-3.92 75.59,-2.53 75.57,-1.33 75.55,-0.14 75.55,1.02 75.55,2.19 75.88,3.77 76.21,5.36 77.03,6.59 77.85,7.82 79.20,8.75 80.55,9.68 81.74,10.03 82.93,10.37 84.46,10.94 86.00,11.51 88.01,12.01 90.02,12.50 91.11,12.88 92.20,13.26 93.75,13.37 95.31,13.48 96.52,12.40 97.73,11.32 98.67,9.94 99.61,8.56 100.94,7.05 102.26,5.54 102.51,4.20 102.76,2.86 103.45,1.89 104.13,0.91 103.78,-0.19 103.43,-1.29 103.43,-2.78 103.42,-4.26 103.47,-4.69 103.53,-5.12 103.68,-5.52 103.83,-5.92 104.08,-6.28 104.32,-6.63 104.65,-6.92 104.97,-7.20 105.35,-7.40 105.73,-7.60 106.15,-7.70 106.57,-7.81 107.00,-7.80 107.43,-7.80 107.85,-7.70 108.27,-7.60 108.65,-7.40 109.03,-7.19 109.35,-6.91 109.67,-6.62 109.92,-6.27 110.16,-5.91 110.31,-5.51 110.47,-5.11 110.52,-4.68 110.57,-4.25 110.58,-2.97 110.59,-1.69 110.60,-0.21 110.60,1.26 110.61,2.76 110.61,4.26 111.22,5.53 111.83,6.81 112.68,6.10 113.54,5.39 114.78,5.89 116.01,6.38 117.17,6.36 118.33,6.35 119.79,6.36 121.26,6.37 122.76,6.37 124.26,6.37 125.76,6.37 127.26,6.36 128.76,6.36 130.26,6.36 131.43,5.78 132.60,5.21 133.56,4.30 134.51,3.39 135.62,1.74 136.72,0.10 138.70,-0.23 140.68,-0.57 143.17,-0.87 145.66,-1.16 147.50,-1.09 149.34,-1.02 150.96,-0.96 152.59,-0.90 154.43,-0.79 156.28,-0.68 158.50,-0.51 160.71,-0.34 162.97,-0.49 165.23,-0.63 167.46,-0.66 169.69,-0.69 171.67,-0.95 173.66,-1.21 175.77,-1.33 177.88,-1.45 179.63,-1.55 181.38,-1.65 182.99,-1.73 184.61,-1.80 186.15,-1.86 187.70,-1.92 188.94,-1.99 190.17,-2.07 191.56,-2.11 192.94,-2.16 194.48,-2.29 196.02,-2.42 197.53,-2.52 199.03,-2.61 200.12,-2.69 201.22,-2.77 202.73,-2.86 204.25,-2.96 205.75,-3.03 207.26,-3.10 208.97,-3.11 210.68,-3.13 211.18,-3.04 211.68,-2.96 212.13,-2.73 212.58,-2.49 212.92,-2.12 213.27,-1.75 213.49,-1.29 213.70,-0.83 213.75,-0.33 213.81,0.16 213.70,0.66 213.59,1.15 213.33,1.59 213.07,2.02 212.68,2.35 212.30,2.68 211.82,2.87 211.35,3.05 210.85,3.08 210.34,3.11 209.85,2.97 209.37,2.84 208.95,2.55 208.53,2.27 208.22,1.86 207.91,1.46 207.75,0.98 207.59,0.50 207.59,-0.00 207.59,-0.50 207.75,-0.98 207.91,-1.46 208.22,-1.87 208.53,-2.27 208.95,-2.55 209.37,-2.84 209.85,-2.97 210.34,-3.11 210.85,-3.08 211.35,-3.05 211.83,-2.87 212.30,-2.68 212.68,-2.35 213.07,-2.02 213.33,-1.59 213.59,-1.15 213.70,-0.66 213.81,-0.16 213.75,0.33 213.70,0.83 213.49,1.29 213.27,1.75 212.92,2.12 212.58,2.49 212.13,2.73 211.68,2.96 211.18,3.04 210.68,3.13 210.68,3.13 210.68,3.13 208.97,3.11 207.26,3.10 205.75,3.03 204.25,2.96 202.73,2.86 201.22,2.77 200.12,2.69 199.03,2.62 197.53,2.52 196.02,2.42 194.49,2.29 192.95,2.17 191.57,2.12 190.19,2.08 188.96,2.02 187.73,1.95 186.20,1.92 184.67,1.88 183.09,1.86 181.51,1.83 179.81,1.85 178.11,1.88 176.17,2.04 174.22,2.21 172.06,2.63 169.91,3.05 167.82,3.27 165.73,3.49 163.23,3.92 160.73,4.35 158.52,4.53 156.31,4.71 154.49,4.84 152.68,4.97 151.11,5.08 149.53,5.19 147.91,5.37 146.29,5.55 145.20,5.70 144.11,5.85 142.11,6.42 140.11,6.99 138.78,8.34 137.45,9.68 136.68,10.49 135.91,11.30 134.99,11.93 134.07,12.56 132.79,13.07 131.50,13.57 130.38,13.60 129.26,13.63 127.76,13.63 126.26,13.63 124.75,13.62 123.25,13.62 121.73,13.61 120.21,13.61 119.12,13.59 118.03,13.57 116.65,13.48 115.27,13.39 113.16,13.00 111.05,12.60 109.42,12.26 107.78,11.93 106.66,10.79 105.53,9.65 104.75,8.55 103.97,7.44 103.67,5.85 103.38,4.26 103.38,2.76 103.39,1.26 103.39,-0.21 103.40,-1.69 103.41,-2.97 103.42,-4.26 103.47,-4.69 103.53,-5.12 103.68,-5.52 103.83,-5.92 104.08,-6.28 104.32,-6.63 104.65,-6.92 104.97,-7.20 105.35,-7.40 105.73,-7.60 106.15,-7.70 106.57,-7.81 107.00,-7.80 107.43,-7.80 107.85,-7.70 108.27,-7.60 108.65,-7.40 109.03,-7.19 109.35,-6.91 109.67,-6.62 109.92,-6.27 110.16,-5.91 110.31,-5.51 110.47,-5.11 110.52,-4.68 110.57,-4.25 110.56,-2.74 110.54,-1.23 110.52,-0.17 110.49,0.89 110.31,2.29 110.13,3.70 109.64,4.80 109.15,5.90 108.33,7.72 107.52,9.54 106.50,10.16 105.49,10.78 104.71,12.44 103.94,14.09 103.39,15.10 102.85,16.10 101.66,17.33 100.47,18.56 99.40,19.25 98.33,19.94 96.66,20.19 94.99,20.44 93.55,20.33 92.10,20.21 90.78,19.97 89.46,19.72 88.18,19.08 86.89,18.43 85.62,18.31 84.35,18.20 82.79,17.67 81.22,17.15 79.61,16.57 77.99,16.00 76.37,14.91 74.75,13.82 73.12,12.48 71.50,11.15 70.76,9.56 70.02,7.98 69.42,6.93 68.82,5.88 68.63,4.03 68.44,2.17 68.45,0.99 68.45,-0.18 68.46,-1.55 68.48,-2.92 68.65,-4.34 68.83,-5.76 69.43,-6.88 70.03,-8.00 71.57,-9.20 73.12,-10.40 75.25,-10.47 77.38,-10.53 78.14,-9.45 78.89,-8.38 79.17,-7.31 79.45,-6.25 79.42,-4.70 79.40,-3.16 79.38,-1.94 79.37,-0.72 79.35,0.81 79.33,2.36 79.22,4.09 79.11,5.82 78.61,7.31 78.12,8.80 77.55,10.80 76.99,12.80 76.25,14.59 75.51,16.38 74.75,17.33 73.99,18.29 72.95,18.93 71.92,19.57 69.97,19.95 68.02,20.33 66.47,20.32 64.93,20.31 63.21,20.28 61.49,20.24 60.41,20.17 59.34,20.09 57.84,19.69 56.34,19.29 55.24,19.23 54.13,19.18 52.85,18.97 51.56,18.77 50.37,18.48 49.18,18.19 47.67,17.62 46.15,17.05 44.93,16.35 43.72,15.66 42.91,14.68 42.11,13.70 41.61,12.55 41.11,11.40 40.88,10.10 40.65,8.81 40.17,6.96 39.70,5.12 39.98,3.59 40.25,2.06 38.74,1.98 37.23,1.90 36.16,1.84 35.10,1.77 33.75,1.69 32.39,1.61 31.31,1.58 30.22,1.55 29.02,1.52 27.83,1.50 26.36,1.51 24.89,1.52 23.47,1.52 22.04,1.53 20.72,1.52 19.40,1.51 17.64,1.58 15.88,1.66 14.45,1.68 13.03,1.71 11.70,1.72 10.37,1.73 9.26,1.72 8.15,1.72 6.92,1.73 5.70,1.75 4.10,1.79 2.51,1.83 1.64,2.07 0.77,2.31 0.48,2.37 0.19,2.43 -0.09,2.41 -0.39,2.40 -0.67,2.32 -0.95,2.24 -1.21,2.09 -1.46,1.94 -1.67,1.74 -1.88,1.54 -2.04,1.29 -2.20,1.04 -2.29,0.76 -2.38,0.48 -2.41,0.19 -2.43,-0.09 -2.38,-0.38 -2.34,-0.67 -2.22,-0.94 -2.11,-1.22 -1.93,-1.45 -1.75,-1.68 -1.52,-1.87 -1.30,-2.06 -1.03,-2.18 -0.77,-2.31 -0.77,-2.31 L -0.77,-2.31 Z"></path></g><g transform="translate(56 17) rotate(0 0.00005000000000165983 0.00005000000000165983)" stroke="none"><path fill="#1e1e1e" d="M 3.14,-3.14 Q 3.14,-3.14 3.55,-2.55 3.97,-1.97 4.18,-1.28 4.40,-0.59 4.38,0.11 4.36,0.83 4.11,1.51 3.86,2.18 3.41,2.74 2.96,3.30 2.36,3.69 1.75,4.07 1.05,4.25 0.36,4.42 -0.35,4.36 -1.07,4.30 -1.73,4.02 -2.39,3.74 -2.92,3.26 -3.46,2.78 -3.81,2.15 -4.16,1.53 -4.30,0.82 -4.43,0.11 -4.34,-0.59 -4.24,-1.30 -3.92,-1.94 -3.60,-2.59 -3.09,-3.09 -2.59,-3.60 -1.94,-3.92 -1.30,-4.24 -0.59,-4.34 0.12,-4.43 0.82,-4.30 1.53,-4.16 2.15,-3.81 2.78,-3.46 3.26,-2.92 3.74,-2.39 4.02,-1.73 4.31,-1.07 4.36,-0.35 4.42,0.36 4.25,1.05 4.07,1.75 3.69,2.36 3.30,2.96 2.74,3.41 2.18,3.86 1.51,4.11 0.83,4.36 0.11,4.38 -0.60,4.40 -1.28,4.18 -1.97,3.97 -2.55,3.55 -3.14,3.13 -3.14,3.14 -3.14,3.14 -3.47,2.71 -3.80,2.29 -4.02,1.80 -4.24,1.32 -4.33,0.79 -4.43,0.26 -4.40,-0.26 -4.36,-0.80 -4.20,-1.31 -4.04,-1.82 -3.77,-2.28 -3.49,-2.73 -3.11,-3.11 -2.73,-3.49 -2.28,-3.77 -1.82,-4.05 -1.31,-4.20 -0.80,-4.36 -0.26,-4.40 0.26,-4.43 0.79,-4.33 1.32,-4.24 1.80,-4.02 2.29,-3.80 2.71,-3.47 3.14,-3.14 3.14,-3.14 L 3.14,-3.14 Z"></path></g><g transform="translate(448 10) rotate(0 0.00005000000000165983 0.00005000000000165983)" stroke="none"><path fill="#1e1e1e" d="M 3.14,-3.14 Q 3.14,-3.14 3.55,-2.55 3.97,-1.97 4.18,-1.28 4.40,-0.59 4.38,0.11 4.36,0.83 4.11,1.51 3.86,2.18 3.41,2.74 2.96,3.30 2.36,3.69 1.75,4.07 1.05,4.25 0.36,4.42 -0.35,4.36 -1.07,4.30 -1.73,4.02 -2.39,3.74 -2.92,3.26 -3.46,2.78 -3.81,2.15 -4.16,1.53 -4.30,0.82 -4.43,0.11 -4.34,-0.59 -4.24,-1.30 -3.92,-1.94 -3.60,-2.59 -3.09,-3.09 -2.59,-3.60 -1.94,-3.92 -1.30,-4.24 -0.59,-4.34 0.12,-4.43 0.82,-4.30 1.53,-4.16 2.15,-3.81 2.78,-3.46 3.26,-2.92 3.74,-2.39 4.02,-1.73 4.31,-1.07 4.36,-0.35 4.42,0.36 4.25,1.05 4.07,1.75 3.69,2.36 3.30,2.96 2.74,3.41 2.18,3.86 1.51,4.11 0.83,4.36 0.11,4.38 -0.60,4.40 -1.28,4.18 -1.97,3.97 -2.55,3.55 -3.14,3.13 -3.14,3.14 -3.14,3.14 -3.47,2.71 -3.80,2.29 -4.02,1.80 -4.24,1.32 -4.33,0.79 -4.43,0.26 -4.40,-0.26 -4.36,-0.80 -4.20,-1.31 -4.04,-1.82 -3.77,-2.28 -3.49,-2.73 -3.11,-3.11 -2.73,-3.49 -2.28,-3.77 -1.82,-4.05 -1.31,-4.20 -0.80,-4.36 -0.26,-4.40 0.26,-4.43 0.79,-4.33 1.32,-4.24 1.80,-4.02 2.29,-3.80 2.71,-3.47 3.14,-3.14 3.14,-3.14 L 3.14,-3.14 Z"></path></g></svg>