<svg version="1.1" xmlns="http://www.w3.org/2000/svg" viewBox="0 0 252 200.5" width="252" height="200.5" class="excalidraw-svg"><!-- svg-source:excalidraw --><metadata></metadata><defs><style class="style-fonts">
      </style></defs><rect x="0" y="0" width="252" height="200.5" fill="#ffffff"></rect><g stroke-linecap="round" transform="translate(13.5 10) rotate(0 17.5 17.5)"><path d="M17.2 -0.4 C20.79 -0.55, 26.28 1.94, 29.21 4.4 C32.13 6.86, 34.2 10.72, 34.77 14.36 C35.33 18, 34.52 22.95, 32.59 26.22 C30.66 29.49, 26.63 32.63, 23.16 33.98 C19.69 35.33, 15.22 35.55, 11.76 34.31 C8.3 33.06, 4.25 29.84, 2.4 26.51 C0.55 23.18, -0.05 17.99, 0.66 14.33 C1.36 10.67, 3.68 6.9, 6.61 4.55 C9.53 2.2, 16.28 0.99, 18.21 0.22 C20.15 -0.55, 18.34 -0.32, 18.22 -0.07 M19.95 -0.35 C23.44 -0.01, 27.73 3.02, 30.28 6 C32.82 8.98, 35.07 13.69, 35.23 17.52 C35.38 21.35, 33.68 26.1, 31.21 28.98 C28.74 31.86, 24.13 34.26, 20.43 34.8 C16.72 35.34, 12.16 34.01, 8.99 32.24 C5.82 30.47, 2.67 27.56, 1.41 24.19 C0.16 20.82, 0.26 15.63, 1.44 12.02 C2.63 8.41, 5.49 4.54, 8.51 2.55 C11.53 0.56, 17.69 0.41, 19.58 0.08 C21.48 -0.26, 19.95 0.3, 19.86 0.52" stroke="#1e1e1e" stroke-width="2" fill="none"></path></g><g stroke-linecap="round" transform="translate(10 155.5) rotate(0 17.5 17.5)"><path d="M18.37 -0.11 C21.98 -0.06, 26.97 2.45, 29.79 5.07 C32.62 7.69, 34.87 11.99, 35.32 15.62 C35.77 19.24, 34.62 23.73, 32.48 26.81 C30.33 29.9, 26.21 33, 22.45 34.13 C18.69 35.26, 13.34 35.01, 9.91 33.58 C6.48 32.15, 3.44 28.92, 1.86 25.56 C0.29 22.21, -0.4 17.2, 0.48 13.45 C1.36 9.71, 3.97 5.33, 7.14 3.1 C10.31 0.88, 17.31 0.59, 19.52 0.11 C21.72 -0.38, 20.46 -0.11, 20.38 0.18 M16.63 0.33 C20.35 0.14, 26 1.84, 28.92 4.25 C31.85 6.66, 33.52 11.17, 34.18 14.82 C34.84 18.47, 34.71 22.92, 32.89 26.14 C31.07 29.35, 26.78 32.85, 23.26 34.12 C19.73 35.38, 15.07 34.97, 11.73 33.74 C8.38 32.52, 5.09 29.9, 3.2 26.75 C1.31 23.6, -0.08 18.64, 0.37 14.84 C0.82 11.05, 2.99 6.54, 5.88 3.98 C8.78 1.42, 15.81 0.13, 17.75 -0.5 C19.69 -1.13, 17.68 -0.18, 17.5 0.22" stroke="#1e1e1e" stroke-width="2" fill="none"></path></g><g stroke-linecap="round" transform="translate(206 10.5) rotate(0 17.5 17.5)"><path d="M18.65 0.51 C22.12 0.48, 26.5 2.58, 29.17 5.02 C31.85 7.47, 34.22 11.45, 34.71 15.18 C35.2 18.9, 34.11 24.18, 32.11 27.36 C30.12 30.55, 26.32 33.26, 22.73 34.27 C19.14 35.28, 14.11 34.95, 10.58 33.42 C7.05 31.9, 3.22 28.48, 1.54 25.12 C-0.14 21.77, -0.38 16.97, 0.5 13.28 C1.37 9.6, 3.68 5.22, 6.79 3.02 C9.9 0.81, 17.1 0.48, 19.18 0.04 C21.25 -0.41, 19.31 0, 19.23 0.33 M20.88 0.26 C24.4 0.56, 28.46 2.6, 30.86 5.39 C33.27 8.18, 35.3 13.03, 35.3 16.99 C35.29 20.94, 33.19 26.15, 30.83 29.12 C28.46 32.1, 24.72 34.22, 21.1 34.83 C17.48 35.43, 12.48 34.48, 9.1 32.75 C5.73 31.02, 2.29 27.88, 0.84 24.46 C-0.61 21.04, -0.82 15.97, 0.42 12.24 C1.66 8.51, 4.98 3.99, 8.29 2.07 C11.6 0.16, 18.3 0.87, 20.3 0.72 C22.3 0.58, 20.43 1.1, 20.29 1.2" stroke="#1e1e1e" stroke-width="2" fill="none"></path></g><g stroke-linecap="round" transform="translate(207 151.5) rotate(0 17.5 17.5)"><path d="M13.98 0.76 C17.42 -0.1, 22.82 0.58, 26.14 2.32 C29.45 4.06, 32.59 7.64, 33.86 11.2 C35.14 14.75, 35.09 20.04, 33.8 23.64 C32.52 27.23, 29.34 30.95, 26.15 32.76 C22.96 34.56, 18.27 35.05, 14.64 34.47 C11.01 33.89, 6.78 32.01, 4.36 29.3 C1.94 26.59, 0.25 22.08, 0.12 18.21 C-0.01 14.33, 1.09 9.03, 3.61 6.06 C6.12 3.09, 13.12 1.3, 15.22 0.4 C17.31 -0.51, 16.21 0.33, 16.19 0.62 M17.32 0.23 C21.07 0.05, 26.72 1.54, 29.54 4 C32.37 6.46, 33.72 11.27, 34.28 14.97 C34.84 18.67, 34.75 22.97, 32.92 26.2 C31.09 29.42, 26.97 33.18, 23.29 34.34 C19.61 35.5, 14.3 34.49, 10.86 33.16 C7.43 31.83, 4.5 29.56, 2.67 26.36 C0.84 23.17, -0.8 17.83, -0.12 14.01 C0.56 10.2, 3.75 5.93, 6.76 3.47 C9.77 1.02, 16.06 -0.26, 17.93 -0.72 C19.79 -1.19, 17.94 0.37, 17.94 0.69" stroke="#1e1e1e" stroke-width="2" fill="none"></path></g><g stroke-linecap="round"><g transform="translate(50.5 163) rotate(0 74.5 -58.5)"><path d="M-0.22 0 C24.71 -19.39, 123.95 -97.65, 148.64 -117.08 M-1.79 -1.04 C23.03 -20.17, 122.16 -95.98, 147.5 -115.58" stroke="#1e1e1e" stroke-width="2" fill="none"></path></g><g transform="translate(50.5 163) rotate(0 74.5 -58.5)"><path d="M0.97 1.63 L6.53 -13.55 L14.49 -2.68 L0.44 0.51" stroke="none" stroke-width="0" fill="#1e1e1e" fill-rule="evenodd"></path><path d="M-0.22 0 C1.38 -3.42, 2.79 -7.29, 6.55 -13.38 M-0.22 0 C2.1 -4, 4.58 -8.44, 6.55 -13.38 M6.55 -13.38 C8.57 -9.7, 11.82 -6.65, 14.39 -3.42 M6.55 -13.38 C7.97 -10.84, 9.92 -8.33, 14.39 -3.42 M14.39 -3.42 C9.69 -1.5, 2.68 -0.71, -0.22 0 M14.39 -3.42 C11.04 -2.35, 7.99 -2.02, -0.22 0 M-0.22 0 C-0.22 0, -0.22 0, -0.22 0 M-0.22 0 C-0.22 0, -0.22 0, -0.22 0" stroke="#1e1e1e" stroke-width="2" fill="none"></path></g><g transform="translate(50.5 163) rotate(0 74.5 -58.5)"><path d="M148.69 -113.96 L140.56 -102.43 L132.96 -111.59 L148.16 -115.07" stroke="none" stroke-width="0" fill="#ffffff" fill-rule="evenodd"></path><path d="M147.5 -115.58 C145.88 -113.08, 144.24 -111.01, 140.59 -102.27 M147.5 -115.58 C145.11 -110.59, 142.98 -106.03, 140.59 -102.27 M140.59 -102.27 C138.08 -104.26, 136.94 -106.87, 132.86 -112.32 M140.59 -102.27 C138.14 -104.56, 136.28 -106.94, 132.86 -112.32 M132.86 -112.32 C138.88 -112.71, 142.56 -114.37, 147.5 -115.58 M132.86 -112.32 C135.76 -112.64, 138.96 -113.74, 147.5 -115.58 M147.5 -115.58 C147.5 -115.58, 147.5 -115.58, 147.5 -115.58 M147.5 -115.58 C147.5 -115.58, 147.5 -115.58, 147.5 -115.58" stroke="#1e1e1e" stroke-width="2" fill="none"></path></g></g><mask></mask><g stroke-linecap="round"><g transform="translate(52.5 43) rotate(0 75 64.5)"><path d="M0.57 0.85 C25.67 22.33, 124.66 107.07, 149.56 128.47 M-0.59 0.25 C24.4 21.93, 123.41 107.99, 148.38 129.73" stroke="#1e1e1e" stroke-width="2" fill="none"></path></g><g transform="translate(52.5 43) rotate(0 75 64.5)"><path d="M125.05 120.76 C131.42 121.84, 134.11 124.48, 148.38 129.73 M125.05 120.76 C132.71 123.05, 140.9 127.46, 148.38 129.73" stroke="#1e1e1e" stroke-width="2" fill="none"></path></g><g transform="translate(52.5 43) rotate(0 75 64.5)"><path d="M136.27 107.86 C140.19 111.75, 140.48 117.16, 148.38 129.73 M136.27 107.86 C140.32 114.22, 144.92 122.77, 148.38 129.73" stroke="#1e1e1e" stroke-width="2" fill="none"></path></g></g><mask></mask></svg>