<svg version="1.1" xmlns="http://www.w3.org/2000/svg" viewBox="0 0 1177.4790765166283 697.8400585872029" width="1177.4790765166283" height="697.8400585872029" class="excalidraw-svg"><!-- svg-source:excalidraw --><metadata></metadata><defs><style class="style-fonts">
      </style></defs><rect x="0" y="0" width="1177.4790765166283" height="697.8400585872029" fill="#ffffff"></rect><g stroke-linecap="round"><g transform="translate(10.37000790052116 344.7171662002243) rotate(0 578 -2.5)"><path d="M-0.37 0.15 C192.39 -0.66, 964.29 -5.29, 1157.11 -5.95 M1.64 -0.82 C194.29 -1.41, 964.34 -4.13, 1156.74 -4.91" stroke="#1e1e1e" stroke-width="2" fill="none"></path></g><g transform="translate(10.37000790052116 344.7171662002243) rotate(0 578 -2.5)"><path d="M1133.28 3.73 C1141.67 2.68, 1147.9 -1.24, 1156.74 -4.91 M1133.28 3.73 C1141.74 0.32, 1152.62 -4.19, 1156.74 -4.91" stroke="#1e1e1e" stroke-width="2" fill="none"></path></g><g transform="translate(10.37000790052116 344.7171662002243) rotate(0 578 -2.5)"><path d="M1133.22 -13.37 C1141.47 -8.54, 1147.72 -6.59, 1156.74 -4.91 M1133.22 -13.37 C1141.65 -9.95, 1152.55 -7.63, 1156.74 -4.91" stroke="#1e1e1e" stroke-width="2" fill="none"></path></g></g><mask></mask><g stroke-linecap="round"><g transform="translate(161.37000790052116 482.7171662002243) rotate(0 0 -230.5)"><path d="M0.38 0.14 C0.55 -76.87, 1.07 -384.82, 1.16 -461.83 M-0.87 -0.84 C-0.78 -77.74, 0.57 -384.02, 0.81 -460.73" stroke="#1e1e1e" stroke-width="2" fill="none"></path></g><g transform="translate(161.37000790052116 482.7171662002243) rotate(0 0 -230.5)"><path d="M9.27 -437.21 C6.79 -442.65, 2.52 -450.46, 0.81 -460.73 M9.27 -437.21 C8.39 -442.37, 4.97 -447.64, 0.81 -460.73" stroke="#1e1e1e" stroke-width="2" fill="none"></path></g><g transform="translate(161.37000790052116 482.7171662002243) rotate(0 0 -230.5)"><path d="M-7.83 -437.27 C-4.93 -442.75, -3.82 -450.54, 0.81 -460.73 M-7.83 -437.27 C-4.94 -442.58, -4.58 -447.83, 0.81 -460.73" stroke="#1e1e1e" stroke-width="2" fill="none"></path></g></g><mask></mask><g stroke-linecap="round"><g transform="translate(165.37000790052116 331.7171662002243) rotate(0 443.5 10)"><path d="M0.1 -0.44 C14.84 -44.97, 32.22 -223.15, 87.52 -267.12 C142.82 -311.1, 249.04 -356.51, 331.88 -264.32 C414.72 -172.12, 506.66 194.35, 584.55 286.03 C662.45 377.71, 748.68 335.8, 799.26 285.77 C849.84 235.74, 873.32 36.15, 888.04 -14.16 M-1.3 -1.72 C13.31 -46.06, 30.84 -221.56, 86.32 -265.65 C141.8 -309.75, 248.54 -358.35, 331.58 -266.3 C414.62 -174.26, 506.32 194.56, 584.57 286.62 C662.81 378.68, 750.77 336.27, 801.06 286.04 C851.36 235.81, 871.76 35.31, 886.34 -14.76" stroke="#1e1e1e" stroke-width="2" fill="none"></path></g></g><mask></mask><g stroke-linecap="round"><g transform="translate(500.37000790052116 9.717166200224312) rotate(0 -2.5 337)"><path d="M0.47 0.87 C-0.31 113.48, -3.02 562.93, -3.81 675.05 M-0.75 0.28 C-1.65 112.62, -3.47 561.08, -4.13 673.48" stroke="#1e1e1e" stroke-width="2" fill="none"></path></g></g><mask></mask><g stroke-linecap="round"><g transform="translate(774.2020386607107 14.05187460715888) rotate(0 -2.5 337)"><path d="M-0.13 -0.95 C-1.29 111.25, -5.15 560.49, -6.11 672.85 M-1.65 1.16 C-2.53 113.5, -3.67 561.63, -3.99 673.79" stroke="#1e1e1e" stroke-width="2" fill="none"></path></g></g><mask></mask></svg>