<svg version="1.1" xmlns="http://www.w3.org/2000/svg" viewBox="0 0 789 651" width="789" height="651" class="excalidraw-svg"><!-- svg-source:excalidraw --><metadata></metadata><defs><style class="style-fonts">
      </style></defs><rect x="0" y="0" width="789" height="651" fill="#ffffff"></rect><g stroke-linecap="round" transform="translate(10 10) rotate(0 384.5 315.5)"><path d="M7.86 8.16 C7.86 8.16, 7.86 8.16, 7.86 8.16 M7.86 8.16 C7.86 8.16, 7.86 8.16, 7.86 8.16 M6.68 21.71 C9.78 17.4, 15.61 9.4, 21.12 5.11 M6.68 21.71 C12.44 15.73, 18.46 9.05, 21.12 5.11 M4.85 36.01 C16.65 23.92, 25.15 12.92, 34.37 2.05 M4.85 36.01 C13.53 26.51, 21.28 16.81, 34.37 2.05 M4.98 48.06 C16.68 36.55, 24.09 26.91, 45 2.02 M4.98 48.06 C16.04 36.17, 24.61 26.14, 45 2.02 M4.46 60.85 C13.55 47.8, 24.02 37.27, 55.63 1.98 M4.46 60.85 C20.56 40.64, 37.56 21.48, 55.63 1.98 M4.59 72.89 C28.05 45.27, 47.73 22.32, 66.26 1.95 M4.59 72.89 C29.03 45.88, 53.17 16.71, 66.26 1.95 M4.72 84.93 C23.01 61.64, 42.51 38.82, 76.89 1.91 M4.72 84.93 C31.06 54.94, 56.7 25.07, 76.89 1.91 M4.86 96.97 C23.42 75.91, 39.85 56.62, 87.52 1.88 M4.86 96.97 C37.18 60.71, 68.63 23.19, 87.52 1.88 M4.99 109.01 C38.36 73.73, 70 33.13, 98.15 1.85 M4.99 109.01 C30.32 79.37, 53.83 51.8, 98.15 1.85 M4.47 121.81 C44.34 75.4, 86.63 28.36, 108.78 1.81 M4.47 121.81 C27.96 94.95, 51.55 66.57, 108.78 1.81 M4.6 133.85 C35.12 97.77, 64.48 65.26, 119.41 1.78 M4.6 133.85 C41.86 93.18, 75.78 53.07, 119.41 1.78 M4.73 145.89 C53.77 89.53, 101.93 33.41, 130.04 1.74 M4.73 145.89 C46.61 97.89, 89.62 48.18, 130.04 1.74 M4.87 157.93 C46.47 111.8, 86.46 64.36, 140.67 1.71 M4.87 157.93 C51.78 101.06, 101.01 46.79, 140.67 1.71 M5 169.97 C58.43 108.19, 111.76 47.22, 150.65 2.43 M5 169.97 C62.5 105.73, 118.6 40.94, 150.65 2.43 M4.48 182.77 C59.28 117.63, 118.27 52, 161.28 2.39 M4.48 182.77 C40.29 141.05, 75.27 99.42, 161.28 2.39 M4.61 194.81 C44.64 148.14, 83.35 103.29, 171.91 2.36 M4.61 194.81 C46.76 146.59, 89.12 97.74, 171.91 2.36 M4.74 206.85 C45.87 160.46, 84.8 111.79, 182.54 2.32 M4.74 206.85 C71.63 128.99, 138.17 52.22, 182.54 2.32 M4.88 218.89 C65.17 150.46, 123.6 82.6, 193.17 2.29 M4.88 218.89 C56.58 158.32, 109.33 97.95, 193.17 2.29 M5.01 230.93 C61.33 168.57, 115.49 106.59, 203.8 2.26 M5.01 230.93 C78.28 144.78, 152.62 59.88, 203.8 2.26 M4.49 243.73 C68.79 167.55, 135.81 92.57, 214.43 2.22 M4.49 243.73 C47.8 192.81, 91.33 142.86, 214.43 2.22 M4.62 255.77 C84.12 162.72, 165.92 69.08, 225.06 2.19 M4.62 255.77 C56.99 197.17, 109.65 136.93, 225.06 2.19 M4.75 267.81 C83 179.09, 161.04 86.77, 235.69 2.15 M4.75 267.81 C62.67 200.85, 120.6 134.11, 235.69 2.15 M4.89 279.85 C94.45 177.45, 182.88 74.52, 246.32 2.12 M4.89 279.85 C78.73 194.36, 154.22 107.01, 246.32 2.12 M5.02 291.89 C70.47 212.17, 138.26 135.74, 256.95 2.08 M5.02 291.89 C56.49 232.35, 109.59 172.47, 256.95 2.08 M4.5 304.69 C65.54 234.5, 123.94 167.26, 267.58 2.05 M4.5 304.69 C104.57 191.57, 204.11 76.9, 267.58 2.05 M4.63 316.73 C61.7 251.28, 117.78 186.98, 278.21 2.01 M4.63 316.73 C102.17 202.67, 201.37 89.07, 278.21 2.01 M4.76 328.77 C85.71 237.13, 164.87 144.4, 288.84 1.98 M4.76 328.77 C100.12 216.3, 197.54 104.5, 288.84 1.98 M4.9 340.81 C67.9 267.8, 131.2 195.65, 299.47 1.94 M4.9 340.81 C118.24 211.53, 229.09 83.74, 299.47 1.94 M5.03 352.85 C120.94 220.43, 235.44 88.54, 310.1 1.91 M5.03 352.85 C113.93 228.22, 221.42 104.72, 310.1 1.91 M4.51 365.65 C124.42 227.05, 243.61 89.52, 320.73 1.88 M4.51 365.65 C70.11 289.04, 135.18 214.5, 320.73 1.88 M4.64 377.69 C113.66 250.1, 224.73 123.71, 331.36 1.84 M4.64 377.69 C98.06 270.18, 191.15 163.87, 331.36 1.84 M4.77 389.73 C116.61 258.11, 230.6 129, 341.99 1.81 M4.77 389.73 C130.22 244.18, 255.98 98.96, 341.99 1.81 M4.91 401.77 C105.38 286.79, 205.31 172.73, 352.62 1.77 M4.91 401.77 C91.81 302.16, 177.82 203.85, 352.62 1.77 M5.04 413.81 C138.15 261.29, 270.28 109.75, 363.25 1.74 M5.04 413.81 C111.72 290.84, 218.43 169.08, 363.25 1.74 M4.52 426.6 C126.31 287.09, 249.73 146.41, 373.88 1.7 M4.52 426.6 C109.76 306.27, 214.17 186.15, 373.88 1.7 M4.65 438.65 C116.74 310.6, 228.96 181.01, 383.85 2.42 M4.65 438.65 C144.74 275.56, 284.91 114.29, 383.85 2.42 M4.78 450.69 C111.47 325.31, 221.59 200.59, 394.48 2.39 M4.78 450.69 C110.58 329.39, 215.47 208.81, 394.48 2.39 M4.92 462.73 C159.89 284.64, 314.28 107.48, 405.11 2.35 M4.92 462.73 C116.59 337.59, 226.28 210.81, 405.11 2.35 M5.05 474.77 C137.72 320.61, 273.52 165.19, 415.74 2.32 M5.05 474.77 C94.14 375.81, 180.35 275.85, 415.74 2.32 M4.53 487.56 C103.47 370.97, 203.86 256.33, 426.37 2.29 M4.53 487.56 C120.19 356.6, 234.71 225.11, 426.37 2.29 M4.66 499.6 C162.82 316.49, 320.07 134.28, 437 2.25 M4.66 499.6 C157.93 325.45, 309.96 150.19, 437 2.25 M4.79 511.65 C139.17 356.58, 272.78 203.15, 447.63 2.22 M4.79 511.65 C138.63 354.38, 273.98 199.79, 447.63 2.22 M4.93 523.69 C130.7 381.56, 254.56 238.04, 458.26 2.18 M4.93 523.69 C123.87 385.74, 244.54 246.78, 458.26 2.18 M5.06 535.73 C176.79 339.19, 347.16 141.48, 468.89 2.15 M5.06 535.73 C144.84 372.6, 285.76 211.07, 468.89 2.15 M4.54 548.52 C114.2 425.37, 221.87 300.67, 479.52 2.11 M4.54 548.52 C174.33 352.53, 343.98 158.12, 479.52 2.11 M4.67 560.56 C134.23 411.95, 265.09 260.72, 490.15 2.08 M4.67 560.56 C138.16 407.44, 272.43 252.68, 490.15 2.08 M4.8 572.6 C198.11 349.75, 391.76 127.4, 500.78 2.04 M4.8 572.6 C186.69 364.77, 368.66 155.79, 500.78 2.04 M4.93 584.65 C198.39 363.08, 389.83 143.8, 511.41 2.01 M4.93 584.65 C116 456.78, 227.86 328.73, 511.41 2.01 M1.79 600.46 C117.32 467.59, 232.93 335.23, 522.04 1.98 M1.79 600.46 C142.39 440.04, 280.58 280.63, 522.04 1.98 M3.23 610.99 C168.88 421.62, 334.78 230.57, 532.67 1.94 M3.23 610.99 C111.58 486.4, 221.21 360.24, 532.67 1.94 M7.96 617.75 C207.33 392.44, 406.03 164.69, 543.3 1.91 M7.96 617.75 C198.96 396.81, 391.78 175.37, 543.3 1.91 M11.37 626.02 C136.99 482.65, 262.55 338.17, 553.93 1.87 M11.37 626.02 C170.24 440.29, 332.17 253.89, 553.93 1.87 M18.72 629.76 C227.98 391.45, 434.3 152.88, 564.56 1.84 M18.72 629.76 C228.73 384.96, 440.19 141.48, 564.56 1.84 M28.04 631.23 C211.24 421, 393.23 210.94, 575.19 1.8 M28.04 631.23 C153.99 484.12, 281.85 336.63, 575.19 1.8 M36.05 634.21 C248.63 393.5, 457.94 151.76, 585.82 1.77 M36.05 634.21 C154.48 497.06, 274.77 358.36, 585.82 1.77 M46.68 634.18 C246.47 403.1, 446.9 171.8, 596.45 1.73 M46.68 634.18 C230.81 419.46, 418.08 204.48, 596.45 1.73 M57.31 634.15 C170.42 501.76, 283.56 371.17, 607.08 1.7 M57.31 634.15 C250.72 409.17, 446.53 184.12, 607.08 1.7 M67.94 634.11 C236.56 441.35, 405.45 247.62, 617.06 2.42 M67.94 634.11 C188.93 495.26, 311.34 354.4, 617.06 2.42 M78.57 634.08 C229.35 461.62, 378.25 291.66, 627.69 2.38 M78.57 634.08 C207.73 485.15, 337.26 335.33, 627.69 2.38 M89.2 634.04 C250.28 448.48, 410.74 265.25, 638.32 2.35 M89.2 634.04 C239.12 460.55, 389.18 288.13, 638.32 2.35 M99.17 634.76 C257.64 452.85, 414.99 272.33, 648.95 2.32 M99.17 634.76 C278.36 427.85, 460.07 218.42, 648.95 2.32 M109.8 634.73 C265.87 454.19, 422.37 273.42, 659.58 2.28 M109.8 634.73 C311.8 404.88, 512.26 174.09, 659.58 2.28 M120.43 634.69 C315.74 409.96, 510.77 185.43, 670.21 2.25 M120.43 634.69 C252.63 486.51, 382.91 335.5, 670.21 2.25 M131.06 634.66 C242.28 507, 351.35 380.24, 680.84 2.21 M131.06 634.66 C323.91 411.6, 518.06 188.94, 680.84 2.21 M141.69 634.62 C293.54 460.77, 444.68 285.98, 691.47 2.18 M141.69 634.62 C356.91 384.5, 573.6 135.2, 691.47 2.18 M152.32 634.59 C365.62 386.86, 580.71 138.96, 702.1 2.14 M152.32 634.59 C358.58 397.98, 564.05 161.17, 702.1 2.14 M162.95 634.56 C291.73 488.35, 418.43 341.58, 712.73 2.11 M162.95 634.56 C363.56 401.76, 565.19 169.57, 712.73 2.11 M173.58 634.52 C368.41 411.85, 561.29 187.28, 723.36 2.07 M173.58 634.52 C366.23 413.15, 559.65 190.85, 723.36 2.07 M184.21 634.49 C353.46 443.95, 521.37 251.82, 733.99 2.04 M184.21 634.49 C379.31 407.76, 574.85 182.13, 733.99 2.04 M194.84 634.45 C321.48 494.69, 444.07 352.32, 742.65 4.27 M194.84 634.45 C356.75 451.69, 515.68 268.43, 742.65 4.27 M205.47 634.42 C404.84 403.29, 605.61 173.43, 753.28 4.24 M205.47 634.42 C368.89 449.49, 530.44 263.4, 753.28 4.24 M216.1 634.38 C373.03 454.02, 530.61 274.07, 760.63 7.97 M216.1 634.38 C422.04 399.65, 626.81 163.61, 760.63 7.97 M226.73 634.35 C432.06 399.57, 639.12 162.09, 766.67 13.22 M226.73 634.35 C417.03 419.29, 606.13 201.48, 766.67 13.22 M237.36 634.31 C377.81 473.41, 519.39 310.17, 770.74 20.74 M237.36 634.31 C388.2 462.31, 537.64 290.77, 770.74 20.74 M247.99 634.28 C407.09 451.44, 566.86 266.49, 770.21 33.53 M247.99 634.28 C359.89 502.9, 475.08 370.67, 770.21 33.53 M258.62 634.25 C374.06 506.18, 486.65 376.39, 770.35 45.57 M258.62 634.25 C389.72 484.37, 518.55 335.07, 770.35 45.57 M269.25 634.21 C464.38 408.72, 659.73 184.39, 770.48 57.61 M269.25 634.21 C386.22 496.78, 504.01 361.95, 770.48 57.61 M279.88 634.18 C408.98 487.5, 538 338.81, 770.61 69.65 M279.88 634.18 C391.2 502.45, 505.24 371.88, 770.61 69.65 M290.51 634.14 C421.37 485.79, 549.43 336.23, 770.75 81.69 M290.51 634.14 C414.18 491.34, 539.19 347.29, 770.75 81.69 M301.14 634.11 C409.93 508.27, 522 381.31, 770.22 94.49 M301.14 634.11 C458.12 452.5, 615.04 272.54, 770.22 94.49 M311.77 634.07 C441.91 486.43, 571.51 338.35, 770.36 106.53 M311.77 634.07 C493.61 427.53, 674.05 219.31, 770.36 106.53 M322.4 634.04 C430.35 513.64, 536.51 390.92, 770.49 118.57 M322.4 634.04 C484.35 447.09, 646.37 261.42, 770.49 118.57 M332.38 634.76 C486.36 458.92, 640.49 280.84, 770.62 130.61 M332.38 634.76 C447.57 500.82, 563.62 366.25, 770.62 130.61 M343.01 634.72 C471.16 488.55, 598.51 340.5, 770.76 142.65 M343.01 634.72 C471.41 488.56, 598.44 342.16, 770.76 142.65 M353.64 634.69 C475.31 492.09, 598.73 352.01, 770.23 155.45 M353.64 634.69 C492.66 471.95, 633.41 310.42, 770.23 155.45 M364.27 634.65 C486.12 496.3, 606.68 357.72, 770.37 167.49 M364.27 634.65 C448.35 536.27, 532.56 439.64, 770.37 167.49 M374.9 634.62 C503.39 488.48, 629.46 343.51, 770.5 179.53 M374.9 634.62 C456.09 540.09, 537.44 446.31, 770.5 179.53 M385.53 634.59 C480.98 524.72, 576.11 415.67, 770.63 191.57 M385.53 634.59 C517.96 482.23, 650.74 329.73, 770.63 191.57 M396.16 634.55 C521.26 491.57, 644.16 348.69, 770.77 203.61 M396.16 634.55 C506.93 506.58, 618.65 377.99, 770.77 203.61 M406.79 634.52 C482.31 547.16, 558.37 458.5, 770.24 216.41 M406.79 634.52 C491.88 536.82, 577.81 437.67, 770.24 216.41 M417.42 634.48 C494.78 546.5, 571.45 456.53, 770.38 228.45 M417.42 634.48 C549.59 482.92, 681.93 330, 770.38 228.45 M428.05 634.45 C563.91 479.17, 697.71 323.67, 770.51 240.49 M428.05 634.45 C497.47 555.74, 567.09 475.64, 770.51 240.49 M438.68 634.41 C563.73 492.87, 688.07 348.7, 770.64 252.53 M438.68 634.41 C515.17 544.51, 592.45 454.78, 770.64 252.53 M449.31 634.38 C524.76 546.5, 598.85 459.58, 770.78 264.57 M449.31 634.38 C526.54 545.19, 604.14 456.36, 770.78 264.57 M459.94 634.34 C575.68 500.43, 692.1 367.97, 770.25 277.37 M459.94 634.34 C583.04 491.93, 707.4 350.46, 770.25 277.37 M470.57 634.31 C568.33 522.87, 665.33 409.58, 770.39 289.41 M470.57 634.31 C567.11 520.65, 665.06 407.32, 770.39 289.41 M481.2 634.28 C562.44 539.99, 644.24 445.93, 770.52 301.45 M481.2 634.28 C546.69 557.3, 612.18 480.25, 770.52 301.45 M491.83 634.24 C574.8 540.75, 655.71 447.24, 770.65 313.49 M491.83 634.24 C585.33 528.74, 677.21 423.06, 770.65 313.49 M502.46 634.21 C600.03 520.94, 698.96 408.94, 770.13 326.28 M502.46 634.21 C560.23 566.5, 619.61 498.96, 770.13 326.28 M513.09 634.17 C591.01 543.44, 670.46 451.87, 770.26 338.33 M513.09 634.17 C588.64 546.9, 663.86 460.1, 770.26 338.33 M523.72 634.14 C618.43 522.89, 714.03 414.91, 770.4 350.37 M523.72 634.14 C595.19 551.6, 668.36 468.18, 770.4 350.37 M534.35 634.1 C623.34 529.74, 713.76 425.71, 770.53 362.41 M534.35 634.1 C614.76 539.93, 697.29 445.03, 770.53 362.41 M544.98 634.07 C608.24 561.73, 670.17 486.83, 770.66 374.45 M544.98 634.07 C616.98 552.7, 686.73 471.81, 770.66 374.45 M555.61 634.03 C612.74 566.19, 673.59 498.74, 770.14 387.24 M555.61 634.03 C599.25 584.75, 642.85 534.37, 770.14 387.24 M565.58 634.75 C624.02 565.62, 683.64 497.48, 770.27 399.28 M565.58 634.75 C640.86 548.85, 714.6 463.88, 770.27 399.28 M576.21 634.72 C649.64 548.47, 725.29 461.94, 770.41 411.33 M576.21 634.72 C625.66 577.12, 676.97 519.44, 770.41 411.33 M586.84 634.69 C631.56 584.37, 678.68 530, 770.54 423.37 M586.84 634.69 C637.28 577.12, 686.93 520.02, 770.54 423.37 M597.47 634.65 C639.96 586.41, 680.74 537.62, 770.67 435.41 M597.47 634.65 C645.15 577.09, 696.31 520.12, 770.67 435.41 M608.1 634.62 C653.05 582.82, 698.78 532.18, 770.15 448.2 M608.1 634.62 C653.41 579.21, 700.44 525.18, 770.15 448.2 M618.73 634.58 C657.36 594.4, 692.93 552.15, 770.28 460.24 M618.73 634.58 C672.74 573.82, 724.61 512.19, 770.28 460.24 M629.36 634.55 C671.18 585.79, 714.28 539.6, 770.41 472.28 M629.36 634.55 C659.62 599.49, 689.84 565.44, 770.41 472.28 M639.99 634.51 C680.28 589.92, 721.37 544.22, 770.55 484.33 M639.99 634.51 C679 588.56, 717.15 544.34, 770.55 484.33 M650.62 634.48 C688.13 593.2, 725.37 548.73, 770.68 496.37 M650.62 634.48 C681.23 597.45, 712.86 561.83, 770.68 496.37 M661.25 634.44 C705.81 584.74, 748.83 536.05, 770.16 509.16 M661.25 634.44 C687.3 605.33, 714.52 574.18, 770.16 509.16 M671.88 634.41 C704.83 600.04, 735.52 561.75, 770.29 521.2 M671.88 634.41 C710.43 589.61, 749.25 545.56, 770.29 521.2 M682.51 634.37 C702.9 614, 721.4 592.23, 770.42 533.24 M682.51 634.37 C708.11 604.44, 736.01 574.06, 770.42 533.24 M693.14 634.34 C710.48 614.66, 724.27 597.1, 770.56 545.28 M693.14 634.34 C723.13 598.51, 752.61 565.4, 770.56 545.28 M703.77 634.31 C725.4 608.04, 745.52 585.24, 770.69 557.33 M703.77 634.31 C721.45 612.74, 740.34 591.97, 770.69 557.33 M714.4 634.27 C729.9 617.15, 747.94 598.63, 770.17 570.12 M714.4 634.27 C735.33 610.76, 754.84 586.44, 770.17 570.12 M725.03 634.24 C733.43 621.48, 746.1 609.9, 770.3 582.16 M725.03 634.24 C738.56 616.37, 752.98 600.38, 770.3 582.16 M737.63 631.94 C747.74 622.54, 756.03 610.14, 770.43 594.2 M737.63 631.94 C746.41 620.48, 758.08 608.85, 770.43 594.2 M750.23 629.64 C756.05 621.98, 759.72 617.77, 773.19 603.22 M750.23 629.64 C757.94 620.98, 764.82 612.47, 773.19 603.22" stroke="#e9ecef" stroke-width="1" fill="none"></path><path d="M32 0 C220.77 -3.28, 409.88 -3.09, 737 0 M32 0 C254.99 1.68, 477.65 1.94, 737 0 M737 0 C758.55 0.92, 767.14 8.78, 769 32 M737 0 C757.81 -0.95, 770.97 12.96, 769 32 M769 32 C766.4 200.59, 767.1 371.1, 769 599 M769 32 C766.78 170.27, 767.09 308.44, 769 599 M769 599 C768.78 621.01, 756.58 631.04, 737 631 M769 599 C766.7 618.47, 759.03 632.5, 737 631 M737 631 C482.51 632.39, 229.11 632.32, 32 631 M737 631 C478.94 633.89, 220.86 633.29, 32 631 M32 631 C10.95 632.65, 1.57 618.82, 0 599 M32 631 C9.3 630.13, -1.15 619.24, 0 599 M0 599 C-0.41 420.69, 0.67 241.08, 0 32 M0 599 C-1.51 434.83, -1.24 269.96, 0 32 M0 32 C0.92 10.04, 10.53 -1.31, 32 0 M0 32 C1.5 9.08, 11.69 -0.43, 32 0" stroke="#1e1e1e" stroke-width="2" fill="none"></path></g><g stroke-linecap="round" transform="translate(111 132.312848567944) rotate(0 92.49999999999999 20.470827793195184)"><path d="M59.99 2.14 C71.41 0.98, 87.86 0.86, 101.38 1.02 C114.89 1.18, 129.57 1.85, 141.1 3.08 C152.62 4.31, 163.47 5.96, 170.5 8.38 C177.54 10.81, 181.75 14.4, 183.3 17.64 C184.86 20.87, 183.76 24.94, 179.86 27.79 C175.96 30.63, 169.29 32.86, 159.91 34.7 C150.53 36.55, 136.45 37.98, 123.58 38.87 C110.7 39.76, 95.85 40.05, 82.67 40.04 C69.48 40.02, 55.86 40.3, 44.48 38.76 C33.1 37.22, 21.57 33.53, 14.39 30.79 C7.21 28.05, 2.93 25.1, 1.41 22.31 C-0.11 19.51, 1.01 16.7, 5.26 14 C9.52 11.31, 16.47 8.47, 26.92 6.11 C37.36 3.76, 59.9 0.93, 67.94 -0.12 C75.98 -1.18, 74.92 -0.74, 75.14 -0.22 M123.14 -0.26 C135.36 0.03, 147.35 2.77, 156.62 5.23 C165.89 7.7, 173.93 11.39, 178.73 14.51 C183.53 17.64, 186.73 21.08, 185.4 23.99 C184.06 26.91, 178.09 29.94, 170.74 31.98 C163.38 34.02, 152.41 34.55, 141.28 36.22 C130.15 37.9, 116.83 41.61, 103.95 42.03 C91.06 42.45, 76.82 39.98, 63.97 38.72 C51.11 37.47, 36.7 36.52, 26.83 34.52 C16.96 32.51, 9.09 29.42, 4.74 26.7 C0.38 23.98, -0.62 21.24, 0.71 18.2 C2.05 15.17, 5.68 10.86, 12.76 8.5 C19.84 6.13, 31.96 5.42, 43.18 4.01 C54.41 2.59, 66.78 0.66, 80.11 0 C93.44 -0.65, 116.29 -0.41, 123.15 0.06 C130.01 0.52, 121.81 2.29, 121.27 2.8" stroke="#1e1e1e" stroke-width="2" fill="none"></path></g><g stroke-linecap="round"><g transform="translate(251.258152173913 165.9281026283487) rotate(0 -2.2622282608695627 5.171577547754566)"><path d="M-0.39 0.09 C-1.53 0.84, -8 3.13, -7.36 4.84 C-6.71 6.54, 1.69 9.34, 3.5 10.32 M0.41 -0.34 C-0.74 0.44, -8.19 3.49, -7.69 5.37 C-7.19 7.24, 1.75 10.18, 3.4 10.9" stroke="#1e1e1e" stroke-width="2" fill="none"></path></g></g><mask></mask><g stroke-linecap="round"><g transform="translate(208 212) rotate(0 1.4210854715202004e-14 -65)"><path d="M0.4 -0.72 C0.72 -22.43, 0.94 -108.63, 1.06 -130.06 M-0.84 1.51 C-0.52 -20.01, 0.37 -106.43, 0.66 -128.55" stroke="#1e1e1e" stroke-width="2" fill="none"></path></g><g transform="translate(208 212) rotate(0 1.4210854715202004e-14 -65)"><path d="M8.94 -104.96 C5.8 -108.59, 5.01 -113.92, 0.66 -128.55 M8.94 -104.96 C5 -114.37, 2.72 -122.36, 0.66 -128.55" stroke="#1e1e1e" stroke-width="2" fill="none"></path></g><g transform="translate(208 212) rotate(0 1.4210854715202004e-14 -65)"><path d="M-8.16 -105.16 C-7.38 -108.8, -4.24 -114.08, 0.66 -128.55 M-8.16 -105.16 C-5.93 -114.58, -2.05 -122.49, 0.66 -128.55" stroke="#1e1e1e" stroke-width="2" fill="none"></path></g></g><mask></mask><g stroke-linecap="round" transform="translate(195.7969732620969 142.69709611431676) rotate(0 9.703026737903087 9.703026737903087)"><path d="M8.43 -0.26 C10.42 -0.68, 12.96 0.58, 14.64 1.69 C16.33 2.81, 17.77 4.47, 18.53 6.42 C19.29 8.37, 19.89 11.4, 19.21 13.4 C18.52 15.4, 16.35 17.45, 14.44 18.42 C12.52 19.38, 9.8 19.57, 7.7 19.2 C5.61 18.82, 3.18 17.71, 1.84 16.14 C0.5 14.57, -0.42 11.86, -0.34 9.77 C-0.27 7.67, 0.87 5.23, 2.28 3.59 C3.69 1.95, 6.95 0.47, 8.13 -0.09 C9.32 -0.65, 9.31 -0.04, 9.41 0.21 M10.71 -0.09 C12.82 -0.08, 15.42 0.9, 16.93 2.35 C18.44 3.81, 19.57 6.54, 19.77 8.66 C19.98 10.78, 19.47 13.27, 18.18 15.06 C16.88 16.85, 14.08 18.88, 12.02 19.39 C9.95 19.9, 7.51 18.99, 5.81 18.11 C4.11 17.22, 2.85 15.83, 1.82 14.07 C0.78 12.32, -0.8 9.55, -0.4 7.57 C0 5.59, 2.39 3.36, 4.2 2.19 C6.01 1.02, 9.51 0.91, 10.47 0.54 C11.44 0.16, 10.01 -0.14, 10 -0.04" stroke="none" stroke-width="0" fill="#ffd8a8"></path><path d="M12.15 -0.21 C13.98 0.1, 15.83 1.97, 17.01 3.78 C18.18 5.6, 19.14 8.59, 19.18 10.68 C19.23 12.77, 18.73 14.97, 17.27 16.34 C15.81 17.72, 12.66 18.75, 10.43 18.93 C8.21 19.11, 5.6 18.42, 3.93 17.41 C2.26 16.41, 0.97 14.89, 0.4 12.89 C-0.17 10.9, -0.37 7.49, 0.5 5.45 C1.38 3.41, 3.64 1.5, 5.66 0.65 C7.69 -0.19, 11.4 0.38, 12.66 0.38 C13.91 0.38, 13.26 0.57, 13.2 0.65 M9.97 0.49 C12.15 0.59, 14.8 1.8, 16.42 2.95 C18.05 4.1, 19.51 5.5, 19.73 7.39 C19.95 9.28, 18.94 12.29, 17.75 14.28 C16.56 16.27, 14.42 18.46, 12.59 19.33 C10.76 20.2, 8.71 20.26, 6.78 19.52 C4.85 18.78, 2.2 16.95, 1 14.91 C-0.2 12.86, -0.87 9.24, -0.44 7.24 C0 5.23, 1.81 4.16, 3.61 2.86 C5.4 1.56, 9.39 -0.07, 10.34 -0.57 C11.29 -1.06, 9.46 -0.29, 9.3 -0.09" stroke="#1e1e1e" stroke-width="2" fill="none"></path></g><g stroke-linecap="round"><g transform="translate(200.82817231138006 152.75949421288283) rotate(0 5.031199049283046 0)"><path d="M0.51 0.33 C2.11 0.38, 8.62 0.39, 10.12 0.25 M0.11 0.03 C1.6 -0.08, 7.97 -0.55, 9.72 -0.58" stroke="#1e1e1e" stroke-width="2" fill="none"></path></g></g><mask></mask><g stroke-linecap="round"><g transform="translate(205.8593713606631 148.0876665242629) rotate(0 0 4.492142008288468)"><path d="M0.04 0.16 C-0.07 1.57, -0.31 7.2, -0.33 8.65 M-0.37 -0.06 C-0.4 1.36, 0.29 7.39, 0.3 8.93" stroke="#1e1e1e" stroke-width="2" fill="none"></path></g></g><mask></mask><g stroke-linecap="round" transform="translate(264.5075415237718 161.95936838813623) rotate(0 5.976803816717535 5.976803816717535)"><path d="M7.35 0.3 C8.62 0.47, 9.76 1.36, 10.51 2.28 C11.25 3.21, 11.83 4.54, 11.8 5.84 C11.76 7.13, 11.13 9.02, 10.3 10.06 C9.46 11.1, 7.99 11.83, 6.78 12.07 C5.56 12.3, 4.12 12.14, 2.99 11.45 C1.86 10.77, 0.35 9.2, -0.02 7.96 C-0.38 6.72, 0.31 5.14, 0.8 4.01 C1.3 2.88, 1.89 1.85, 2.95 1.19 C4.01 0.52, 6.51 0.13, 7.17 0.04 C7.83 -0.06, 6.96 0.44, 6.91 0.62 M5.85 0.14 C6.89 0.01, 7.94 0.92, 8.9 1.56 C9.86 2.2, 11.09 2.81, 11.62 3.97 C12.15 5.13, 12.73 7.26, 12.09 8.5 C11.45 9.75, 9.01 10.86, 7.78 11.43 C6.55 12, 5.79 12.19, 4.72 11.93 C3.65 11.67, 2.15 10.99, 1.35 9.85 C0.54 8.72, -0.24 6.46, -0.12 5.12 C0.01 3.78, 1.28 2.56, 2.12 1.83 C2.96 1.1, 4.41 0.95, 4.94 0.75 C5.48 0.55, 5.18 0.54, 5.32 0.64" stroke="none" stroke-width="0" fill="#b2f2bb"></path><path d="M6.14 0 C7.31 -0.28, 8.27 0.08, 9.14 0.78 C10.01 1.48, 10.98 2.82, 11.34 4.2 C11.7 5.58, 11.85 7.92, 11.3 9.06 C10.75 10.2, 9.17 10.67, 8.05 11.05 C6.93 11.42, 5.72 11.61, 4.58 11.31 C3.45 11.01, 1.94 10.27, 1.25 9.25 C0.56 8.23, 0.33 6.56, 0.46 5.22 C0.59 3.88, 1.17 2.14, 2.05 1.18 C2.93 0.23, 5.19 -0.34, 5.76 -0.5 C6.32 -0.65, 5.39 0.04, 5.45 0.27 M6.94 -0.17 C8 0.21, 9.42 1.64, 10.33 2.83 C11.23 4.02, 12.43 5.69, 12.39 6.95 C12.35 8.21, 11.14 9.7, 10.11 10.4 C9.07 11.11, 7.37 10.96, 6.17 11.16 C4.96 11.37, 3.76 12.3, 2.87 11.64 C1.99 10.98, 1.34 8.58, 0.87 7.21 C0.39 5.84, -0.32 4.56, 0.01 3.41 C0.34 2.26, 1.61 0.88, 2.84 0.32 C4.07 -0.24, 6.73 0.17, 7.38 0.06 C8.04 -0.06, 6.75 -0.54, 6.77 -0.37" stroke="#1e1e1e" stroke-width="2" fill="none"></path></g><g stroke-linecap="round"><g transform="translate(267.606624984292 168.15753530917664) rotate(0 3.099083460520177 0)"><path d="M-0.08 -0.15 C1.06 -0.03, 5.46 0.38, 6.5 0.35 M0.52 -0.53 C1.67 -0.47, 5.47 -0.17, 6.38 -0.09" stroke="#1e1e1e" stroke-width="2" fill="none"></path></g></g><mask></mask><g stroke-linecap="round" transform="translate(115.9121680636315 297.57235218548595) rotate(304.0350355786866 92.49999999999999 20.470827793195184)"><path d="M90.89 -0.81 C103.72 -0.87, 119.81 1.49, 131.97 2.75 C144.12 4.01, 155.28 4.7, 163.81 6.74 C172.35 8.78, 179.92 11.97, 183.18 14.99 C186.44 18.01, 186.22 21.86, 183.37 24.87 C180.53 27.87, 174.39 30.82, 166.09 33 C157.8 35.19, 145.75 36.81, 133.61 37.97 C121.46 39.12, 106.79 39.72, 93.22 39.94 C79.66 40.16, 64.18 40.28, 52.19 39.28 C40.2 38.29, 29.42 36.2, 21.28 33.96 C13.14 31.71, 6.68 28.85, 3.35 25.79 C0.02 22.74, -1.39 18.71, 1.27 15.63 C3.93 12.55, 10.81 9.47, 19.33 7.31 C27.85 5.15, 36.87 3.89, 52.39 2.68 C67.91 1.48, 99.5 0.28, 112.45 0.07 C125.4 -0.15, 130.73 0.95, 130.09 1.37 M128.74 1.16 C140.61 2.07, 153.06 4.12, 161.96 6.43 C170.86 8.74, 178.7 12.26, 182.11 15.03 C185.52 17.81, 184.85 19.99, 182.41 23.06 C179.97 26.12, 175.48 30.86, 167.48 33.42 C159.49 35.98, 146.23 37.36, 134.44 38.44 C122.65 39.52, 109.98 39.55, 96.75 39.9 C83.51 40.25, 67.32 41.55, 55.02 40.55 C42.72 39.54, 31.5 36.41, 22.96 33.86 C14.42 31.31, 7.38 28.3, 3.81 25.27 C0.24 22.23, -1.02 18.65, 1.54 15.65 C4.09 12.65, 11.05 9.52, 19.14 7.25 C27.23 4.99, 38.28 3.49, 50.08 2.08 C61.88 0.66, 76.75 -1.41, 89.93 -1.23 C103.11 -1.05, 122.67 2.57, 129.15 3.15 C135.63 3.73, 129.2 2.15, 128.83 2.27" stroke="#1e1e1e" stroke-width="2" fill="none"></path></g><g stroke-linecap="round"><g transform="translate(251.32887464340962 285.3220523686831) rotate(304.0350355786866 -2.2622282608695627 5.171577547754573)"><path d="M-0.01 -0.45 C-1.42 0.23, -8.42 2.88, -7.99 4.67 C-7.56 6.47, 0.66 9.43, 2.57 10.33 M-0.68 0.5 C-1.96 1.47, -7.71 3.38, -6.99 5.11 C-6.26 6.85, 1.86 10.04, 3.66 10.92" stroke="#1e1e1e" stroke-width="2" fill="none"></path></g></g><mask></mask><g stroke-linecap="round"><g transform="translate(206.50369000087227 375.84648098604623) rotate(304.0350355786866 1.4210854715202004e-14 -65)"><path d="M-0.98 -1.09 C-1.14 -22.6, -1.29 -108.44, -0.97 -130.03 M0.71 0.95 C0.92 -20.27, 1.23 -106.74, 1.23 -128.51" stroke="#1e1e1e" stroke-width="2" fill="none"></path></g><g transform="translate(206.50369000087227 375.84648098604623) rotate(304.0350355786866 1.4210854715202004e-14 -65)"><path d="M9.73 -105 C5.57 -113.71, 4.79 -117.53, 1.23 -128.51 M9.73 -105 C7.08 -110.13, 5.78 -115.56, 1.23 -128.51" stroke="#1e1e1e" stroke-width="2" fill="none"></path></g><g transform="translate(206.50369000087227 375.84648098604623) rotate(304.0350355786866 1.4210854715202004e-14 -65)"><path d="M-7.37 -105.04 C-6.43 -113.6, -2.1 -117.41, 1.23 -128.51 M-7.37 -105.04 C-5.85 -110.27, -2.99 -115.69, 1.23 -128.51" stroke="#1e1e1e" stroke-width="2" fill="none"></path></g></g><mask></mask><g stroke-linecap="round" transform="translate(199.51069175485816 306.4680874823799) rotate(304.0350355786866 9.703026737903087 9.703026737903087)"><path d="M11.19 0.37 C13.14 0.51, 15.2 1.69, 16.65 3.22 C18.1 4.76, 19.78 7.41, 19.88 9.57 C19.98 11.73, 18.65 14.59, 17.26 16.19 C15.88 17.79, 13.69 18.78, 11.59 19.17 C9.49 19.57, 6.49 19.47, 4.65 18.53 C2.81 17.6, 1.26 15.51, 0.56 13.56 C-0.15 11.6, -0.32 8.79, 0.4 6.79 C1.13 4.79, 3.02 2.73, 4.89 1.56 C6.75 0.39, 10.41 -0.01, 11.6 -0.21 C12.78 -0.42, 12.1 0, 11.99 0.31 M9.81 0.21 C11.94 0.12, 14.51 1.41, 16.05 2.63 C17.59 3.84, 18.65 5.54, 19.06 7.51 C19.48 9.48, 19.61 12.47, 18.54 14.46 C17.47 16.45, 14.69 18.63, 12.67 19.46 C10.64 20.28, 8.24 20.07, 6.41 19.41 C4.57 18.76, 2.76 17.27, 1.67 15.52 C0.59 13.76, -0.27 11.13, -0.11 8.88 C0.05 6.62, 1.06 3.4, 2.62 2 C4.18 0.59, 7.99 0.77, 9.25 0.46 C10.51 0.14, 10.16 -0.04, 10.18 0.12" stroke="none" stroke-width="0" fill="#ffd8a8"></path><path d="M11.93 -0.2 C13.98 0.13, 16.23 1.95, 17.54 3.63 C18.86 5.31, 19.88 7.86, 19.82 9.86 C19.76 11.87, 18.6 14.18, 17.16 15.66 C15.73 17.15, 13.34 18.38, 11.19 18.79 C9.03 19.21, 5.99 19.09, 4.26 18.15 C2.54 17.2, 1.37 15.06, 0.84 13.12 C0.31 11.18, 0.47 8.52, 1.1 6.49 C1.72 4.47, 2.83 2.06, 4.59 0.98 C6.35 -0.11, 10.36 0.01, 11.66 -0.02 C12.96 -0.05, 12.34 0.62, 12.42 0.79 M11.07 0.7 C13.24 0.86, 16.13 1.2, 17.44 2.58 C18.76 3.96, 19.02 6.88, 18.95 8.99 C18.88 11.1, 18.2 13.57, 17.03 15.25 C15.86 16.93, 13.97 18.68, 11.92 19.09 C9.87 19.5, 6.56 18.57, 4.75 17.69 C2.94 16.81, 1.88 15.63, 1.06 13.8 C0.25 11.97, -0.78 8.85, -0.13 6.72 C0.52 4.58, 3.14 2, 4.96 1.01 C6.78 0.01, 9.74 0.86, 10.79 0.75 C11.84 0.63, 11.21 0.29, 11.28 0.31" stroke="#1e1e1e" stroke-width="2" fill="none"></path></g><g stroke-linecap="round"><g transform="translate(204.69122381059634 315.7906576117226) rotate(304.0350355786866 5.031199049283046 0)"><path d="M0.43 -0.31 C2.11 -0.25, 8.07 0.26, 9.6 0.36 M-0.01 0.72 C1.87 0.63, 8.81 -0.19, 10.6 -0.42" stroke="#1e1e1e" stroke-width="2" fill="none"></path></g></g><mask></mask><g stroke-linecap="round"><g transform="translate(209.6523876550528 311.40986019658703) rotate(304.0350355786866 0 4.492142008288461)"><path d="M-0.3 0.23 C-0.39 1.8, -0.32 7.67, -0.28 9.18 M0.19 0.05 C0.19 1.52, 0.45 7.2, 0.38 8.65" stroke="#1e1e1e" stroke-width="2" fill="none"></path></g></g><mask></mask><g stroke-linecap="round" transform="translate(252.4832899801696 265.03760006916826) rotate(304.0350355786866 5.976803816717535 5.976803816717535)"><path d="M5.56 0.35 C6.7 0.17, 8.55 0.29, 9.54 1.04 C10.52 1.79, 11.17 3.52, 11.46 4.85 C11.76 6.17, 11.83 7.83, 11.31 8.98 C10.78 10.12, 9.45 11.22, 8.32 11.71 C7.19 12.2, 5.71 12.4, 4.52 11.94 C3.32 11.49, 1.84 10.09, 1.13 8.98 C0.43 7.88, 0.26 6.44, 0.31 5.31 C0.36 4.18, 0.54 3.16, 1.42 2.21 C2.3 1.25, 4.85 -0.11, 5.58 -0.42 C6.31 -0.72, 5.73 0.17, 5.77 0.38 M7.32 0.23 C8.46 0.53, 9.22 1.83, 9.95 2.87 C10.68 3.91, 11.58 5.21, 11.72 6.49 C11.86 7.77, 11.61 9.56, 10.79 10.55 C9.97 11.55, 8.21 12.43, 6.8 12.46 C5.39 12.48, 3.45 11.36, 2.34 10.7 C1.24 10.03, 0.38 9.61, 0.18 8.47 C-0.03 7.33, 0.65 5.05, 1.11 3.85 C1.56 2.64, 2 1.99, 2.92 1.24 C3.84 0.49, 5.95 -0.55, 6.63 -0.64 C7.32 -0.73, 7.05 0.57, 7.05 0.7" stroke="none" stroke-width="0" fill="#b2f2bb"></path><path d="M6.14 -0.44 C7.28 -0.59, 8.93 -0.03, 9.82 0.89 C10.71 1.81, 11.18 3.69, 11.46 5.08 C11.73 6.47, 11.98 8.12, 11.48 9.26 C10.99 10.39, 9.8 11.54, 8.47 11.9 C7.13 12.25, 4.81 11.91, 3.49 11.38 C2.18 10.85, 1.11 9.74, 0.6 8.71 C0.09 7.69, 0.08 6.49, 0.42 5.24 C0.75 3.99, 1.6 2.16, 2.6 1.22 C3.61 0.28, 5.89 -0.22, 6.44 -0.39 C6.99 -0.56, 5.87 -0.03, 5.89 0.2 M4.48 -0.25 C5.75 -0.52, 7.9 0.09, 9 0.67 C10.11 1.25, 10.6 1.95, 11.09 3.23 C11.58 4.5, 12.38 7.02, 11.94 8.32 C11.51 9.63, 9.54 10.53, 8.46 11.04 C7.39 11.54, 6.69 11.45, 5.49 11.36 C4.3 11.28, 2.14 11.42, 1.28 10.55 C0.42 9.67, 0.27 7.52, 0.34 6.09 C0.4 4.66, 0.95 3.05, 1.69 1.97 C2.44 0.89, 4.19 -0.01, 4.8 -0.38 C5.42 -0.76, 5.28 -0.45, 5.37 -0.29" stroke="#1e1e1e" stroke-width="2" fill="none"></path></g><g stroke-linecap="round"><g transform="translate(255.7108362065585 271.18194015750987) rotate(304.0350355786866 3.099083460520177 0)"><path d="M0 0.3 C1.07 0.28, 5.18 0.17, 6.16 0.12 M-0.43 0.14 C0.61 0, 4.69 -0.48, 5.86 -0.44" stroke="#1e1e1e" stroke-width="2" fill="none"></path></g></g><mask></mask><g stroke-linecap="round" transform="translate(106.96177206801025 479.5027356422912) rotate(77.10855411817009 92.49999999999999 20.470827793195184)"><path d="M52.39 2.24 C63.41 1.03, 80.42 0.52, 94.08 0.6 C107.73 0.68, 122.6 1.59, 134.33 2.73 C146.07 3.87, 156.47 5.29, 164.5 7.43 C172.52 9.57, 179.36 12.53, 182.47 15.59 C185.57 18.66, 186.01 22.91, 183.13 25.81 C180.25 28.72, 173.66 30.96, 165.19 33.02 C156.73 35.09, 144.76 36.87, 132.32 38.21 C119.89 39.55, 103.92 40.85, 90.59 41.08 C77.27 41.31, 64.32 41.04, 52.36 39.61 C40.41 38.18, 27.29 35.03, 18.85 32.48 C10.42 29.93, 4.54 27.1, 1.74 24.33 C-1.06 21.56, -1.1 18.77, 2.05 15.87 C5.2 12.97, 10.72 9.3, 20.64 6.92 C30.57 4.53, 52.87 2.67, 61.59 1.54 C70.3 0.41, 72.29 -0.21, 72.91 0.14 M62.16 1.25 C73.84 -0.29, 89.89 -0.49, 103.06 -0.35 C116.23 -0.21, 129.78 0.63, 141.19 2.1 C152.61 3.57, 164.23 5.84, 171.54 8.45 C178.84 11.07, 183.5 14.89, 185.03 17.79 C186.56 20.7, 185.25 22.81, 180.71 25.89 C176.17 28.97, 167.32 33.96, 157.78 36.3 C148.24 38.64, 135.81 39.13, 123.46 39.93 C111.1 40.73, 96.95 41.6, 83.63 41.1 C70.31 40.61, 54.86 38.6, 43.51 36.96 C32.17 35.32, 22.49 33.67, 15.56 31.25 C8.63 28.83, 3.54 25.28, 1.94 22.44 C0.33 19.6, 1.69 16.89, 5.92 14.2 C10.16 11.51, 18.29 8.34, 27.36 6.31 C36.42 4.28, 54.59 3, 60.33 2.03 C66.07 1.06, 60.84 0.32, 61.8 0.48" stroke="#1e1e1e" stroke-width="2" fill="none"></path></g><g stroke-linecap="round"><g transform="translate(194.23276809591903 543.0709331084065) rotate(77.10855411817009 -2.2622282608695627 5.171577547754566)"><path d="M-0.48 0.01 C-1.82 0.77, -8.7 2.94, -8.09 4.73 C-7.48 6.51, 1.28 9.69, 3.18 10.7 M0.27 -0.46 C-0.9 0.34, -7.58 3.48, -7.14 5.2 C-6.7 6.91, 1.12 9.04, 2.92 9.82" stroke="#1e1e1e" stroke-width="2" fill="none"></path></g></g><mask></mask><g stroke-linecap="round"><g transform="translate(206.31404641232226 567.6012786163706) rotate(77.10855411817009 1.4210854715202004e-14 -65)"><path d="M-1.2 -0.97 C-0.96 -22.51, 0.04 -107.88, 0.36 -129.22 M0.37 1.13 C0.57 -20.75, -0.39 -108.95, -0.4 -130.93" stroke="#1e1e1e" stroke-width="2" fill="none"></path></g><g transform="translate(206.31404641232226 567.6012786163706) rotate(77.10855411817009 1.4210854715202004e-14 -65)"><path d="M8.3 -107.49 C4.83 -111.94, 5.91 -116.32, -0.4 -130.93 M8.3 -107.49 C4.35 -117.05, 0.9 -125.05, -0.4 -130.93" stroke="#1e1e1e" stroke-width="2" fill="none"></path></g><g transform="translate(206.31404641232226 567.6012786163706) rotate(77.10855411817009 1.4210854715202004e-14 -65)"><path d="M-8.8 -107.38 C-8.65 -111.69, -3.93 -116.09, -0.4 -130.93 M-8.8 -107.38 C-6.13 -116.84, -2.96 -124.88, -0.4 -130.93" stroke="#1e1e1e" stroke-width="2" fill="none"></path></g></g><mask></mask><g stroke-linecap="round" transform="translate(190.57884035461 492.1345531795356) rotate(77.10855411817009 9.703026737903087 9.703026737903087)"><path d="M11.91 0.43 C13.91 0.62, 16.18 1.8, 17.47 3.4 C18.76 4.99, 19.84 7.78, 19.68 10 C19.52 12.23, 17.96 15.25, 16.5 16.73 C15.05 18.22, 12.93 18.66, 10.93 18.9 C8.93 19.13, 6.23 19.16, 4.5 18.15 C2.78 17.14, 1.16 14.89, 0.59 12.85 C0.02 10.81, 0.34 7.83, 1.08 5.91 C1.82 3.98, 3.17 2.3, 5.04 1.31 C6.91 0.31, 10.97 0.06, 12.3 -0.08 C13.64 -0.21, 13.05 0.23, 13.05 0.48 M11.4 -0.16 C13.36 0.17, 15.91 2.7, 17.37 4.45 C18.82 6.19, 20.25 8.22, 20.13 10.29 C20 12.37, 18.24 15.49, 16.61 16.88 C14.98 18.27, 12.38 18.39, 10.34 18.62 C8.29 18.84, 6.04 19.37, 4.33 18.24 C2.62 17.11, 0.52 14.03, 0.07 11.84 C-0.39 9.65, 0.62 6.9, 1.59 5.1 C2.55 3.3, 4.23 1.87, 5.88 1.03 C7.53 0.2, 10.6 0.1, 11.51 0.1 C12.41 0.09, 11.22 0.75, 11.31 1.02" stroke="none" stroke-width="0" fill="#ffd8a8"></path><path d="M10.7 -0.11 C12.57 -0.03, 15.27 1.38, 16.77 3.02 C18.28 4.67, 19.57 7.67, 19.73 9.76 C19.9 11.85, 19.07 14.06, 17.76 15.57 C16.45 17.08, 14.08 18.37, 11.88 18.82 C9.68 19.27, 6.37 19.16, 4.57 18.29 C2.77 17.43, 1.82 15.63, 1.08 13.64 C0.34 11.64, -0.43 8.39, 0.13 6.31 C0.69 4.23, 2.56 2.18, 4.46 1.17 C6.35 0.17, 10.2 0.45, 11.49 0.29 C12.78 0.13, 12.25 0.04, 12.18 0.22 M11.41 -0.43 C13.45 -0.18, 15.27 2.17, 16.66 3.79 C18.05 5.41, 19.55 7.35, 19.73 9.28 C19.92 11.21, 19.09 13.79, 17.77 15.35 C16.44 16.92, 13.79 18.27, 11.78 18.68 C9.78 19.09, 7.52 18.7, 5.74 17.81 C3.96 16.91, 1.91 15.24, 1.08 13.31 C0.26 11.37, 0.28 8.04, 0.81 6.19 C1.33 4.35, 2.54 3.25, 4.23 2.25 C5.91 1.25, 9.71 0.47, 10.91 0.17 C12.11 -0.14, 11.44 0.34, 11.41 0.41" stroke="#1e1e1e" stroke-width="2" fill="none"></path></g><g stroke-linecap="round"><g transform="translate(194.9191871670439 502.3581203480166) rotate(77.10855411817009 5.031199049283046 0)"><path d="M0.33 0.48 C2.04 0.34, 8.82 -0.37, 10.4 -0.49 M-0.16 0.25 C1.48 0.13, 8.56 -0.05, 10.14 -0.05" stroke="#1e1e1e" stroke-width="2" fill="none"></path></g></g><mask></mask><g stroke-linecap="round"><g transform="translate(200.3452179559497 497.6274660299021) rotate(77.10855411817009 0 4.492142008288461)"><path d="M0.22 -0.32 C0.16 1.1, -0.09 7.25, -0.16 8.84 M-0.1 0.29 C-0.24 1.91, -0.45 7.82, -0.51 9.21" stroke="#1e1e1e" stroke-width="2" fill="none"></path></g></g><mask></mask><g stroke-linecap="round" transform="translate(193.65891293676225 562.6733232648492) rotate(77.10855411817009 5.976803816717535 5.976803816717535)"><path d="M4.47 0.6 C5.59 0.24, 7.63 -0.26, 8.82 0.32 C10 0.9, 11.06 2.78, 11.55 4.08 C12.04 5.39, 12.12 6.98, 11.77 8.13 C11.41 9.28, 10.56 10.34, 9.41 11 C8.26 11.66, 6.19 12.33, 4.88 12.08 C3.58 11.83, 2.3 10.52, 1.56 9.5 C0.83 8.47, 0.47 7.12, 0.49 5.93 C0.51 4.74, 0.81 3.38, 1.67 2.37 C2.52 1.37, 4.92 0.36, 5.61 -0.08 C6.3 -0.52, 5.94 -0.38, 5.82 -0.28 M6.8 0.51 C7.82 0.51, 9.21 0.32, 10.08 1.29 C10.94 2.26, 11.96 5.01, 12 6.32 C12.04 7.64, 11.02 8.36, 10.34 9.16 C9.65 9.97, 9.04 10.83, 7.9 11.18 C6.77 11.53, 4.89 11.81, 3.55 11.27 C2.21 10.74, 0.53 9.07, -0.13 7.96 C-0.78 6.85, -0.91 5.71, -0.38 4.62 C0.16 3.52, 1.89 2.21, 3.1 1.39 C4.32 0.57, 6.36 -0.03, 6.9 -0.29 C7.45 -0.55, 6.42 -0.39, 6.36 -0.16" stroke="none" stroke-width="0" fill="#b2f2bb"></path><path d="M5.68 -0.13 C6.86 -0.48, 8.53 -0.19, 9.45 0.54 C10.37 1.27, 10.78 2.9, 11.19 4.25 C11.6 5.61, 12.38 7.54, 11.91 8.66 C11.44 9.78, 9.59 10.5, 8.36 10.98 C7.12 11.47, 5.72 11.78, 4.49 11.56 C3.26 11.35, 1.75 10.72, 1 9.69 C0.24 8.66, -0.08 6.65, -0.05 5.4 C-0.02 4.14, 0.21 3.11, 1.16 2.15 C2.1 1.19, 4.89 -0.07, 5.62 -0.35 C6.34 -0.64, 5.57 0.31, 5.48 0.45 M7.63 -0.09 C8.77 0.02, 9.88 0.89, 10.68 1.86 C11.48 2.83, 12.43 4.4, 12.44 5.74 C12.44 7.07, 11.59 8.96, 10.71 9.89 C9.82 10.81, 8.47 10.98, 7.11 11.28 C5.74 11.59, 3.66 12.3, 2.51 11.72 C1.37 11.15, 0.5 9.16, 0.24 7.85 C-0.02 6.53, 0.48 5.09, 0.96 3.81 C1.44 2.54, 1.99 0.85, 3.14 0.22 C4.28 -0.41, 7.05 0.07, 7.84 0.04 C8.64 0.02, 7.95 -0.1, 7.91 0.05" stroke="#1e1e1e" stroke-width="2" fill="none"></path></g><g stroke-linecap="round"><g transform="translate(196.25000512665918 568.8384459615945) rotate(77.10855411817009 3.099083460520177 0)"><path d="M-0.19 0.23 C0.91 0.32, 5.37 0.35, 6.41 0.34 M0.37 0.05 C1.44 0.05, 5.33 -0.04, 6.24 -0.11" stroke="#1e1e1e" stroke-width="2" fill="none"></path></g></g><mask></mask><g stroke-linecap="round" transform="translate(451.1919846104451 114.52944802184948) rotate(130.69674740328608 92.49999999999997 20.470827793195184)"><path d="M74.52 0.49 C86.81 -0.07, 104.51 0.84, 117.46 1.49 C130.41 2.14, 142.31 2.67, 152.23 4.39 C162.15 6.11, 171.62 8.98, 176.98 11.83 C182.35 14.67, 184.94 18.5, 184.45 21.43 C183.97 24.37, 180.41 26.78, 174.07 29.44 C167.74 32.1, 157.11 35.67, 146.43 37.4 C135.76 39.13, 123.04 39.25, 110.01 39.83 C96.98 40.4, 81.38 41.54, 68.27 40.86 C55.15 40.17, 41.28 37.69, 31.33 35.72 C21.37 33.76, 13.72 31.66, 8.52 29.06 C3.32 26.46, -0.22 23.17, 0.11 20.12 C0.44 17.08, 4.34 13.38, 10.5 10.8 C16.66 8.21, 23.41 6.35, 37.08 4.63 C50.75 2.9, 80.31 1, 92.52 0.45 C104.73 -0.11, 110.37 1.09, 110.33 1.3 M135.9 2.56 C147.81 3.39, 158.11 4.97, 166.18 7.25 C174.25 9.54, 181.46 13.28, 184.33 16.26 C187.19 19.24, 186.75 22.18, 183.38 25.14 C180.01 28.11, 172.84 31.68, 164.11 34.06 C155.37 36.43, 143.5 38.1, 130.95 39.39 C118.4 40.68, 102.34 42.08, 88.81 41.78 C75.28 41.47, 61.24 39.09, 49.79 37.57 C38.34 36.04, 28.31 34.81, 20.1 32.62 C11.88 30.44, 3.25 27.27, 0.51 24.47 C-2.22 21.66, 0.02 18.47, 3.68 15.78 C7.33 13.09, 13.98 10.74, 22.43 8.33 C30.88 5.91, 42.17 2.64, 54.37 1.3 C66.57 -0.03, 82.42 -0.11, 95.64 0.29 C108.86 0.7, 127.36 3.18, 133.69 3.74 C140.01 4.3, 134.01 3.35, 133.59 3.65" stroke="#1e1e1e" stroke-width="2" fill="none"></path></g><g stroke-linecap="round"><g transform="translate(502.56586300750496 151.89084801732295) rotate(130.69674740328608 -2.2622282608695663 5.171577547754566)"><path d="M-0.2 0.29 C-1.59 0.97, -8.52 2.88, -7.98 4.63 C-7.43 6.38, 1.19 9.91, 3.09 10.8 M0.69 -0.04 C-0.55 0.92, -7.31 3.38, -6.96 5.05 C-6.62 6.72, 0.99 9.1, 2.78 9.97" stroke="#1e1e1e" stroke-width="2" fill="none"></path></g></g><mask></mask><g stroke-linecap="round"><g transform="translate(545.2249836320484 206.94245991595602) rotate(130.69674740328608 1.4210854715202004e-14 -65)"><path d="M-0.95 -1.18 C-0.85 -22.79, -0.15 -107.39, 0.17 -129.01 M0.76 0.81 C0.75 -21.17, -0.68 -108.8, -0.69 -130.61" stroke="#1e1e1e" stroke-width="2" fill="none"></path></g><g transform="translate(545.2249836320484 206.94245991595602) rotate(130.69674740328608 1.4210854715202004e-14 -65)"><path d="M8.08 -107.2 C3.68 -113.15, 5 -118.01, -0.69 -130.61 M8.08 -107.2 C5.75 -112.96, 4.43 -117.86, -0.69 -130.61" stroke="#1e1e1e" stroke-width="2" fill="none"></path></g><g transform="translate(545.2249836320484 206.94245991595602) rotate(130.69674740328608 1.4210854715202004e-14 -65)"><path d="M-9.02 -107.04 C-8.92 -112.89, -3.11 -117.8, -0.69 -130.61 M-9.02 -107.04 C-7.51 -112.77, -4.99 -117.7, -0.69 -130.61" stroke="#1e1e1e" stroke-width="2" fill="none"></path></g></g><mask></mask><g stroke-linecap="round" transform="translate(532.9756464263642 127.06368990752588) rotate(130.69674740328608 9.703026737903087 9.703026737903087)"><path d="M10.57 0.26 C12.51 0.29, 15.24 1.13, 16.79 2.57 C18.34 4.01, 19.69 6.72, 19.87 8.89 C20.05 11.05, 19.1 13.89, 17.88 15.58 C16.65 17.26, 14.53 18.58, 12.52 18.98 C10.51 19.38, 7.83 18.9, 5.83 17.99 C3.83 17.08, 1.39 15.26, 0.53 13.51 C-0.33 11.77, 0.06 9.49, 0.68 7.51 C1.3 5.52, 2.43 2.87, 4.24 1.6 C6.05 0.33, 10.38 0.06, 11.55 -0.13 C12.71 -0.33, 11.25 0.27, 11.23 0.44 M8.39 0.21 C10.09 -0.19, 12.34 -0.03, 13.96 1.08 C15.58 2.19, 17.26 4.81, 18.11 6.87 C18.96 8.94, 19.66 11.67, 19.08 13.48 C18.5 15.28, 16.56 16.81, 14.64 17.71 C12.73 18.62, 9.68 19.14, 7.59 18.93 C5.5 18.72, 3.32 17.94, 2.1 16.45 C0.89 14.97, 0.2 12.28, 0.31 10.01 C0.42 7.74, 1.58 4.43, 2.78 2.85 C3.98 1.26, 6.53 0.92, 7.52 0.5 C8.51 0.09, 8.75 0.29, 8.74 0.37" stroke="none" stroke-width="0" fill="#ffd8a8"></path><path d="M11.41 -0.06 C13.39 0.26, 15.71 2.09, 17.03 3.7 C18.36 5.31, 19.42 7.5, 19.35 9.6 C19.27 11.7, 17.9 14.76, 16.58 16.32 C15.26 17.87, 13.43 18.58, 11.44 18.91 C9.44 19.24, 6.5 19.35, 4.62 18.31 C2.74 17.28, 0.76 14.69, 0.17 12.71 C-0.41 10.72, 0.29 8.29, 1.1 6.41 C1.91 4.53, 3.24 2.45, 5.06 1.43 C6.87 0.41, 10.8 0.36, 12.01 0.28 C13.23 0.21, 12.42 0.8, 12.34 1 M9.01 0.72 C10.92 0.63, 13.78 0.91, 15.56 2.08 C17.33 3.24, 19.22 5.78, 19.67 7.72 C20.11 9.66, 19.17 11.9, 18.23 13.71 C17.28 15.52, 15.79 17.72, 14 18.56 C12.2 19.4, 9.46 19.32, 7.46 18.75 C5.46 18.18, 3.16 16.83, 1.98 15.13 C0.8 13.44, 0.29 10.61, 0.38 8.58 C0.48 6.56, 1.1 4.51, 2.55 2.99 C4 1.47, 7.86 -0.06, 9.1 -0.54 C10.34 -1.02, 10.07 -0.13, 10 0.12" stroke="#1e1e1e" stroke-width="2" fill="none"></path></g><g stroke-linecap="round"><g transform="translate(536.4935227379246 136.9815129255287) rotate(130.69674740328608 5.031199049283053 0)"><path d="M0.43 -0.42 C2.04 -0.53, 8.18 -0.23, 9.74 -0.21 M-0.01 0.56 C1.77 0.49, 9.25 0.44, 10.8 0.39" stroke="#1e1e1e" stroke-width="2" fill="none"></path></g></g><mask></mask><g stroke-linecap="round"><g transform="translate(542.1832843523289 132.80036306485772) rotate(130.69674740328608 0 4.492142008288454)"><path d="M-0.21 -0.13 C-0.29 1.38, -0.22 7.3, -0.18 8.82 M0.33 -0.51 C0.34 1.07, 0.61 7.54, 0.53 9.18" stroke="#1e1e1e" stroke-width="2" fill="none"></path></g></g><mask></mask><g stroke-linecap="round" transform="translate(482.5494907844735 169.92881757553283) rotate(130.69674740328608 5.976803816717535 5.976803816717535)"><path d="M5.11 0.28 C6.29 -0.04, 8.17 0.07, 9.31 0.58 C10.44 1.09, 11.59 2.16, 11.93 3.35 C12.27 4.54, 11.77 6.37, 11.35 7.74 C10.93 9.11, 10.46 10.88, 9.41 11.56 C8.36 12.25, 6.32 12.15, 5.05 11.84 C3.78 11.53, 2.72 10.63, 1.8 9.69 C0.88 8.74, -0.46 7.45, -0.49 6.18 C-0.52 4.9, 0.75 2.99, 1.62 2.06 C2.49 1.12, 4.15 0.84, 4.7 0.57 C5.26 0.3, 4.85 0.48, 4.94 0.44 M5.84 0.53 C7.17 0.22, 8.64 0.19, 9.55 0.8 C10.46 1.42, 11.03 2.84, 11.29 4.22 C11.55 5.6, 11.56 7.85, 11.12 9.09 C10.69 10.34, 9.73 11.37, 8.68 11.69 C7.64 12.02, 6.19 11.39, 4.84 11.04 C3.49 10.7, 1.24 10.58, 0.57 9.63 C-0.11 8.68, 0.68 6.69, 0.78 5.34 C0.88 3.98, 0.27 2.49, 1.16 1.51 C2.06 0.54, 5.44 -0.23, 6.18 -0.5 C6.91 -0.78, 5.7 -0.41, 5.56 -0.12" stroke="none" stroke-width="0" fill="#b2f2bb"></path><path d="M5.79 0.22 C7.06 0.18, 9.23 0.29, 10.24 1.16 C11.25 2.04, 11.77 4.16, 11.85 5.47 C11.92 6.79, 11.29 7.97, 10.69 9.04 C10.09 10.11, 9.41 11.44, 8.25 11.89 C7.09 12.34, 5.03 12.27, 3.74 11.74 C2.46 11.22, 1.19 9.85, 0.54 8.73 C-0.12 7.62, -0.43 6.25, -0.19 5.04 C0.05 3.84, 0.89 2.28, 1.97 1.48 C3.04 0.68, 5.58 0.51, 6.26 0.26 C6.95 0.01, 5.99 -0.07, 6.08 -0.02 M6.05 -0.45 C7.28 -0.53, 9.43 0.52, 10.51 1.41 C11.59 2.3, 12.37 3.58, 12.54 4.89 C12.71 6.21, 12.24 8.16, 11.51 9.31 C10.78 10.45, 9.55 11.33, 8.16 11.77 C6.78 12.21, 4.46 12.54, 3.19 11.95 C1.93 11.37, 0.95 9.48, 0.56 8.27 C0.17 7.05, 0.68 5.85, 0.86 4.69 C1.04 3.52, 0.69 2.03, 1.63 1.28 C2.58 0.54, 5.72 0.31, 6.53 0.21 C7.34 0.1, 6.56 0.62, 6.47 0.65" stroke="#1e1e1e" stroke-width="2" fill="none"></path></g><g stroke-linecap="round"><g transform="translate(485.1629194878735 176.27127424125308) rotate(130.69674740328608 3.099083460520184 0)"><path d="M0.05 -0.04 C1.08 -0.06, 4.92 -0.33, 5.97 -0.3 M-0.35 -0.37 C0.81 -0.34, 5.56 0.01, 6.65 0" stroke="#1e1e1e" stroke-width="2" fill="none"></path></g></g><mask></mask><g stroke-linecap="round" transform="translate(377.99022541676527 292.4753871093965) rotate(213.92938041044448 92.49999999999999 20.470827793195184)"><path d="M112.17 1.1 C124.68 1.49, 138.13 2.32, 148.83 4.12 C159.53 5.91, 170.32 9.1, 176.36 11.87 C182.39 14.64, 185.11 17.87, 185.04 20.75 C184.96 23.62, 181.7 26.41, 175.89 29.12 C170.08 31.83, 160.62 35.06, 150.17 37.01 C139.73 38.96, 126.15 40.17, 113.21 40.83 C100.27 41.49, 85.64 41.72, 72.55 40.96 C59.46 40.2, 45 38.19, 34.66 36.27 C24.31 34.36, 16.24 31.97, 10.48 29.48 C4.72 26.99, 0.37 24.3, 0.12 21.32 C-0.13 18.35, 3.41 14.29, 8.99 11.63 C14.56 8.96, 23.24 7.03, 33.57 5.33 C43.9 3.62, 57.45 2.11, 70.97 1.42 C84.48 0.73, 106.95 1.18, 114.69 1.21 C122.43 1.23, 117.72 1.47, 117.42 1.57 M119.66 0.64 C132.1 1.31, 143.08 3.14, 152.93 5.21 C162.78 7.28, 173.33 10.15, 178.75 13.07 C184.18 15.98, 186.43 19.88, 185.49 22.69 C184.55 25.5, 179.61 27.44, 173.12 29.9 C166.63 32.37, 157.63 35.43, 146.56 37.46 C135.48 39.5, 120.06 41.51, 106.69 42.12 C93.32 42.73, 78.91 41.97, 66.34 41.15 C53.77 40.32, 41.22 39.13, 31.26 37.18 C21.3 35.24, 11.98 32.6, 6.58 29.47 C1.18 26.34, -1.91 21.4, -1.13 18.4 C-0.36 15.4, 4.28 13.92, 11.22 11.45 C18.17 8.99, 29.58 5.31, 40.54 3.6 C51.49 1.89, 64.13 1.88, 76.94 1.17 C89.76 0.46, 110.62 -0.83, 117.42 -0.67 C124.23 -0.5, 118.18 1.79, 117.78 2.18" stroke="#1e1e1e" stroke-width="2" fill="none"></path></g><g stroke-linecap="round"><g transform="translate(445.31586822575815 267.230199136801) rotate(213.92938041044448 -2.2622282608695663 5.171577547754573)"><path d="M0.24 0.28 C-1.03 1.21, -8.48 3.5, -7.96 5.12 C-7.44 6.73, 1.55 9.02, 3.36 9.97 M-0.31 -0.05 C-1.38 1.01, -7.53 4.05, -6.95 5.79 C-6.36 7.53, 1.54 9.69, 3.19 10.37" stroke="#1e1e1e" stroke-width="2" fill="none"></path></g></g><mask></mask><g stroke-linecap="round"><g transform="translate(463.37948457192476 381.1265453766472) rotate(213.92938041044448 1.4210854715202004e-14 -65)"><path d="M-0.92 -0.12 C-0.88 -22.02, 0.65 -109.35, 0.75 -130.82 M0.8 -1.23 C0.7 -23.05, 0.53 -108.13, 0.2 -129.71" stroke="#1e1e1e" stroke-width="2" fill="none"></path></g><g transform="translate(463.37948457192476 381.1265453766472) rotate(213.92938041044448 1.4210854715202004e-14 -65)"><path d="M8.93 -106.29 C5.62 -113.14, 1.45 -122.9, 0.2 -129.71 M8.93 -106.29 C5.9 -115.69, 1.97 -125.13, 0.2 -129.71" stroke="#1e1e1e" stroke-width="2" fill="none"></path></g><g transform="translate(463.37948457192476 381.1265453766472) rotate(213.92938041044448 1.4210854715202004e-14 -65)"><path d="M-8.17 -106.16 C-5.62 -112.92, -3.92 -122.73, 0.2 -129.71 M-8.17 -106.16 C-4.56 -115.62, -1.84 -125.11, 0.2 -129.71" stroke="#1e1e1e" stroke-width="2" fill="none"></path></g></g><mask></mask><g stroke-linecap="round" transform="translate(458.9136580207479 302.44509124288186) rotate(213.92938041044448 9.703026737903087 9.703026737903087)"><path d="M9.06 -0.03 C11.02 -0.4, 14.18 0.4, 15.77 1.65 C17.37 2.9, 18.16 5.44, 18.65 7.47 C19.14 9.5, 19.62 11.89, 18.71 13.83 C17.8 15.77, 15.24 18.19, 13.21 19.1 C11.17 20.01, 8.43 20.03, 6.5 19.29 C4.58 18.56, 2.74 16.55, 1.64 14.7 C0.55 12.84, -0.36 10.12, -0.06 8.14 C0.23 6.16, 1.77 4.17, 3.39 2.82 C5.02 1.47, 8.69 0.52, 9.67 0.03 C10.65 -0.47, 9.39 -0.27, 9.3 -0.13 M11.74 -0.55 C13.58 -0.36, 15.17 1.98, 16.57 3.66 C17.97 5.34, 20.15 7.52, 20.15 9.52 C20.15 11.52, 17.91 14.11, 16.58 15.64 C15.25 17.17, 14.1 18.32, 12.17 18.7 C10.23 19.09, 6.95 18.77, 4.99 17.95 C3.02 17.14, 1.21 15.76, 0.39 13.83 C-0.43 11.9, -0.6 8.51, 0.06 6.36 C0.71 4.2, 2.39 2.07, 4.32 0.92 C6.25 -0.24, 10.54 -0.43, 11.64 -0.58 C12.73 -0.73, 11.05 -0.18, 10.9 0.01" stroke="none" stroke-width="0" fill="#ffd8a8"></path><path d="M9.15 0.25 C11.02 -0.03, 13.73 0.63, 15.34 1.88 C16.95 3.14, 18.37 5.72, 18.82 7.79 C19.27 9.85, 18.93 12.43, 18.03 14.27 C17.14 16.12, 15.38 18.09, 13.46 18.86 C11.54 19.62, 8.41 19.48, 6.51 18.84 C4.62 18.2, 3.14 16.67, 2.08 15.02 C1.01 13.37, -0.05 10.99, 0.12 8.92 C0.3 6.84, 1.64 4.01, 3.13 2.59 C4.63 1.16, 8.02 0.7, 9.09 0.38 C10.17 0.05, 9.56 0.48, 9.59 0.63 M9.76 0.44 C11.66 0.34, 14.53 0.79, 16.26 2.14 C17.98 3.5, 19.94 6.4, 20.08 8.56 C20.23 10.72, 18.35 13.31, 17.14 15.08 C15.92 16.86, 14.64 18.55, 12.8 19.22 C10.97 19.89, 8.11 20.02, 6.12 19.11 C4.13 18.2, 1.78 15.68, 0.86 13.76 C-0.07 11.83, 0.16 9.4, 0.58 7.54 C1 5.69, 1.77 3.78, 3.35 2.61 C4.94 1.44, 8.9 0.8, 10.1 0.53 C11.3 0.25, 10.56 0.77, 10.55 0.95" stroke="#1e1e1e" stroke-width="2" fill="none"></path></g><g stroke-linecap="round"><g transform="translate(463.5920649509703 310.9257459123433) rotate(213.92938041044448 5.031199049283051 0)"><path d="M-0.13 0.49 C1.53 0.55, 8.57 0.13, 10.31 0.02 M0.81 0.26 C2.39 0.45, 8.45 0.72, 10 0.73" stroke="#1e1e1e" stroke-width="2" fill="none"></path></g></g><mask></mask><g stroke-linecap="round"><g transform="translate(468.4175823526383 307.3076199326307) rotate(213.92938041044448 0 4.492142008288461)"><path d="M0.16 0.01 C0.2 1.44, 0.19 7.42, 0.16 8.87 M-0.19 -0.28 C-0.17 1.34, -0.02 7.72, -0.03 9.27" stroke="#1e1e1e" stroke-width="2" fill="none"></path></g></g><mask></mask><g stroke-linecap="round" transform="translate(417.39243561460836 257.0082928963484) rotate(213.92938041044448 5.976803816717535 5.976803816717535)"><path d="M5.54 -0.16 C6.76 -0.31, 7.89 0.67, 8.84 1.44 C9.79 2.22, 10.8 3.4, 11.24 4.48 C11.69 5.56, 11.97 6.86, 11.53 7.92 C11.09 8.98, 9.68 10.15, 8.6 10.83 C7.51 11.5, 6.21 12.17, 5.03 11.97 C3.86 11.77, 2.45 10.72, 1.57 9.62 C0.69 8.52, -0.2 6.68, -0.23 5.37 C-0.27 4.07, 0.34 2.65, 1.35 1.79 C2.36 0.93, 5.05 0.44, 5.82 0.22 C6.59 0.01, 6.09 0.47, 5.97 0.49 M5.97 -0.1 C7.16 -0.13, 9.91 0.44, 10.9 1.35 C11.88 2.26, 11.97 3.9, 11.9 5.37 C11.84 6.83, 11.34 9.12, 10.51 10.16 C9.68 11.19, 8.16 11.46, 6.9 11.57 C5.64 11.68, 3.94 11.49, 2.95 10.84 C1.95 10.18, 1.43 8.8, 0.94 7.66 C0.45 6.51, -0.25 5.18, -0.01 3.98 C0.23 2.78, 1.33 1.21, 2.4 0.46 C3.46 -0.29, 5.62 -0.42, 6.36 -0.55 C7.11 -0.68, 6.8 -0.5, 6.87 -0.33" stroke="none" stroke-width="0" fill="#b2f2bb"></path><path d="M5.53 0.22 C6.78 0.11, 8.66 0.84, 9.65 1.58 C10.63 2.32, 11.09 3.47, 11.43 4.68 C11.77 5.89, 12.22 7.65, 11.68 8.86 C11.14 10.06, 9.43 11.44, 8.17 11.89 C6.92 12.34, 5.39 11.97, 4.12 11.56 C2.85 11.15, 1.24 10.44, 0.55 9.42 C-0.13 8.41, -0.22 6.75, 0.01 5.47 C0.23 4.2, 0.88 2.64, 1.91 1.76 C2.95 0.88, 5.48 0.54, 6.22 0.2 C6.97 -0.13, 6.36 -0.31, 6.39 -0.26 M4.25 0.09 C5.38 -0.15, 8.03 0.26, 9.3 0.98 C10.58 1.7, 11.54 3.29, 11.9 4.41 C12.26 5.54, 11.89 6.59, 11.46 7.73 C11.03 8.88, 10.49 10.46, 9.31 11.27 C8.13 12.08, 5.73 12.75, 4.38 12.6 C3.03 12.45, 1.89 11.33, 1.2 10.36 C0.5 9.39, 0.24 8.02, 0.23 6.76 C0.23 5.49, 0.49 3.95, 1.16 2.77 C1.83 1.58, 3.65 0, 4.25 -0.35 C4.85 -0.7, 4.48 0.51, 4.73 0.67" stroke="#1e1e1e" stroke-width="2" fill="none"></path></g><g stroke-linecap="round"><g transform="translate(420.46675507420105 262.5984186765962) rotate(213.92938041044448 3.099083460520184 0)"><path d="M-0.02 -0.23 C1.02 -0.26, 5.37 -0.27, 6.43 -0.24 M-0.46 0.42 C0.54 0.44, 5.16 0.1, 6.27 0.08" stroke="#1e1e1e" stroke-width="2" fill="none"></path></g></g><mask></mask><g stroke-linecap="round" transform="translate(458.59083072831163 465.0724795883613) rotate(180.9597992312775 92.49999999999999 20.470827793195184)"><path d="M112.09 0.19 C124.98 0.42, 140.36 2.4, 150.99 4.4 C161.62 6.41, 170.18 9.57, 175.88 12.22 C181.58 14.87, 185.28 17.33, 185.19 20.31 C185.09 23.28, 181.15 27.23, 175.31 30.06 C169.48 32.9, 160.56 35.49, 150.17 37.32 C139.78 39.14, 125.93 40.43, 112.96 41.02 C99.99 41.6, 85.32 41.73, 72.34 40.84 C59.37 39.96, 45.54 37.67, 35.12 35.73 C24.7 33.78, 15.77 31.55, 9.8 29.18 C3.82 26.81, -0.59 24.56, -0.73 21.49 C-0.87 18.42, 3.07 13.52, 8.98 10.77 C14.88 8.02, 24.18 6.63, 34.69 5 C45.2 3.36, 58.12 1.69, 72.03 0.95 C85.93 0.21, 109.97 0.41, 118.12 0.56 C126.28 0.71, 121.45 1.62, 120.95 1.85 M136.34 3.85 C148.22 4.93, 158.97 7.54, 166.6 9.53 C174.23 11.52, 179.66 12.94, 182.14 15.8 C184.61 18.66, 184.47 23.73, 181.44 26.71 C178.42 29.69, 172.7 31.45, 163.99 33.69 C155.28 35.92, 141.83 39.17, 129.19 40.13 C116.54 41.09, 101.43 39.55, 88.1 39.46 C74.78 39.36, 61.02 40.86, 49.23 39.53 C37.43 38.21, 25.05 34.28, 17.36 31.51 C9.66 28.74, 5.29 25.64, 3.08 22.93 C0.86 20.22, 1.01 17.94, 4.06 15.24 C7.12 12.54, 13.05 8.78, 21.42 6.71 C29.79 4.63, 41.75 3.73, 54.29 2.79 C66.82 1.85, 83 1.23, 96.6 1.05 C110.21 0.86, 129.69 1.5, 135.93 1.67 C142.16 1.84, 134.82 1.49, 134.01 2.06" stroke="#1e1e1e" stroke-width="2" fill="none"></path></g><g stroke-linecap="round"><g transform="translate(508.3892990399397 461.4043546818758) rotate(180.9597992312775 -2.2622282608695663 5.171577547754573)"><path d="M0.24 -0.1 C-1.03 0.75, -7.7 2.89, -7.27 4.72 C-6.84 6.55, 1.13 9.92, 2.84 10.87 M-0.29 -0.63 C-1.64 0.31, -8.01 3.4, -7.56 5.18 C-7.11 6.97, 0.63 9.11, 2.4 10.07" stroke="#1e1e1e" stroke-width="2" fill="none"></path></g></g><mask></mask><g stroke-linecap="round"><g transform="translate(547.4409807934575 555.5362623624535) rotate(180.9597992312775 1.4210854715202004e-14 -65)"><path d="M0.59 -0.99 C0.44 -22.43, -0.28 -107.38, -0.38 -128.86 M-0.56 1.1 C-0.95 -20.62, -1.48 -108.78, -1.53 -130.38" stroke="#1e1e1e" stroke-width="2" fill="none"></path></g><g transform="translate(547.4409807934575 555.5362623624535) rotate(180.9597992312775 1.4210854715202004e-14 -65)"><path d="M7.13 -106.93 C2.54 -115.6, 3.11 -123.12, -1.53 -130.38 M7.13 -106.93 C4.15 -114.82, 2.32 -121.66, -1.53 -130.38" stroke="#1e1e1e" stroke-width="2" fill="none"></path></g><g transform="translate(547.4409807934575 555.5362623624535) rotate(180.9597992312775 1.4210854715202004e-14 -65)"><path d="M-9.97 -106.85 C-8.67 -115.63, -2.21 -123.18, -1.53 -130.38 M-9.97 -106.85 C-7.63 -114.8, -4.12 -121.66, -1.53 -130.38" stroke="#1e1e1e" stroke-width="2" fill="none"></path></g></g><mask></mask><g stroke-linecap="round" transform="translate(539.3816597456242 476.19027859125043) rotate(180.9597992312775 9.703026737903087 9.703026737903087)"><path d="M8.34 0.32 C10.34 -0.08, 13.15 0.35, 14.86 1.3 C16.56 2.24, 17.94 4.09, 18.57 6.01 C19.19 7.93, 19.22 10.79, 18.61 12.84 C18 14.88, 16.63 17.16, 14.9 18.29 C13.17 19.42, 10.4 20.07, 8.23 19.63 C6.05 19.2, 3.19 17.25, 1.86 15.69 C0.52 14.12, 0.16 12.36, 0.23 10.25 C0.3 8.14, 0.9 4.67, 2.25 3.04 C3.61 1.41, 7.29 0.94, 8.35 0.47 C9.4 -0.01, 8.57 0.13, 8.58 0.2 M11.33 -0.28 C13.44 -0.08, 16.47 1.34, 17.78 3.01 C19.08 4.67, 19.33 7.61, 19.14 9.71 C18.95 11.82, 18.04 14.14, 16.65 15.64 C15.26 17.14, 12.76 18.41, 10.79 18.72 C8.82 19.02, 6.5 18.49, 4.81 17.46 C3.13 16.43, 1.46 14.35, 0.69 12.53 C-0.08 10.71, -0.66 8.5, 0.19 6.56 C1.04 4.62, 3.96 1.94, 5.78 0.87 C7.6 -0.2, 10.13 0.3, 11.11 0.14 C12.09 -0.03, 11.65 -0.36, 11.63 -0.13" stroke="none" stroke-width="0" fill="#ffd8a8"></path><path d="M9.7 -0.06 C11.61 -0.2, 13.99 1.18, 15.57 2.58 C17.15 3.98, 18.77 6.32, 19.17 8.36 C19.58 10.39, 19 13, 18.01 14.77 C17.02 16.54, 15.15 18.37, 13.24 18.99 C11.33 19.61, 8.49 19.21, 6.55 18.47 C4.62 17.73, 2.76 16.18, 1.63 14.53 C0.5 12.89, -0.52 10.71, -0.23 8.6 C0.05 6.5, 1.61 3.3, 3.34 1.91 C5.06 0.52, 8.87 0.5, 10.11 0.26 C11.34 0.02, 10.68 0.35, 10.73 0.45 M8.31 0.76 C10.18 0.54, 13.25 1.09, 15.08 2.29 C16.92 3.5, 18.8 5.96, 19.32 7.98 C19.85 10.01, 19.3 12.77, 18.26 14.45 C17.22 16.13, 14.99 17.23, 13.11 18.07 C11.22 18.91, 8.72 20, 6.95 19.51 C5.18 19.02, 3.63 16.85, 2.46 15.14 C1.3 13.42, -0.04 11.42, -0.03 9.24 C-0.03 7.06, 1 3.52, 2.5 2.06 C4 0.61, 7.94 0.92, 8.97 0.52 C9.99 0.13, 8.49 -0.29, 8.62 -0.32" stroke="#1e1e1e" stroke-width="2" fill="none"></path></g><g stroke-linecap="round"><g transform="translate(544.0255156350469 486.2322063944011) rotate(180.9597992312775 5.031199049283053 0)"><path d="M-0.02 0.06 C1.75 -0.01, 8.76 0.17, 10.43 0.1 M-0.7 -0.38 C1.04 -0.39, 8.47 -0.89, 10.18 -0.81" stroke="#1e1e1e" stroke-width="2" fill="none"></path></g></g><mask></mask><g stroke-linecap="round"><g transform="translate(548.8425339742631 481.2937336891965) rotate(180.9597992312775 0 4.492142008288461)"><path d="M0.24 0.07 C0.23 1.52, -0.05 7.29, -0.05 8.77 M-0.07 -0.21 C-0.13 1.29, -0.39 7.53, -0.35 9.11" stroke="#1e1e1e" stroke-width="2" fill="none"></path></g></g><mask></mask><g stroke-linecap="round" transform="translate(478.3928973957939 463.29408742206795) rotate(180.9597992312775 5.976803816717535 5.976803816717531)"><path d="M5.81 -0.14 C7.11 -0.11, 9.13 0.73, 10.17 1.64 C11.21 2.56, 11.95 4.18, 12.03 5.36 C12.12 6.54, 11.32 7.6, 10.68 8.73 C10.04 9.85, 9.33 11.71, 8.2 12.11 C7.06 12.51, 5.14 11.58, 3.89 11.11 C2.64 10.65, 1.37 10.34, 0.68 9.3 C-0.01 8.26, -0.47 6.21, -0.24 4.85 C-0.02 3.5, 0.84 2.04, 2.01 1.18 C3.19 0.32, 6.05 -0.08, 6.81 -0.29 C7.58 -0.5, 6.73 -0.27, 6.6 -0.07 M4.31 -0.37 C5.47 -0.77, 7.13 -0.53, 8.36 0.05 C9.59 0.63, 11.1 1.88, 11.69 3.12 C12.28 4.36, 12.39 6.11, 11.9 7.49 C11.42 8.88, 9.75 10.74, 8.76 11.43 C7.76 12.12, 7.22 11.87, 5.94 11.63 C4.65 11.39, 2.04 10.98, 1.05 10.01 C0.06 9.04, 0.06 7, 0 5.79 C-0.07 4.58, -0.14 3.68, 0.69 2.75 C1.51 1.82, 4.19 0.5, 4.95 0.21 C5.71 -0.09, 5.21 0.98, 5.24 0.97" stroke="none" stroke-width="0" fill="#b2f2bb"></path><path d="M6.94 0.4 C8.18 0.51, 9.88 1.51, 10.73 2.39 C11.58 3.27, 12.02 4.43, 12.03 5.66 C12.04 6.89, 11.7 8.65, 10.79 9.77 C9.89 10.88, 7.9 12.21, 6.58 12.36 C5.26 12.52, 3.92 11.39, 2.87 10.69 C1.83 10, 0.73 9.31, 0.33 8.21 C-0.06 7.11, 0.01 5.34, 0.52 4.08 C1.03 2.83, 2.31 1.29, 3.4 0.67 C4.49 0.04, 6.39 0.47, 7.07 0.33 C7.74 0.2, 7.36 -0.16, 7.45 -0.12 M6.77 0.68 C7.83 0.61, 9.06 0.7, 9.89 1.66 C10.72 2.61, 11.53 5.05, 11.77 6.39 C12.01 7.73, 12.12 8.72, 11.32 9.71 C10.52 10.69, 8.42 12.18, 6.98 12.3 C5.53 12.42, 3.73 11.06, 2.64 10.44 C1.54 9.81, 0.85 9.72, 0.42 8.55 C-0.01 7.38, -0.51 4.82, 0.04 3.42 C0.58 2.03, 2.48 0.71, 3.71 0.16 C4.93 -0.39, 6.96 0.16, 7.41 0.14 C7.86 0.11, 6.62 -0.17, 6.42 0.01" stroke="#1e1e1e" stroke-width="2" fill="none"></path></g><g stroke-linecap="round"><g transform="translate(480.7739950980932 469.125379819841) rotate(180.9597992312775 3.099083460520184 0)"><path d="M0.26 -0.05 C1.36 -0.03, 5.48 -0.13, 6.51 -0.1 M-0.03 -0.38 C1.05 -0.29, 5.33 0.15, 6.38 0.3" stroke="#1e1e1e" stroke-width="2" fill="none"></path></g></g><mask></mask></svg>