<svg version="1.1" xmlns="http://www.w3.org/2000/svg" viewBox="0 0 312.35651008440107 75.24702967755036" width="312.35651008440107" height="75.24702967755036" class="excalidraw-svg"><!-- svg-source:excalidraw --><metadata></metadata><defs><style class="style-fonts">
      </style></defs><rect x="0" y="0" width="312.35651008440107" height="75.24702967755036" fill="#ffffff"></rect><g stroke-linecap="round"><g transform="translate(11.788701058486481 12.367425424088765) rotate(0 0 26)"><path d="M-0.47 0.62 C-0.65 9.2, -0.47 42.81, -0.55 51.43 M1.49 -0.11 C1.05 8.64, -1.78 44.28, -1.79 52.67" stroke="#1e1e1e" stroke-width="2" fill="none"></path></g></g><mask></mask><g stroke-linecap="round"><g transform="translate(31.937950663436197 12.085105952392382) rotate(0 0 26)"><path d="M0.55 0.47 C0.34 9.51, -0.26 44.7, -0.49 53.16 M-0.63 -0.33 C-1.1 8.51, -2.08 42.9, -1.69 51.65" stroke="#1e1e1e" stroke-width="2" fill="none"></path></g></g><mask></mask><g stroke-linecap="round"><g transform="translate(281.3355624289904 11.232689611325043) rotate(0 0 26)"><path d="M0.51 0.19 C0.48 8.89, 0.84 42.45, 0.87 51.05 M-0.68 -0.75 C-0.88 8.16, 0.22 43.13, 0.38 52.09" stroke="#1e1e1e" stroke-width="2" fill="none"></path></g></g><mask></mask><g stroke-linecap="round"><g transform="translate(301.4848120339401 10.95037013962866) rotate(0 0 26)"><path d="M0.87 -0.95 C0.9 7.65, 0.71 43.04, 0.68 51.81 M-0.13 1.17 C-0.25 9.94, 0.02 44.64, 0.09 53.25" stroke="#1e1e1e" stroke-width="2" fill="none"></path></g></g><mask></mask><g stroke-linecap="round"><g transform="translate(33.78870105848648 35.367425424088765) rotate(0 123 0)"><path d="M0.81 1.19 C41.78 1.24, 205.16 -0.32, 246.2 -0.63 M-0.22 0.77 C40.57 1.05, 204.17 0.65, 245.36 0.58" stroke="#1e1e1e" stroke-width="2" fill="none"></path></g></g><mask></mask></svg>