<svg version="1.1" xmlns="http://www.w3.org/2000/svg" viewBox="0 0 873 251.01273020394146" width="873" height="251.01273020394146" class="excalidraw-svg"><!-- svg-source:excalidraw --><metadata></metadata><defs><style class="style-fonts">
      </style></defs><rect x="0" y="0" width="873" height="251.01273020394146" fill="#ffffff"></rect><g stroke-linecap="round"><g transform="translate(10 27) rotate(0 426.5 43.5)"><path d="M0 0 C37.18 -0.83, 79.38 -1.99, 109 -2 M0 0 C30.84 -1.99, 60.55 -1.05, 109 -2 M109 -2 C110.76 35.84, 107.73 71.98, 108 92 M109 -2 C108.63 31.6, 109.09 64.67, 108 92 M108 92 C138.78 91.38, 167.08 93.86, 215 93 M108 92 C148.14 91.9, 189.05 92.35, 215 93 M215 93 C214.14 55.45, 213.55 17.06, 214 -6 M215 93 C215.36 73.33, 215.18 52.26, 214 -6 M214 -6 C248.99 -6.12, 279.39 -7.52, 326 -6 M214 -6 C258.48 -6.32, 301.54 -7.06, 326 -6 M326 -6 C327.5 20.02, 325.03 44.31, 326 88 M326 -6 C325.51 18.59, 325.78 45.5, 326 88 M326 88 C365.76 87.79, 403.65 88.4, 446 88 M326 88 C373.5 86.26, 421.29 86.5, 446 88 M446 88 C444.54 61.92, 443.99 32.97, 446 -6 M446 88 C447.67 62.95, 447.66 39.1, 446 -6 M446 -6 C489.73 -3.4, 531.68 -4.33, 576 -6 M446 -6 C489.84 -6.47, 532.76 -7.76, 576 -6 M576 -6 C575.68 27.5, 575.14 64.72, 576 82 M576 -6 C575.7 24.22, 576.8 57.31, 576 82 M576 82 C615.59 82.69, 650.43 82.54, 704 82 M576 82 C622.47 82.07, 671.32 82.93, 704 82 M704 82 C705.14 48.43, 705.58 17.31, 704 -5 M704 82 C703.03 59.21, 704.06 37.39, 704 -5 M704 -5 C740.38 -5.06, 774.54 -5.25, 853 -5 M704 -5 C755.83 -4.8, 810.53 -5.4, 853 -5" stroke="#1e1e1e" stroke-width="2" fill="none"></path></g></g><mask></mask><g stroke-linecap="round" transform="translate(373 10) rotate(0 18 20.5)"><path d="M22.64 0.54 C26.26 1.3, 30.85 4.65, 33.01 8.16 C35.18 11.67, 36.02 17.1, 35.6 21.61 C35.19 26.12, 33.16 32.01, 30.54 35.2 C27.92 38.4, 23.64 40.44, 19.89 40.77 C16.13 41.1, 11.29 39.65, 8.02 37.17 C4.75 34.7, 1.31 30.09, 0.27 25.91 C-0.78 21.73, 0.16 16.05, 1.77 12.1 C3.39 8.15, 6.39 4.06, 9.95 2.23 C13.51 0.41, 20.77 1.23, 23.15 1.16 C25.53 1.08, 24.36 1.58, 24.24 1.79 M15.72 0.18 C19.36 -0.59, 25.12 1.05, 28.35 3.5 C31.58 5.94, 34.05 10.74, 35.09 14.85 C36.14 18.96, 36.14 24.21, 34.62 28.17 C33.1 32.12, 29.28 36.57, 25.98 38.59 C22.68 40.61, 18.54 41.18, 14.82 40.3 C11.1 39.42, 6.12 36.67, 3.67 33.32 C1.22 29.96, -0.12 24.51, 0.13 20.17 C0.39 15.82, 2.59 10.66, 5.2 7.25 C7.81 3.84, 13.92 0.83, 15.79 -0.31 C17.67 -1.45, 16.31 -0.15, 16.44 0.39" stroke="none" stroke-width="0" fill="#ffc9c9"></path><path d="M14.41 0.57 C17.94 -0.47, 23.66 0.72, 27.02 2.92 C30.39 5.12, 33.29 9.68, 34.61 13.77 C35.92 17.86, 36.2 23.36, 34.93 27.45 C33.67 31.54, 30.4 36.13, 27.02 38.33 C23.63 40.52, 18.36 41.34, 14.64 40.62 C10.92 39.91, 7.13 37.3, 4.68 34.04 C2.24 30.77, 0.09 25.44, -0.03 21.02 C-0.16 16.6, 1.42 10.91, 3.93 7.52 C6.45 4.13, 13.03 1.8, 15.06 0.69 C17.09 -0.42, 16.04 0.67, 16.1 0.84 M21.53 1.08 C24.98 1.69, 29.53 4.72, 31.84 8.13 C34.15 11.55, 35.42 17.3, 35.4 21.59 C35.37 25.87, 34.27 30.63, 31.68 33.84 C29.09 37.06, 23.7 40.12, 19.86 40.87 C16.03 41.62, 11.72 40.8, 8.66 38.33 C5.6 35.86, 2.65 30.33, 1.53 26.03 C0.4 21.74, 0.55 16.5, 1.9 12.55 C3.25 8.59, 6.37 4.26, 9.62 2.29 C12.88 0.33, 19.39 1.03, 21.44 0.75 C23.48 0.48, 21.92 0.46, 21.89 0.64" stroke="#1e1e1e" stroke-width="2" fill="none"></path></g><g stroke-linecap="round" transform="translate(355 63.5) rotate(0 18 20.5)"><path d="M14.57 0.48 C18.18 -0.56, 23.25 0.37, 26.69 2.41 C30.13 4.45, 33.76 8.58, 35.22 12.72 C36.68 16.86, 36.74 23.09, 35.46 27.25 C34.19 31.4, 30.96 35.32, 27.58 37.65 C24.21 39.97, 19.01 41.73, 15.21 41.2 C11.4 40.67, 7.24 37.89, 4.76 34.46 C2.28 31.03, 0.57 24.98, 0.34 20.59 C0.11 16.21, 0.86 11.64, 3.38 8.17 C5.91 4.7, 13.2 1.04, 15.5 -0.22 C17.8 -1.49, 17.17 0.17, 17.16 0.61 M14.59 0.85 C18.23 -0.08, 24.34 0.45, 27.85 2.62 C31.37 4.78, 34.54 9.66, 35.71 13.86 C36.87 18.06, 36.26 23.6, 34.86 27.8 C33.46 32.01, 30.69 37.04, 27.32 39.1 C23.94 41.17, 18.39 41.27, 14.62 40.19 C10.85 39.1, 7.05 35.84, 4.71 32.6 C2.38 29.36, 0.53 24.96, 0.61 20.74 C0.69 16.53, 2.84 10.74, 5.19 7.31 C7.55 3.87, 13.11 1.17, 14.71 0.13 C16.32 -0.91, 14.79 0.72, 14.81 1.06" stroke="none" stroke-width="0" fill="#ffc9c9"></path><path d="M14.81 0.75 C18.35 -0.23, 24.02 0.53, 27.33 2.7 C30.65 4.87, 33.42 9.64, 34.71 13.76 C36 17.88, 36.35 23.28, 35.06 27.4 C33.78 31.53, 30.34 36.39, 27.01 38.52 C23.69 40.66, 18.93 41.08, 15.14 40.23 C11.35 39.38, 6.73 36.79, 4.26 33.42 C1.79 30.06, 0.35 24.32, 0.3 20.03 C0.25 15.74, 1.27 10.95, 3.97 7.68 C6.67 4.41, 14.3 1.61, 16.5 0.4 C18.69 -0.81, 17.25 0.12, 17.15 0.41 M15.23 0.54 C18.6 -0.47, 23.29 0.03, 26.52 2.27 C29.75 4.5, 33.14 9.64, 34.63 13.97 C36.11 18.3, 36.83 24.17, 35.43 28.25 C34.03 32.32, 29.62 36.31, 26.21 38.41 C22.8 40.51, 18.8 41.52, 15 40.84 C11.2 40.16, 6.01 37.81, 3.41 34.31 C0.81 30.81, -0.71 24.46, -0.63 19.84 C-0.56 15.22, 1.27 9.76, 3.86 6.6 C6.44 3.44, 13.11 1.79, 14.87 0.86 C16.62 -0.07, 14.42 0.82, 14.39 1" stroke="#1e1e1e" stroke-width="2" fill="none"></path></g><g stroke-linecap="round" transform="translate(402 60.5) rotate(0 18 20.5)"><path d="M16.07 0.21 C19.7 -0.51, 24.93 1.09, 28.04 3.45 C31.14 5.81, 33.53 10.25, 34.7 14.35 C35.87 18.45, 36.41 23.94, 35.07 28.06 C33.72 32.18, 30.06 36.95, 26.63 39.09 C23.21 41.23, 18.4 41.89, 14.53 40.89 C10.66 39.9, 5.83 36.68, 3.41 33.12 C0.99 29.57, -0.18 24, 0.03 19.57 C0.24 15.13, 1.98 9.74, 4.68 6.52 C7.38 3.31, 14.16 1.38, 16.24 0.29 C18.32 -0.8, 17.14 -0.38, 17.15 -0.02 M20.16 0.91 C23.75 1.3, 28.37 3.85, 30.91 7.19 C33.44 10.52, 35.09 16.57, 35.38 20.93 C35.66 25.3, 34.89 30.04, 32.6 33.37 C30.31 36.71, 25.44 40.17, 21.64 40.96 C17.83 41.75, 13.05 40.37, 9.76 38.1 C6.46 35.83, 3.35 31.49, 1.87 27.36 C0.39 23.23, -0.17 17.4, 0.89 13.31 C1.96 9.22, 4.93 4.9, 8.27 2.81 C11.61 0.73, 18.73 1.09, 20.94 0.81 C23.15 0.52, 21.49 0.93, 21.51 1.1" stroke="none" stroke-width="0" fill="#ffc9c9"></path><path d="M22.68 0.76 C26.28 1.43, 30 4.73, 32.28 8.3 C34.56 11.87, 36.54 17.71, 36.37 22.18 C36.2 26.64, 34.1 32.07, 31.26 35.1 C28.42 38.14, 23.18 40.03, 19.35 40.39 C15.52 40.75, 11.47 39.63, 8.29 37.26 C5.12 34.89, 1.39 30.45, 0.3 26.18 C-0.8 21.91, 0.07 15.73, 1.74 11.66 C3.41 7.59, 6.75 3.57, 10.33 1.75 C13.91 -0.07, 21.08 0.73, 23.23 0.75 C25.38 0.77, 23.29 1.58, 23.24 1.89 M21.86 1.15 C25.59 1.82, 30.68 4.69, 32.96 8.2 C35.24 11.71, 35.97 17.74, 35.55 22.21 C35.14 26.68, 32.91 31.79, 30.48 35.01 C28.04 38.24, 24.6 41.21, 20.95 41.57 C17.3 41.94, 11.95 39.79, 8.58 37.21 C5.2 34.63, 1.83 30.31, 0.7 26.1 C-0.43 21.88, 0.32 15.84, 1.81 11.91 C3.31 7.98, 6.4 4.29, 9.68 2.52 C12.97 0.74, 19.53 1.41, 21.52 1.25 C23.5 1.1, 21.56 1.38, 21.62 1.59" stroke="#1e1e1e" stroke-width="2" fill="none"></path></g><g stroke-linecap="round"><g transform="translate(132 240) rotate(0 24.5 -55)"><path d="M1.19 1.01 C9.31 -17.09, 40.84 -91.25, 48.9 -109.61 M0.35 0.5 C8.3 -17.89, 39.79 -92.94, 47.9 -111.53" stroke="#1e1e1e" stroke-width="2" fill="none"></path></g><g transform="translate(132 240) rotate(0 24.5 -55)"><path d="M46.54 -86.57 C48.86 -94.58, 48.24 -101.36, 47.9 -111.53 M46.54 -86.57 C46.55 -95.93, 47.02 -105.68, 47.9 -111.53" stroke="#1e1e1e" stroke-width="2" fill="none"></path></g><g transform="translate(132 240) rotate(0 24.5 -55)"><path d="M30.81 -93.28 C38.01 -99.34, 42.32 -104.02, 47.9 -111.53 M30.81 -93.28 C36.6 -100.31, 42.87 -107.58, 47.9 -111.53" stroke="#1e1e1e" stroke-width="2" fill="none"></path></g></g><mask></mask></svg>