<svg version="1.1" xmlns="http://www.w3.org/2000/svg" viewBox="0 0 485.69499624849755 207.2589641119019" width="485.69499624849755" height="207.2589641119019" class="excalidraw-svg"><!-- svg-source:excalidraw --><metadata></metadata><defs><style class="style-fonts">
      </style></defs><rect x="0" y="0" width="485.69499624849755" height="207.2589641119019" fill="#ffffff"></rect><g stroke-linecap="round" transform="translate(11.129426434003562 58.9598702023178) rotate(0 121 31)"><path d="M15.5 0 C95.96 2.75, 175.87 -0.72, 226.5 0 C234.21 -1.81, 244.66 4.38, 242 15.5 C240.32 24.12, 240.64 33.85, 242 46.5 C241.91 59.93, 239.07 58.58, 226.5 62 C149.3 61.13, 70.24 59.61, 15.5 62 C6.56 62.78, -1.25 59.79, 0 46.5 C-0.12 36.83, -0.14 27.84, 0 15.5 C-2.36 1.68, 3.79 0.17, 15.5 0" stroke="none" stroke-width="0" fill="#e7f5ff"></path><path d="M15.5 0 C74.18 -2.53, 129.47 -1.65, 226.5 0 M15.5 0 C95.47 -0.36, 176.38 0.21, 226.5 0 M226.5 0 C238.83 -0.96, 241.73 5.6, 242 15.5 M226.5 0 C236.7 -2.04, 240.91 4.69, 242 15.5 M242 15.5 C241.14 23.47, 241.8 26.76, 242 46.5 M242 15.5 C242.27 27.65, 241.05 38.7, 242 46.5 M242 46.5 C241.63 56.21, 237.44 62.8, 226.5 62 M242 46.5 C244.15 54.96, 238.36 62.04, 226.5 62 M226.5 62 C180.29 63.16, 131.43 62.89, 15.5 62 M226.5 62 C179.33 61.69, 131.92 60.94, 15.5 62 M15.5 62 C5.67 63.07, -0.89 54.95, 0 46.5 M15.5 62 C6.02 62.28, 1.22 55.36, 0 46.5 M0 46.5 C1.73 37.97, 0.07 24.18, 0 15.5 M0 46.5 C-0.19 40.34, -0.2 33.29, 0 15.5 M0 15.5 C-1.46 4.05, 5.9 -1.05, 15.5 0 M0 15.5 C0.38 5.63, 6.58 -1.88, 15.5 0" stroke="#1e1e1e" stroke-width="2" fill="none"></path></g><g stroke-linecap="round"><g transform="translate(11.129426434003562 11.959870202317802) rotate(0 0 25.5)"><path d="M0.25 -0.53 C0.16 8.03, 0.46 43.05, 0.61 51.72 M-1.07 1.81 C-1.38 9.99, -0.36 42.05, -0.02 49.98" stroke="#1e1e1e" stroke-width="2" fill="none"></path></g></g><mask></mask><g stroke-linecap="round"><g transform="translate(251.39084445944167 9.36138308033344) rotate(0 0 25.5)"><path d="M-0.49 1.1 C-0.68 9.64, -0.55 43.25, -0.36 51.38 M1.45 0.64 C1.01 8.78, -1.3 41.13, -1.5 49.46" stroke="#1e1e1e" stroke-width="2" fill="none"></path></g></g><mask></mask><g stroke-linecap="round" transform="translate(350.12942643400356 78.9598702023178) rotate(0 43.5 43.5)"><path d="M23.16 3.72 C29.26 -0.44, 39.3 -1.43, 47.22 -0.36 C55.14 0.7, 64.59 5.02, 70.69 10.09 C76.79 15.16, 81.21 22.66, 83.82 30.07 C86.42 37.48, 87.9 46.99, 86.3 54.56 C84.71 62.13, 80.17 70.22, 74.23 75.5 C68.3 80.77, 58.72 84.71, 50.71 86.23 C42.69 87.75, 33.16 87.63, 26.13 84.61 C19.1 81.58, 12.77 74.78, 8.52 68.08 C4.28 61.38, 0.98 52.08, 0.64 44.41 C0.31 36.75, 2.25 28.82, 6.51 22.09 C10.78 15.36, 22.76 7.15, 26.22 4.04 C29.69 0.92, 27.05 2.73, 27.28 3.42 M33.83 0.22 C41.13 -1.99, 52.67 0.79, 59.88 3.57 C67.1 6.35, 72.44 10.97, 77.12 16.92 C81.8 22.88, 87.19 31.14, 87.96 39.29 C88.73 47.45, 85.48 58.98, 81.74 65.87 C78.01 72.76, 72.32 77.18, 65.54 80.63 C58.77 84.08, 49.02 86.71, 41.1 86.56 C33.18 86.4, 24.23 84.21, 18.01 79.68 C11.79 75.16, 6.53 67.2, 3.77 59.4 C1.01 51.6, -0.04 40.47, 1.42 32.89 C2.88 25.32, 7.11 19.14, 12.53 13.96 C17.95 8.79, 30.5 3.69, 33.94 1.85 C37.38 0.02, 33.04 2.21, 33.18 2.95" stroke="none" stroke-width="0" fill="#eaddd7"></path><path d="M39.51 0.38 C47.07 -0.96, 56.83 0.87, 63.79 4.4 C70.75 7.93, 77.27 14.83, 81.27 21.59 C85.28 28.35, 88.24 37.28, 87.84 44.98 C87.43 52.68, 83.61 61.49, 78.86 67.81 C74.1 74.14, 66.54 79.72, 59.32 82.92 C52.1 86.13, 43.31 88.32, 35.55 87.04 C27.8 85.77, 18.5 80.9, 12.79 75.28 C7.08 69.67, 3.15 61, 1.28 53.35 C-0.59 45.7, -0.85 36.64, 1.58 29.36 C4.02 22.08, 8.67 14.7, 15.88 9.69 C23.09 4.67, 39.19 0.73, 44.85 -0.73 C50.5 -2.19, 49.79 0.16, 49.79 0.93 M51.96 -0.02 C59.54 0.98, 68.23 6.58, 73.86 12.18 C79.49 17.77, 83.82 26.39, 85.73 33.57 C87.65 40.74, 87.71 48.09, 85.36 55.23 C83.02 62.38, 77.96 71.41, 71.66 76.43 C65.37 81.44, 55.67 84.25, 47.6 85.32 C39.54 86.4, 29.94 86.25, 23.26 82.87 C16.57 79.49, 11.21 71.98, 7.5 65.06 C3.79 58.14, 1.19 48.81, 1.01 41.33 C0.82 33.85, 2.23 26.3, 6.4 20.18 C10.58 14.07, 18.66 7.81, 26.05 4.63 C33.44 1.45, 46.78 1.39, 50.76 1.1 C54.73 0.8, 50.14 2.24, 49.9 2.86" stroke="#1e1e1e" stroke-width="2" fill="none"></path></g><g stroke-linecap="round"><g transform="translate(379.12942643400356 79.9598702023178) rotate(0 0.5 -13.5)" fill-rule="evenodd"><path d="M2.23 0.8 C1.01 -1.94, -1.76 -10.8, -5.86 -15.09 C-9.95 -19.39, -25.57 -23.99, -22.34 -24.98 C-19.11 -25.97, 6.04 -24.18, 13.51 -21.05 C20.98 -17.91, 24.51 -9.91, 22.48 -6.17 C20.45 -2.43, 4.92 0.27, 1.34 1.41" stroke="none" stroke-width="0" fill="#eaddd7" fill-rule="evenodd"></path><path d="M-0.07 -0.04 C-1.07 -2.65, -1.74 -11.81, -4.88 -16.13 C-8.03 -20.44, -21.62 -25.08, -18.94 -25.92 C-16.25 -26.77, 4.7 -24.73, 11.22 -21.19 C17.74 -17.66, 22.03 -8.36, 20.18 -4.7 C18.33 -1.05, 3.64 -0.16, 0.1 0.74 M-1.56 -1.1 C-2.29 -3.57, 0.3 -10.75, -2.63 -15.18 C-5.56 -19.61, -21.43 -26.78, -19.14 -27.7 C-16.86 -28.62, 4.21 -24.55, 11.06 -20.71 C17.91 -16.88, 23.52 -8.15, 21.94 -4.68 C20.36 -1.22, 5.39 -0.64, 1.57 0.08" stroke="#1e1e1e" stroke-width="2" fill="none"></path></g></g><mask></mask><g stroke-linecap="round"><g transform="translate(430.7090379582367 92.50771356147496) rotate(56.21733250799301 0.5 -13.5)" fill-rule="evenodd"><path d="M-0.7 0.38 C-1.69 -1.72, -3.44 -8.2, -6.41 -12.75 C-9.38 -17.29, -21.78 -25.83, -18.53 -26.88 C-15.29 -27.93, 6.85 -23.19, 13.07 -19.05 C19.3 -14.91, 20.86 -5.26, 18.82 -2.04 C16.78 1.17, 3.75 -0.12, 0.81 0.25" stroke="none" stroke-width="0" fill="#eaddd7" fill-rule="evenodd"></path><path d="M1.13 -0.41 C0.34 -3.01, -1.42 -10.63, -4.9 -15.19 C-8.37 -19.76, -22.56 -26.97, -19.73 -27.8 C-16.89 -28.63, 5.44 -24.01, 12.12 -20.16 C18.8 -16.31, 22.41 -8.1, 20.34 -4.71 C18.27 -1.32, 2.92 -0.5, -0.29 0.19 M0.26 -1.67 C-0.15 -4.12, 0.78 -9.55, -2.66 -13.76 C-6.09 -17.97, -22.86 -26.01, -20.35 -26.9 C-17.83 -27.8, 5.34 -22.84, 12.43 -19.14 C19.52 -15.44, 24.09 -7.75, 22.18 -4.69 C20.27 -1.63, 4.89 -1.77, 0.97 -0.76" stroke="#1e1e1e" stroke-width="2" fill="none"></path></g></g><mask></mask><g stroke-linecap="round"><g transform="translate(450.7090379582367 151.50771356147493) rotate(130.4817490438616 0.5 -13.500000000000007)" fill-rule="evenodd"><path d="M0.42 0.79 C-0.57 -1.06, -1.07 -7.83, -4.42 -12.77 C-7.78 -17.72, -22.54 -27.65, -19.72 -28.89 C-16.9 -30.14, 5.94 -24.8, 12.5 -20.25 C19.06 -15.7, 21.78 -4.95, 19.64 -1.6 C17.51 1.75, 3.06 -0.66, -0.3 -0.14" stroke="none" stroke-width="0" fill="#eaddd7" fill-rule="evenodd"></path><path d="M0.75 1.04 C0.1 -1.6, -0.16 -11.39, -3.72 -16.16 C-7.27 -20.93, -23.08 -27.01, -20.59 -27.6 C-18.1 -28.19, 4.17 -23.83, 11.23 -19.7 C18.29 -15.58, 23.51 -6.33, 21.78 -2.85 C20.04 0.63, 4.3 0.64, 0.81 1.16 M-0.32 0.54 C-1.11 -1.97, -0.96 -10.71, -4.51 -15.23 C-8.07 -19.75, -24.27 -26.07, -21.67 -26.6 C-19.07 -27.14, 4.01 -21.96, 11.07 -18.44 C18.14 -14.93, 22.73 -8.71, 20.72 -5.51 C18.7 -2.32, 2.72 -0.03, -1.01 0.74" stroke="#1e1e1e" stroke-width="2" fill="none"></path></g></g><mask></mask><g stroke-linecap="round"><g transform="translate(396.42112704501324 191.9412811849683) rotate(195.54410264239178 0.5 -13.5)" fill-rule="evenodd"><path d="M0.34 -2.02 C-0.58 -4.72, -2.02 -11.12, -5.26 -15.37 C-8.5 -19.62, -21.65 -26.89, -19.08 -27.53 C-16.52 -28.18, 3.36 -23.03, 10.14 -19.26 C16.93 -15.5, 23.37 -8.48, 21.62 -4.96 C19.87 -1.44, 3.13 0.77, -0.37 1.84" stroke="none" stroke-width="0" fill="#eaddd7" fill-rule="evenodd"></path><path d="M-0.25 -0.19 C-1.11 -2.51, -1.05 -9.56, -4.23 -14.11 C-7.41 -18.66, -22 -26.43, -19.36 -27.5 C-16.72 -28.57, 4.79 -24.65, 11.59 -20.54 C18.39 -16.43, 23.4 -6.11, 21.43 -2.83 C19.46 0.44, 3.2 -1.34, -0.21 -0.9 M1.81 -1.34 C0.71 -3.97, -1.7 -11.58, -5.3 -15.76 C-8.9 -19.95, -22.61 -25.79, -19.79 -26.44 C-16.97 -27.1, 4.96 -23.21, 11.62 -19.71 C18.28 -16.22, 21.94 -8.99, 20.18 -5.49 C18.43 -2, 4.72 0.6, 1.09 1.25" stroke="#1e1e1e" stroke-width="2" fill="none"></path></g></g><mask></mask><g stroke-linecap="round"><g transform="translate(341.42112704501324 166.9412811849683) rotate(252.69153653737732 0.5 -13.5)" fill-rule="evenodd"><path d="M2.36 -0.96 C2.16 -3.24, 0.62 -10.09, -3.43 -14.49 C-7.48 -18.9, -24.38 -26.68, -21.92 -27.37 C-19.46 -28.07, 4.56 -22.35, 11.32 -18.66 C18.07 -14.97, 20.16 -8.18, 18.62 -5.24 C17.08 -2.31, 5.46 -2.29, 2.08 -1.04" stroke="none" stroke-width="0" fill="#eaddd7" fill-rule="evenodd"></path><path d="M-0.67 0.09 C-1.51 -2.34, -1.37 -10.96, -4.74 -15.34 C-8.12 -19.72, -23.7 -25.56, -20.92 -26.19 C-18.15 -26.83, 4.9 -22.95, 11.9 -19.14 C18.91 -15.33, 23.28 -6.59, 21.11 -3.34 C18.95 -0.08, 2.24 0, -1.1 0.38 M1.18 -0.91 C0.7 -3.1, 0.86 -9.45, -2.42 -13.98 C-5.71 -18.52, -20.94 -26.9, -18.52 -28.11 C-16.1 -29.32, 5.73 -25.49, 12.1 -21.24 C18.47 -16.99, 21.76 -6.06, 19.7 -2.6 C17.64 0.86, 3.26 -1.02, -0.26 -0.46" stroke="#1e1e1e" stroke-width="2" fill="none"></path></g></g><mask></mask><g stroke-linecap="round"><g transform="translate(309.42112704501324 117.94128118496829) rotate(130.4817490438616 0.5 -13.5)" fill-rule="evenodd"><path d="M0.85 2.07 C-0.02 -1.07, -0.24 -12.2, -3.51 -17.43 C-6.78 -22.66, -21.72 -29.19, -18.78 -29.31 C-15.83 -29.43, 7.39 -22.03, 14.14 -18.15 C20.88 -14.28, 24.05 -8.74, 21.7 -6.06 C19.35 -3.38, 3.81 -3.48, 0.05 -2.06" stroke="none" stroke-width="0" fill="#eaddd7" fill-rule="evenodd"></path><path d="M-0.85 1.07 C-1.4 -1.64, -0.2 -11.32, -3.59 -15.95 C-6.98 -20.59, -23.59 -26.16, -21.19 -26.75 C-18.78 -27.34, 3.86 -23.16, 10.84 -19.49 C17.82 -15.81, 22.7 -8.01, 20.71 -4.69 C18.71 -1.38, 2.45 -0.26, -1.12 0.4 M0.9 0.58 C0.26 -2.04, -1.02 -10.61, -4.32 -14.92 C-7.63 -19.23, -21.39 -24.16, -18.92 -25.3 C-16.45 -26.44, 3.54 -25.21, 10.48 -21.77 C17.42 -18.34, 24.54 -8.23, 22.74 -4.67 C20.94 -1.11, 3.57 -1.41, -0.3 -0.43" stroke="#1e1e1e" stroke-width="2" fill="none"></path></g></g><mask></mask></svg>