<svg version="1.1" xmlns="http://www.w3.org/2000/svg" viewBox="0 0 328.56385828732977 325.18082957501895" width="328.56385828732977" height="325.18082957501895" class="excalidraw-svg"><!-- svg-source:excalidraw --><metadata></metadata><defs><style class="style-fonts">
      </style></defs><rect x="0" y="0" width="328.56385828732977" height="325.18082957501895" fill="#ffffff"></rect><g stroke-linecap="round"><g transform="translate(11.369989294167624 90.36506792699853) rotate(0 32.5 0)"><path d="M0.06 -0.54 C10.88 -0.43, 53.78 -0.47, 64.41 -0.47 M-1.37 1.79 C9.9 2.17, 55.56 1.03, 66.82 0.83" stroke="#1e1e1e" stroke-width="2" fill="none"></path></g></g><mask></mask><g stroke-linecap="round"><g transform="translate(25.646477110199726 107.70426186597413) rotate(0 16.86175609198395 0)"><path d="M0.21 -0.44 C5.73 -0.4, 27.74 -0.07, 33.26 -0.03 M-0.34 0.53 C5.33 0.67, 28.45 0.7, 34.26 0.65" stroke="#1e1e1e" stroke-width="2" fill="none"></path></g></g><mask></mask><g stroke-linecap="round"><g transform="translate(42.369989294167624 90.2877334256115) rotate(0 130 -39.461332749306486)"><path d="M0 0 C1.4 -32.21, -0.15 -60.4, 0 -78.92 M0 0 C0.47 -26.96, 1.22 -51.96, 0 -78.92 M0 -78.92 C59.17 -77.14, 117.64 -78.13, 260 -78.92 M0 -78.92 C73.42 -81.16, 148.19 -80.28, 260 -78.92" stroke="#1e1e1e" stroke-width="2" fill="none"></path></g></g><mask></mask><g stroke-linecap="round"><g transform="translate(302.3699892941676 11.365067926998535) rotate(0 0 45.5)"><path d="M0 0 C-0.17 31.48, 1.37 64.13, 0 91 M0 0 C0.67 28.28, -0.54 56.79, 0 91" stroke="#1e1e1e" stroke-width="2" fill="none"></path></g></g><mask></mask><g stroke-linecap="round"><g transform="translate(301.31172453909056 103.9257503651705) rotate(0 4.799099998924804 105.46448587982317)"><path d="M-0.72 -1.04 C-0.26 5.25, -1.42 25.76, 1.53 36.75 C4.47 47.73, 16.54 57.86, 16.96 64.86 C17.38 71.87, 8.1 78.18, 4.04 78.78 C-0.02 79.37, -7.59 71.32, -7.4 68.41 C-7.21 65.51, 1.39 57.57, 5.18 61.33 C8.97 65.09, 15.67 83.86, 15.33 90.99 C14.99 98.13, 6.66 103.52, 3.13 104.13 C-0.39 104.75, -6.39 96.78, -5.79 94.68 C-5.19 92.58, 2.91 88.34, 6.75 91.53 C10.58 94.72, 16.65 107.32, 17.21 113.81 C17.77 120.3, 12.89 127.94, 10.1 130.47 C7.31 133, 2.67 131.08, 0.48 129 C-1.72 126.92, -4.6 120.1, -3.08 118 C-1.55 115.9, 6.53 112.21, 9.64 116.42 C12.74 120.62, 17.46 136.78, 15.54 143.24 C13.63 149.71, 1.57 155.36, -1.87 155.21 C-5.32 155.06, -7.13 144.58, -5.14 142.34 C-3.15 140.09, 7.12 138.27, 10.05 141.75 C12.99 145.22, 14.01 157.48, 12.47 163.19 C10.94 168.91, 2.48 168.03, 0.83 176.04 C-0.83 184.05, 2.37 205.45, 2.56 211.26 M1.11 1.03 C2.02 7.59, 1.17 27.28, 3.67 38.14 C6.16 49, 15.93 59.18, 16.09 66.17 C16.26 73.16, 8.8 79.67, 4.65 80.06 C0.51 80.46, -8.59 71.35, -8.78 68.56 C-8.97 65.78, -0.58 59.77, 3.51 63.34 C7.61 66.91, 15.49 83.15, 15.78 89.98 C16.07 96.81, 8.64 103.75, 5.28 104.33 C1.91 104.92, -4.69 95.64, -4.4 93.47 C-4.11 91.29, 3.87 88.27, 7.01 91.28 C10.15 94.28, 14.12 104.98, 14.43 111.5 C14.73 118.01, 11.23 127.56, 8.84 130.36 C6.45 133.16, 2.16 130.37, 0.1 128.29 C-1.97 126.22, -5.13 119.97, -3.55 117.9 C-1.96 115.83, 6.34 112.01, 9.62 115.89 C12.89 119.78, 17.69 134.51, 16.1 141.21 C14.5 147.91, 3.28 155.74, 0.05 156.07 C-3.19 156.4, -5.31 145.47, -3.31 143.2 C-1.3 140.93, 9.38 139.38, 12.09 142.45 C14.8 145.51, 14.52 156.11, 12.97 161.6 C11.42 167.09, 4.43 167.31, 2.79 175.39 C1.15 183.47, 3.28 204.31, 3.13 210.07" stroke="#1e1e1e" stroke-width="2" fill="none"></path></g></g><mask></mask></svg>