<svg version="1.1" xmlns="http://www.w3.org/2000/svg" viewBox="0 0 542.5 351" width="542.5" height="351" class="excalidraw-svg"><!-- svg-source:excalidraw --><metadata></metadata><defs><style class="style-fonts">
      </style></defs><rect x="0" y="0" width="542.5" height="351" fill="#ffffff"></rect><g stroke-linecap="round"><g transform="translate(21 248) rotate(0 118.00000000000001 -118)"><path d="M1.19 -0.83 C40.43 -40.31, 197.42 -197.2, 236.5 -236.41 M0.36 1.35 C39.39 -38, 196.76 -195.73, 235.81 -235.08" stroke="#1e1e1e" stroke-width="2" fill="none"></path></g></g><mask></mask><g stroke-linecap="round"><g transform="translate(50.57280013530516 276.5253313149605) rotate(0 118.00000000000001 -118)"><path d="M0.55 -0.13 C40.16 -39.44, 197.68 -196.7, 236.78 -236.16 M-0.62 -1.24 C38.97 -40.34, 196.54 -195.58, 236.24 -234.7" stroke="#1e1e1e" stroke-width="2" fill="none"></path></g></g><mask></mask><g stroke-linecap="round" transform="translate(10 248) rotate(0 19 19)"><path d="M15.43 0.86 C19.15 -0.2, 24.22 0.12, 27.79 2.04 C31.37 3.96, 35.32 8.55, 36.85 12.37 C38.38 16.18, 38.21 21.12, 36.96 24.92 C35.71 28.72, 32.83 33.13, 29.34 35.2 C25.86 37.27, 20.18 38, 16.07 37.33 C11.97 36.67, 7.32 34.2, 4.7 31.21 C2.09 28.22, 0.54 23.32, 0.38 19.4 C0.22 15.47, 1.23 10.79, 3.73 7.65 C6.24 4.5, 13.31 1.71, 15.41 0.53 C17.51 -0.65, 16.31 0.25, 16.36 0.54 M23.05 1.11 C26.91 1.66, 32.3 3.76, 34.9 7.07 C37.5 10.39, 38.91 16.87, 38.65 21 C38.39 25.12, 36.18 29.03, 33.35 31.81 C30.52 34.6, 25.8 37.17, 21.67 37.7 C17.53 38.24, 12.04 37.2, 8.55 35.03 C5.05 32.86, 1.77 28.64, 0.7 24.67 C-0.37 20.69, 0.58 14.85, 2.12 11.16 C3.66 7.47, 6.39 4.17, 9.95 2.51 C13.5 0.84, 21.16 1.3, 23.46 1.15 C25.75 1.01, 23.75 1.47, 23.7 1.64" stroke="#1e1e1e" stroke-width="2" fill="none"></path></g><g stroke-linecap="round" transform="translate(251 10) rotate(0 19 19)"><path d="M19.03 -0.42 C22.9 -0.7, 27.98 1.37, 31.18 4.07 C34.38 6.76, 37.56 11.67, 38.21 15.72 C38.87 19.77, 37.21 24.82, 35.1 28.35 C32.99 31.88, 29.33 35.52, 25.56 36.9 C21.79 38.28, 16.4 37.99, 12.48 36.63 C8.56 35.26, 4.15 32.21, 2.04 28.74 C-0.07 25.26, -1.01 19.8, -0.18 15.77 C0.65 11.74, 3.63 7.21, 7 4.57 C10.38 1.93, 17.64 0.56, 20.07 -0.09 C22.49 -0.73, 21.5 0.37, 21.55 0.68 M19.87 -0.61 C23.6 -0.42, 29.06 2.91, 32.05 5.84 C35.03 8.77, 37.4 13.09, 37.79 16.98 C38.19 20.87, 36.69 25.71, 34.42 29.2 C32.14 32.68, 27.93 36.83, 24.13 37.91 C20.33 39, 15.26 37.6, 11.61 35.7 C7.96 33.8, 4.09 30, 2.24 26.5 C0.39 23.01, -0.54 18.5, 0.53 14.73 C1.6 10.97, 5.42 6.43, 8.66 3.9 C11.9 1.37, 18.12 0.04, 19.98 -0.42 C21.84 -0.88, 19.7 0.79, 19.83 1.15" stroke="#1e1e1e" stroke-width="2" fill="none"></path></g><g stroke-linecap="round"><g transform="translate(264.5 303) rotate(0 118.00000000000001 -118)"><path d="M-0.48 -1.09 C38.75 -40.04, 195.3 -195.62, 234.87 -234.82 M1.47 0.95 C41.09 -38.2, 197.8 -196.98, 236.99 -236.33" stroke="#1e1e1e" stroke-width="2" fill="none"></path></g></g><mask></mask><g stroke-linecap="round"><g transform="translate(294.07280013530516 331.5253313149605) rotate(0 118.00000000000001 -118)"><path d="M-1.13 1.18 C38.44 -38.02, 197.22 -196.57, 236.93 -236.28 M0.48 0.75 C40.02 -38.17, 197.06 -195.37, 236.47 -234.88" stroke="#1e1e1e" stroke-width="2" fill="none"></path></g></g><mask></mask><g stroke-linecap="round" transform="translate(253.5 303) rotate(0 19 19)"><path d="M23.33 0.46 C27.25 0.96, 31.94 3.9, 34.36 7.16 C36.79 10.41, 38.16 15.84, 37.9 19.99 C37.65 24.14, 35.6 29.01, 32.82 32.04 C30.04 35.07, 25.32 37.76, 21.23 38.17 C17.13 38.57, 11.65 36.84, 8.24 34.5 C4.83 32.16, 1.87 27.98, 0.77 24.12 C-0.34 20.25, 0.05 15.05, 1.61 11.29 C3.17 7.53, 6.39 3.28, 10.12 1.58 C13.86 -0.13, 21.65 1.1, 24.02 1.08 C26.38 1.05, 24.37 1.19, 24.33 1.42 M20.36 0.57 C24.25 0.49, 28.22 1.96, 31.23 4.5 C34.24 7.04, 37.77 11.65, 38.42 15.8 C39.06 19.94, 37.37 25.75, 35.1 29.37 C32.82 32.98, 28.58 36.23, 24.75 37.5 C20.92 38.77, 15.86 38.51, 12.11 36.98 C8.37 35.44, 4.31 31.9, 2.27 28.3 C0.23 24.7, -0.89 19.4, -0.11 15.38 C0.67 11.35, 3.61 6.79, 6.96 4.15 C10.32 1.51, 17.93 0.15, 20.02 -0.45 C22.1 -1.06, 19.56 0.22, 19.46 0.52" stroke="#1e1e1e" stroke-width="2" fill="none"></path></g><g stroke-linecap="round" transform="translate(494.5 65) rotate(0 19 19)"><path d="M23.23 -0.03 C27.06 0.56, 31.54 4.02, 34 7.33 C36.46 10.64, 38.13 15.7, 37.97 19.83 C37.8 23.96, 35.82 29.19, 33.02 32.12 C30.22 35.06, 25.2 37.02, 21.16 37.45 C17.12 37.87, 12.13 36.84, 8.77 34.68 C5.4 32.53, 2.22 28.42, 0.95 24.52 C-0.33 20.62, -0.42 14.95, 1.11 11.29 C2.63 7.62, 6.44 4.29, 10.09 2.52 C13.75 0.75, 20.73 0.92, 23.03 0.66 C25.33 0.39, 23.89 0.71, 23.91 0.92 M15.34 -0.24 C19.13 -1.32, 25.68 -0.24, 29.29 1.95 C32.9 4.14, 35.76 8.87, 37.01 12.89 C38.26 16.92, 38.19 22.26, 36.8 26.11 C35.41 29.96, 32.2 33.99, 28.67 36 C25.13 38.01, 19.74 38.94, 15.58 38.19 C11.42 37.44, 6.4 34.71, 3.73 31.51 C1.05 28.31, -0.65 23.21, -0.47 18.98 C-0.29 14.75, 2.12 9.23, 4.79 6.13 C7.47 3.03, 13.78 1.38, 15.59 0.37 C17.4 -0.64, 15.66 -0.26, 15.66 0.06" stroke="#1e1e1e" stroke-width="2" fill="none"></path></g></svg>