<svg version="1.1" xmlns="http://www.w3.org/2000/svg" viewBox="0 0 659.6283274585207 441.27657992367403" width="659.6283274585207" height="441.27657992367403" class="excalidraw-svg"><!-- svg-source:excalidraw --><metadata></metadata><defs><style class="style-fonts">
      </style></defs><rect x="0" y="0" width="659.6283274585207" height="441.27657992367403" fill="#ffffff"></rect><g stroke-linecap="round" transform="translate(10.28740296797821 206.13714014079744) rotate(0 22 22)"><path d="M17.86 0.06 C22.1 -1.01, 28.38 0.76, 32.5 3.09 C36.63 5.42, 40.86 9.58, 42.62 14.03 C44.38 18.48, 44.7 25.32, 43.06 29.8 C41.43 34.27, 36.91 38.56, 32.81 40.88 C28.71 43.19, 23 44.48, 18.47 43.7 C13.93 42.92, 8.68 39.74, 5.62 36.18 C2.55 32.63, 0.1 27.09, 0.07 22.36 C0.05 17.64, 2.39 11.47, 5.47 7.82 C8.54 4.17, 16.1 1.61, 18.51 0.45 C20.92 -0.72, 19.78 0.45, 19.94 0.84 M20.78 -0.32 C25.08 -0.89, 31.29 0.85, 35.06 3.76 C38.83 6.66, 42.4 12.44, 43.37 17.1 C44.35 21.76, 43.13 27.59, 40.92 31.72 C38.71 35.84, 34.31 39.9, 30.12 41.84 C25.93 43.78, 20.1 44.7, 15.77 43.35 C11.44 41.99, 6.81 37.79, 4.14 33.72 C1.47 29.64, -0.77 23.52, -0.24 18.91 C0.29 14.3, 3.86 9.3, 7.32 6.07 C10.78 2.83, 18.2 0.43, 20.51 -0.51 C22.82 -1.44, 21.05 -0.09, 21.18 0.44" stroke="#1e1e1e" stroke-width="2" fill="none"></path></g><g stroke-linecap="round"><g transform="translate(10.736382559814956 230.83101769181786) rotate(0 21.551020408163254 -2.6938775510204067)"><path d="M-0.05 0.42 C2.36 -1.18, 8.92 -9.55, 14.47 -9.11 C20.02 -8.67, 28.52 2.06, 33.23 3.06 C37.93 4.06, 41 -1.97, 42.72 -3.1 M-0.74 0.16 C1.6 -1.12, 8.45 -9.01, 14.09 -8.47 C19.73 -7.93, 28.35 2.65, 33.11 3.39 C37.86 4.13, 40.97 -2.84, 42.63 -4" stroke="#1e1e1e" stroke-width="2" fill="none"></path></g></g><mask></mask><g stroke-linecap="round"><g transform="translate(510.5799013590031 75.42623261755239) rotate(269.99380452213563 7.298426099517627 48.70309502324503)"><path d="M0 0 C-0.09 5.28, 1.65 9.53, 0.81 26.06 M0 0 C0.8 10.83, 1.35 20.24, 0.81 26.06 M0.81 26.06 C11.5 29.47, 18.54 32.42, 28.32 33.93 M0.81 26.06 C8.05 29.26, 16.68 29.89, 28.32 33.93 M28.32 33.93 C17.86 37.12, 9.73 38.19, -13.44 40.05 M28.32 33.93 C11.63 37.27, -3.86 37.93, -13.44 40.05 M-13.44 40.05 C0.91 42.86, 15.21 48.15, 29.01 53.07 M-13.44 40.05 C-0.61 43.86, 11.47 47.38, 29.01 53.07 M29.01 53.07 C16.95 55.21, 4.6 54.46, -14.41 58.09 M29.01 53.07 C19.88 54.97, 10.71 56.39, -14.41 58.09 M-14.41 58.09 C-4.54 59.8, 6.5 65.8, 27.7 70.14 M-14.41 58.09 C-5.16 59.97, 5.47 63.68, 27.7 70.14 M27.7 70.14 C21.55 71.67, 15.95 71.72, 3.4 77.38 M27.7 70.14 C21.63 72.9, 14.19 74.28, 3.4 77.38 M3.4 77.38 C1.24 86.12, 5.05 92.56, 3.4 97.41 M3.4 77.38 C3.31 82.54, 2.9 88.49, 3.4 97.41" stroke="#1e1e1e" stroke-width="2" fill="none"></path></g></g><mask></mask><g stroke-linecap="round"><g transform="translate(379.10175738827013 80.81869363246699) rotate(269.5240833808716 1.4747206403888278 49.23699998711169)"><path d="M0.42 0.44 C0.35 2.03, -2.19 9.06, -0.99 10.69 C0.2 12.32, 4.71 9.79, 7.59 10.22 C10.46 10.65, 15.02 11.83, 16.24 13.26 C17.47 14.7, 16.1 16.79, 14.95 18.84 C13.8 20.89, 13.76 24.17, 9.33 25.55 C4.9 26.93, -7.87 27.83, -11.65 27.11 C-15.43 26.39, -16.83 22.22, -13.35 21.21 C-9.87 20.19, 4.37 20.16, 9.24 21.01 C14.12 21.87, 14.68 24.69, 15.88 26.34 C17.08 27.99, 17.7 28.51, 16.44 30.9 C15.17 33.28, 13.31 39.01, 8.3 40.66 C3.29 42.3, -10.1 42.01, -13.63 40.75 C-17.16 39.49, -16.41 34.47, -12.88 33.08 C-9.34 31.69, 2.61 31.32, 7.56 32.43 C12.51 33.55, 16.94 36.97, 16.84 39.77 C16.74 42.57, 11.77 47.43, 6.95 49.25 C2.13 51.08, -8.68 51.4, -12.1 50.71 C-15.51 50.01, -16.89 45.94, -13.56 45.08 C-10.23 44.22, 2.75 44.44, 7.89 45.56 C13.03 46.67, 17.17 49.45, 17.3 51.79 C17.43 54.13, 13.51 57.99, 8.68 59.6 C3.85 61.2, -7.95 62.21, -11.66 61.43 C-15.38 60.64, -14.98 56.34, -13.62 54.9 C-12.25 53.46, -7.14 53.07, -3.47 52.76 C0.21 52.45, 5.24 51.85, 8.44 53.04 C11.63 54.23, 15.76 56.22, 15.7 59.91 C15.64 63.59, 12.78 72.41, 8.09 75.15 C3.41 77.89, -8.94 77.77, -12.44 76.33 C-15.93 74.89, -17.15 68.23, -12.88 66.5 C-8.6 64.77, 8.8 64.22, 13.23 65.96 C17.67 67.7, 16.16 74.27, 13.72 76.94 C11.28 79.6, 1.49 78.45, -1.43 81.95 C-4.35 85.46, -3.44 95.12, -3.8 97.99 M-0.82 -0.37 C-0.48 1.35, -0.23 6.84, 1.11 8.74 C2.44 10.64, 4.56 10.11, 7.21 11.02 C9.85 11.94, 15.35 12.87, 16.98 14.22 C18.61 15.57, 18.59 16.88, 16.99 19.11 C15.4 21.33, 12.62 26.44, 7.43 27.59 C2.24 28.74, -11.02 27.09, -14.14 26.01 C-17.25 24.93, -14.97 22.11, -11.26 21.11 C-7.56 20.12, 3.42 19.19, 8.1 20.03 C12.77 20.86, 15.29 24.19, 16.81 26.14 C18.33 28.09, 18.8 29.34, 17.22 31.72 C15.63 34.1, 12.45 39.02, 7.29 40.44 C2.14 41.86, -10.24 41.48, -13.73 40.22 C-17.21 38.96, -17.21 33.74, -13.6 32.86 C-10 31.99, 3.16 33.65, 7.89 34.97 C12.62 36.28, 14.61 38.31, 14.76 40.76 C14.92 43.2, 13.43 47.93, 8.84 49.65 C4.25 51.37, -8.78 51.72, -12.76 51.09 C-16.74 50.45, -18.05 47.02, -15.05 45.87 C-12.04 44.72, -0.03 43.36, 5.27 44.17 C10.57 44.98, 16.11 47.83, 16.74 50.72 C17.37 53.6, 13.69 59.85, 9.05 61.47 C4.41 63.1, -7.51 61.65, -11.09 60.46 C-14.68 59.27, -13.49 55.57, -12.46 54.32 C-11.43 53.06, -8.55 53.25, -4.9 52.92 C-1.25 52.59, 5.8 51.29, 9.42 52.32 C13.04 53.36, 16.82 55.53, 16.83 59.13 C16.85 62.73, 14.44 70.81, 9.51 73.93 C4.58 77.04, -9.25 78.78, -12.75 77.83 C-16.24 76.89, -16.26 69.97, -11.47 68.25 C-6.68 66.53, 11.73 65.85, 15.99 67.52 C20.26 69.19, 16.79 75.87, 14.11 78.26 C11.43 80.65, 2.69 78.4, -0.11 81.84 C-2.91 85.29, -2.29 96.08, -2.7 98.91" stroke="#1e1e1e" stroke-width="2" fill="none"></path></g></g><mask></mask><g stroke-linecap="round"><g transform="translate(297.62832745852074 130.13714014079744) rotate(0 16 0)"><path d="M0.41 0.34 C5.61 0.3, 26.28 -0.07, 31.59 -0.04 M-0.04 0.04 C5.29 0.07, 27.27 0.69, 32.62 0.63" stroke="#1e1e1e" stroke-width="2" fill="none"></path></g></g><mask></mask><g stroke-linecap="round"><g transform="translate(431.62832745852074 132.13714014079744) rotate(0 15.5 0)"><path d="M0.51 -0.5 C5.65 -0.53, 26.24 -0.35, 31.3 -0.33 M0.11 0.43 C5.16 0.48, 25.97 0.27, 31.03 0.2" stroke="#1e1e1e" stroke-width="2" fill="none"></path></g></g><mask></mask><g stroke-linecap="round"><g transform="translate(298.62832745852074 130.13714014079744) rotate(0 -64 0)"><path d="M0.44 -0.19 C-20.69 -0.43, -105.86 -0.79, -127.38 -0.85 M-0.79 -1.34 C-21.97 -1.49, -106.5 -0.06, -128 0.24" stroke="#1e1e1e" stroke-width="2" fill="none"></path></g></g><mask></mask><g stroke-linecap="round"><g transform="translate(122.62832745852074 92.13714014079744) rotate(0 22 36)" fill-rule="evenodd"><path d="M0.09 1.67 C0.06 13.76, -8.52 65.88, -0.82 72.12 C6.88 78.37, 46.12 51.36, 46.29 39.14 C46.47 26.92, 7.88 5.31, 0.21 -1.2" stroke="none" stroke-width="0" fill="#1e1e1e" fill-rule="evenodd"></path><path d="M-0.98 1.03 C-0.88 13.03, -6.32 65.98, 1.06 72.57 C8.44 79.16, 43.57 52.67, 43.29 40.56 C43.02 28.46, 6.75 6.69, -0.59 -0.06 M0.71 0.52 C0.61 12.13, -7.37 64.41, 0.15 70.74 C7.66 77.08, 45.95 50.14, 45.81 38.51 C45.68 26.89, 6.81 7.36, -0.66 1.01" stroke="#1e1e1e" stroke-width="2" fill="none"></path></g></g><mask></mask><g stroke-linecap="round"><g transform="translate(171.62832745852074 90.13714014079744) rotate(0 0 37.5)"><path d="M-0.87 0.54 C-1.04 12.89, -0.8 61.63, -0.55 73.98 M0.87 -0.22 C0.46 12.25, -1.67 62.32, -1.79 74.98" stroke="#1e1e1e" stroke-width="2" fill="none"></path></g></g><mask></mask><g stroke-linecap="round"><g transform="translate(113.62832745852074 129.13714014079744) rotate(0 -42.5 37.5)"><path d="M0 0 C-21.67 -0.5, -45.07 -1.87, -85 0 M0 0 C-19.33 -1.43, -38.09 -1.55, -85 0 M-85 0 C-82.52 21.81, -85.6 46.31, -85 75 M-85 0 C-85.1 27.19, -84.84 54.16, -85 75" stroke="#1e1e1e" stroke-width="2" fill="none"></path></g></g><mask></mask><g stroke-linecap="round"><g transform="translate(433.16074979946706 216.79595215589984) rotate(176.4258431802735 22 36)" fill-rule="evenodd"><path d="M1.55 0.29 C1.83 12.36, -4.55 67.8, 2.31 74.01 C9.16 80.23, 43.2 49.95, 42.68 37.58 C42.17 25.2, 6.23 5.76, -0.78 -0.26" stroke="none" stroke-width="0" fill="#1e1e1e" fill-rule="evenodd"></path><path d="M0.17 -0.58 C0.16 11.27, -6.47 65.17, 0.99 71.98 C8.46 78.79, 45.27 52.34, 44.95 40.3 C44.63 28.25, 6.48 6.38, -0.91 -0.29 M-1.2 1.73 C-1.46 13.7, -7.6 66.84, 0.04 73.51 C7.69 80.18, 44.88 53.91, 44.68 41.77 C44.49 29.63, 6.4 7.48, -1.13 0.66" stroke="#1e1e1e" stroke-width="2" fill="none"></path></g></g><mask></mask><g stroke-linecap="round"><g transform="translate(426.00628053482524 220.3240417361069) rotate(176.4258431802735 -3.552713678800501e-15 37.5)"><path d="M-0.01 -0.02 C0.12 12.63, 1.1 62.84, 0.95 75.3 M-1.47 -1.07 C-1.43 11.24, 0 60.51, 0.5 73.33" stroke="#1e1e1e" stroke-width="2" fill="none"></path></g></g><mask></mask><g stroke-linecap="round"><g transform="translate(569.6283274585207 128.13714014079744) rotate(0 -44.5 65)"><path d="M0 0 C1.28 49.08, 2.64 103.35, 2 130 M0 0 C-0.14 42.82, 0.71 85.86, 2 130 M2 130 C-15.18 130.35, -37.71 130.61, -91 129 M2 130 C-31.58 129.55, -63.69 127.73, -91 129" stroke="#1e1e1e" stroke-width="2" fill="none"></path></g></g><mask></mask><g stroke-linecap="round"><g transform="translate(422.62832745852074 257.13714014079744) rotate(0 -70.5 -63)"><path d="M0 0 C-43.3 -2.07, -82.59 -2.68, -141 -2 M0 0 C-37.5 -0.46, -76.16 -0.66, -141 -2 M-141 -2 C-140.06 -41.44, -137.26 -81.74, -138 -126 M-141 -2 C-140.51 -39.56, -139.37 -78.07, -138 -126" stroke="#1e1e1e" stroke-width="2" fill="none"></path></g></g><mask></mask><g stroke-linecap="round"><g transform="translate(577.7442677281708 127.13670680263596) rotate(0 -238.1159478567842 152.00021666908074)"><path d="M0 0 C25.76 -1.73, 48.66 -0.74, 68.89 0 M0 0 C25.56 -0.72, 52.62 -0.66, 68.89 0 M68.89 0 C68.09 113.67, 67.94 228.47, 71.88 304 M68.89 0 C70.17 117.52, 70.81 235.43, 71.88 304 M71.88 304 C-53.61 301.09, -180.08 301.67, -548.12 304 M71.88 304 C-164.12 304.14, -400.22 304.23, -548.12 304 M-548.12 304 C-549.36 242.93, -548.08 180.26, -548.12 123 M-548.12 304 C-549.54 255.78, -550.01 209.19, -548.12 123" stroke="#1e1e1e" stroke-width="2" fill="none"></path></g></g><mask></mask><g stroke-linecap="round"><g transform="translate(99.62832745852074 68.13714014079744) rotate(0 76.5 0)"><path d="M0 0 C35.71 0.97, 70.07 0.53, 153 0 M0 0 C55.46 0.51, 111.18 1.19, 153 0" stroke="#1971c2" stroke-width="2" fill="none"></path></g></g><mask></mask><g stroke-linecap="round"><g transform="translate(122.62832745852074 67.13714014079744) rotate(0 28 -27.5)"><path d="M0.2 -0.86 C1.29 -6.24, 2.61 -22.71, 7.06 -31.62 C11.52 -40.54, 19.91 -53.96, 26.94 -54.36 C33.96 -54.75, 44.2 -43.01, 49.2 -33.99 C54.2 -24.97, 55.73 -5.99, 56.93 -0.22 M-1.16 1.31 C-0.18 -4.5, 2.12 -23.94, 6.67 -33.55 C11.22 -43.16, 18.99 -56.38, 26.14 -56.36 C33.28 -56.34, 44.59 -42.81, 49.55 -33.41 C54.52 -24.01, 55.14 -5.49, 55.95 0.05" stroke="#1971c2" stroke-width="2" fill="none"></path></g></g><mask></mask><g stroke-linecap="round"><g transform="translate(181.62832745852074 65.63714014079744) rotate(0 28 -27.5)"><path d="M0.32 0.44 C1.28 -5.02, 0.48 -23.62, 5.03 -32.97 C9.59 -42.31, 20.22 -55.69, 27.67 -55.64 C35.11 -55.58, 44.92 -42.08, 49.71 -32.65 C54.5 -23.23, 55.24 -4.54, 56.4 0.91 M-0.98 -0.38 C0.42 -5.7, 2.53 -22.89, 7.24 -31.93 C11.94 -40.98, 20.07 -54.75, 27.25 -54.65 C34.43 -54.56, 45.68 -40.77, 50.33 -31.37 C54.98 -21.96, 54.4 -3.29, 55.13 1.78" stroke="#1971c2" stroke-width="2" fill="none"></path></g></g><mask></mask><g stroke-linecap="round"><g transform="translate(113.62832745852074 187.13714014079744) rotate(0 64.5 0)"><path d="M1.19 0.68 C22.99 0.74, 108.75 -0.69, 130.18 -0.71 M0.35 -0.01 C22.16 0.28, 108.34 0.69, 129.85 0.46" stroke="#1971c2" stroke-width="2" fill="none"></path></g><g transform="translate(113.62832745852074 187.13714014079744) rotate(0 64.5 0)"><path d="M106.37 9.05 C113.33 8.67, 116.78 5.84, 129.85 0.46 M106.37 9.05 C115.21 6.95, 121.93 2.85, 129.85 0.46" stroke="#1971c2" stroke-width="2" fill="none"></path></g><g transform="translate(113.62832745852074 187.13714014079744) rotate(0 64.5 0)"><path d="M106.34 -8.05 C113.16 -4.24, 116.61 -2.87, 129.85 0.46 M106.34 -8.05 C115.11 -4.18, 121.84 -2.3, 129.85 0.46" stroke="#1971c2" stroke-width="2" fill="none"></path></g></g><mask></mask></svg>