<svg version="1.1" xmlns="http://www.w3.org/2000/svg" viewBox="0 0 641.7752066785247 383.8633396803582" width="641.7752066785247" height="383.8633396803582" class="excalidraw-svg"><!-- svg-source:excalidraw --><metadata></metadata><defs><style class="style-fonts">
      </style></defs><rect x="0" y="0" width="641.7752066785247" height="383.8633396803582" fill="#ffffff"></rect><g stroke-linecap="round"><g transform="translate(492.726780579007 17.698936926715135) rotate(269.99380452213563 7.298426099517627 48.70309502324503)"><path d="M0 0 C1.02 7.17, 0.16 14.8, 0.81 26.06 M0 0 C-0.91 8.73, 0.56 18.21, 0.81 26.06 M0.81 26.06 C7.94 26.24, 15.53 30.22, 28.32 33.93 M0.81 26.06 C9.22 29.27, 17.92 31.47, 28.32 33.93 M28.32 33.93 C15.48 37.15, 3.88 36.54, -13.44 40.05 M28.32 33.93 C14.48 36.08, 0.81 37.82, -13.44 40.05 M-13.44 40.05 C1.61 43.52, 18.14 50.68, 29.01 53.07 M-13.44 40.05 C-1.32 43.2, 10.95 48.43, 29.01 53.07 M29.01 53.07 C12.77 54.29, -4.94 56.56, -14.41 58.09 M29.01 53.07 C17.46 55.13, 5.03 56.73, -14.41 58.09 M-14.41 58.09 C-3.07 62.33, 12 66.96, 27.7 70.14 M-14.41 58.09 C-0.05 61.56, 15.66 65.72, 27.7 70.14 M27.7 70.14 C22.43 70.32, 15.07 72.79, 3.4 77.38 M27.7 70.14 C20.72 71.94, 16.37 74.68, 3.4 77.38 M3.4 77.38 C4.79 82.82, 3.97 88.19, 3.4 97.41 M3.4 77.38 C3.9 84.05, 4.43 89.5, 3.4 97.41" stroke="#1e1e1e" stroke-width="2" fill="none"></path></g></g><mask></mask><g stroke-linecap="round"><g transform="translate(361.24863660827407 23.091397941629623) rotate(269.5240833808716 1.4747206403888242 49.23699998711169)"><path d="M-0.72 -0.11 C-0.88 1.65, -2.05 9.06, -0.98 11.13 C0.09 13.21, 3.17 12.07, 5.7 12.32 C8.22 12.57, 12.54 11.67, 14.17 12.64 C15.8 13.62, 16.54 15.72, 15.5 18.19 C14.45 20.65, 12.4 25.99, 7.91 27.46 C3.41 28.92, -7.96 27.94, -11.47 26.99 C-14.98 26.03, -16.51 22.85, -13.16 21.72 C-9.8 20.59, 3.87 19.67, 8.67 20.18 C13.48 20.7, 14.45 22.84, 15.67 24.81 C16.88 26.78, 17.12 29.32, 15.95 32.01 C14.79 34.69, 13.54 39.66, 8.68 40.91 C3.83 42.16, -9.41 40.9, -13.17 39.52 C-16.93 38.14, -17.52 33.68, -13.89 32.64 C-10.25 31.6, 3.76 31.94, 8.65 33.27 C13.54 34.6, 15.53 37.91, 15.48 40.64 C15.43 43.36, 13.17 47.93, 8.36 49.65 C3.55 51.37, -9.75 51.9, -13.36 50.95 C-16.98 50.01, -16.84 44.94, -13.32 44 C-9.79 43.07, 2.69 44.2, 7.8 45.34 C12.9 46.49, 17.3 48.45, 17.31 50.89 C17.32 53.33, 12.76 58.21, 7.85 59.97 C2.94 61.73, -8.88 62.4, -12.14 61.43 C-15.39 60.46, -12.92 55.7, -11.67 54.17 C-10.43 52.65, -8.08 52.11, -4.66 52.29 C-1.23 52.46, 5.24 53.7, 8.89 55.22 C12.53 56.75, 17.3 58.26, 17.19 61.45 C17.07 64.63, 13.07 71.99, 8.19 74.32 C3.32 76.66, -8.61 76.65, -12.06 75.46 C-15.52 74.28, -17.02 68.66, -12.56 67.23 C-8.09 65.81, 10.45 65.03, 14.72 66.94 C18.98 68.85, 15.73 76.14, 13.04 78.67 C10.36 81.2, 1.19 78.78, -1.39 82.12 C-3.98 85.45, -2.44 96.13, -2.47 98.66 M1.11 -1.22 C1.29 0.16, -0.02 7.45, 1.13 9.42 C2.27 11.38, 5.88 9.92, 7.99 10.56 C10.1 11.2, 12.79 12.02, 13.82 13.28 C14.84 14.53, 14.98 15.85, 14.16 18.11 C13.35 20.37, 13.59 25.56, 8.92 26.84 C4.25 28.13, -10.56 26.64, -13.87 25.82 C-17.19 24.99, -14.48 23.07, -10.97 21.9 C-7.45 20.72, 2.65 17.83, 7.22 18.76 C11.8 19.69, 14.94 25.63, 16.48 27.46 C18.03 29.29, 17.92 27.52, 16.48 29.75 C15.05 31.97, 12.79 38.79, 7.87 40.83 C2.96 42.88, -9.79 43.44, -13.02 42 C-16.24 40.56, -14.64 33.77, -11.49 32.2 C-8.33 30.63, 1.26 30.94, 5.9 32.59 C10.53 34.23, 16.1 39.13, 16.34 42.08 C16.58 45.02, 12.5 48.69, 7.33 50.25 C2.15 51.82, -11.03 52.47, -14.7 51.46 C-18.36 50.46, -17.98 45.49, -14.67 44.22 C-11.37 42.95, -0.11 42.39, 5.13 43.85 C10.37 45.31, 16.31 49.97, 16.76 53 C17.2 56.03, 12.54 60.79, 7.78 62.04 C3.02 63.28, -8.33 61.94, -11.81 60.47 C-15.3 59, -14.61 54.59, -13.15 53.21 C-11.69 51.83, -6.93 51.79, -3.05 52.19 C0.82 52.6, 7.02 54.1, 10.1 55.65 C13.19 57.2, 15.52 58.64, 15.44 61.48 C15.37 64.32, 14.27 70.16, 9.66 72.67 C5.06 75.17, -8.74 77.06, -12.18 76.51 C-15.62 75.96, -15.44 71.23, -10.98 69.37 C-6.52 67.51, 10.58 64.04, 14.59 65.35 C18.6 66.66, 15.52 74.46, 13.08 77.25 C10.64 80.04, 2.85 78.31, -0.05 82.09 C-2.96 85.87, -3.82 97, -4.33 99.93" stroke="#1e1e1e" stroke-width="2" fill="none"></path></g></g><mask></mask><g stroke-linecap="round"><g transform="translate(279.7752066785247 72.40984444996008) rotate(0 16 0)"><path d="M-0.53 0.35 C4.77 0.45, 26.14 0.64, 31.47 0.51 M0.2 0.06 C5.69 0.01, 27.05 -0.18, 32.44 -0.19" stroke="#1e1e1e" stroke-width="2" fill="none"></path></g></g><mask></mask><g stroke-linecap="round"><g transform="translate(413.7752066785247 74.40984444996008) rotate(0 15.5 0)"><path d="M-0.53 0.51 C4.64 0.38, 25.2 -0.26, 30.47 -0.41 M0.21 0.3 C5.58 0.2, 26.33 0.13, 31.44 0.08" stroke="#1e1e1e" stroke-width="2" fill="none"></path></g></g><mask></mask><g stroke-linecap="round"><g transform="translate(280.7752066785247 72.40984444996008) rotate(0 -64 0)"><path d="M-1.15 -0.9 C-22.24 -1.23, -106.47 -1.18, -127.74 -0.89 M0.45 1.24 C-20.68 1.55, -107.43 0.57, -128.55 0.17" stroke="#1e1e1e" stroke-width="2" fill="none"></path></g></g><mask></mask><g stroke-linecap="round"><g transform="translate(104.77520667852468 34.409844449960076) rotate(0 22 36)" fill-rule="evenodd"><path d="M0.81 1.61 C1.33 14.2, -3.8 67.17, 3.34 73.34 C10.49 79.51, 44.61 51.02, 43.69 38.63 C42.78 26.25, 4.75 5.53, -2.16 -0.99" stroke="none" stroke-width="0" fill="#1e1e1e" fill-rule="evenodd"></path><path d="M0.26 -0.89 C0.49 11.39, -7.25 65.94, 0.24 72.81 C7.73 79.68, 45.36 52.31, 45.18 40.34 C44.99 28.37, 6.61 7.72, -0.85 0.98 M-1.06 1.25 C-0.34 13.28, -5.13 64.96, 2.55 71.11 C10.23 77.27, 45.63 50.21, 45.03 38.18 C44.43 26.15, 6.59 5.26, -1.05 -1.05" stroke="#1e1e1e" stroke-width="2" fill="none"></path></g></g><mask></mask><g stroke-linecap="round"><g transform="translate(153.77520667852468 32.409844449960076) rotate(0 0 37.5)"><path d="M-0.76 0.81 C-0.61 13.52, 1.19 62.81, 1.18 75.34 M1.04 0.19 C1.12 12.6, 0.75 61.07, 0.84 73.4" stroke="#1e1e1e" stroke-width="2" fill="none"></path></g></g><mask></mask><g stroke-linecap="round"><g transform="translate(95.77520667852468 71.40984444996008) rotate(0 -42.5 37.5)"><path d="M0 0 C-19.55 -0.58, -38.59 1.54, -85 0 M0 0 C-24.62 -0.09, -48.94 -0.2, -85 0 M-85 0 C-86.22 23.38, -85.82 42.57, -85 75 M-85 0 C-84.81 24.98, -84.69 49.47, -85 75" stroke="#1e1e1e" stroke-width="2" fill="none"></path></g></g><mask></mask><g stroke-linecap="round"><g transform="translate(415.30762901947094 159.06865646506253) rotate(176.4258431802735 22 36)" fill-rule="evenodd"><path d="M-2.16 -0.99 C-1.57 11.16, -4.35 64.55, 3.24 71.5 C10.82 78.46, 43.74 52.75, 43.34 40.74 C42.94 28.73, 8.11 6.14, 0.85 -0.56" stroke="none" stroke-width="0" fill="#1e1e1e" fill-rule="evenodd"></path><path d="M-0.85 0.98 C-0.81 12.91, -6.07 65.59, 1.42 71.92 C8.91 78.25, 44.27 50.8, 44.1 38.95 C43.93 27.09, 7.55 7.17, 0.4 0.79 M0.91 0.46 C0.72 12.55, -6.38 66.88, 0.7 73.42 C7.78 79.96, 43.36 52.17, 43.38 39.71 C43.41 27.25, 8.04 5.04, 0.85 -1.35" stroke="#1e1e1e" stroke-width="2" fill="none"></path></g></g><mask></mask><g stroke-linecap="round"><g transform="translate(408.1531597548292 162.59674604526958) rotate(176.4258431802735 0 37.5)"><path d="M0.42 -0.08 C0.58 12.08, 0.1 61.3, 0.1 73.95 M-0.81 -1.16 C-0.73 11.02, -0.91 62.43, -0.8 74.93" stroke="#1e1e1e" stroke-width="2" fill="none"></path></g></g><mask></mask><g stroke-linecap="round"><g transform="translate(551.7752066785247 70.40984444996008) rotate(0 -44.5 65)"><path d="M0 0 C-1.17 44.25, 2.58 89.08, 2 130 M0 0 C-0.34 45.72, 2.17 92.03, 2 130 M2 130 C-23.85 129.9, -48.33 129.87, -91 129 M2 130 C-24.56 129.55, -53.35 129.45, -91 129" stroke="#1e1e1e" stroke-width="2" fill="none"></path></g></g><mask></mask><g stroke-linecap="round"><g transform="translate(404.7752066785247 199.40984444996013) rotate(0 -70.5 -63)"><path d="M0 0 C-42.09 1.76, -85.75 -1.02, -141 -2 M0 0 C-33.5 -1.26, -69.12 -1.24, -141 -2 M-141 -2 C-139.27 -43.43, -138.82 -83.44, -138 -126 M-141 -2 C-141.57 -45.2, -139.43 -87.81, -138 -126" stroke="#1e1e1e" stroke-width="2" fill="none"></path></g></g><mask></mask><g stroke-linecap="round"><g transform="translate(559.8911469481748 69.40941111179865) rotate(0 -238.11594785678426 152.00021666908074)"><path d="M0 0 C24.04 -0.91, 44.77 -2.42, 68.89 0 M0 0 C17.62 0.44, 36.13 -0.09, 68.89 0 M68.89 0 C70.18 90.05, 71.79 179, 71.88 304 M68.89 0 C68.77 73.58, 69.73 147.28, 71.88 304 M71.88 304 C-108.57 304.83, -289.89 304.34, -548.12 304 M71.88 304 C-110.6 301.83, -292.81 302.1, -548.12 304 M-548.12 304 C-547.54 245.75, -548.74 188.73, -548.12 123 M-548.12 304 C-548.03 267.53, -548.98 230.62, -548.12 123" stroke="#1e1e1e" stroke-width="2" fill="none"></path></g></g><mask></mask><g stroke-linecap="round"><g transform="translate(81.77520667852468 10.409844449960076) rotate(0 76.5 0)"><path d="M0 0 C59.43 -1.57, 120.28 2.02, 153 0 M0 0 C43.15 -0.69, 85.53 -0.24, 153 0" stroke="#1971c2" stroke-width="2" fill="none"></path></g></g><mask></mask><g stroke-linecap="round"><g transform="translate(95.77520667852468 129.40984444996013) rotate(0 64.5 0)"><path d="M-1.06 -0.48 C20.65 -0.41, 108.47 -0.38, 130.1 -0.24 M0.59 -1.78 C22.25 -1.47, 108.53 1.17, 129.72 1.17" stroke="#1971c2" stroke-width="2" fill="none"></path></g><g transform="translate(95.77520667852468 129.40984444996013) rotate(0 64.5 0)"><path d="M106.09 9.31 C112.12 9, 119.31 4.3, 129.72 1.17 M106.09 9.31 C113.79 6.9, 121.71 3.93, 129.72 1.17" stroke="#1971c2" stroke-width="2" fill="none"></path></g><g transform="translate(95.77520667852468 129.40984444996013) rotate(0 64.5 0)"><path d="M106.38 -7.79 C112.24 -3.18, 119.35 -2.98, 129.72 1.17 M106.38 -7.79 C114.05 -4.56, 121.87 -1.88, 129.72 1.17" stroke="#1971c2" stroke-width="2" fill="none"></path></g></g><mask></mask></svg>