<svg version="1.1" xmlns="http://www.w3.org/2000/svg" viewBox="0 0 659.6031234474884 364.27270794306185" width="659.6031234474884" height="364.27270794306185" class="excalidraw-svg"><!-- svg-source:excalidraw --><metadata></metadata><defs><style class="style-fonts">
      </style></defs><rect x="0" y="0" width="659.6031234474884" height="364.27270794306185" fill="#ffffff"></rect><g stroke-linecap="round" transform="translate(10 127.52653079266659) rotate(0 22 22)"><path d="M19.7 0.16 C24.17 -0.7, 30.53 1.07, 34.37 3.7 C38.21 6.34, 41.38 11.41, 42.74 15.96 C44.1 20.51, 44.36 26.72, 42.53 30.99 C40.71 35.26, 36.01 39.49, 31.79 41.59 C27.56 43.69, 21.78 44.64, 17.2 43.61 C12.62 42.58, 7.22 39.13, 4.32 35.42 C1.41 31.7, -0.5 26.09, -0.23 21.32 C0.04 16.56, 2.48 10.31, 5.94 6.82 C9.4 3.32, 17.93 1.36, 20.53 0.36 C23.12 -0.65, 21.55 0.52, 21.52 0.79 M18.19 0.36 C22.68 -0.64, 29.33 0.77, 33.53 3.26 C37.73 5.75, 41.98 10.96, 43.4 15.33 C44.82 19.69, 43.92 25.02, 42.04 29.45 C40.15 33.88, 36.25 39.42, 32.09 41.9 C27.94 44.38, 21.55 45.32, 17.1 44.31 C12.65 43.31, 8.34 39.67, 5.37 35.88 C2.4 32.09, -0.82 26.19, -0.71 21.58 C-0.6 16.96, 2.83 11.72, 6.04 8.19 C9.26 4.66, 16.48 1.67, 18.57 0.38 C20.66 -0.92, 18.57 0.07, 18.57 0.42" stroke="#1e1e1e" stroke-width="2" fill="none"></path></g><g stroke-linecap="round"><g transform="translate(10.448979591836746 152.220408343687) rotate(0 21.551020408163254 -2.693877551020414)"><path d="M-0.27 0.02 C2.21 -1.46, 9.23 -9.2, 14.74 -8.53 C20.25 -7.86, 28.01 3.28, 32.77 4.05 C37.53 4.82, 41.49 -2.68, 43.29 -3.91 M0.59 -0.44 C3.05 -2.1, 9.19 -9.87, 14.5 -9.26 C19.8 -8.65, 27.58 2.26, 32.41 3.21 C37.25 4.16, 41.71 -2.54, 43.5 -3.57" stroke="#1e1e1e" stroke-width="2" fill="none"></path></g></g><mask></mask><g stroke-linecap="round"><g transform="translate(510.2924983910249 -3.184376730578407) rotate(269.99380452213563 7.2984260995176236 48.70309502324503)"><path d="M0 0 C1.86 6.49, 2.07 13.74, 0.81 26.06 M0 0 C1.27 5.86, 0.62 12.87, 0.81 26.06 M0.81 26.06 C8.92 30.37, 19.32 30.42, 28.32 33.93 M0.81 26.06 C10.88 28.27, 19.01 30.7, 28.32 33.93 M28.32 33.93 C18.75 35.82, 9.11 38.25, -13.44 40.05 M28.32 33.93 C11.99 36.89, -3.67 39.19, -13.44 40.05 M-13.44 40.05 C1.56 46.93, 18.58 49.93, 29.01 53.07 M-13.44 40.05 C-0.49 44.34, 12.82 48.73, 29.01 53.07 M29.01 53.07 C15.41 53.91, 1.99 56.06, -14.41 58.09 M29.01 53.07 C12.73 54.42, -4.3 56.57, -14.41 58.09 M-14.41 58.09 C-3.26 62.23, 6.11 63.89, 27.7 70.14 M-14.41 58.09 C-3.31 60.23, 6.12 63.71, 27.7 70.14 M27.7 70.14 C18.59 72.88, 11.89 75.24, 3.4 77.38 M27.7 70.14 C20.15 72.83, 9.88 74.11, 3.4 77.38 M3.4 77.38 C4 83.3, 1.6 89.89, 3.4 97.41 M3.4 77.38 C3.58 84.35, 3.52 90.15, 3.4 97.41" stroke="#1e1e1e" stroke-width="2" fill="none"></path></g></g><mask></mask><g stroke-linecap="round"><g transform="translate(378.8143544202919 2.2080842843360813) rotate(269.5240833808716 1.4747206403888313 49.23699998711169)"><path d="M-0.02 0.99 C-0.06 2.44, -0.72 7.87, 0.59 9.68 C1.9 11.49, 5.24 11.3, 7.86 11.85 C10.49 12.41, 15.11 11.74, 16.34 13 C17.57 14.25, 16.45 17.13, 15.24 19.36 C14.02 21.58, 13.65 25.22, 9.07 26.33 C4.48 27.44, -8.89 26.93, -12.28 26.02 C-15.66 25.11, -14.58 21.74, -11.24 20.86 C-7.9 19.97, 3.18 19.85, 7.77 20.74 C12.36 21.62, 14.84 24.5, 16.28 26.17 C17.71 27.84, 17.95 28.53, 16.39 30.75 C14.82 32.97, 11.94 37.86, 6.91 39.49 C1.88 41.13, -10.42 41.6, -13.8 40.56 C-17.18 39.52, -16.98 34.39, -13.36 33.26 C-9.73 32.12, 2.91 32.43, 7.94 33.74 C12.96 35.05, 16.92 38.53, 16.78 41.12 C16.64 43.71, 12.29 47.52, 7.12 49.29 C1.94 51.07, -10.64 52.46, -14.25 51.78 C-17.86 51.1, -18.2 46.37, -14.57 45.2 C-10.93 44.04, 2.58 43.75, 7.54 44.8 C12.49 45.84, 14.82 48.69, 15.16 51.45 C15.51 54.21, 14.25 59.64, 9.61 61.37 C4.96 63.09, -8.98 63.03, -12.7 61.77 C-16.43 60.52, -14.01 55.3, -12.73 53.85 C-11.44 52.4, -8.5 52.95, -4.99 53.07 C-1.48 53.19, 4.74 53.21, 8.36 54.55 C11.97 55.9, 16.82 57.75, 16.72 61.14 C16.61 64.53, 12.5 72.15, 7.71 74.89 C2.91 77.63, -8.7 78.65, -12.07 77.58 C-15.44 76.51, -16.92 70.45, -12.51 68.46 C-8.11 66.46, 10.15 64.05, 14.35 65.6 C18.55 67.16, 15.41 75.18, 12.69 77.79 C9.97 80.4, 0.69 77.92, -1.96 81.28 C-4.61 84.64, -2.91 95.03, -3.19 97.94 M-1.49 0.47 C-1.72 1.97, -1.66 9.29, -0.14 10.86 C1.38 12.42, 4.76 9.36, 7.63 9.85 C10.51 10.34, 16.1 12.14, 17.12 13.81 C18.14 15.49, 15.45 18.01, 13.77 19.89 C12.08 21.78, 11.23 23.77, 7.03 25.13 C2.83 26.48, -8.32 28.77, -11.44 28.01 C-14.57 27.25, -15.2 21.98, -11.71 20.58 C-8.22 19.18, 5.26 18.72, 9.51 19.6 C13.75 20.48, 12.48 23.9, 13.76 25.88 C15.03 27.86, 17.96 29.36, 17.14 31.49 C16.32 33.62, 14.01 37.26, 8.83 38.67 C3.64 40.07, -10.12 40.85, -13.98 39.93 C-17.84 39.01, -18.08 34.24, -14.34 33.13 C-10.6 32.03, 3.63 32.3, 8.46 33.3 C13.3 34.3, 14.56 36.42, 14.67 39.16 C14.77 41.89, 13.6 48.06, 9.09 49.71 C4.58 51.36, -8.72 50.28, -12.39 49.06 C-16.06 47.84, -16.38 43.4, -12.92 42.39 C-9.46 41.39, 3.38 41.71, 8.39 43.01 C13.4 44.31, 17.41 47.28, 17.14 50.19 C16.88 53.11, 11.77 58.71, 6.8 60.51 C1.83 62.31, -9.69 62.29, -12.68 60.99 C-15.66 59.69, -12.62 53.99, -11.1 52.72 C-9.58 51.45, -6.96 53.07, -3.56 53.39 C-0.16 53.7, 6.25 53.35, 9.3 54.63 C12.34 55.9, 14.79 57.87, 14.72 61.02 C14.66 64.17, 13.4 71.02, 8.92 73.53 C4.43 76.04, -8.88 77.07, -12.19 76.07 C-15.49 75.08, -15.28 69.09, -10.91 67.57 C-6.54 66.06, 10.13 64.97, 14.04 66.97 C17.95 68.97, 15.03 77.25, 12.54 79.56 C10.04 81.87, 1.47 77.6, -0.92 80.81 C-3.3 84.02, -1.49 95.92, -1.76 98.83" stroke="#1e1e1e" stroke-width="2" fill="none"></path></g></g><mask></mask><g stroke-linecap="round"><g transform="translate(297.34092449054253 51.52653079266659) rotate(0 16 0)"><path d="M0.19 -0.32 C5.6 -0.34, 27.09 0.29, 32.47 0.3 M-0.38 0.71 C5 0.49, 26.82 -0.43, 32.28 -0.52" stroke="#1e1e1e" stroke-width="2" fill="none"></path></g></g><mask></mask><g stroke-linecap="round"><g transform="translate(431.34092449054253 53.52653079266659) rotate(0 15.5 0)"><path d="M0.47 0.3 C5.68 0.31, 26.38 -0.22, 31.47 -0.25 M0.04 -0.03 C5.21 0.08, 26.18 0.18, 31.28 0.32" stroke="#1e1e1e" stroke-width="2" fill="none"></path></g></g><mask></mask><g stroke-linecap="round"><g transform="translate(298.34092449054253 51.52653079266659) rotate(0 -64 0)"><path d="M1.02 -0.55 C-20.48 -0.61, -106.56 0.24, -128 0.28 M0.1 1.78 C-21.65 1.28, -107.57 -1.54, -128.95 -1.7" stroke="#1e1e1e" stroke-width="2" fill="none"></path></g></g><mask></mask><g stroke-linecap="round"><g transform="translate(122.34092449054253 13.526530792666591) rotate(0 22 36)" fill-rule="evenodd"><path d="M1.69 -0.94 C1.4 10.69, -7.06 63.49, -0.28 70.44 C6.51 77.39, 42.54 52.46, 42.4 40.76 C42.27 29.06, 5.86 6.98, -1.07 0.26" stroke="none" stroke-width="0" fill="#1e1e1e" fill-rule="evenodd"></path><path d="M0 0.28 C0.06 12.32, -6 65.17, 1.4 71.68 C8.79 78.2, 44.42 51.3, 44.37 39.38 C44.31 27.45, 8.54 6.6, 1.07 0.12 M-1.46 -0.62 C-1.61 11.64, -6.88 66.23, 0.66 73.06 C8.2 79.89, 44.2 52.33, 43.79 40.37 C43.39 28.4, 5.27 7.83, -1.79 1.29" stroke="#1e1e1e" stroke-width="2" fill="none"></path></g></g><mask></mask><g stroke-linecap="round"><g transform="translate(171.34092449054253 11.526530792666591) rotate(0 0 37.5)"><path d="M0.4 -0.32 C0.46 12.03, 0.26 61.8, 0.37 74.38 M-0.85 -1.53 C-0.92 10.95, -0.67 62.58, -0.39 75.59" stroke="#1e1e1e" stroke-width="2" fill="none"></path></g></g><mask></mask><g stroke-linecap="round"><g transform="translate(113.34092449054253 50.52653079266659) rotate(0 -42.5 37.5)"><path d="M0 0 C-29.36 2.04, -56.44 -0.54, -85 0 M0 0 C-28.16 -0.17, -58.23 -0.42, -85 0 M-85 0 C-84.55 18.24, -84.39 36.85, -85 75 M-85 0 C-86.33 28.7, -86.51 56.53, -85 75" stroke="#1e1e1e" stroke-width="2" fill="none"></path></g></g><mask></mask><g stroke-linecap="round"><g transform="translate(577.4568647601927 48.526097454505106) rotate(0 -238.1159478567842 152.00021666908074)"><path d="M0 0 C24.15 -0.95, 51.46 -0.52, 68.89 0 M0 0 C22.22 0.58, 42.12 -0.65, 68.89 0 M68.89 0 C72.93 67.29, 72.2 131.48, 71.88 304 M68.89 0 C71.8 87.89, 72.61 175.32, 71.88 304 M71.88 304 C-91.78 303.42, -255.61 302.92, -548.12 304 M71.88 304 C-139.92 306.61, -351.59 306.03, -548.12 304 M-548.12 304 C-547.61 249.93, -548.61 196.08, -548.12 123 M-548.12 304 C-549.12 244.59, -548.73 187.28, -548.12 123" stroke="#1e1e1e" stroke-width="2" fill="none"></path></g></g><mask></mask><g stroke-linecap="round"><g transform="translate(113.34092449054253 108.52653079266659) rotate(0 64.5 0)"><path d="M-0.53 0.13 C21.17 0.1, 107.63 0.1, 129.38 0.22 M1.4 -0.85 C23.04 -1.29, 107.24 -1.75, 128.63 -1.78" stroke="#1971c2" stroke-width="2" fill="none"></path></g><g transform="translate(113.34092449054253 108.52653079266659) rotate(0 64.5 0)"><path d="M105.18 6.86 C110.87 5.57, 116.54 4.54, 128.63 -1.78 M105.18 6.86 C113.11 4.69, 121.63 1.53, 128.63 -1.78" stroke="#1971c2" stroke-width="2" fill="none"></path></g><g transform="translate(113.34092449054253 108.52653079266659) rotate(0 64.5 0)"><path d="M105.11 -10.24 C110.87 -7.51, 116.55 -4.53, 128.63 -1.78 M105.11 -10.24 C112.95 -6.07, 121.49 -2.9, 128.63 -1.78" stroke="#1971c2" stroke-width="2" fill="none"></path></g></g><mask></mask></svg>